<svg width="36" height="42" viewBox="0 0 36 42" fill="none" xmlns="http://www.w3.org/2000/svg">
<path d="M18.1001 41.4998C14.6001 41.4998 11.2001 41.4998 7.70012 41.4998C6.80012 41.4998 6.50012 41.1998 6.50012 40.2998C6.50012 39.5998 6.50012 38.8998 6.50012 38.1998C6.50012 36.6998 7.80012 35.4998 9.30012 35.4998C9.70012 35.4998 10.2001 35.4998 10.6001 35.4998C11.0001 35.4998 11.1001 35.3998 11.1001 34.9998C11.1001 33.8998 11.1001 32.6998 11.1001 31.5998C11.1001 30.6998 11.3001 30.3998 12.2001 30.1998C13.5001 29.7998 14.4001 28.8998 14.9001 27.6998C15.1001 27.1998 15.2001 26.6998 15.2001 26.1998C15.2001 25.9998 15.1001 25.7998 14.9001 25.6998C12.5001 24.5998 10.9001 22.6998 9.60012 20.3998C9.20012 19.6998 9.00012 18.8998 8.50012 18.1998C8.00012 17.5998 7.20012 17.2998 6.60012 16.7998C3.50012 14.3998 1.60012 11.2998 0.900117 7.59982C0.400117 5.39982 1.70012 3.79983 4.00012 3.69983C4.70012 3.69983 5.40012 3.69983 6.10012 3.69983C6.40012 3.69983 6.60012 3.59983 6.50012 3.19983C6.50012 2.89983 6.50012 2.49983 6.60012 2.19983C6.90012 1.39983 7.60012 0.799805 8.50012 0.799805C14.9001 0.799805 21.3001 0.799805 27.7001 0.799805C28.9001 0.799805 29.7001 1.5998 29.7001 2.7998C29.7001 2.8998 29.7001 2.99983 29.7001 3.19983C29.7001 3.49983 29.8001 3.59982 30.1001 3.59982C31.0001 3.59982 31.9001 3.59982 32.8001 3.59982C34.5001 3.79982 35.8001 5.39982 35.4001 7.09982C34.5001 11.6998 32.1001 15.2998 28.1001 17.6998C27.8001 17.8998 27.7001 17.9998 27.5001 18.2998C26.7001 20.0998 25.7001 21.7998 24.3001 23.2998C23.5001 24.0998 22.6001 24.8998 21.5001 25.3998C21.1001 25.5998 21.0001 25.7998 21.0001 26.1998C21.1001 27.9998 22.3001 29.5998 24.0001 30.0998C24.9001 30.3998 25.1001 30.5998 25.1001 31.4998C25.1001 32.5998 25.1001 33.6998 25.1001 34.8998C25.1001 35.3998 25.3001 35.4998 25.7001 35.4998C26.4001 35.4998 27.1001 35.3998 27.9001 35.6998C29.0001 36.0998 29.7001 37.0998 29.7001 38.2998C29.7001 38.9998 29.7001 39.7998 29.7001 40.4998C29.7001 41.2998 29.4001 41.5998 28.6001 41.5998C25.0001 41.4998 21.5001 41.4998 18.1001 41.4998ZM18.0001 2.7998C15.0001 2.7998 12.0001 2.7998 8.90012 2.7998C8.30012 2.7998 8.30012 2.79981 8.30012 3.39981C8.30012 4.89981 8.30012 6.49982 8.30012 7.99982C8.30012 8.99982 8.40012 9.99981 8.50012 10.8998C8.80012 13.3998 9.40012 15.7998 10.5001 17.9998C11.4001 19.8998 12.5001 21.6998 14.2001 22.8998C16.0001 24.2998 18.1001 24.6998 20.2001 23.7998C21.8001 23.0998 23.0001 21.8998 24.0001 20.4998C26.3001 17.1998 27.2001 13.4998 27.5001 9.59982C27.7001 7.49982 27.6001 5.49981 27.6001 3.39981C27.6001 2.79981 27.6001 2.7998 27.0001 2.7998C24.1001 2.7998 21.0001 2.7998 18.0001 2.7998ZM18.0001 39.5998C20.9001 39.5998 23.9001 39.5998 26.8001 39.5998C27.7001 39.5998 27.6001 39.6998 27.6001 38.7998C27.6001 37.7998 27.3001 37.4998 26.3001 37.4998C20.7001 37.4998 15.2001 37.4998 9.60012 37.4998C9.50012 37.4998 9.40012 37.4998 9.20012 37.4998C8.70012 37.4998 8.30012 37.8998 8.30012 38.3998C8.30012 38.5998 8.30012 38.7998 8.30012 38.9998C8.30012 39.5998 8.30012 39.5998 8.90012 39.5998C12.0001 39.5998 15.0001 39.5998 18.0001 39.5998ZM18.0001 35.4998C19.5001 35.4998 21.1001 35.4998 22.6001 35.4998C23.0001 35.4998 23.1001 35.3998 23.1001 34.9998C23.1001 34.1998 23.1001 33.3998 23.1001 32.5998C23.1001 32.2998 23.0001 32.1998 22.7001 32.1998C19.6001 32.1998 16.4001 32.1998 13.3001 32.1998C13.0001 32.1998 12.9001 32.2998 12.9001 32.5998C12.9001 33.3998 12.9001 34.1998 12.9001 34.9998C12.9001 35.3998 13.0001 35.5998 13.4001 35.4998C15.0001 35.4998 16.5001 35.4998 18.0001 35.4998ZM7.30012 14.8998C7.30012 14.6998 7.30012 14.6998 7.30012 14.5998C6.70012 12.1998 6.40012 9.79981 6.40012 7.39981C6.40012 6.89981 6.40012 6.49982 6.40012 5.99982C6.40012 5.69982 6.30012 5.59982 6.00012 5.59982C5.20012 5.59982 4.30012 5.59982 3.50012 5.59982C2.90012 5.59982 2.40012 6.1998 2.60012 6.7998C3.10012 9.1998 4.00012 11.2998 5.60012 13.1998C6.10012 13.7998 6.60012 14.3998 7.30012 14.8998ZM28.7001 14.7998C28.9001 14.7998 29.1001 14.5998 29.2001 14.4998C31.4001 12.4998 32.8001 9.89982 33.4001 6.99982C33.5001 6.29982 33.1001 5.69983 32.4001 5.69983C31.7001 5.69983 30.9001 5.69983 30.2001 5.69983C29.7001 5.69983 29.6001 5.7998 29.6001 6.2998C29.6001 8.0998 29.6001 9.89983 29.3001 11.6998C29.2001 12.6998 29.0001 13.6998 28.7001 14.7998ZM20.5001 30.1998C20.5001 29.9998 20.4001 29.8998 20.3001 29.7998C19.8001 29.1998 19.5001 28.3998 19.3001 27.5998C19.2001 27.1998 19.3001 26.4998 18.9001 26.2998C18.5001 26.0998 18.0001 26.2998 17.5001 26.1998C17.2001 26.1998 17.0001 26.2998 17.0001 26.5998C16.9001 27.7998 16.5001 28.8998 15.7001 29.8998C15.7001 29.9998 15.6001 29.9998 15.7001 30.0998C17.2001 30.1998 18.9001 30.1998 20.5001 30.1998Z" fill="#E6D11D"/>
<path d="M14.1002 16.1997C14.2002 15.4997 14.3002 14.6997 14.5002 13.8997C14.6002 13.5997 14.5002 13.4997 14.3002 13.2997C13.7002 12.6997 13.2002 12.1997 12.6002 11.5997C12.3002 11.2997 12.1002 10.9997 12.3002 10.4997C12.4002 9.99969 12.8002 9.89968 13.2002 9.79968C14.0002 9.69968 14.7002 9.49969 15.5002 9.39969C15.8002 9.39969 15.9002 9.19969 16.0002 8.99969C16.3002 8.29969 16.7002 7.69969 17.0002 6.99969C17.2002 6.59969 17.5002 6.19971 18.0002 6.19971C18.5002 6.19971 18.8002 6.49969 19.0002 6.99969C19.3002 7.59969 19.6002 8.29969 19.9002 8.89969C20.0002 9.19969 20.2002 9.29968 20.5002 9.29968C21.3002 9.39968 22.0002 9.4997 22.8002 9.5997C23.2002 9.6997 23.6002 9.79968 23.7002 10.2997C23.9002 10.7997 23.7002 11.0997 23.4002 11.3997C22.8002 11.9997 22.3002 12.4997 21.7002 13.0997C21.5002 13.2997 21.4002 13.4997 21.5002 13.6997C21.6002 14.3997 21.8002 15.0997 21.9002 15.7997C22.0002 16.5997 21.8002 17.0997 21.1002 17.1997C20.8002 17.2997 20.6002 17.1997 20.4002 16.9997C19.7002 16.6997 19.1002 16.2997 18.4002 15.8997C18.1002 15.6997 17.9002 15.6997 17.6002 15.8997C16.9002 16.2997 16.2002 16.5997 15.6002 16.9997C14.7002 17.6997 14.1002 17.1997 14.1002 16.1997ZM15.4002 11.3997C15.4002 11.4997 15.4002 11.4997 15.4002 11.5997C15.5002 11.6997 15.6002 11.7997 15.7002 11.8997C16.5002 12.4997 16.7002 13.1997 16.5002 14.0997C16.5002 14.1997 16.4002 14.3997 16.5002 14.4997C16.6002 14.5997 16.8002 14.4997 16.9002 14.3997C17.6002 13.9997 18.2002 13.6997 19.0002 14.2997C19.2002 14.3997 19.5002 14.6997 19.6002 14.4997C19.8002 14.3997 19.6002 13.9997 19.6002 13.7997C19.4002 12.9997 19.7002 12.3997 20.3002 11.9997C20.5002 11.8997 20.7002 11.7997 20.7002 11.5997C20.7002 11.5997 18.1002 9.79971 18.0002 9.69971C17.6002 10.9997 16.7002 11.4997 15.4002 11.3997Z" fill="#E6D11D"/>
</svg>
