<svg width="12" height="21" viewBox="0 0 12 21" fill="none" xmlns="http://www.w3.org/2000/svg">
<path d="M4.10005 6.70001C4.20005 7.60001 4.30005 7.79998 5.20005 8.09998C6.30005 8.49998 7.40005 8.80001 8.50005 9.20001C10.4 9.90001 11.7001 11.8 11.7001 13.8C11.7001 16.1 10.9 17.9 8.80005 19C8.60005 19.1 8.50005 19.1 8.30005 19.2C8.10005 19.4 7.80005 19.5 7.60005 19.8C7.10005 20.5 6.50005 20.9 5.70005 20.8C4.90005 20.7 4.40005 20.3 4.10005 19.5C4.00005 19.3 3.90005 19.1 3.70005 19.1C2.40005 18.6 1.50005 17.6 0.900049 16.3C0.400049 15.3 0.70005 14.2 1.60005 13.7C2.50005 13.2 3.70005 13.6 4.30005 14.5C4.90005 15.6 5.80005 15.9 7.00005 15.6C7.70005 15.4 7.90005 14.9 8.00005 14.3C8.10005 13.8 8.20005 13.1 7.60005 12.8C6.80005 12.4 5.90005 12.1 5.00005 11.9C3.30005 11.4 1.70005 10.6 0.900049 8.79999C-0.399951 6.09999 1.10005 2.49998 3.80005 1.59998C4.00005 1.49998 4.20005 1.29998 4.30005 1.09998C4.70005 0.399976 5.30005 0 6.10005 0C6.90005 0 7.40005 0.399976 7.80005 1.09998C7.90005 1.29998 8.10005 1.49998 8.40005 1.59998C9.90005 2.29998 11.0001 3.30002 11.4001 4.90002C11.7001 6.00002 11.2001 6.90001 10.2001 7.20001C9.20005 7.50001 8.20005 7.09998 7.80005 6.09998C7.30005 4.89998 5.50005 4.59998 4.60005 5.59998C4.30005 6.09998 4.20005 6.40001 4.10005 6.70001Z" fill="#FCCD8E"/>
</svg>
