<svg width="30" height="27" viewBox="0 0 30 27" fill="none" xmlns="http://www.w3.org/2000/svg">
<path d="M29.2 7.40031C29 12.4003 27.1 16.7003 24.1 20.5003C22.5 22.5003 20.7 24.1003 18.4 25.3003C15.9 26.7003 13.4 26.7003 11 25.2003C6.4 22.5003 3.5 18.5003 1.6 13.7003C0.899999 12.0003 0.6 10.3003 0.3 8.50031C-2.38419e-07 6.60031 0.300001 4.80031 1.2 3.10031C2.7 0.100309 5.9 -0.59969 9.3 1.00031C10.9 1.80031 12.3 2.80031 13.5 4.10031C15 5.60031 14.7 5.40031 16.1 4.10031C17.8 2.50031 19.6 1.20031 21.9 0.600309C25.2 -0.399691 28.1 1.20031 28.9 4.50031C29 5.40031 29.2 6.40031 29.2 7.40031Z" fill="#F47F62"/>
</svg>
