<svg width="124" height="102" viewBox="0 0 124 102" fill="none" xmlns="http://www.w3.org/2000/svg">
<path d="M1.00004 12.3999C0.700039 11.5999 1.20004 11.3999 2.20004 11.2999C9.50004 10.5999 16.8 9.79992 24 9.09992C30.3 8.49992 36.6 7.8999 42.8 7.2999C48.9 6.6999 55.1 5.99991 61.2 5.39991C66.7 4.79991 72.1 4.2999 77.6 3.7999C85.1 2.9999 92.6 2.29991 100 1.49991C104.4 1.09991 108.8 0.599926 113.2 0.199926C113.8 0.0999257 114.1 0.299914 114.2 0.999914C114.7 6.39991 115.3 11.7999 115.8 17.1999C116.3 21.8999 116.8 26.5999 117.3 31.2999C118.1 38.8999 118.8 46.4999 119.6 54.0999C120.3 60.8999 121 67.6999 121.7 74.5999C122.2 79.3999 122.6 84.2999 123.2 89.0999C123.3 89.8999 123 90.1999 122.2 90.2999C112.3 91.2999 102.5 92.2999 92.6 93.2999C85.8 93.9999 79 94.6999 72.2 95.3999C64.8 96.1999 57.3 96.8999 49.9 97.5999C42.4 98.3999 34.9 99.0999 27.4 99.8999C22 100.4 16.7 101 11.3 101.5C10.4 101.6 10 101.4 9.90004 100.4C9.40004 94.5999 8.80004 88.7999 8.20004 82.8999C7.70004 77.5999 7.10004 72.2999 6.60004 66.9999C6.20004 62.5999 5.80004 58.1999 5.30004 53.7999C4.80004 48.9999 4.30004 44.0999 3.80004 39.2999C3.30004 34.5999 2.80004 29.8999 2.40004 25.2999C1.80004 20.8999 1.40004 16.7999 1.00004 12.3999ZM14.2 97.2999C19.3 96.7999 24.1 96.2999 29 95.7999C32.9 95.3999 36.8 94.9999 40.7 94.5999C45.6 94.0999 50.5 93.5999 55.4 93.0999C59.7 92.6999 63.9 92.1999 68.2 91.7999C72.2 91.3999 76.3 90.9999 80.3 90.5999C85.3 90.0999 90.3 89.5999 95.2 89.0999C99.4 88.6999 103.5 88.2999 107.7 87.7999C111.2 87.4999 114.7 87.0999 118.1 86.7999C118.8 86.6999 119.1 86.4999 119 85.6999C118.7 83.3999 118.5 80.9999 118.3 78.6999C117.4 69.9999 116.5 61.2999 115.6 52.5999C114.8 45.0999 114.1 37.4999 113.4 29.9999C112.6 21.5999 111.7 13.2999 110.9 4.89991C110.8 4.19991 110.6 3.99992 109.9 4.09992C103.9 4.69992 97.9 5.29991 91.9 5.89991C83.7 6.69991 75.6 7.4999 67.4 8.2999C60.7 8.9999 54 9.69991 47.3 10.3999C39.8 11.1999 32.3 11.8999 24.8 12.5999C19 13.1999 13.2 13.6999 7.40004 14.3999C4.20004 14.7999 4.80004 14.1999 5.10004 17.2999C5.50004 22.0999 6.10004 26.7999 6.60004 31.5999C7.20004 37.1999 7.70004 42.7999 8.20004 48.4999C8.70004 53.4999 9.20004 58.3999 9.70004 63.3999C10.2 67.9999 10.6 72.6999 11.1 77.2999C11.7 83.5999 12.4 89.7999 13 96.0999C13.2 97.0999 13.4 97.4999 14.2 97.2999Z" fill="#EF3D3C"/>
<path d="M24.0998 45.6999C24.1998 45.3999 24.3998 45.1999 24.5998 44.9999C24.7998 44.7999 25.0998 44.6999 25.4998 44.5999C25.7998 44.4999 26.1998 44.3999 26.5998 44.3999C27.1998 44.2999 27.6998 44.2999 28.2998 44.2999C28.8998 44.2999 29.3998 44.2999 29.8998 44.3999V44.2999C29.6998 44.1999 29.3998 44.0999 29.0998 43.9999C28.7998 43.8999 28.3998 43.8999 28.0998 43.7999C27.6998 43.7999 27.3998 43.6999 26.9998 43.6999C26.5998 43.6999 26.2998 43.6999 25.8998 43.7999L24.5998 32.8999C23.3998 33.0999 22.8998 33.3999 22.8998 33.9999L22.9998 34.5999C23.0998 35.0999 22.9998 35.4999 22.7998 35.7999C22.5998 36.0999 22.1998 36.2999 21.5998 36.3999L19.5998 36.5999L18.7998 29.8999L35.4998 27.8999L36.2998 34.5999L34.1998 34.7999C33.5998 34.8999 33.1998 34.7999 32.9998 34.4999C32.6998 34.1999 32.5998 33.8999 32.4998 33.3999L32.3998 32.7999C32.2998 32.3999 31.8998 32.0999 31.1998 31.9999C30.3998 31.8999 29.1998 31.9999 27.4998 32.1999C27.2998 32.1999 26.9998 32.2999 26.7998 32.2999C26.5998 32.2999 26.2998 32.3999 26.0998 32.3999V32.5999C27.0998 32.5999 27.9998 32.5999 28.7998 32.5999C29.5998 32.5999 30.1998 32.6999 30.6998 32.6999L32.0998 44.4999C32.8998 44.4999 33.4998 44.6999 33.7998 44.9999C34.1998 45.2999 34.3998 45.6999 34.3998 46.2999L34.5998 48.0999L24.3998 49.2999L24.0998 46.6999C23.9998 46.2999 23.9998 45.9999 24.0998 45.6999Z" fill="#EF3D3C"/>
<path d="M50.2998 29.8003C49.8998 29.8003 49.4998 29.7003 49.2998 29.4003C49.0998 29.1003 48.8998 28.7003 48.8998 28.3003L48.6998 26.4003L57.9998 25.3003L58.1998 27.1003C58.2998 27.8003 58.1998 28.3003 57.7998 28.6003C57.4998 28.9003 56.9998 29.1003 56.3998 29.2003C56.5998 31.1003 56.7998 33.0003 57.0998 34.9003C57.2998 36.8003 57.4998 38.7003 57.7998 40.7003C56.9998 40.9003 56.1998 41.3003 55.3998 41.6003C54.5998 42.0003 53.8998 42.4003 53.1998 42.8003L53.2998 43.0003C53.6998 42.8003 53.9998 42.7003 54.4998 42.5003C54.8998 42.3003 55.2998 42.2003 55.7998 42.0003C56.1998 41.9003 56.6998 41.7003 57.0998 41.6003C57.4998 41.5003 57.8998 41.4003 58.2998 41.3003C58.8998 41.2003 59.3998 41.3003 59.6998 41.6003C59.9998 41.9003 60.0998 42.3003 60.1998 42.9003L60.3998 44.9003L50.4998 46.1003L50.2998 44.8003C50.2998 44.6003 50.2998 44.3003 50.3998 44.2003C50.4998 44.0003 50.5998 43.9003 50.7998 43.8003C50.9998 43.7003 51.1998 43.6003 51.3998 43.5003C51.5998 43.4003 51.8998 43.4003 52.0998 43.3003L51.3998 37.2003L47.0998 37.7003L47.5998 41.8003C47.9998 41.7003 48.3998 41.9003 48.5998 42.2003C48.7998 42.5003 48.9998 43.0003 48.9998 43.5003L49.2998 46.4003L40.0998 47.5003L39.8998 45.7003C39.8998 45.4003 39.8998 45.1003 39.9998 44.9003C40.0998 44.7003 40.1998 44.5003 40.3998 44.3003C40.5998 44.1003 40.7998 44.0003 40.9998 43.9003C41.1998 43.8003 41.3998 43.7003 41.5998 43.6003L40.2998 32.1003C41.0998 31.9003 41.8998 31.5003 42.6998 31.2003C43.4998 30.8003 44.1998 30.4003 44.8998 30.0003L44.7998 29.8003C44.3998 30.0003 44.0998 30.1003 43.5998 30.3003C43.1998 30.5003 42.6998 30.6003 42.2998 30.8003C41.8998 30.9003 41.3998 31.1003 40.9998 31.2003C40.5998 31.3003 40.1998 31.4003 39.7998 31.5003C39.2998 31.6003 38.8998 31.5003 38.5998 31.2003C38.2998 30.9003 38.0998 30.6003 38.0998 30.2003L37.7998 27.8003L47.3998 26.7003L47.4998 27.9003C47.4998 28.1003 47.4998 28.4003 47.3998 28.5003C47.2998 28.7003 47.1998 28.8003 46.9998 29.0003C46.7998 29.1003 46.5998 29.2003 46.3998 29.3003C46.1998 29.4003 45.9998 29.4003 45.7998 29.5003L46.3998 34.2003L50.6998 33.7003L50.2998 29.8003Z" fill="#EF3D3C"/>
<path d="M78.8999 34.5C79.0999 35.9 79.0999 37 78.8999 38C78.6999 39 78.3999 39.8 78.0999 40.5C77.6999 41.2 77.2999 41.7 76.6999 42.2C76.1999 42.6 75.6999 43 75.0999 43.2C74.5999 43.5 74.0999 43.6 73.5999 43.7C73.0999 43.8 72.6999 43.9 72.3999 43.9C71.1999 44 70.0999 44 69.0999 43.9C68.0999 43.7 67.1999 43.4 66.4999 42.8C65.7999 42.2 65.0999 41.4 64.5999 40.3C64.0999 39.2 63.7999 37.8 63.5999 36.1L62.8999 29.8C63.2999 29.7 63.7999 29.5 64.1999 29.4C64.6999 29.2 65.0999 29 65.5999 28.8C65.9999 28.6 66.3999 28.4 66.6999 28.2C66.9999 28 67.2999 27.9 67.3999 27.8L67.2999 27.6C66.8999 27.8 66.2999 28 65.5999 28.2C64.8999 28.5 64.0999 28.6 63.3999 28.7C63.0999 28.7 62.6999 28.7 62.3999 28.7C62.0999 28.7 61.7999 28.6 61.5999 28.5C61.3999 28.4 61.1999 28.2 60.9999 28C60.7999 27.8 60.6999 27.5 60.6999 27.1L60.3999 24.8L70.3999 23.6L70.5999 25.4C70.6999 26 70.4999 26.4 70.1999 26.7C69.8999 27 69.3999 27.2 68.5999 27.3L69.4999 34.8C69.5999 35.6 69.6999 36.3 69.8999 36.9C69.9999 37.5 70.2999 38.1 70.4999 38.5C70.7999 38.9 71.0999 39.3 71.4999 39.5C71.8999 39.7 72.3999 39.8 72.9999 39.7C73.1999 39.7 73.4999 39.6 73.7999 39.5C74.0999 39.4 74.3999 39.2 74.5999 38.8C74.8999 38.5 74.9999 38 75.1999 37.3C75.2999 36.7 75.2999 35.8 75.1999 34.7L74.4999 28.6C74.9999 28.4 75.4999 28.2 75.7999 28C76.1999 27.7 76.4999 27.5 76.6999 27.3L76.5999 27.2C76.1999 27.3 75.7999 27.5 75.2999 27.6C74.8999 27.7 74.4999 27.8 74.0999 27.9C73.5999 28 73.0999 27.9 72.7999 27.7C72.3999 27.5 72.1999 27.1 72.0999 26.4L71.7999 23.4L79.6999 22.5L79.8999 24.6C79.9999 25.2 79.8999 25.6 79.5999 25.9C79.2999 26.2 78.8999 26.5 78.2999 26.7L78.8999 34.5Z" fill="#EF3D3C"/>
<path d="M99.4 34.4001L99.1 34.6001C98.6 34.8001 98.1 35.1001 97.5 35.4001C96.9 35.7001 96.3 36.1001 95.7 36.7001L95.8 36.8001C96.1 36.6001 96.4 36.4001 96.8 36.2001C97.2 36.0001 97.6 35.8001 98.1 35.6001C98.5 35.4001 99 35.3001 99.4 35.2001C99.8 35.1001 100.2 35.0001 100.6 35.0001C101.7 34.9001 102.4 35.7001 102.6 37.5001L102.9 40.1001L92.8 41.3001L92.6 39.6001C92.5 39.1001 92.7 38.7001 92.9 38.5001C93.2 38.2001 93.4 38.0001 93.7 37.9001L92 34.3001L88.9 34.7001L88.5 36.7001C88 36.8001 87.6 37.0001 87.1 37.2001C86.6 37.4001 86.2 37.7001 85.8 37.9001L85.9 38.1001C86.5 37.9001 87 37.7001 87.4 37.6001C87.9 37.5001 88.2 37.4001 88.5 37.3001C88.7 37.3001 88.8 37.3001 89 37.3001C89.2 37.4001 89.4 37.5001 89.5 37.7001C89.7 37.9001 89.8 38.1001 90 38.4001C90.1 38.7001 90.2 39.1001 90.3 39.5001L90.5 41.5001L82.2 42.5001L82 40.7001C82 40.4001 82 40.1001 82.1 39.9001C82.2 39.7001 82.4 39.5001 82.6 39.3001C82.8 39.1001 83.1 39.0001 83.3 38.9001C83.6 38.8001 83.9 38.7001 84.2 38.6001L88.2 21.6001L92.1 21.1001L99.4 34.4001ZM91 30.8001L89.7 25.9001H89.5L89.4 31.0001L91 30.8001Z" fill="#EF3D3C"/>
<path d="M39.0996 76.8001C38.9996 76.4001 39.0996 76.0001 39.1996 75.7001C39.2996 75.4001 39.4996 75.2001 39.7996 75.0001C39.9996 74.8001 40.2996 74.7001 40.5996 74.6001C40.8996 74.5001 41.1996 74.4001 41.4996 74.4001C41.8996 74.4001 42.1996 74.3001 42.3996 74.4001L42.8996 78.4001C42.6996 78.9001 42.3996 79.4001 41.9996 79.8001C41.5996 80.3001 41.1996 80.7001 40.5996 81.1001C40.0996 81.5001 39.3996 81.8001 38.6996 82.1001C37.9996 82.4001 37.1996 82.6001 36.2996 82.7001C34.8996 82.9001 33.5996 82.8001 32.3996 82.4001C31.1996 82.0001 30.0996 81.5001 29.0996 80.7001C28.0996 79.9001 27.3996 78.9001 26.6996 77.7001C26.0996 76.5001 25.6996 75.1001 25.4996 73.6001C25.2996 72.1001 25.3996 70.7001 25.5996 69.4001C25.8996 68.1001 26.2996 66.9001 26.8996 66.0001C27.4996 65.0001 28.3996 64.2001 29.3996 63.6001C30.3996 63.0001 31.5996 62.6001 32.8996 62.4001C33.5996 62.3001 34.2996 62.3001 34.8996 62.4001C35.4996 62.5001 36.0996 62.6001 36.5996 62.8001C37.0996 63.0001 37.5996 63.2001 38.0996 63.4001C38.5996 63.7001 38.9996 63.9001 39.3996 64.2001L39.4996 64.1001C38.9996 63.6001 38.5996 63.3001 38.2996 63.1001C37.9996 62.9001 37.6996 62.7001 37.4996 62.6001C37.4996 62.6001 37.3996 62.6001 37.3996 62.5001L37.2996 62.4001C37.4996 62.1001 37.8996 61.9001 38.4996 61.8001L40.5996 61.6001L41.4996 69.7001L39.3996 69.9001C38.7996 70.0001 38.3996 69.9001 38.1996 69.6001C37.8996 69.3001 37.7996 69.0001 37.6996 68.4001C37.6996 68.1001 37.5996 67.8001 37.3996 67.5001C37.1996 67.2001 36.9996 66.9001 36.7996 66.7001C36.4996 66.5001 36.1996 66.3001 35.8996 66.2001C35.4996 66.1001 35.0996 66.1001 34.6996 66.1001C33.4996 66.2001 32.6996 66.9001 32.1996 68.1001C31.6996 69.3001 31.5996 70.9001 31.7996 72.9001C31.9996 74.9001 32.5996 76.5001 33.2996 77.5001C34.0996 78.5001 35.0996 79.0001 36.4996 78.8001C37.1996 78.7001 37.7996 78.5001 38.1996 78.2001C38.0996 78.5001 37.7996 78.9001 37.2996 79.4001C36.7996 79.8001 36.0996 80.3001 35.1996 80.8001L35.2996 81.0001C36.5996 80.5001 37.5996 79.9001 38.1996 79.2001C38.9996 78.6001 39.1996 77.8001 39.0996 76.8001Z" fill="#EF3D3C"/>
<path d="M61.8999 71.1001C62.0999 72.5001 62.0999 73.6001 61.8999 74.6001C61.6999 75.6001 61.3999 76.4001 61.0999 77.1001C60.6999 77.8001 60.2999 78.3001 59.6999 78.8001C59.1999 79.2001 58.6999 79.6001 58.0999 79.8001C57.5999 80.1001 57.0999 80.2001 56.5999 80.3001C56.0999 80.4001 55.6999 80.5001 55.3999 80.5001C54.1999 80.6001 53.0999 80.6001 52.0999 80.5001C51.0999 80.3001 50.1999 80.0001 49.4999 79.4001C48.7999 78.8001 48.0999 78.0001 47.5999 76.9001C47.0999 75.8001 46.7999 74.4001 46.5999 72.7001L45.8999 66.4001C46.2999 66.3001 46.7999 66.1001 47.1999 66.0001C47.6999 65.8001 48.0999 65.6001 48.5999 65.4001C48.9999 65.2001 49.3999 65.0001 49.6999 64.8001C49.9999 64.6001 50.2999 64.5001 50.3999 64.4001L50.2999 64.2001C49.8999 64.4001 49.2999 64.6001 48.5999 64.8001C47.8999 65.1001 47.0999 65.2001 46.3999 65.3001C46.0999 65.3001 45.6999 65.3001 45.3999 65.3001C45.0999 65.3001 44.7999 65.2001 44.5999 65.1001C44.3999 65.0001 44.1999 64.8001 43.9999 64.6001C43.7999 64.4001 43.6999 64.1001 43.6999 63.7001L43.3999 61.4001L53.3999 60.2001L53.5999 62.0001C53.6999 62.6001 53.4999 63.0001 53.1999 63.3001C52.8999 63.6001 52.3999 63.8001 51.5999 63.9001L52.4999 71.4001C52.5999 72.2001 52.6999 72.9001 52.8999 73.5001C52.9999 74.1001 53.2999 74.7001 53.4999 75.1001C53.7999 75.5001 54.0999 75.9001 54.4999 76.1001C54.8999 76.3001 55.3999 76.4001 55.9999 76.3001C56.1999 76.3001 56.4999 76.2001 56.7999 76.1001C57.0999 76.0001 57.3999 75.8001 57.5999 75.4001C57.8999 75.1001 57.9999 74.6001 58.1999 73.9001C58.2999 73.3001 58.2999 72.4001 58.1999 71.3001L57.4999 65.2001C57.9999 65.0001 58.4999 64.8001 58.7999 64.6001C59.1999 64.3001 59.4999 64.1001 59.6999 63.9001L59.5999 63.8001C59.1999 63.9001 58.7999 64.1001 58.2999 64.2001C57.8999 64.3001 57.4999 64.4001 57.0999 64.5001C56.5999 64.6001 56.0999 64.5001 55.7999 64.3001C55.3999 64.1001 55.1999 63.7001 55.0999 63.0001L54.7999 60.0001L62.6999 59.1001L62.8999 61.2001C62.9999 61.8001 62.8999 62.2001 62.5999 62.5001C62.2999 62.8001 61.8999 63.1001 61.2999 63.3001L61.8999 71.1001Z" fill="#EF3D3C"/>
<path d="M74.2997 57.6003C75.6997 57.4003 76.9997 57.5003 78.2997 57.9003C79.5997 58.3003 80.6997 58.9003 81.6997 59.7003C82.6997 60.5003 83.4997 61.5003 84.0997 62.7003C84.6997 63.9003 85.0997 65.2003 85.2997 66.7003C85.4997 68.3003 85.3997 69.8003 84.9997 71.1003C84.5997 72.4003 83.9997 73.6003 83.1997 74.6003C82.3997 75.6003 81.3997 76.4003 80.2997 77.0003C79.1997 77.6003 77.9997 78.0003 76.7997 78.1003C75.5997 78.2003 74.2997 78.2003 73.0997 77.8003C71.8997 77.5003 70.6997 76.9003 69.6997 76.2003C68.6997 75.4003 67.7997 74.5003 67.0997 73.2003C66.3997 72.0003 65.9997 70.6003 65.7997 68.9003C65.5997 67.3003 65.6997 65.8003 66.0997 64.5003C66.4997 63.2003 67.0997 62.0003 67.8997 61.0003C68.6997 60.0003 69.6997 59.2003 70.7997 58.6003C71.8997 58.1003 73.0997 57.7003 74.2997 57.6003ZM73.4997 50.1003C73.9997 50.0003 74.2997 50.1003 74.5997 50.3003C74.7997 50.5003 74.9997 50.8003 75.1997 51.2003C75.2997 51.5003 75.4997 51.8003 75.7997 52.2003C75.9997 52.6003 76.2997 52.9003 76.5997 53.3003C76.8997 53.6003 77.1997 54.0003 77.5997 54.3003C77.9997 54.6003 78.2997 54.9003 78.6997 55.1003C78.4997 55.4003 78.3997 55.7003 78.0997 55.9003C77.8997 56.1003 77.5997 56.4003 77.3997 56.5003C77.0997 56.7003 76.8997 56.8003 76.5997 56.8003C76.2997 56.9003 76.0997 56.8003 75.7997 56.7003C75.5997 56.6003 75.3997 56.5003 75.1997 56.3003C74.9997 56.1003 74.7997 56.0003 74.5997 55.9003C74.8997 55.3003 75.1997 54.6003 75.2997 53.9003C75.3997 53.2003 75.4997 52.7003 75.4997 52.2003H75.2997C75.1997 52.9003 74.9997 53.5003 74.7997 54.0003C74.5997 54.5003 74.3997 55.0003 74.0997 55.6003C73.6997 56.1003 73.2997 56.6003 72.7997 57.0003C72.5997 57.2003 72.2997 57.2003 71.9997 57.3003C71.6997 57.3003 71.3997 57.3003 71.0997 57.2003C70.7997 57.1003 70.4997 57.0003 70.1997 56.8003C69.8997 56.6003 69.6997 56.4003 69.3997 56.1003C69.6997 55.8003 69.9997 55.5003 70.2997 55.1003C70.5997 54.7003 70.7997 54.3003 70.9997 53.9003C71.1997 53.5003 71.3997 53.1003 71.5997 52.7003C71.6997 52.3003 71.8997 51.9003 71.8997 51.6003C71.9997 51.2003 72.0997 50.8003 72.2997 50.6003C72.6997 50.3003 72.9997 50.2003 73.4997 50.1003ZM72.0997 68.2003C72.1997 68.8003 72.2997 69.5003 72.4997 70.3003C72.6997 71.0003 72.8997 71.7003 73.1997 72.3003C73.4997 72.9003 73.8997 73.4003 74.3997 73.8003C74.8997 74.2003 75.4997 74.3003 76.1997 74.2003C76.7997 74.1003 77.3997 73.9003 77.7997 73.6003C78.1997 73.3003 78.4997 72.8003 78.6997 72.2003C78.8997 71.6003 78.9997 70.9003 78.9997 70.1003C78.9997 69.3003 78.9997 68.4003 78.7997 67.4003C78.6997 66.4003 78.4997 65.5003 78.2997 64.7003C78.0997 63.9003 77.7997 63.3003 77.4997 62.7003C77.1997 62.2003 76.7997 61.8003 76.2997 61.6003C75.7997 61.4003 75.2997 61.3003 74.5997 61.4003C73.9997 61.5003 73.3997 61.7003 72.9997 62.0003C72.5997 62.3003 72.2997 62.8003 72.0997 63.4003C71.8997 64.0003 71.7997 64.7003 71.7997 65.5003C71.8997 66.3003 71.9997 67.2003 72.0997 68.2003ZM75.0997 80.9003C74.9997 80.4003 75.1997 79.9003 75.4997 79.5003C75.7997 79.1003 76.2997 78.8003 76.7997 78.8003C77.2997 78.7003 77.7997 78.9003 78.1997 79.2003C78.5997 79.5003 78.8997 79.9003 78.8997 80.5003C78.9997 81.0003 78.7997 81.4003 78.4997 81.8003C78.1997 82.2003 77.6997 82.4003 77.1997 82.5003C76.6997 82.6003 76.1997 82.4003 75.7997 82.1003C75.3997 81.8003 75.0997 81.4003 75.0997 80.9003Z" fill="#EF3D3C"/>
<path d="M100.9 69.5999C100.8 69.1999 100.9 68.7999 101 68.4999C101.1 68.1999 101.3 67.9999 101.6 67.7999C101.8 67.5999 102.1 67.4999 102.4 67.3999C102.7 67.2999 103 67.1999 103.3 67.1999C103.7 67.1999 104 67.0999 104.2 67.1999L104.7 71.1999C104.5 71.6999 104.2 72.1999 103.8 72.5999C103.4 73.0999 103 73.4999 102.4 73.8999C101.9 74.2999 101.2 74.5999 100.5 74.8999C99.7999 75.1999 98.9999 75.3999 98.0999 75.4999C96.6999 75.6999 95.3999 75.5999 94.1999 75.1999C92.9999 74.7999 91.8999 74.2999 90.8999 73.4999C89.8999 72.6999 89.1999 71.6999 88.4999 70.4999C87.8999 69.2999 87.4999 67.8999 87.2999 66.3999C87.0999 64.8999 87.1999 63.4999 87.3999 62.1999C87.5999 60.8999 88.0999 59.6999 88.6999 58.7999C89.2999 57.7999 90.1999 56.9999 91.1999 56.3999C92.1999 55.7999 93.3999 55.3999 94.6999 55.1999C95.3999 55.0999 96.0999 55.0999 96.6999 55.1999C97.2999 55.2999 97.8999 55.3999 98.3999 55.5999C98.8999 55.7999 99.3999 55.9999 99.8999 56.1999C100.4 56.4999 100.8 56.6999 101.2 56.9999L101.3 56.8999C100.8 56.3999 100.4 56.0999 100.1 55.8999C99.7999 55.6999 99.4999 55.4999 99.2999 55.3999C99.2999 55.3999 99.1999 55.3999 99.1999 55.2999L99.0999 55.1999C99.2999 54.8999 99.6999 54.6999 100.3 54.5999L102.4 54.3999L103.3 62.4999L101.2 62.6999C100.6 62.7999 100.2 62.6999 99.9999 62.3999C99.6999 62.0999 99.5999 61.7999 99.4999 61.1999C99.4999 60.8999 99.3999 60.5999 99.1999 60.2999C98.9999 59.9999 98.7999 59.6999 98.5999 59.4999C98.2999 59.2999 97.9999 59.0999 97.6999 58.9999C97.2999 58.8999 96.8999 58.8999 96.4999 58.8999C95.2999 58.9999 94.4999 59.6999 93.9999 60.8999C93.4999 62.0999 93.3999 63.6999 93.5999 65.6999C93.7999 67.6999 94.3999 69.2999 95.0999 70.2999C95.8999 71.2999 96.8999 71.7999 98.2999 71.5999C98.9999 71.4999 99.5999 71.2999 99.9999 70.9999C99.8999 71.2999 99.5999 71.6999 99.0999 72.1999C98.5999 72.5999 97.8999 73.0999 96.9999 73.5999L97.0999 73.7999C98.3999 73.2999 99.3999 72.6999 99.9999 71.9999C100.8 71.2999 101 70.4999 100.9 69.5999Z" fill="#EF3D3C"/>
</svg>
