<svg width="19" height="19" viewBox="0 0 19 19" fill="none" xmlns="http://www.w3.org/2000/svg">
<path d="M17.7999 8.20024C15.4999 8.20024 13.1999 8.20024 10.7999 8.20024C10.7999 5.90024 10.7999 3.60024 10.7999 1.20024C10.7999 -0.399756 8.29985 -0.399756 8.29985 1.20024C8.29985 3.50024 8.29985 5.80024 8.29985 8.20024C5.99985 8.20024 3.69985 8.20024 1.29985 8.20024C-0.300146 8.20024 -0.300146 10.7002 1.29985 10.7002C3.59985 10.7002 5.89985 10.7002 8.29985 10.7002C8.29985 13.0002 8.29985 15.3002 8.29985 17.7002C8.29985 19.3002 10.7999 19.3002 10.7999 17.7002C10.7999 15.4002 10.7999 13.1002 10.7999 10.7002C13.0999 10.7002 15.3999 10.7002 17.7999 10.7002C19.3999 10.7002 19.3999 8.20024 17.7999 8.20024Z" fill="#FAFDFF"/>
</svg>
