<svg width="109" height="90" viewBox="0 0 109 90" fill="none" xmlns="http://www.w3.org/2000/svg">
<path d="M0.799914 11.9001C0.499914 11.2001 0.999914 11.0001 1.79991 10.9001C8.19991 10.3001 14.5999 9.60013 20.9999 8.90013C26.4999 8.30013 31.9999 7.80013 37.4999 7.30013C42.8999 6.80013 48.2999 6.20015 53.6999 5.60015C58.4999 5.10015 63.2999 4.70015 68.0999 4.20015C74.6999 3.50015 81.1999 2.80015 87.7999 2.20015C91.6999 1.80015 95.4999 1.40014 99.3999 1.00014C99.8999 0.90014 100.2 1.10015 100.2 1.70015C100.7 6.40015 101.1 11.2001 101.6 15.9001C102 20.0001 102.5 24.2001 102.9 28.3001C103.6 35.0001 104.2 41.7001 104.9 48.3001C105.5 54.3001 106.1 60.3001 106.7 66.3001C107.1 70.6001 107.5 74.8001 108 79.1001C108.1 79.8001 107.9 80.1001 107.2 80.1001C98.4999 81.0001 89.8999 81.8001 81.1999 82.7001C75.1999 83.3001 69.2999 83.9001 63.2999 84.5001C56.7999 85.2001 50.1999 85.8001 43.6999 86.5001C37.0999 87.2001 30.4999 87.8001 23.8999 88.5001C19.1999 89.0001 14.4999 89.4001 9.79991 89.9001C8.99991 90.0001 8.69991 89.8001 8.59991 88.9001C8.09991 83.8001 7.59991 78.7001 7.09991 73.6001C6.59991 68.9001 6.09991 64.3001 5.69991 59.6001C5.29991 55.7001 4.99991 51.9001 4.59991 48.0001C4.19991 43.7001 3.69991 39.5002 3.29991 35.2002C2.89991 31.1002 2.49991 27.0001 2.09991 22.9001C1.49991 19.4001 1.19991 15.7001 0.799914 11.9001ZM12.3999 86.5001C16.7999 86.1001 21.0999 85.6002 25.3999 85.2001C28.7999 84.9001 32.2999 84.5002 35.6999 84.2001C39.9999 83.8001 44.2999 83.3001 48.5999 82.9001C52.2999 82.5001 56.0999 82.1001 59.7999 81.8001C63.2999 81.4001 66.8999 81.1002 70.3999 80.7001C74.7999 80.3001 79.0999 79.8001 83.4999 79.4001C87.1999 79.0001 90.7999 78.7001 94.4999 78.3001C97.5999 78.0001 100.6 77.7001 103.7 77.4001C104.3 77.3001 104.6 77.2001 104.5 76.4001C104.2 74.4001 104.1 72.3001 103.9 70.2001C103.1 62.6002 102.3 54.9001 101.6 47.3001C100.9 40.7001 100.3 34.1001 99.5999 27.4001C98.8999 20.1001 98.0999 12.7001 97.3999 5.40013C97.2999 4.80013 97.1999 4.60015 96.4999 4.70015C91.1999 5.30015 85.8999 5.80013 80.6999 6.30013C73.4999 7.00013 66.3999 7.70013 59.1999 8.40013C53.2999 9.00013 47.3999 9.60015 41.5999 10.2002C34.9999 10.9002 28.3999 11.5001 21.7999 12.1001C16.6999 12.6001 11.5999 13.1002 6.59991 13.7002C3.69991 14.0002 4.29991 13.5001 4.59991 16.3001C4.99991 20.5001 5.49991 24.7001 5.89991 28.9001C6.39991 33.8001 6.89991 38.8002 7.29991 43.7002C7.69991 48.1002 8.19991 52.4001 8.59991 56.8001C8.99991 60.9001 9.39991 65.0001 9.79991 69.0001C10.3999 74.5001 10.8999 80.0001 11.4999 85.5001C11.4999 86.3001 11.6999 86.7001 12.3999 86.5001Z" fill="#64C18E"/>
<path d="M12.8997 44.6001C12.9997 44.4001 13.0997 44.2001 13.2997 44.0001C13.4997 43.8001 13.6997 43.7001 13.9997 43.6001C14.2997 43.5001 14.5997 43.5001 14.8997 43.4001C15.3997 43.3001 15.7997 43.3001 16.2997 43.3001C16.7997 43.3001 17.1997 43.3001 17.5997 43.3001V43.2001C17.3997 43.1001 17.1997 43.0001 16.8997 43.0001C16.5997 42.9001 16.2997 42.9001 15.9997 42.9001C15.6997 42.9001 15.3997 42.8001 15.0997 42.8001C14.7997 42.8001 14.4997 42.8001 14.1997 42.8001L13.0997 33.7001C12.0997 33.8001 11.5997 34.1001 11.6997 34.6001L11.7997 35.1001C11.7997 35.5001 11.7997 35.8001 11.5997 36.1001C11.3997 36.4001 11.0997 36.5001 10.5997 36.6001L8.89971 36.8001L8.19971 31.2001L22.1997 29.6001L22.8997 35.2001L21.1997 35.4001C20.6997 35.5001 20.3997 35.4001 20.1997 35.1001C19.9997 34.9001 19.7997 34.6001 19.7997 34.2001L19.6997 33.7001C19.5997 33.4001 19.2997 33.1001 18.6997 33.1001C18.0997 33.0001 16.9997 33.1001 15.5997 33.2001C15.3997 33.2001 15.1997 33.2001 14.9997 33.3001C14.7997 33.3001 14.5997 33.4001 14.3997 33.4001V33.5001C15.1997 33.5001 15.9997 33.5001 16.5997 33.5001C17.1997 33.5001 17.7997 33.6001 18.1997 33.6001L19.3997 43.5001C20.0997 43.5001 20.5997 43.7001 20.8997 43.9001C21.1997 44.1001 21.3997 44.5001 21.3997 45.0001L21.5997 46.5001L12.9997 47.5001L12.6997 45.4001C12.7997 45.1001 12.7997 44.8001 12.8997 44.6001Z" fill="#64C18E"/>
<path d="M34.9998 31.2004C34.5998 31.2004 34.3998 31.1004 34.1998 30.8004C33.9998 30.5004 33.8998 30.2004 33.7998 29.9004L33.5998 28.3004L41.3998 27.4004L41.5998 29.0004C41.6998 29.6004 41.5998 30.0004 41.2998 30.3004C40.9998 30.6004 40.5998 30.7004 40.0998 30.8004C40.2998 32.4004 40.4998 34.0004 40.6998 35.6004C40.8998 37.2004 41.0998 38.8004 41.2998 40.4004C40.5998 40.6004 39.9998 40.9004 39.2998 41.2004C38.5998 41.5004 37.9998 41.8004 37.3998 42.2004L37.4998 42.3004C37.7998 42.2004 38.0998 42.0004 38.4998 41.9004C38.7998 41.8004 39.1998 41.6004 39.5998 41.5004C39.9998 41.4004 40.2998 41.3004 40.6998 41.2004C41.0998 41.1004 41.3998 41.0004 41.6998 41.0004C42.1998 40.9004 42.5998 41.0004 42.8998 41.2004C43.0998 41.4004 43.2998 41.8004 43.2998 42.3004L43.4998 44.0004L35.1998 45.0004L35.0998 43.9004C35.0998 43.7004 35.0998 43.5004 35.1998 43.4004C35.2998 43.3004 35.3998 43.1004 35.4998 43.0004C35.5998 42.9004 35.7998 42.8004 35.9998 42.8004C36.1998 42.7004 36.3998 42.7004 36.5998 42.7004L35.9998 37.5004L32.3998 37.9004L32.7998 41.3004C33.1998 41.3004 33.3998 41.4004 33.5998 41.7004C33.7998 42.0004 33.8998 42.3004 33.9998 42.8004L34.2998 45.2004L26.5998 46.1004L26.3998 44.6004C26.3998 44.3004 26.3998 44.1004 26.4998 43.9004C26.5998 43.7004 26.6998 43.5004 26.8998 43.4004C27.0998 43.3004 27.1998 43.1004 27.3998 43.0004C27.5998 42.9004 27.7998 42.8004 27.8998 42.8004L26.7998 33.2004C27.4998 33.0004 28.1998 32.7004 28.7998 32.4004C29.4998 32.1004 30.0998 31.7004 30.6998 31.4004L30.5998 31.3004C30.2998 31.4004 29.9998 31.6004 29.5998 31.7004C29.1998 31.8004 28.8998 32.0004 28.4998 32.1004C28.0998 32.2004 27.7998 32.3004 27.3998 32.4004C26.9998 32.5004 26.6998 32.6004 26.3998 32.6004C25.9998 32.7004 25.5998 32.6004 25.3998 32.4004C25.0998 32.2004 24.9998 31.9004 24.9998 31.6004L24.7998 29.6004L32.8998 28.7004L32.9998 29.7004C32.9998 29.9004 32.9998 30.1004 32.8998 30.2004C32.7998 30.4004 32.6998 30.5004 32.5998 30.6004C32.4998 30.7004 32.2998 30.8004 32.0998 30.9004C31.8998 31.0004 31.7998 31.0004 31.5998 31.1004L32.0998 35.1004L35.6998 34.7004L34.9998 31.2004Z" fill="#64C18E"/>
<path d="M59.3998 37.1003L59.0998 37.2003C58.6998 37.4003 58.2998 37.6003 57.7998 37.9003C57.2998 38.2003 56.7998 38.5003 56.2998 39.0003L56.3998 39.1003C56.5998 38.9003 56.8998 38.7003 57.1998 38.6003C57.4998 38.4003 57.8998 38.3003 58.2998 38.1003C58.6998 38.0003 59.0998 37.8003 59.3998 37.8003C59.7998 37.7003 60.0998 37.6003 60.3998 37.6003C61.2998 37.5003 61.8998 38.2003 62.0998 39.7003L62.3998 41.8003L53.8998 42.8003L53.6998 41.4003C53.6998 41.0003 53.6998 40.7003 53.9998 40.4003C54.1998 40.2003 54.3998 40.0003 54.6998 39.9003L53.2998 36.8003L50.6998 37.1003L50.3998 38.8003C49.9998 38.9003 49.5998 39.1003 49.1998 39.2003C48.7998 39.4003 48.3998 39.6003 48.0998 39.8003L48.1998 39.9003C48.6998 39.7003 49.0998 39.6003 49.4998 39.5003C49.8998 39.4003 50.1998 39.3003 50.3998 39.3003C50.4998 39.3003 50.6998 39.3003 50.7998 39.3003C50.9998 39.4003 51.0998 39.5003 51.1998 39.6003C51.2998 39.7003 51.4998 39.9003 51.5998 40.2003C51.6998 40.5003 51.7998 40.8003 51.7998 41.2003L51.9998 42.9003L44.9998 43.7003L44.7998 42.2003C44.7998 41.9003 44.7998 41.7003 44.8998 41.5003C44.9998 41.3003 45.0998 41.1003 45.2998 41.0003C45.4998 40.9003 45.6998 40.7003 45.8998 40.6003C46.0998 40.5003 46.3998 40.4003 46.6998 40.3003L49.9998 26.0003L53.1998 25.6003L59.3998 37.1003ZM51.8998 25.5003C51.3998 25.6003 50.8998 25.5003 50.4998 25.3003C50.0998 25.1003 49.6998 24.9003 49.2998 24.6003C48.9998 24.3003 48.6998 23.9003 48.3998 23.5003C48.0998 23.1003 47.9998 22.7003 47.7998 22.3003L48.8998 21.4003C49.1998 21.2003 49.4998 21.2003 49.6998 21.2003C49.8998 21.3003 50.0998 21.4003 50.2998 21.7003C50.4998 21.9003 50.5998 22.1003 50.7998 22.2003C50.9998 22.3003 51.1998 22.4003 51.4998 22.4003C51.7998 22.4003 51.9998 22.3003 52.0998 22.1003C52.1998 21.9003 52.3998 21.7003 52.4998 21.5003C52.5998 21.2003 52.7998 21.0003 52.9998 20.9003C53.1998 20.8003 53.4998 20.8003 53.7998 20.9003L55.0998 21.5003C55.0998 21.9003 54.9998 22.4003 54.7998 22.8003C54.6998 23.3003 54.4998 23.7003 54.1998 24.1003C53.8998 24.5003 53.5998 24.8003 53.2998 25.1003C52.7998 25.2003 52.3998 25.4003 51.8998 25.5003ZM52.2998 15.9003C52.3998 15.2003 52.6998 14.9003 53.0998 14.8003C53.1998 14.8003 53.2998 14.8003 53.3998 14.8003C53.4998 14.8003 53.6998 14.9003 53.7998 14.9003C54.1998 15.1003 54.4998 15.2003 54.8998 15.4003C55.2998 15.6003 55.5998 15.8003 55.9998 15.9003C55.7998 16.5003 55.4998 17.0003 55.1998 17.5003C54.8998 18.0003 54.5998 18.4003 54.2998 18.8003C53.9998 19.2003 53.6998 19.5003 53.3998 19.8003C53.0998 20.1003 52.8998 20.3003 52.6998 20.4003C52.4998 20.5003 52.3998 20.6003 52.1998 20.7003C51.9998 20.8003 51.8998 20.8003 51.6998 20.8003C51.2998 20.8003 50.9998 20.8003 50.5998 20.6003C50.1998 20.4003 49.8998 20.1003 49.5998 19.7003C49.7998 19.5003 49.9998 19.3003 50.2998 19.0003C50.5998 18.7003 50.7998 18.4003 51.0998 18.0003C51.3998 17.7003 51.5998 17.3003 51.7998 16.9003C51.9998 16.7003 52.1998 16.3003 52.2998 15.9003ZM52.3998 34.1003L51.2998 30.0003H51.1998L51.0998 34.3003L52.3998 34.1003Z" fill="#64C18E"/>
<path d="M77.5996 26.3005C77.1996 26.4005 76.6996 26.4005 76.0996 26.4005C75.5996 26.4005 75.0996 26.4005 74.6996 26.4005V26.5005C74.9996 26.6005 75.3996 26.6005 75.8996 26.7005C76.3996 26.8005 76.7996 26.8005 77.1996 26.8005L78.6996 39.7005L74.4996 40.2005L68.0996 32.6005L68.6996 37.4005C69.3996 37.5005 69.7996 37.6005 70.0996 37.8005C70.3996 38.0005 70.5996 38.3005 70.5996 38.8005L70.7996 40.6005L64.1996 41.4005L63.8996 39.2005C63.7996 38.6005 63.9996 38.2005 64.2996 38.0005C64.5996 37.8005 65.0996 37.6005 65.5996 37.6005C65.8996 37.6005 66.0996 37.6005 66.3996 37.6005C66.6996 37.6005 66.9996 37.6005 67.1996 37.6005H67.7996V37.5005C67.6996 37.5005 67.5996 37.4005 67.3996 37.4005C67.1996 37.3005 66.9996 37.3005 66.7996 37.2005C66.5996 37.2005 66.2996 37.1005 66.0996 37.1005C65.8996 37.1005 65.5996 37.0005 65.3996 37.0005L64.2996 27.8005L63.7996 27.9005C63.3996 27.9005 63.0996 27.9005 62.7996 27.7005C62.4996 27.5005 62.3996 27.2005 62.2996 26.7005L62.0996 24.9005L67.4996 24.3005L74.4996 32.8005L73.7996 26.5005C73.1996 26.5005 72.6996 26.4005 72.3996 26.2005C72.0996 26.0005 71.8996 25.6005 71.7996 25.1005L71.6996 23.8005L78.2996 23.0005L78.4996 24.8005C78.5996 25.3005 78.4996 25.6005 78.1996 25.9005C78.1996 26.1005 77.8996 26.3005 77.5996 26.3005Z" fill="#64C18E"/>
<path d="M92.9996 23.1003C92.6996 22.8003 92.2996 22.5003 92.0996 22.2003C91.7996 22.0003 91.4996 21.8003 91.2996 21.6003C91.3996 21.3003 91.7996 21.1003 92.2996 21.0003L93.9996 20.8003L94.7996 27.6003L93.0996 27.8003C92.5996 27.9003 92.2996 27.8003 91.9996 27.6003C91.7996 27.4003 91.5996 27.1003 91.5996 26.6003C91.4996 26.0003 91.2996 25.6003 90.7996 25.2003C90.2996 24.8003 89.6996 24.7003 88.9996 24.8003C87.9996 24.9003 87.2995 25.5003 86.8995 26.5003C86.4995 27.5003 86.3996 28.8003 86.5996 30.5003C86.7996 32.3003 87.0996 33.6003 87.5996 34.5003C88.0996 35.3003 88.7996 35.7003 89.7996 35.6003C90.2996 35.5003 90.7995 35.4003 91.1995 35.1003C91.5995 34.8003 91.9995 34.5003 92.3995 34.1003C92.7995 33.7003 93.0996 33.3003 93.2996 32.9003C93.4996 32.5003 93.6996 32.1003 93.7996 31.7003L93.6995 31.6003C93.4995 31.9003 93.3995 32.2003 93.1995 32.4003C92.9995 32.6003 92.8995 32.8003 92.6995 33.0003C92.4995 33.2003 92.1995 33.3003 91.8995 33.4003C91.5995 33.5003 91.1996 33.6003 90.7996 33.6003C90.3996 33.6003 90.0996 33.6003 89.7996 33.4003C89.4996 33.2003 89.3996 32.9003 89.2996 32.4003L89.0996 30.6003L97.6995 29.6003L97.8995 31.4003C97.9995 31.9003 97.8995 32.2003 97.6995 32.5003C97.4995 32.7003 97.1996 32.9003 96.7996 32.9003L96.2996 33.0003L96.8995 38.0003C96.7995 38.0003 96.6996 38.1003 96.4996 38.1003C96.3996 38.1003 96.1996 38.1003 96.0996 38.1003C95.6996 38.2003 95.1996 38.1003 94.7996 38.0003C94.3996 37.9003 93.9996 37.6003 93.7996 37.1003C93.5996 37.3003 93.3995 37.4003 93.1995 37.6003C92.9995 37.8003 92.6995 38.0003 92.3995 38.1003C92.0995 38.3003 91.6996 38.4003 91.2996 38.6003C90.8996 38.7003 90.3996 38.8003 89.7996 38.9003C88.5996 39.0003 87.5996 38.9003 86.5996 38.6003C85.5996 38.3003 84.7996 37.8003 83.9996 37.1003C83.2996 36.4003 82.6995 35.6003 82.1995 34.5003C81.6995 33.5003 81.3996 32.4003 81.2996 31.1003C81.1996 29.8003 81.1996 28.6003 81.4996 27.5003C81.7996 26.4003 82.2995 25.4003 82.8995 24.6003C83.4995 23.8003 84.2996 23.1003 85.2996 22.5003C86.1996 22.0003 87.2995 21.6003 88.3995 21.5003C89.1995 21.4003 89.9995 21.5003 90.6995 21.8003C91.3995 22.1003 92.1996 22.5003 92.9996 23.2003V23.1003Z" fill="#64C18E"/>
<path d="M35.2998 69.6003C35.2998 69.2003 35.2998 68.9003 35.3998 68.7003C35.4998 68.5003 35.6998 68.3003 35.8998 68.1003C36.0998 67.9003 36.2998 67.8003 36.5998 67.8003C36.8998 67.7003 37.0998 67.7003 37.2998 67.6003C37.5998 67.6003 37.8998 67.6003 38.0998 67.6003L38.4998 71.0003C38.2998 71.4003 38.0998 71.8003 37.7998 72.2003C37.4998 72.6003 37.0998 73.0003 36.5998 73.3003C36.0998 73.6003 35.5998 73.9003 34.9998 74.2003C34.3998 74.4003 33.6998 74.6003 32.9998 74.7003C31.7998 74.8003 30.7998 74.8003 29.6998 74.5003C28.6998 74.2003 27.7998 73.7003 26.9998 73.0003C26.1998 72.3003 25.4998 71.5003 24.9998 70.5003C24.4998 69.5003 24.0998 68.3003 23.9998 67.0003C23.8998 65.7003 23.8998 64.5003 24.0998 63.4003C24.2998 62.3003 24.6998 61.3003 25.1998 60.5003C25.6998 59.7003 26.3998 59.0003 27.2998 58.5003C28.1998 58.0003 29.0998 57.7003 30.2998 57.5003C30.8998 57.4003 31.4998 57.4003 31.9998 57.5003C32.4998 57.6003 32.9998 57.7003 33.3998 57.8003C33.7998 57.9003 34.2998 58.1003 34.5998 58.3003C34.9998 58.5003 35.3998 58.7003 35.6998 59.0003L35.7998 58.9003C35.3998 58.5003 34.9998 58.2003 34.7998 58.1003C34.4998 57.9003 34.2998 57.8003 34.0998 57.7003C34.0998 57.7003 33.9998 57.7003 33.9998 57.6003L33.8998 57.5003C34.0998 57.2003 34.3998 57.1003 34.8998 57.0003L36.5998 56.8003L37.3998 63.6003L35.6998 63.8003C35.1998 63.9003 34.8998 63.8003 34.6998 63.6003C34.4998 63.4003 34.2998 63.1003 34.2998 62.6003C34.2998 62.3003 34.1998 62.1003 34.0998 61.8003C33.9998 61.5003 33.7998 61.3003 33.5998 61.1003C33.3998 60.9003 33.0998 60.8003 32.7998 60.7003C32.4998 60.6003 32.1998 60.6003 31.7998 60.6003C30.7998 60.7003 30.0998 61.3003 29.6998 62.3003C29.2998 63.3003 29.1998 64.6003 29.3998 66.3003C29.5998 68.0003 29.9998 69.3003 30.6998 70.2003C31.3998 71.1003 32.2998 71.4003 33.3998 71.3003C33.9998 71.2003 34.4998 71.1003 34.7998 70.8003C34.6998 71.1003 34.4998 71.4003 34.0998 71.8003C33.6998 72.2003 33.0998 72.6003 32.2998 73.0003L32.3998 73.2003C33.4998 72.7003 34.2998 72.2003 34.7998 71.7003C35.0998 71.0003 35.2998 70.4003 35.2998 69.6003Z" fill="#64C18E"/>
<path d="M54.3998 64.7001C54.4998 65.8001 54.4998 66.8001 54.3998 67.7001C54.2998 68.5001 53.9998 69.2001 53.6998 69.8001C53.3998 70.4001 52.9998 70.8001 52.5998 71.2001C52.1998 71.6001 51.6998 71.9001 51.2998 72.1001C50.8998 72.3001 50.3998 72.5001 49.9998 72.6001C49.5998 72.7001 49.1998 72.7001 48.9998 72.8001C47.9998 72.9001 46.9998 72.9001 46.1998 72.8001C45.3998 72.7001 44.5998 72.4001 43.9998 71.9001C43.3998 71.4001 42.8998 70.7001 42.3998 69.8001C41.9998 68.9001 41.6998 67.7001 41.4998 66.3001L40.8998 61.0001C41.2998 60.9001 41.5998 60.8001 41.9998 60.6001C42.3998 60.4001 42.7998 60.3001 43.0998 60.1001C43.4998 59.9001 43.7998 59.8001 44.0998 59.6001C44.3998 59.4001 44.5998 59.3001 44.6998 59.2001L44.5998 59.1001C44.2998 59.2001 43.7998 59.4001 43.1998 59.6001C42.5998 59.8001 41.9998 60.0001 41.2998 60.0001C40.9998 60.0001 40.6998 60.0001 40.4998 60.0001C40.1998 60.0001 39.9998 59.9001 39.7998 59.8001C39.5998 59.7001 39.3998 59.5001 39.2998 59.3001C39.1998 59.1001 39.0998 58.8001 38.9998 58.5001L38.7998 56.6001L47.1998 55.6001L47.3998 57.1001C47.4998 57.6001 47.3998 57.9001 47.0998 58.2001C46.7998 58.4001 46.3998 58.6001 45.7998 58.7001L46.4998 65.0001C46.5998 65.7001 46.6998 66.2001 46.7998 66.8001C46.8998 67.3001 47.0998 67.8001 47.2998 68.1001C47.4998 68.5001 47.7998 68.7001 48.0998 68.9001C48.3998 69.1001 48.8998 69.1001 49.3998 69.1001C49.5998 69.1001 49.7998 69.0001 49.9998 68.9001C50.2998 68.8001 50.4998 68.6001 50.6998 68.3001C50.8998 68.0001 51.0998 67.6001 51.1998 67.1001C51.2998 66.6001 51.2998 65.8001 51.1998 64.9001L50.5998 59.8001C50.9998 59.7001 51.3998 59.5001 51.6998 59.3001C51.9998 59.1001 52.2998 58.9001 52.3998 58.7001L52.2998 58.6001C51.9998 58.7001 51.5998 58.8001 51.1998 59.0001C50.7998 59.1001 50.4998 59.2001 50.1998 59.2001C49.7998 59.3001 49.3998 59.2001 49.0998 59.0001C48.7998 58.8001 48.5998 58.5001 48.4998 57.9001L48.1998 55.4001L54.7998 54.6001L54.9998 56.4001C55.0998 56.9001 54.9998 57.3001 54.6998 57.5001C54.4998 57.8001 54.0998 58.0001 53.5998 58.1001L54.3998 64.7001Z" fill="#64C18E"/>
<path d="M64.7999 53.4001C65.9999 53.3001 67.0999 53.4001 68.0999 53.7001C69.1999 54.0001 70.0999 54.5001 70.8999 55.2001C71.6999 55.9001 72.3999 56.7001 72.8999 57.7001C73.3999 58.7001 73.7999 59.8001 73.8999 61.0001C74.0999 62.4001 73.9999 63.6001 73.5999 64.7001C73.2999 65.8001 72.6999 66.8001 72.0999 67.6001C71.3999 68.4001 70.5999 69.1001 69.6999 69.6001C68.7999 70.1001 67.7999 70.4001 66.6999 70.5001C65.6999 70.6001 64.5999 70.5001 63.5999 70.3001C62.5999 70.0001 61.5999 69.6001 60.7999 68.9001C59.9999 68.3001 59.1999 67.4001 58.5999 66.4001C57.9999 65.4001 57.5999 64.2001 57.4999 62.8001C57.2999 61.4001 57.3999 60.2001 57.7999 59.1001C58.0999 58.0001 58.5999 57.0001 59.2999 56.2001C59.9999 55.4001 60.7999 54.7001 61.6999 54.2001C62.7999 53.8001 63.7999 53.5001 64.7999 53.4001ZM64.0999 47.1001C64.4999 47.1001 64.7999 47.1001 64.9999 47.2001C65.1999 47.3001 65.3999 47.6001 65.4999 47.9001C65.5999 48.1001 65.7999 48.4001 65.9999 48.7001C66.1999 49.0001 66.3999 49.3001 66.6999 49.6001C66.9999 49.9001 67.1999 50.2001 67.4999 50.4001C67.7999 50.7001 68.0999 50.9001 68.3999 51.1001C68.2999 51.3001 68.0999 51.6001 67.8999 51.8001C67.6999 52.0001 67.4999 52.2001 67.2999 52.3001C67.0999 52.4001 66.8999 52.5001 66.5999 52.6001C66.3999 52.7001 66.0999 52.6001 65.8999 52.5001C65.6999 52.4001 65.5999 52.3001 65.3999 52.2001C65.1999 52.1001 65.0999 51.9001 64.8999 51.8001C65.1999 51.3001 65.3999 50.7001 65.4999 50.2001C65.5999 49.6001 65.5999 49.2001 65.5999 48.8001H65.4999C65.3999 49.4001 65.2999 49.9001 65.0999 50.3001C64.8999 50.7001 64.6999 51.2001 64.4999 51.6001C64.1999 52.0001 63.7999 52.4001 63.3999 52.8001C63.1999 52.9001 62.9999 53.0001 62.7999 53.0001C62.5999 53.0001 62.2999 53.0001 62.0999 52.9001C61.8999 52.8001 61.5999 52.7001 61.3999 52.5001C61.1999 52.3001 60.8999 52.1001 60.7999 51.9001C61.0999 51.7001 61.2999 51.4001 61.5999 51.0001C61.7999 50.7001 61.9999 50.3001 62.1999 50.0001C62.3999 49.7001 62.4999 49.3001 62.6999 49.0001C62.7999 48.7001 62.8999 48.3001 62.9999 48.1001C63.0999 47.7001 63.1999 47.5001 63.3999 47.3001C63.3999 47.3001 63.6999 47.2001 64.0999 47.1001ZM62.9999 62.3001C63.0999 62.8001 63.1999 63.4001 63.2999 64.0001C63.3999 64.6001 63.5999 65.2001 63.8999 65.7001C64.1999 66.2001 64.4999 66.6001 64.8999 66.9001C65.2999 67.2001 65.7999 67.3001 66.3999 67.3001C66.8999 67.2001 67.3999 67.1001 67.6999 66.8001C67.9999 66.5001 68.2999 66.1001 68.4999 65.6001C68.6999 65.1001 68.7999 64.5001 68.7999 63.8001C68.7999 63.1001 68.7999 62.4001 68.6999 61.5001C68.5999 60.6001 68.4999 59.9001 68.2999 59.2001C68.0999 58.5001 67.8999 58.0001 67.5999 57.6001C67.2999 57.2001 66.9999 56.8001 66.5999 56.6001C66.1999 56.4001 65.6999 56.3001 65.1999 56.4001C64.6999 56.5001 64.1999 56.6001 63.8999 56.9001C63.5999 57.2001 63.2999 57.6001 63.0999 58.1001C62.8999 58.6001 62.7999 59.2001 62.7999 59.8001C62.7999 60.7001 62.8999 61.5001 62.9999 62.3001ZM65.4999 73.0001C65.3999 72.6001 65.5999 72.2001 65.7999 71.8001C66.0999 71.5001 66.3999 71.3001 66.8999 71.2001C67.3999 71.1001 67.7999 71.3001 68.0999 71.5001C68.4999 71.8001 68.6999 72.1001 68.6999 72.6001C68.6999 73.0001 68.5999 73.4001 68.2999 73.7001C67.9999 74.0001 67.5999 74.2001 67.1999 74.3001C66.6999 74.4001 66.2999 74.2001 65.9999 74.0001C65.6999 73.8001 65.4999 73.4001 65.4999 73.0001Z" fill="#64C18E"/>
<path d="M87.1997 63.5002C87.1997 63.1002 87.1997 62.8002 87.2997 62.6002C87.3997 62.4002 87.5997 62.2002 87.7997 62.0002C87.9997 61.8002 88.1997 61.7002 88.4997 61.7002C88.7997 61.6002 88.9997 61.6002 89.1997 61.5002C89.4997 61.5002 89.7997 61.5002 89.9997 61.5002L90.3997 64.9002C90.1997 65.3002 89.9997 65.7002 89.6997 66.1002C89.3997 66.5002 88.9997 66.9002 88.4997 67.2002C87.9997 67.5002 87.4997 67.8002 86.8997 68.1002C86.2997 68.3002 85.5997 68.5002 84.8997 68.6002C83.6997 68.7002 82.6997 68.7002 81.5997 68.4002C80.5997 68.1002 79.6997 67.6002 78.8997 66.9002C78.0997 66.2002 77.3997 65.4002 76.8997 64.4002C76.3997 63.4002 75.9997 62.2002 75.8997 60.9002C75.7997 59.6002 75.7997 58.4002 75.9997 57.3002C76.1997 56.2002 76.5997 55.2002 77.0997 54.4002C77.5997 53.6002 78.2997 52.9002 79.1997 52.4002C80.0997 51.9002 80.9997 51.6002 82.1997 51.4002C82.7997 51.3002 83.3997 51.3002 83.8997 51.4002C84.3997 51.5002 84.8997 51.6002 85.2997 51.7002C85.6997 51.8002 86.1997 52.0002 86.4997 52.2002C86.8997 52.4002 87.2997 52.6002 87.5997 52.9002L87.6997 52.8002C87.2997 52.4002 86.8997 52.1002 86.6997 52.0002C86.3997 51.8002 86.1997 51.7002 85.9997 51.6002C85.9997 51.6002 85.8997 51.6002 85.8997 51.5002L85.7997 51.4002C85.9997 51.1002 86.2997 51.0002 86.7997 50.9002L88.4997 50.7002L89.2997 57.5002L87.5997 57.7002C87.0997 57.8002 86.7997 57.7002 86.5997 57.5002C86.3997 57.3002 86.1997 57.0002 86.1997 56.5002C86.1997 56.2002 86.0997 56.0002 85.9997 55.7002C85.8997 55.4002 85.6997 55.2002 85.4997 55.0002C85.2997 54.8002 84.9997 54.7002 84.6997 54.6002C84.3997 54.5002 84.0997 54.5002 83.6997 54.5002C82.6997 54.6002 81.9997 55.2002 81.5997 56.2002C81.1997 57.2002 81.0997 58.5002 81.2997 60.2002C81.4997 61.9002 81.8997 63.2002 82.5997 64.1002C83.2997 65.0002 84.1997 65.3002 85.2997 65.2002C85.8997 65.1002 86.3997 65.0002 86.6997 64.7002C86.5997 65.0002 86.3997 65.3002 85.9997 65.7002C85.5997 66.1002 84.9997 66.5002 84.1997 66.9002L84.2997 67.1002C85.3997 66.6002 86.1997 66.1002 86.6997 65.6002C87.0997 64.9002 87.2997 64.3002 87.1997 63.5002Z" fill="#64C18E"/>
</svg>
