<svg xmlns="http://www.w3.org/2000/svg" viewBox="0 0 140.17 74.98"><defs><style>.cls-1{fill:#fff;}</style></defs><g id="Layer_2" data-name="Layer 2"><g id="Layer_1-2" data-name="Layer 1"><path class="cls-1" d="M136.54,42.67a2.5,2.5,0,0,0-4.21,1.74c-.34,4.51,2.33,8.51-.14,13-1.48,2.7-4.9,4.73-7.75,2.8-5.47-3.7-2.27-13.68,3.7-14.62,3.38-.53,3.3-6.14,0-6.74-8.47-1.55-13.58,5.36-14.43,13a3.89,3.89,0,0,0-4,2.67c-1.21,3.4-3.13,9.5-7.56,9.82-3.66.27-4.3-6.29-4.71-9.82a79.72,79.72,0,0,0,5.29-27.2,72.23,72.23,0,0,0-.49-10.19c-.4-3.4-.66-7.36-2.37-10.41-3-5.39-9.68-4.62-12.26.64-1.7,3.45-1.42,7.58-1.48,11.32-.08,4.72.1,9.44.4,14.15q.72,11,2.52,22c-.22.46-.43.91-.66,1.37-1.82,3.61-4.29,9.16-8.69,10.1-5.41,1.15-5.79-6-6.4-9.67-.28-1.63-.52-3.27-.75-4.91a87.14,87.14,0,0,0,3.53-9.12c2.22-6.77,4.1-13.82,4.52-21,.35-6-.38-14.42-4.79-19s-10.56-.67-12,4.55c-1,3.48-1,7.44-1.14,11q-.31,6.5-.17,13a187.81,187.81,0,0,0,1.84,22.1,35.37,35.37,0,0,1-5.26,7.14c-2.46,2.56-7.49,6.4-10.94,4,.44-.59.84-1.15,1.18-1.66a40.58,40.58,0,0,0,6.19-25.59c-.2-2.22-2.12-4.17-4.52-3.44-5.59,1.71-8.94,6-10.92,11.38S36.92,57.66,38,63.22a11.67,11.67,0,0,0,.45,1.62,19.61,19.61,0,0,1-3.57,2.44c-3,1.54-3.35-2-3.91-4.33-1.28-5.35-.15-11.11-.93-16.56-.49-3.44-1.67-9.23-5.78-10.21-3.83-.92-6.59,3.1-8.12,6a26.17,26.17,0,0,0-1.81,4.32c-.1-2.58-.18-5.16-.21-7.75,0-.35,0-.71,0-1.06a33.49,33.49,0,0,0,6.9-12c2.72-8.43,2.35-18.29-5.27-23.87C14,.5,12.12-.66,10,.44,7.49,1.72,7.32,4.69,7,7.1A184.57,184.57,0,0,0,5.75,27.59c-.08,4-.11,8-.08,12A41.41,41.41,0,0,1,.76,43c-1.55.91-.53,3.65,1.27,3a30.16,30.16,0,0,0,3.71-1.66c.17,8.37.65,16.75,1.59,25,.59,5.23,8.74,5.47,8.38,0l-.15-2.19a86.13,86.13,0,0,1,.58-14.38,27.78,27.78,0,0,1,2.18-7.42A20.3,20.3,0,0,1,20.25,42c.5-1.38,1.37-1.74,2.61-1.07,1.22-.26,1.79.15,1.7,1.24,1,2.4.42,6.66.34,9.21s-.22,5.38-.16,8.08c.09,4.43-.18,10.06,3.33,13.41,4.37,4.19,10.07,1.38,14.64-2.67a13.73,13.73,0,0,0,8.54,1.92c6.12-.52,11-4.8,14.67-9.47,1,4.35,2.76,8.48,6.9,10.66,6.32,3.34,13.42-.71,17.33-5.75.54-.7,1.06-1.41,1.57-2.14,2.06,4.6,5.67,8,11.74,7.1,6.22-.88,9.64-5.37,11.85-10.57a12.83,12.83,0,0,0,4.52,5.25c5.67,3.66,13,1.12,17-3.87C140.84,58.22,141.82,47.39,136.54,42.67ZM14.55,6.56a9.67,9.67,0,0,1,1.78,2,13.31,13.31,0,0,1,1.72,5.21,23.5,23.5,0,0,1-1.54,11.21,31.13,31.13,0,0,1-2.36,5c.12-7.49.41-15,.4-22.48ZM47.28,49.39a18.88,18.88,0,0,1,1.77-4.85,26.49,26.49,0,0,1-3,10.85C46.37,53.12,46.92,50.9,47.28,49.39ZM70.8,23.56c0-2.74.12-5.48.24-8.22.06-1.36.1-2.74.21-4.1,0-.3.18-1,.31-1.58a21.72,21.72,0,0,1,1,2,25.53,25.53,0,0,1,1.1,6.94,59.18,59.18,0,0,1-2.54,17.63C70.85,32,70.76,27.79,70.8,23.56Zm24.56,4.32c0,1.85-.18,3.7-.38,5.55-.3-4.25-.48-8.5-.57-12.77,0-2.31-.12-4.63-.08-6.94A60.66,60.66,0,0,1,95.36,27.88Z"/></g></g></svg>