<svg xmlns="http://www.w3.org/2000/svg" viewBox="0 0 109.87 85.23"><defs><style>.cls-1{fill:#fff;}</style></defs><g id="Layer_2" data-name="Layer 2"><g id="Layer_1-2" data-name="Layer 1"><path class="cls-1" d="M101.63,31a15.26,15.26,0,0,0-13.15.28c-2.27,1.23-1.34,5.24,1.36,5a21.43,21.43,0,0,1,4.88.08C91.65,46.3,89.22,56.3,82.5,64.56A34.12,34.12,0,0,1,55.44,77.1,39.89,39.89,0,0,1,28.07,65.81a55.86,55.86,0,0,1-9.6-12.45c-2-3.44-3.24-7.34-5-10.91.8,0,1.59,0,2.38-.11,4.57-.4,4.68-7,0-7.19C12,35-2.2,36.41.29,43.12c.76,2.05,3.89,2.39,4.52,0-.1.37.43,0,.9-.09a22.58,22.58,0,0,1,2.6-.36C8.22,53,15.71,64.56,22.55,71.33A47.32,47.32,0,0,0,54.84,85.22,42.16,42.16,0,0,0,87.07,71.68c7.56-8.4,12.63-20,14.94-31.14a8.62,8.62,0,0,0,3.78,2.78,3.24,3.24,0,0,0,3.94-2.24C110.79,36.26,105.53,32.65,101.63,31Z"/><path class="cls-1" d="M35.06,2.53a7.66,7.66,0,0,0-7,1.87,6.9,6.9,0,0,0-1.9,3.1,4.54,4.54,0,0,0-.1,2.09,6.18,6.18,0,0,0,.69,3.56c2.29,4.16,8.48,5.21,11.72,1.56C42,10.77,40.33,3.93,35.06,2.53Z"/><path class="cls-1" d="M76.58,2.44A7.23,7.23,0,0,0,69.37.23a6.56,6.56,0,0,0-4.55,4.4,5.35,5.35,0,0,0-.31,6,7.45,7.45,0,0,0,12.92-.13A7.15,7.15,0,0,0,76.58,2.44Z"/></g></g></svg>