<svg xmlns="http://www.w3.org/2000/svg" xmlns:xlink="http://www.w3.org/1999/xlink" viewBox="0 0 266.45 300.33"><defs><style>.cls-1,.cls-17{fill:none;}.cls-2{opacity:0.15;}.cls-3{fill:#f47b60;}.cls-4{clip-path:url(#clip-path);}.cls-5{fill:#fcc5a9;}.cls-6{fill:#eaaa8d;}.cls-7{fill:#19424d;}.cls-8{fill:#65c18e;}.cls-9{fill:#0e252b;}.cls-10{font-size:9.77px;font-family:Montserrat-SemiBold, Montserrat;font-weight:600;letter-spacing:0.01em;}.cls-10,.cls-16,.cls-27{fill:#fff;}.cls-11{letter-spacing:-0.01em;}.cls-12{letter-spacing:0.02em;}.cls-13{fill:#f47f62;}.cls-14{fill:#b8d8d8;}.cls-15{fill:#224f5f;}.cls-16{opacity:0.1;}.cls-17{stroke:#5fba4e;stroke-width:0.22px;}.cls-17,.cls-27{stroke-miterlimit:10;}.cls-18{fill:#addab7;}.cls-19{fill:#efcdb7;}.cls-20{fill:#fdd5c3;}.cls-21{font-size:4.15px;fill:#5c5c5c;font-family:Montserrat-Regular, Montserrat;letter-spacing:0.06em;}.cls-22{letter-spacing:0.04em;}.cls-23{letter-spacing:0.05em;}.cls-24{letter-spacing:0.06em;}.cls-25{letter-spacing:0.04em;}.cls-26{letter-spacing:0.05em;}.cls-27{stroke:#fff;stroke-width:0.06px;}</style><clipPath id="clip-path"><circle class="cls-1" cx="145.32" cy="142.4" r="135.67"/></clipPath></defs><title>Asset 47</title><g id="Layer_2" data-name="Layer 2"><g id="Layer_1-2" data-name="Layer 1"><g class="cls-2"><path class="cls-3" d="M133.29,266.45l-.06-133.13h0v0h0v0h0v0h.07l0,0,.12,0h-.05L241,211.56A133.45,133.45,0,0,1,211.61,241L133.3,133.42l41.13,126.51A133,133,0,0,1,133.29,266.45Zm-.06-133.13v4.93a4.84,4.84,0,0,0,1.53-.26Zm.23.14,2.77,3.79a5,5,0,0,0,1-1ZM92.14,260a133,133,0,0,1-37.2-19l75.38-103.71a5.49,5.49,0,0,0,1.35.67ZM25.53,211.66a132.74,132.74,0,0,1-19-37.16l121.93-39.71a5.32,5.32,0,0,0,.67,1.35ZM260,174.37,133.42,133.3h.08l4.49,1.45a4.84,4.84,0,0,0,.26-1.46h0v0l128.2-.41v.35A133.08,133.08,0,0,1,260,174.37ZM0,133.67v-.45a133.14,133.14,0,0,1,6.45-41L132,132.82h.55L25.38,55A133.45,133.45,0,0,1,54.73,25.57L133,132.82h.09L91.89,6.56A133,133,0,0,1,133,0l.2,128.2a4.88,4.88,0,0,0-1.53.26l1.41,4.35h.13v0h.11l-.11.33h0v0h-5v.07H0Zm128.46-2a4.79,4.79,0,0,0-.24,1.16l3.73,0Zm1.77-2.49a4.62,4.62,0,0,0-1,1l3.56,2.59h.11Zm8,4h-4.93l0,0,1.21-.39,3.69,0Zm-4.83-.07.46-.34h.59Zm4.56-1.49a5.16,5.16,0,0,0-.67-1.35L240.83,54.67a132.83,132.83,0,0,1,19,37.15Zm-1.85-2.53a5.32,5.32,0,0,0-1.35-.67l39.39-122a132.58,132.58,0,0,1,37.22,18.91Z"/></g><g class="cls-4"><path class="cls-5" d="M83.28,104l13.35,9.76a8.18,8.18,0,0,1,1.77,11.44h0A8.19,8.19,0,0,1,87,127l-13.35-9.76a8.18,8.18,0,0,1-1.77-11.44h0A8.19,8.19,0,0,1,83.28,104Z"/><path class="cls-5" d="M149.42,265s-37.14-15-42-30-8.19-88.12-8.19-107.77l81.56,33.41L149.42,265"/><path class="cls-6" d="M156,243l19.65-65.48-30-24.58s-27,1.25-32.44,39.71C108.43,226.73,137.58,238.11,156,243Z"/><rect class="cls-7" x="90.69" y="25.39" width="93.86" height="200.48" rx="9.83"/><rect class="cls-8" x="94.46" y="38.48" width="86.33" height="179.55" rx="5.07"/><circle class="cls-9" cx="156.94" cy="32.01" r="3.32"/><circle class="cls-9" cx="164.6" cy="32.01" r="2.35"/><path class="cls-9" d="M148.67,33.19h-22.1A1.17,1.17,0,0,1,125.4,32h0a1.17,1.17,0,0,1,1.17-1.17h22.1A1.17,1.17,0,0,1,149.84,32h0A1.17,1.17,0,0,1,148.67,33.19Z"/><text class="cls-10" transform="translate(114.62 64.76)">Đ<tspan class="cls-11" x="8.31" y="0">Ặ</tspan><tspan class="cls-12" x="15.52" y="0">T CHỖ</tspan></text><circle class="cls-13" cx="137.62" cy="114.28" r="13.97"/><path class="cls-14" d="M145,109.65a2,2,0,0,0-2.82-.41l-7.31,5.44-1.22-2.37a1.7,1.7,0,0,0-2.29-.73l-.56.29a1.7,1.7,0,0,0-.73,2.29l2.26,4.39,0,.06,0,.07.08.11a.83.83,0,0,0,.07.13l0,0,.1.11a2,2,0,0,0,2.7.27l9.22-6.86A2,2,0,0,0,145,109.65Z"/><rect class="cls-15" x="99.55" y="44.97" width="8.75" height="1.48" rx="0.71"/><rect class="cls-15" x="99.55" y="47.56" width="8.75" height="1.48" rx="0.71"/><rect class="cls-15" x="99.55" y="50.12" width="8.75" height="1.48" rx="0.71"/><path class="cls-16" d="M174.36,25.39H100.15a9.82,9.82,0,0,0-9.83,9.82V216a9.73,9.73,0,0,0,1.29,4.85L183,30.51A9.81,9.81,0,0,0,174.36,25.39Z"/><rect class="cls-17" x="99.55" y="136.18" width="76.88" height="33.53" rx="7.15"/><rect class="cls-18" x="103.48" y="139.92" width="29.23" height="26.04" rx="3.4"/><rect class="cls-18" x="138.77" y="139.92" width="33.38" height="1.64"/><rect class="cls-18" x="138.77" y="143" width="33.38" height="1.64"/><rect class="cls-18" x="138.77" y="146.19" width="33.38" height="1.64"/><rect class="cls-18" x="138.77" y="149.38" width="16.69" height="1.64"/><path class="cls-13" d="M163.6,162.94H147.31a2.53,2.53,0,0,1-2.53-2.53h0a2.53,2.53,0,0,1,2.53-2.53H163.6a2.53,2.53,0,0,1,2.53,2.53h0A2.53,2.53,0,0,1,163.6,162.94Z"/><rect class="cls-17" x="99.55" y="174.91" width="76.88" height="33.53" rx="7.15"/><rect class="cls-18" x="103.48" y="178.66" width="29.23" height="26.04" rx="3.4"/><rect class="cls-18" x="138.77" y="178.66" width="33.38" height="1.64"/><rect class="cls-18" x="138.77" y="181.73" width="33.38" height="1.64"/><rect class="cls-18" x="138.77" y="184.92" width="33.38" height="1.64"/><rect class="cls-18" x="138.77" y="188.12" width="16.69" height="1.64"/><path class="cls-13" d="M163.6,201.67H147.31a2.53,2.53,0,0,1-2.53-2.52h0a2.53,2.53,0,0,1,2.53-2.53H163.6a2.53,2.53,0,0,1,2.53,2.53h0A2.52,2.52,0,0,1,163.6,201.67Z"/><path class="cls-19" d="M240.44,300.33l-42.26-76.65L199.9,204a80.79,80.79,0,0,0-22.53-63.29L154,116.57s-15.72,20.14,11.3,41.76l-2,18.18S149.42,178,149.42,203V265l20.76,35.38Z"/><path class="cls-20" d="M158.39,129.34a15.86,15.86,0,0,1-.76-9l15.07,15.52C168.28,137.22,161.3,137.77,158.39,129.34Z"/><path class="cls-5" d="M86.06,143.85h8.52a8.19,8.19,0,0,1,8.19,8.18h0a8.19,8.19,0,0,1-8.19,8.19H86.06A8.19,8.19,0,0,1,77.87,152h0A8.19,8.19,0,0,1,86.06,143.85Z"/><path class="cls-20" d="M99,152a5.84,5.84,0,0,0-5.85-5.84c-3.23,0-3.23,11.69,0,11.69A5.84,5.84,0,0,0,99,152Z"/><path class="cls-5" d="M86.06,164.15h8.52a8.19,8.19,0,0,1,8.19,8.19h0a8.19,8.19,0,0,1-8.19,8.19H86.06a8.19,8.19,0,0,1-8.19-8.19h0A8.19,8.19,0,0,1,86.06,164.15Z"/><path class="cls-20" d="M99,172.34a5.85,5.85,0,0,0-5.85-5.85c-3.23,0-3.23,11.7,0,11.7A5.85,5.85,0,0,0,99,172.34Z"/><path class="cls-5" d="M86.06,184.46h8.52a8.19,8.19,0,0,1,8.19,8.19h0a8.19,8.19,0,0,1-8.19,8.19H86.06a8.19,8.19,0,0,1-8.19-8.19h0A8.19,8.19,0,0,1,86.06,184.46Z"/><path class="cls-20" d="M99,192.65a5.85,5.85,0,0,0-5.85-5.85c-3.23,0-3.23,11.7,0,11.7A5.85,5.85,0,0,0,99,192.65Z"/><text class="cls-21" transform="translate(125.68 77.52)">In<tspan class="cls-22" x="4.58" y="0">t</tspan><tspan x="6.44" y="0">e</tspan><tspan class="cls-23" x="9.2" y="0">r</tspan><tspan class="cls-24" x="11.09" y="0">n</tspan><tspan x="14.17" y="0">et </tspan><tspan class="cls-25" x="20.22" y="0">C</tspan><tspan x="23.36" y="0">of</tspan><tspan class="cls-26" x="27.89" y="0">f</tspan><tspan x="29.51" y="0">ee</tspan></text><path class="cls-13" d="M117.73,88.09h1.49a.51.51,0,0,0,.4-.13.68.68,0,0,0,.12-.44V74.79a.58.58,0,0,0-.11-.4.59.59,0,0,0-.41-.11h-1.49V73.6h7.16v.68H123.4a.57.57,0,0,0-.39.11.53.53,0,0,0-.12.4V87.52A.68.68,0,0,0,123,88a.48.48,0,0,0,.39.13h2.15a2.37,2.37,0,0,0,2-1.19,9.25,9.25,0,0,0,1.22-2.51c.1-.33.21-.74.32-1.22s.19-.8.21-1H130l-.17,6.57H117.73Z"/><path class="cls-13" d="M132.49,88.46a2.2,2.2,0,0,1-.82-1.94,2.66,2.66,0,0,1,1-2.19A8.85,8.85,0,0,1,135.25,83l1.58-.55V81a2.29,2.29,0,0,0-.45-1.58,1.48,1.48,0,0,0-1.15-.49,1.91,1.91,0,0,0-1,.27.81.81,0,0,0-.44.73.8.8,0,0,0,.07.31.72.72,0,0,0,.27.31,1.44,1.44,0,0,1,.46.4,1.06,1.06,0,0,1,.14.56,1,1,0,0,1-.38.8,1.33,1.33,0,0,1-1.76-.09,1.39,1.39,0,0,1-.4-1.07,2.26,2.26,0,0,1,.49-1.44,3.17,3.17,0,0,1,1.26-1,3.89,3.89,0,0,1,1.55-.33,4.49,4.49,0,0,1,2.69.82,3,3,0,0,1,1.15,2.61v5.39c0,.51.14.77.43.77s.45-.21.57-.64a5.07,5.07,0,0,0,.2-1.47h.59a4.22,4.22,0,0,1-.47,2.28,1.65,1.65,0,0,1-.66.62,2.06,2.06,0,0,1-1,.23,2.72,2.72,0,0,1-1.32-.26,2,2,0,0,1-.75-.89h0A2.79,2.79,0,0,1,134.48,89,3.41,3.41,0,0,1,132.49,88.46Zm4.34-1.22V83l-1.19.43a1.77,1.77,0,0,0-1,1,4.58,4.58,0,0,0-.33,1.91,2.13,2.13,0,0,0,.38,1.44,1.2,1.2,0,0,0,.88.41A1.43,1.43,0,0,0,136.83,87.24Z"/><path class="cls-13" d="M142.61,80.42a2.61,2.61,0,0,0-.53-1,1.18,1.18,0,0,0-.84-.27h-.36v-.52h5.22v.52h-.62a.54.54,0,0,0-.35.14.53.53,0,0,0-.16.41,2,2,0,0,0,.13.6L147,85.6l1.68-4.67a3,3,0,0,0,.15-.93.87.87,0,0,0-.21-.56.68.68,0,0,0-.54-.25h-.55v-.52h3.62v.52h-.47c-.48,0-.88.44-1.19,1.32L146.42,89h-.68Z"/><path class="cls-13" d="M152.7,88.46a2.2,2.2,0,0,1-.82-1.94,2.63,2.63,0,0,1,1-2.19A8.72,8.72,0,0,1,155.46,83l1.58-.55V81a2.29,2.29,0,0,0-.45-1.58,1.48,1.48,0,0,0-1.15-.49,1.94,1.94,0,0,0-1,.27.8.8,0,0,0-.36,1,.72.72,0,0,0,.27.31,1.56,1.56,0,0,1,.46.4,1.06,1.06,0,0,1,.13.56,1,1,0,0,1-.37.8,1.34,1.34,0,0,1-1.77-.09,1.42,1.42,0,0,1-.39-1.07,2.26,2.26,0,0,1,.49-1.44,3,3,0,0,1,1.26-1,3.89,3.89,0,0,1,1.55-.33,4.51,4.51,0,0,1,2.69.82,3,3,0,0,1,1.15,2.61v5.39c0,.51.14.77.42.77s.45-.21.58-.64a5.09,5.09,0,0,0,.19-1.47h.6a4.31,4.31,0,0,1-.47,2.28,1.79,1.79,0,0,1-.66.62,2.08,2.08,0,0,1-1,.23,2.67,2.67,0,0,1-1.32-.26,2,2,0,0,1-.75-.89h0A2.8,2.8,0,0,1,154.69,89,3.39,3.39,0,0,1,152.7,88.46ZM157,87.24V83l-1.2.43a1.75,1.75,0,0,0-1,1,4.58,4.58,0,0,0-.33,1.91,2.13,2.13,0,0,0,.38,1.44,1.19,1.19,0,0,0,.87.41A1.44,1.44,0,0,0,157,87.24Z"/><path class="cls-27" d="M154.07,86.74a1.87,1.87,0,0,1,.34.08s0,0,0-.06a.11.11,0,0,0,.07,0l.07,0s0,0-.08,0,0,0,0,0,0,0,.07,0,0,0,.06,0,0,0,0,0a0,0,0,0,0,0,0s0,0-.06,0,.06,0,.15,0,.14.08.12.12A.22.22,0,0,1,155,87l.15.1a0,0,0,0,0,0,0s0,0,0-.07a1.38,1.38,0,0,1,.32.43,1.06,1.06,0,0,1,.09.63l-.28-.19a1.18,1.18,0,0,0-.33-.12,1.68,1.68,0,0,0-.8-.29,3,3,0,0,0-1,0H153l-.08,0-.08,0a4.54,4.54,0,0,0-1,.23,3.55,3.55,0,0,0-.85.42,1.94,1.94,0,0,0-.83,1.2,1.3,1.3,0,0,0,0,.28,2.23,2.23,0,0,1,0,.23,2.71,2.71,0,0,0,.38.65l.89,1.09c.3.35.61.7.94,1,.18.23.36.45.53.68s.35.46.53.68.35.52.52.82a10.09,10.09,0,0,1,.47.93,9.46,9.46,0,0,1,.37,1,5.62,5.62,0,0,1,.24,1s0,0,0,0,0,0,0,0,0,0,0,.09a.08.08,0,0,0,0,.1,9,9,0,0,1,0,1.2,4.14,4.14,0,0,1-.23,1,4.4,4.4,0,0,1-.42.84,5.27,5.27,0,0,1-.61.77h-.06s-.06.07-.1.07a.54.54,0,0,1-.2.27.91.91,0,0,1-.27.15.05.05,0,0,0,0,0,.25.25,0,0,1,0,.07.24.24,0,0,0-.23.07.44.44,0,0,1-.18.14s-.06,0-.06,0h0s0,0,0,0,0,0-.06,0a0,0,0,0,0,0,0s0,0,0,0l-.81.42a3.72,3.72,0,0,1-.91.35.21.21,0,0,1-.18.1.27.27,0,0,0-.17,0c-.3.08-.6.16-.9.26a4,4,0,0,1-.95.19v0s0,0,0,0,0,0,0,0a.71.71,0,0,1-.39.1,1.87,1.87,0,0,0-.42,0,0,0,0,0,1,0,0,0,0,0,0,0,0,0s0,0,0,0a0,0,0,0,0,0,.06h0q0-.08,0,0s0,0,0,0a.7.7,0,0,1-.43,0,.6.6,0,0,0-.4,0s-.08,0-.12,0a.25.25,0,0,1-.13,0s0,0,0,0a.1.1,0,0,0,0,0,.23.23,0,0,0-.1,0,.16.16,0,0,1-.12,0s0,0,0,0h0a1.08,1.08,0,0,0-.29,0,.66.66,0,0,0-.22,0,.09.09,0,0,0,.06,0s0,0,.07,0a.37.37,0,0,1-.18,0l-.19,0s.06,0,.11,0a.08.08,0,0,0,.11,0l-.17,0c-.09,0-.12,0-.09,0l-.43-.1a1.67,1.67,0,0,0-.44-.06,5.67,5.67,0,0,1-.91-.48,3.36,3.36,0,0,1-.77-.68,2.44,2.44,0,0,1-.48-.95,2.73,2.73,0,0,1,0-1.28s0,0,0,0,0,0,0,0a.43.43,0,0,0,0-.14.11.11,0,0,1,.06-.11s0,0,0,.06a.09.09,0,0,1,0,.08s-.06,0-.05,0a.05.05,0,0,0,0,0s0,0,0,0a.07.07,0,0,0,0,0s0,0,0,0a0,0,0,0,1,0,0,.71.71,0,0,1,.15-.44,1,1,0,0,0,.19-.39.93.93,0,0,1,.16-.18.83.83,0,0,0,.13-.18s0,0,0,0,0,0,0,0,0,0,0,0,0,0,0,0l-.06.06a.15.15,0,0,1-.09.06.28.28,0,0,1,.09-.14l.1-.11a.32.32,0,0,0,.1-.1.47.47,0,0,1,.1-.1s0,0,0,.06,0,0,0,0a0,0,0,0,0,0,0,.07.07,0,0,0,.08-.08l0,0a.56.56,0,0,1,.15-.1.24.24,0,0,0,.14-.14h0s0,0,0,0,0,0,0,0h.08s0,0,0,0,0,0,0,0h.07a.1.1,0,0,0,.07-.05c0,.06,0,.11-.07.13a.31.31,0,0,0-.15.12,0,0,0,0,0-.05,0,.36.36,0,0,0-.15.1l-.11.12a.27.27,0,0,1-.1.11s-.06.06-.08.13l-.06.05s0,0,0,0-.07.06-.1.15v0a0,0,0,0,0,0,0s0,0,0,0l0,0a.11.11,0,0,0,0,.05s0,0,0,0l0,0a.24.24,0,0,0,.13-.13.23.23,0,0,1,.12-.12.47.47,0,0,0,.1-.1.32.32,0,0,1,.1-.1s0,0,0,.06,0,0,0,0l0,0,0,0s0,0,0,0a.86.86,0,0,1,.2-.13.47.47,0,0,0,.17-.15s0,0,0,0h0v0h.05s0,0,.07,0a0,0,0,0,0,0,0s0,0,0,0a.06.06,0,0,0,.09,0l.09-.05a.23.23,0,0,1-.13.14.3.3,0,0,0-.13.12s-.06,0-.06,0A.79.79,0,0,0,144,99s0,0,0,0l0,0a.28.28,0,0,0,.14-.09.45.45,0,0,1,.13-.11s0,0,0-.06,0,0,0,0a6.73,6.73,0,0,1,1.24-.79,5.68,5.68,0,0,1,1.48-.47s0,0,0,0a0,0,0,0,0,0,0s0,0,0,0,0,0,0,.06l.35-.11a1,1,0,0,1,.48,0,0,0,0,0,1,0,0s0,0,0,0,.07,0,.07,0,0-.05,0-.06.06,0,.08,0,.05,0,.11,0a.86.86,0,0,1-.37.13,3.45,3.45,0,0,0-.39.07.22.22,0,0,0,.16,0l.17,0h.1s.06,0,.08,0,.1,0,0,0l-.05,0s0,0,0,0a.21.21,0,0,0-.19,0l-.17.08a.21.21,0,0,0-.19,0,.48.48,0,0,0-.16.08s0,0,0,0,0,0,0,0,0,0,0,0,0,0,0,0a.23.23,0,0,0-.14.07,5.78,5.78,0,0,0-1.2.48,6.55,6.55,0,0,0-1,.63.73.73,0,0,1-.16.14l-.14.09a5.91,5.91,0,0,0-.79,1,3.29,3.29,0,0,0-.47,1.35,1.38,1.38,0,0,0,.2.79,5.25,5.25,0,0,0,.43.53.16.16,0,0,1,.14.06.25.25,0,0,0,.12.1l.08.06.11.07s0,0,0,0l.06.1c.09,0,.14,0,.14.08s.07,0,.08,0,.05,0,.12,0,0,0,0,0,0,0,.05,0,0,0,0,0a0,0,0,0,0,0,0s0,0,0,0a0,0,0,0,0,0,0s0,0,0,0,0,0,0,0,0,0,0,.08.09,0,.11,0a.16.16,0,0,0,.13,0s0,0,0,0a.53.53,0,0,1,.2.07.23.23,0,0,0,.18,0s0,0,0,0a0,0,0,0,0,0,0h0s0,0,0,.05,0,0,0,0,0,0,.05,0,0,0,0,0,0,0-.06,0,.06,0,.08,0a.06.06,0,0,0,.08,0,.12.12,0,0,0-.14,0,.08.08,0,0,1,.09,0,.28.28,0,0,1,.13,0,0,0,0,0,1,0,0s0,0,0,.06h0s0,0,0,0a.13.13,0,0,1,.12,0s0,.06,0,0,0,0,0,0l.11,0a.09.09,0,0,0,.11,0s0,0,.06,0a0,0,0,0,1,.06,0s0,0,0,0,0,0-.06,0,0,0,.07,0,0,0,0,0,0-.06.09-.06,0,.06,0,.1,0,0,0,0,0,0,0,0a.42.42,0,0,0,.38-.1s0,0,0,0a0,0,0,0,0,0,0s0,0,0,0a.1.1,0,0,0,0,0s0,0,0,0,0,0,0,0,0,0,0,0,0,0,0,0v0s0,0,0-.07a0,0,0,0,1,0,.06s0,0-.06,0,0,.06.05,0a.09.09,0,0,0,.06-.06.08.08,0,0,1,.09,0s.07,0,.09,0,0,0,0,0,0,0,0,0a.06.06,0,0,0,.09,0l.09,0q0,.11.09.06a.34.34,0,0,0,.18-.1s0,0,0,0,0,0,0,0a.57.57,0,0,1,.18,0,.48.48,0,0,0,.26-.06s.06,0,.07,0,0,0,.05,0v0s0,0,0,0a0,0,0,0,0,0,0,.08.08,0,0,0,.08,0l.11,0s0,0,0,0a.63.63,0,0,0,.27,0l.26,0s0,0,0-.06,0,0,0,0l.57-.13a1.15,1.15,0,0,0,.52-.25s0,0-.05,0a.08.08,0,0,1-.09,0s.05-.07.08-.07a.24.24,0,0,0,.14,0s0,0,0,0,0,0,0,0,0,0,.1,0,0,0,0,0,0,0,0,0a.34.34,0,0,1,.24-.11.27.27,0,0,0,.21-.12s0,0,.09,0,.06,0,.05,0l.05-.08a.09.09,0,0,1,.06-.08s0,0,.06,0a.1.1,0,0,0,0-.06s.05,0,0,0a.43.43,0,0,1,.26-.1c.08,0,.14-.05.2-.14s0,0,0,0,0,0,0,0,0,0,0,0,0,0,0,0a.53.53,0,0,0,.16,0l.16-.06a0,0,0,0,0,0,0s0,0,0,0-.06,0-.07,0,0,0,0,0l.18-.12a.32.32,0,0,1,.2-.07s0,0,0,0,0,0,0,0l-.11,0s0,0-.05.06h0l0,0,.12-.11a.45.45,0,0,0,.21-.12l0,0s0,0,0,0,0,0,0,0-.08,0,0,.06h0s0,0,0,0v0l0,0s0,0,.05,0a.54.54,0,0,0,.15-.08s0,0,0,0,0,0,0,0,0,0,0,0,0,0,0,.07,0,0,0,.07h0a0,0,0,0,0,0,0s0,0,0,0,.07,0,.05,0,0,0,0-.07h0a.06.06,0,0,0,0,.05s0,0,0,0,0,0,0,0a0,0,0,0,0,0,0s0,0,.05,0a.06.06,0,0,1,0,0s0,0,0,0,0,0,0,0a.19.19,0,0,0,.1,0,.1.1,0,0,0-.08,0,.48.48,0,0,1,.12-.16.51.51,0,0,1,.18-.09h0a0,0,0,0,1,0,0s0,0,0,0,0,0,0,0a.3.3,0,0,1,.2-.22.47.47,0,0,0,.25-.23.47.47,0,0,0,.22-.24s0,.05.05,0a.13.13,0,0,0,0-.08.1.1,0,0,0,.12-.08l.09-.09.09-.11s0,0,0,0h0c.16-.26.33-.55.53-.86a2.31,2.31,0,0,0,.36-1,4.1,4.1,0,0,0-.09-1.39,5.75,5.75,0,0,0-.45-1.27c-.22-.39-.45-.79-.7-1.17a7.25,7.25,0,0,0-.81-1.08s0,0,0,0-.11-.08-.12-.13h0s0,0,0,0a.61.61,0,0,0-.15-.17.61.61,0,0,1-.15-.17,0,0,0,0,1,0,0s0,0,0,0a2.48,2.48,0,0,1-.18-.25.86.86,0,0,0-.21-.22c-.16-.2-.34-.41-.55-.65s-.42-.49-.61-.75a6.56,6.56,0,0,1-.54-.83,3.11,3.11,0,0,1-.35-.88,1.93,1.93,0,0,1,0-.83c.07-.26.13-.5.2-.71l.08-.1a.39.39,0,0,1,.08-.1v0s0,0,0,0,0,0,0,0,0,0,0-.06,0,0,0,0,0,0,0,0a.55.55,0,0,1,.17-.23v0s0,0,0,0h0a0,0,0,0,0,0,0s0,0,0,0,0,0,0,0,0,0,0,0h0s0,0,0,0l.06,0s0,0,0,0a.38.38,0,0,1,.24-.2s0,0,0,0a0,0,0,0,0,0,0s0,0,.06,0v0s0,0,0,0a0,0,0,0,0,0,0s0,0,0,0a0,0,0,0,0,0,0,0,0,0,0,0,0,0c.05,0,.07,0,.05,0s0,0,.06,0v0l0,0s0,0,0,0h0s0,0,0,0h0s0-.06,0-.06a.11.11,0,0,0,.08,0v0a0,0,0,0,0,0,0h0s0,0,0,0,0,0,0,0,0,0,0,0H151s0,0,0,0a0,0,0,0,0,0,0s0,0,0,0a.18.18,0,0,1,.15-.07.2.2,0,0,0,.15-.06s0,0,0,0,0,0,0,0a0,0,0,0,0,0,0s0,0,0,0,0,0,0,0,0,0,0,0a.06.06,0,0,1,.07,0s0,0,.05,0a.43.43,0,0,1,0,0s0,0,0,0a.2.2,0,0,0,.08,0s0,0,.05,0a.06.06,0,0,0,.06,0s0,0,0-.06a.09.09,0,0,0-.07,0s0,0,0,0a0,0,0,0,0,0,0,1.4,1.4,0,0,1,.41-.16l.41-.12s0,.08,0,.08l.06-.07s.06,0,.14,0,0,.06,0,.07-.05,0-.08,0,0,0,0,0,0,0,0,.05h.12l.1,0a.1.1,0,0,0-.08,0,.32.32,0,0,1,.29-.1,1,1,0,0,0,.38,0s0,0,0,0,0,0,0,0a0,0,0,0,0,0,0s0,0-.08,0,0,0,.08,0v0s0,0,0,0a.53.53,0,0,1,.33,0,.5.5,0,0,0,.32,0A1.82,1.82,0,0,0,154.07,86.74Zm-11.35,13.74s0,0,0,0S142.7,100.5,142.72,100.48Zm.12-.4a0,0,0,0,0,0,0s0,.05,0,.07,0,0,0,.07,0,0,0-.06a.16.16,0,0,0,0-.1Zm0-.06a.06.06,0,0,0,0,0s0,0,0,0h0s0,0,0,0V100Zm.4-.25c.05,0,.08,0,.08-.06s-.05,0-.05,0Zm.05-.23s0,0,0,0,0,0,0,0v0s0,0,0,0,0,0,0,0,0,0,0,0,0,0,0,0h0s0,0,0,0a0,0,0,0,0,0,0s0,0,0,0a0,0,0,0,0,0,0s0,0,0,0S143.33,99.52,143.31,99.54Zm.07-.09a.12.12,0,0,0,.08,0C143.4,99.41,143.38,99.42,143.38,99.45Zm.06-.43a0,0,0,0,1,0,0S143.41,99,143.44,99Zm0,.47s0,0,0,0,0,0,0,0a.06.06,0,0,0-.06,0S143.43,99.48,143.46,99.49Zm.09-.59Zm0,.45s0,0,0,0S143.59,99.36,143.59,99.35Zm.08-.59s0,0,0,0,0,0-.06,0l0,0S143.67,98.77,143.67,98.76Zm0,.24h0v0h0Zm0,.37s0,0,0,0S143.66,99.37,143.67,99.37Zm0-.27s0,0,0,0A0,0,0,0,1,143.69,99.1Zm.1,0h0v0h0Zm0-.48s0,0,0,0S143.82,98.68,143.81,98.64Zm.06.12v0s0,0,0,0h0S143.83,98.76,143.87,98.76Zm0,4.16s0,0,0,0S143.83,102.9,143.83,102.92Zm.06-3.83a.05.05,0,0,1,0,0l0,0s0,0,0,0,.08,0,.08,0a0,0,0,0,0,0,0h0s0,0,0,0,0,0,0,0S143.89,99.07,143.89,99.09Zm0-.35s0,0,0,0h0S143.87,98.74,143.88,98.74Zm0,.13s0,0,0,0S143.92,98.85,143.9,98.87Zm0,.19h0v0A0,0,0,0,1,143.93,99.06Zm.16-.63a0,0,0,0,1,0,0S144.06,98.44,144.09,98.43Zm0,.09a.06.06,0,0,0,0,0s0,0,0,0A.05.05,0,0,1,144.13,98.52Zm0-.1s0,0,0,0S144.1,98.4,144.12,98.42Zm0,.22,0,0S144.14,98.67,144.13,98.64Zm.05-.14v0h0Zm0,.12s0,0,0,0S144.2,98.61,144.2,98.62Zm.06,0s0,0,0,0,0,0,0,0A.05.05,0,0,1,144.26,98.64Zm0,.12s0,0,0,0Zm.06-.14v0s0,0,0,0Zm.1-.33s0,0,0,0S144.45,98.29,144.42,98.29Zm.06,0a0,0,0,0,1,0,0S144.45,98.34,144.48,98.33Zm.06-.1s0,0,0,0,0,0,0,0h.06a.53.53,0,0,1-.14.1.25.25,0,0,0,0-.07S144.51,98.23,144.54,98.23Zm0,5.12c0,.05,0,.06,0,0s.05-.05,0,0Zm0-5.14s0,0,0,0h0S144.54,98.21,144.55,98.21Zm.07.24h0Zm0,4.78s0,0,0,0S144.62,103.27,144.6,103.23Zm.1-5.08s.05,0,0,0a.05.05,0,0,0,0,0s0,0,0,0h-.06l0,0Zm.06.2-.14.1s0,0,0,0a0,0,0,0,0,0-.05s0,0,.06,0S144.73,98.35,144.76,98.35Zm-.09-.21s0,0,0,0S144.65,98.16,144.67,98.14Zm0,5.13s0,0,0,0S144.68,103.23,144.68,103.27Zm0-5h0v0S144.68,98.24,144.68,98.23Zm0,0v0s0,0,0,0S144.72,98.23,144.7,98.23Zm.05,5.07s0,0,0,0S144.73,103.32,144.75,103.3Zm.06-5h-.05l.06-.07a.12.12,0,0,1,.09,0s0,0,0,0,0,0,0,0S144.81,98.33,144.81,98.35Zm0,5s0,0,0,0S144.78,103.36,144.78,103.33Zm.37-5.44a1.24,1.24,0,0,1-.35.22s0,0,0,0v0h0s0,0,0,0v0s0,0,0,0,0,0,0,0a0,0,0,0,0,0,0s0-.08.07-.08a.1.1,0,0,0,.09,0s.05,0,.06,0A.08.08,0,0,1,145.15,97.89Zm-.34.16v0h0S144.8,98.05,144.81,98.05Zm0,.3h0s0,0,0,0A0,0,0,0,1,144.81,98.35Zm0,0v0s0,0,0,0Zm0,5s0,0,0,0a0,0,0,0,0,0,0s0,0,0,0S144.84,103.38,144.85,103.35Zm.42-5.32a1.41,1.41,0,0,1-.34.22s0,0,0,0a.13.13,0,0,1,0,0,.21.21,0,0,0,.15-.05A.3.3,0,0,1,145.27,98Zm-.32,5.4s.06,0,.1,0a.16.16,0,0,0,.1,0s-.05,0-.08,0-.06,0-.12,0a.06.06,0,0,1,0,0S145,103.43,145,103.43Zm.08-.06s0,0,0,0S145.06,103.37,145,103.37Zm.06,0s0,0,0,0S145.12,103.39,145.09,103.39Zm.06-5.5s0,0,0,0S145.18,97.89,145.15,97.89Zm0,5.6s0,0,.07,0a.16.16,0,0,0,.09,0s-.06,0-.08,0A.13.13,0,0,0,145.17,103.49Zm.1-5.66s0,0-.08,0S145.24,97.83,145.27,97.83Zm0,.2a.56.56,0,0,1,.16-.08A.22.22,0,0,1,145.27,98Zm.08-.23s0,0,0,0S145.31,97.78,145.35,97.8Zm0,0s0,0,0,0S145.37,97.8,145.35,97.8Zm.1,5.73s0,0-.08,0,0,0,0,0Zm0-5.77a0,0,0,0,1,0,0S145.39,97.76,145.41,97.76Zm.13-.06a.18.18,0,0,1-.13.06A.18.18,0,0,1,145.54,97.7Zm-.11,6.34s0,0,0,0S145.43,104.08,145.43,104Zm0-6.11s0,0,0,0S145.44,98,145.47,97.93Zm0,0s0,0,0,0S145.49,97.93,145.47,97.93Zm0,0a0,0,0,0,1,0,0S145.52,97.91,145.5,97.91Zm0,5.64s0,0,0,0S145.53,103.55,145.5,103.55Zm.12,0a0,0,0,0,1-.06,0S145.57,103.52,145.62,103.55Zm.06-5.93s0,0-.08,0A.12.12,0,0,1,145.68,97.62Zm.08,6s0,0,0,0S145.76,103.55,145.76,103.59Zm0,.08s0,0,0,0S145.75,103.67,145.78,103.67Zm0-.12h0a0,0,0,0,0,0,0v0C145.79,103.59,145.77,103.57,145.78,103.55Zm.16.25s0,0-.08,0-.05,0,0,0a.09.09,0,0,0,.1,0S145.94,103.76,145.94,103.8Zm-.1-.21s0,0,0,0S145.87,103.63,145.84,103.59Zm.06-6,0,0S145.87,97.55,145.9,97.54Zm0,0s0,0,0,0S145.94,97.55,145.9,97.54Zm.08,6.07s0,0,0,0S146,103.59,146,103.61Zm0-6.09s0,0,0,0A0,0,0,0,1,146,97.52Zm.05,0s0,0,0,0S146,97.47,146,97.49Zm.14,6.12s0,0,.05,0,0,0,0,.05,0,0-.05,0A0,0,0,0,1,146.17,103.61Zm.06.27s0,0,0,0,0,0,0,0,0,0,0,0S146.23,103.9,146.23,103.88Zm0,.22Zm0-6.7s0,0,0,0S146.21,97.41,146.23,97.4Zm0,6.31s0,0-.06,0S146.23,103.71,146.27,103.71Zm0-6.31s0,0,0,0S146.27,97.41,146.23,97.4Zm0,6.21s0,0,0,0S146.29,103.65,146.27,103.61Zm0,.19s0,0,.06,0S146.31,103.8,146.27,103.8Zm0-6.42s0,0,.06,0S146.35,97.38,146.31,97.38Zm0,6.25s0,0,0,0S146.34,103.63,146.31,103.63Zm.08-5.77s0,0,0,0-.1,0-.1,0Zm-.06,6.34h.1s0,0,0,0h-.08Zm0-.41s0,0,.07,0S146.39,103.83,146.38,103.79Zm.07-6.45s0,0,0,0S146.42,97.34,146.45,97.34Zm0,6.29s0,0,0,0S146.45,103.59,146.45,103.63Zm.26,0c-.06,0-.1,0-.13,0a.11.11,0,0,1-.11,0,.23.23,0,0,1,.13,0A.09.09,0,0,1,146.71,103.65Zm-.2.25s0,0,0,0S146.51,103.92,146.51,103.9Zm.05,0s0,0,0,0,.06,0,.06,0-.06,0-.06,0S146.54,103.85,146.56,103.87Zm.11-6.25s0,0,0,0S146.67,97.6,146.67,97.62Zm.06,6.18s0,0,0,0S146.73,103.82,146.73,103.8Zm.06-.21s0,0-.06,0S146.73,103.59,146.79,103.59Zm0,.16s0,0,0,0S146.74,103.74,146.76,103.75Zm0-6.35s0,0,0,0S146.81,97.4,146.79,97.4Zm.05.3s0,0,0,0S146.84,97.71,146.84,97.7Zm.06,0s0,0,0,0S146.9,97.69,146.9,97.68Zm0,6.54c.06,0,.07,0,.05,0S146.94,104.24,146.92,104.22Zm0-.59a0,0,0,0,1,0,0H147s0,0,0,0S147,103.63,146.94,103.63Zm0-5.95s0,0,0,0S147,97.66,147,97.68Zm0,6.56a.09.09,0,0,1,.11,0,.2.2,0,0,0,.11,0,.13.13,0,0,1-.11,0A.11.11,0,0,0,147,104.24Zm0-.51.08,0s0,0,0,0h-.06S147,103.75,147.06,103.73Zm.15-6.08a.17.17,0,0,0,.13-.07.87.87,0,0,0-.3.08A.34.34,0,0,1,147.21,97.65Zm-.12,6.07s0,0,0,0S147.07,103.7,147.09,103.72Zm0-.15h0s0,0-.06,0,0,0,0,0S147.12,103.58,147.12,103.57Zm0,.16s0,0,.08,0S147.17,103.73,147.12,103.73Zm0,.09s0,0,0,0S147.13,103.86,147.12,103.82Zm0-6.06s0,0,0,0S147.15,97.78,147.14,97.76Zm.1,6.15s0,0,0,0l-.08,0s0,0,0,0S147.21,103.91,147.24,103.91Zm.06-.08a.08.08,0,0,1-.08,0s0,0,0,0,0,0,.05,0S147.32,103.83,147.3,103.83Zm0-.26,0,0a0,0,0,0,0-.06,0s0,0,0,0Zm.06.1.07,0s0,0-.05,0S147.37,103.69,147.4,103.67Zm.06-6.23s0,0,0,0S147.46,97.45,147.46,97.44Zm.07,6.11s-.07,0-.09,0S147.51,103.52,147.53,103.55Zm0-6.11s.06,0,.06,0S147.55,97.43,147.55,97.44Zm0,6.11s0,0,0,0S147.57,103.59,147.55,103.55Zm.42-.06a.82.82,0,0,1-.38.06.6.6,0,0,1,.19-.06Zm-.14-6.11a.08.08,0,0,1-.07,0s0,0,0,0h.06S147.83,97.41,147.83,97.38Zm0,6.8a0,0,0,0,1,0,0,0,0,0,0,1,0,0Zm.11-.46s0,0,.05,0S147.9,103.74,147.92,103.72Zm.42-.29a0,0,0,0,1-.06,0s0,0,0,0H148c-.06,0-.06,0,0,0l0,0h0s0,0,0,0,.07,0,.09,0A.23.23,0,0,0,148.34,103.43Zm-.27.37s0,0,0,0S148.07,103.82,148.07,103.8Zm.05.3s0,0,0,0S148.12,104.14,148.12,104.1Zm.14-.45s0,0,0,0,0,0,0,0a.11.11,0,0,1,.1,0l.14,0a.12.12,0,0,1-.1.06S148.26,103.62,148.26,103.65Zm0,.1s0,0,0,0S148.24,103.78,148.24,103.75Zm0-6.41s0,0,0,0S148.28,97.3,148.28,97.34Zm0,6.35s0,0,0,0S148.32,103.67,148.32,103.69Zm.08-6.29s0,0,0,0S148.37,97.4,148.4,97.4Zm0,6s0,0,0,0S148.39,103.43,148.36,103.43Zm.06.18s0,0,0,0S148.45,103.61,148.42,103.61Zm.12-.22s0,0-.1,0,0,0,0,0Zm0,.49s-.06,0-.06,0S148.5,103.9,148.5,103.88Zm0-.29s.06,0,.06,0S148.5,103.6,148.5,103.59Zm0-.06s0,0,0,0S148.51,103.59,148.52,103.53Zm.06.1s0,0,0,0S148.58,103.61,148.58,103.63Zm0,.25s0,0-.06,0v0Zm0-.51s0,0-.05,0S148.57,103.36,148.62,103.37Zm0,.16s0,0,0,0S148.62,103.53,148.6,103.53Zm0,.14c0,.06,0,.07,0,0S148.63,103.63,148.62,103.67Zm0-.3a0,0,0,0,1,.07,0S148.68,103.38,148.62,103.37Zm.14,0a0,0,0,0,1,0,0S148.73,103.36,148.76,103.35Zm.11,0s0,0,0,0h-.08A.12.12,0,0,1,148.87,103.31Zm.24-.06s-.05,0-.07,0,0,0,0,0l-.06,0s0,0-.06,0l.09,0A.18.18,0,0,1,149.11,103.25Zm0,.14s0,0-.06,0l-.1,0,.08,0S149.08,103.38,149.09,103.39Zm-.13.11s0,0,0,0S149,103.52,149,103.5Zm.12,0s0,0,0,0S149.06,103.48,149.08,103.46Zm0,0,0,0S149.12,103.5,149.11,103.47Zm.12-.1s0,0,0,0,0,0-.06,0S149.19,103.33,149.23,103.37Zm-.1.18s0,0,0,0S149.13,103.53,149.13,103.55Zm.28-.34v0s0,0,0,0-.1,0-.12,0a.06.06,0,0,0-.06,0h-.06a.84.84,0,0,1,.16-.07.18.18,0,0,1,.15,0,.09.09,0,0,1-.07,0v0Zm-.18.16s0,0,0,0l.05,0S149.28,103.37,149.23,103.37Zm.1,0s0,0,.06,0S149.37,103.35,149.33,103.35Zm0,0h.08s0,0,0,0,0,0,0,0,0,0,0,0l0,0Zm.21-.1s0,0-.07,0l-.08,0Q149.44,103.2,149.56,103.27Zm0-.1s0,0,0,0Zm0,.18s0,0,0,0S149.5,103.36,149.52,103.35Zm0-.18s0,0,0,0S149.58,103.17,149.52,103.17Zm.28-.08s0,0-.06,0a0,0,0,0,0,0,0h-.1l.1-.06C149.75,103.05,149.79,103.06,149.8,103.09Zm-.18.14s0,0,0,0S149.64,103.27,149.62,103.23Zm.2-.17s.06,0,.07,0S149.87,103.08,149.82,103.06Zm.07.2s0,0,.05,0S149.87,103.24,149.89,103.26ZM150,103s-.05,0-.05,0,0,0-.05,0S150,103,150,103Zm0-14.8a0,0,0,0,0,0,0S150,88.2,150,88.2Zm.1,14.91s-.06,0,0,0,0,0,0,0a.11.11,0,0,1,.08,0S150.11,103.13,150.08,103.11Zm0,.06v0h0Zm0-.17s0,0,0,0Zm0,0s0,0,0,0S150.1,103,150.12,103Zm0-15s0,0,0,0S150.15,88,150.15,88Zm0,15s0-.06,0-.06l.09,0A.31.31,0,0,1,150.15,103Zm.12.15s-.06,0-.06,0S150.27,103.15,150.27,103.13Zm0-15.32s0,0,0,0S150.25,87.81,150.23,87.81Zm0,0s0,0,0,0S150.27,87.79,150.25,87.79Zm.06,15.34s0,0,0,0S150.31,103.17,150.31,103.13Zm.06-.29h0s0,0,0,0,0,0-.06,0-.05,0,0,0,0,0,0,0S150.37,102.86,150.37,102.84Zm0-15.16s-.05,0,0,.07a.09.09,0,0,1,.06-.06.09.09,0,0,0,.06-.06Zm0,15.32h-.06s.05,0,.12,0a0,0,0,0,1,0,0S150.41,103,150.41,103Zm0,0s.05,0,0,0S150.41,103,150.41,103Zm.06.59s0,0,0,0S150.48,103.61,150.47,103.59Zm.14-16.1v0h0S150.58,87.49,150.61,87.49Zm.06,0v0s0,0,0,0h0S150.63,87.45,150.67,87.45Zm0,15.31a0,0,0,0,1,0,0s0,0,0,0l0,0S150.61,102.76,150.63,102.76Zm.15-.06s0,0,0,.08-.08,0-.08,0,0,0,.05,0S150.75,102.69,150.78,102.7Zm-.05-15.21s0,0,0,0a0,0,0,0,0,0,0,0,0,0,0,0,0,0S150.73,87.48,150.73,87.49Zm.05,0s0,0,0,0Zm.06,15.23s0,0-.06,0S150.8,102.68,150.84,102.68Zm0-15.15s0,0,0,0S150.79,87.53,150.8,87.53Zm.08,15.13v0h0S150.86,102.66,150.88,102.66Zm0,.13s0,0,0,0S150.89,102.81,150.87,102.79Zm0-.13,0,0s0,0,0,0S150.9,102.66,150.88,102.66Zm0,0h0s0,0,0,0Zm0-15.39s0,0,0,0S150.93,87.29,150.9,87.29Zm.08,15.33s0,0,0,0S151,102.62,151,102.62Zm0-15.31s0,0,0,0S151,87.3,151,87.31Zm.06.08s0,0,0,0Zm.06,15.27s0,0,0,0S151.09,102.66,151.12,102.66Zm0-.08s0,0,0,0,0,0,0,0,0,0,0,0,0,0,0,.07S151.11,102.61,151.1,102.58Zm.35,0s0,0,0,0-.05,0-.05,0,0,0,0-.06l.08,0S151.47,102.55,151.45,102.55Zm0-15.33s0,0,0,0S151.4,87.2,151.4,87.22Zm0,15.24s0,0,0,0S151.43,102.45,151.43,102.46Zm0,.06v0s0,0,0,0Zm.06,0s0,0,0,0Zm0-15.38s.06,0,.06,0S151.5,87.07,151.51,87.1Zm.05,15.3s0,0,0,0,0,0,0-.05a0,0,0,0,1,.07,0A0,0,0,0,1,151.56,102.4Zm0,.06s0,0-.06,0S151.55,102.46,151.59,102.46Zm.06-.13s0,0,0,0,0,0,0,0S151.65,102.35,151.65,102.33ZM151.77,87s0,0-.07,0,0,0,0,.06h0l0,0s0,0,0,0,0,0,0,0a0,0,0,0,0,0,0l0,0s0,0,0,0S151.8,87,151.77,87Zm0,15.31a0,0,0,0,1,0,0S151.72,102.32,151.75,102.31Zm0,0s0,0,0,0S151.78,102.31,151.75,102.31Zm.12-.06s0,0,0,0S151.83,102.23,151.87,102.25Zm0,0s0,0,0,0S151.87,102.21,151.85,102.21ZM151.91,87s0,0,0,0Zm0-.1Zm0,15.27a0,0,0,0,1,0,0S151.9,102.22,151.93,102.21Zm0-.06s0,0,0,0S151.91,102.18,151.91,102.15Zm.1-15.23s-.06,0-.06,0S152,86.93,152,86.92Zm0,15.25s0,0,0,.07,0,0-.05,0S152,102.21,152.05,102.17Zm.07-15.25s0,0,0,0,0,0,0,0,0,0,0,0,0-.07,0,0l-.06.06s0,0,0,0h0s0,0,0,0Zm0,15.11s0,0,0,0S152.12,102,152.14,102Zm.13.11s0,0,0,0S152.27,102.17,152.27,102.14Zm0-.15s0,0,0,0S152.35,102,152.32,102Zm.18-.18s0,0-.06,0S152.46,101.81,152.5,101.81Zm0-8.07v0h0S152.49,93.74,152.5,93.74Zm0,8.07s0,0,0,0S152.52,101.81,152.5,101.81Zm0,0s0,0,0,0S152.55,101.79,152.54,101.79Zm0,.89,0,0s0,0,0,0Zm0-15.86a0,0,0,0,0,0,0s0,0,0,0l0,0S152.6,86.85,152.6,86.82Zm0,15s0,0,0,0S152.6,101.77,152.56,101.77Zm.1-15s0,0,0,0a0,0,0,0,0,0,0v0s-.06,0,0,0S152.63,86.85,152.66,86.82Zm0,15.8h0s0,0,0,0Zm.06,0a0,0,0,0,1,0,0S152.71,102.61,152.7,102.58Zm0-15.76h.07s0,0,0,0S152.7,86.78,152.72,86.82Zm.15-.08c-.06,0-.09,0-.07,0A0,0,0,0,0,152.87,86.74Zm-.06.06s0,0,0,0Zm.1,14.74s0,0,0,0S152.87,101.53,152.91,101.54Zm0-14.74s0,0,0,0a0,0,0,0,0,0,0s0,0,0,0S153,86.83,153,86.8Zm0,14.74a0,0,0,0,1,0,0S152.93,101.54,152.91,101.54Zm.24-14.92s0,0,0,0S153.12,86.62,153.15,86.62Zm0,.18h.08s0,0,0,0h-.07A.05.05,0,0,0,153.13,86.8Zm0,14.51s0,0,0,0S153.14,101.33,153.16,101.31Zm.05-14.67s0,0,0,0a.06.06,0,0,0,.08,0s0,0,0,0A.11.11,0,0,0,153.21,86.64Zm.27.18s0,0,0,0,0,0,0,0,0,0,0,0S153.48,86.83,153.48,86.82Zm0-.16,0,0S153.46,86.66,153.44,86.66Zm.35,0s0,0-.07,0S153.77,86.62,153.79,86.64Zm.13,0s0,0,0,0S153.89,86.66,153.92,86.66Zm.35.08c-.05,0-.07,0-.05,0S154.26,86.72,154.27,86.74Zm0,0a0,0,0,0,1,0,0S154.28,86.77,154.27,86.74Zm.14,0s0,0,0,0S154.37,86.74,154.41,86.76Zm.11-.05s0,0,0,0S154.5,86.73,154.52,86.71Zm0,0s.06,0,.06,0S154.57,86.74,154.57,86.72Zm.06,0a0,0,0,0,1,0,0S154.63,86.76,154.63,86.74Zm0,0a.11.11,0,0,0,.08,0s0,0,0,0l-.06,0A.05.05,0,0,1,154.65,86.76Zm.27.12a.06.06,0,0,1-.06,0,.15.15,0,0,0-.06,0s0,0,.06,0Zm0,0s0,0,0,0Z"/><path class="cls-27" d="M157,94l.05,0s0,0,0,0,0,0,0,0,0,0,0,0a.06.06,0,0,1,.07,0,0,0,0,0,0,.07,0l.44.15a.56.56,0,0,1,.29.23.44.44,0,0,1,.06.17c0,.08,0,.11,0,.08,0,.23-.06.43-.09.63s-.06.37-.09.56a.55.55,0,0,0-.12.39.63.63,0,0,1-.08.39.2.2,0,0,1,0,.2.94.94,0,0,1,0,.16.23.23,0,0,1,0,.16.6.6,0,0,1-.44-.17,1,1,0,0,1-.25-.42,2,2,0,0,1-.08-.55,2.12,2.12,0,0,1,.06-.52,3.37,3.37,0,0,0-.57.68c-.16.26-.32.51-.49.76a.37.37,0,0,1-.39,0l-.3-.21c0-.14-.07-.23-.14-.25a5.41,5.41,0,0,1,.36-1.49c.18-.48.34-1,.49-1.47a.16.16,0,0,1,.1,0,.51.51,0,0,0,0-.16c.14-.51.31-1,.49-1.57s.35-1.06.51-1.56a.17.17,0,0,1,0-.12.23.23,0,0,1,0-.11.56.56,0,0,1,.23,0,.39.39,0,0,1,.23.07.77.77,0,0,1,.13.52c0,.19,0,.37,0,.53-.09.35-.18.68-.28,1s-.2.62-.29.95a10.6,10.6,0,0,1-.43,1.17c-.16.36-.3.75-.44,1.15a3.09,3.09,0,0,0,.47-.57A4.37,4.37,0,0,1,157,94Zm-1.81,1.54s0,0,0,0S155.16,95.53,155.14,95.57Zm0-.08s0,0,0,0S155.17,95.45,155.16,95.49Zm.08-.14v0h0v0Zm0,.22s0,0,0,0S155.23,95.54,155.22,95.57Zm0-.4s0,0,.06,0,0-.07,0,0a.08.08,0,0,1,0,0S155.24,95.15,155.26,95.17Zm.08-.07c0,.06,0,.08,0,.05S155.38,95.1,155.34,95.1Zm0-.08s0,0,0,0,0,0,0,0,0,0,0,0S155.37,95,155.39,95Zm.06-.18s0,0,0,0S155.45,94.85,155.45,94.84Zm0,.45s0,0,0,0S155.43,95.27,155.41,95.29Zm.06-.69s0,0,0,0S155.47,94.62,155.47,94.6Zm0,0s0,0,0,0S155.49,94.52,155.47,94.56Zm.06-.09v0h0v0Zm0,0s0,0,0,0S155.53,94.47,155.51,94.5Zm0-.13a.3.3,0,0,1,0-.11c0-.05,0-.08,0-.11l-.05.11A.11.11,0,0,0,155.55,94.37Zm.06,0a.05.05,0,0,0,0,0s0,0,0,0h.06v-.08s0,0,0,0S155.6,94.28,155.61,94.33Zm0-.22s0,0,0,0S155.62,94.07,155.61,94.11Zm.16-.2s0,0,0,0S155.77,93.93,155.77,93.91Zm.18-.71s0,0,0,0S156,93.22,156,93.2Zm0,.2s0,0,0,0S156,93.41,156,93.4Zm.09-.23a.07.07,0,0,1-.06,0s0,0,0,0S156,93.22,156,93.17Zm0,0s0,0,0,0S156,93.24,156,93.22Zm1,.75a.14.14,0,0,0,0,.06s0,0,0,0S156.94,94,157,94Z"/><path class="cls-27" d="M159.51,95.69c-.06,0-.08,0-.06,0s0,.05,0,.07v0s0,0,0,0a0,0,0,0,0,0,0l-.13.18a.85.85,0,0,1-.16.17s0,0,.05,0,0,0,.05,0a.45.45,0,0,1-.14.19c-.07,0-.09.13-.08.24l-.17.19a.69.69,0,0,1-.17.17.28.28,0,0,1-.23,0,.55.55,0,0,0-.2-.11.69.69,0,0,0-.1-.17.62.62,0,0,1-.1-.16,4.82,4.82,0,0,1,.29-1.32,11.94,11.94,0,0,0,.4-1.34.15.15,0,0,0,.08-.15.16.16,0,0,1,.08-.15.06.06,0,0,0,0,0s0,0,0,0a.34.34,0,0,1,.28-.07.68.68,0,0,1,.27.13,1.24,1.24,0,0,1,0,.81c-.09.25-.2.5-.3.75,0,.06,0,.1,0,.1a3.32,3.32,0,0,0-.22.53l-.16.57q.24-.23.45-.45a2.41,2.41,0,0,1,.48-.42.22.22,0,0,1-.07.17A.35.35,0,0,0,159.51,95.69Zm.4-4.4a1.42,1.42,0,0,1,.05.42.93.93,0,0,1-.1.38.72.72,0,0,1-.25.27.61.61,0,0,1-.39.06,2.66,2.66,0,0,0,.05-.35,1.75,1.75,0,0,1,0-.4.71.71,0,0,1,.14-.33.43.43,0,0,1,.35-.11l.05.06S159.89,91.32,159.91,91.29Zm-.38,4.42s0,0,0,0S159.53,95.69,159.53,95.71Z"/><path class="cls-27" d="M161.07,94.05c0,.07,0,.08,0,0a.28.28,0,0,1,.05-.08s0,0,0,0h0l.07-.06.07-.06s0,0,0,0a0,0,0,0,0,0,0,.1.1,0,0,1,.06-.07s0,0,0,0h0a.32.32,0,0,1,.08-.13.24.24,0,0,0,.07-.13l.22-.25.22-.22s0,0,0,0,0,0,0-.06a.57.57,0,0,1,.35.07,3.07,3.07,0,0,0,.34.14,1.09,1.09,0,0,1,.23.67.57.57,0,0,1,0,.24c0,.07-.05.14-.08.22a4.43,4.43,0,0,0-.19.8,6.57,6.57,0,0,1-.16.77s-.06,0,0,0,0-.06,0-.06a.85.85,0,0,1,0,.22h-.14a1.32,1.32,0,0,1-.16-.52,2.8,2.8,0,0,1,0-.58,5.61,5.61,0,0,1,.06-.59,4,4,0,0,0,.07-.57s-.05,0-.07.06a.14.14,0,0,1-.12.09c-.34.5-.67,1-1,1.49A14.91,14.91,0,0,0,160,97a.51.51,0,0,1-.38-.14,2,2,0,0,1-.23-.32c.15-.43.32-.85.51-1.27s.36-.81.52-1.21a.58.58,0,0,1,.43.14s0,0,.05,0a.18.18,0,0,1,0-.08s.05.06.06,0A.11.11,0,0,1,161.07,94.05Zm0-.08Zm0,.08s0,0,0,0Zm0-.16Zm.14-.13s0,0,0,0A0,0,0,0,0,161.25,93.76Zm0,0s0,0,0,0A0,0,0,0,1,161.25,93.76Zm0-.05s0,0,0,0S161.3,93.73,161.28,93.71Zm.22-.35s0,0,0,0S161.48,93.36,161.5,93.36Zm.16-.16s0,0,0,0Z"/></g></g></g></svg>