<svg xmlns="http://www.w3.org/2000/svg" viewBox="0 0 293.66 274.25"><defs><style>.cls-1{isolation:isolate;}.cls-2{opacity:0.15;}.cls-3{fill:#99d9e8;}.cls-17,.cls-4{fill:#d5d5d6;}.cls-5{fill:#d0d3d4;}.cls-6,.cls-8{fill:#cdcfd0;}.cls-10,.cls-17,.cls-24,.cls-28,.cls-31,.cls-34,.cls-6,.cls-8{mix-blend-mode:multiply;}.cls-7{fill:#f58f9c;}.cls-10,.cls-17,.cls-28,.cls-31,.cls-34,.cls-8{opacity:0.5;}.cls-10,.cls-9{fill:#dec297;}.cls-11{fill:#e6d2ac;}.cls-12{fill:#bbbebf;}.cls-13{fill:#241f20;}.cls-14{fill:#8e9193;}.cls-15{fill:#59595b;}.cls-16{fill:#6e6f71;}.cls-18{fill:#f47f62;}.cls-19{fill:#f08e7b;}.cls-20{fill:#434143;}.cls-21{fill:#763e35;}.cls-22{fill:#2e2e2e;}.cls-23{fill:#fdd378;}.cls-24{fill:#9c9b9b;}.cls-25{fill:#e0593c;}.cls-26{fill:#7aa073;}.cls-27{fill:#65c18e;}.cls-29{fill:#2e6b76;}.cls-30,.cls-31{fill:#f1bc96;}.cls-32{fill:#609157;}.cls-33{fill:#562b0e;}.cls-34{fill:#9b8365;}.cls-35{fill:#7ca077;}.cls-36{fill:none;stroke:#000;stroke-miterlimit:10;stroke-width:0.19px;}</style></defs><title>Asset 46</title><g class="cls-1"><g id="Layer_2" data-name="Layer 2"><g id="Layer_1-2" data-name="Layer 1"><g class="cls-2"><path class="cls-3" d="M156.6,274.25l-.06-137h0v0h0v0h.08l0,0,.12,0h-.05l110.73,80.56A137.56,137.56,0,0,1,237.21,248l-80.6-110.68L199,267.55A136.8,136.8,0,0,1,156.6,274.25Zm-.06-137v5.08a5.28,5.28,0,0,0,1.58-.27Zm.24.15,2.84,3.9a4.84,4.84,0,0,0,1.06-1.06ZM114.25,267.59A137,137,0,0,1,76,248.09l77.58-106.75a5.64,5.64,0,0,0,1.39.69ZM45.69,217.86a136.79,136.79,0,0,1-19.56-38.25l125.51-40.87a5.31,5.31,0,0,0,.69,1.39ZM287,179.48,156.73,137.2h.08l4.63,1.5a5.25,5.25,0,0,0,.27-1.51h0v0l132-.43v.37A136.89,136.89,0,0,1,287,179.48ZM19.41,137.58v-.45a136.87,136.87,0,0,1,6.64-42.22l129.24,41.8h.57L45.53,56.61A137.35,137.35,0,0,1,75.74,26.32L156.29,136.7h.09L114,6.75A136.72,136.72,0,0,1,156.32,0l.21,132a5.28,5.28,0,0,0-1.58.27l1.46,4.48h.12v0h.12l-.12.34h0v.05h0v0h-5.19v.06h-132Zm132.22-2a5.07,5.07,0,0,0-.25,1.19l3.84,0Zm1.82-2.57a4.64,4.64,0,0,0-1.06,1.06l3.66,2.67h.11Zm8.26,4.15h-5.08l0,0,1.25-.41,3.8,0Zm-5-.08.47-.35h.6Zm4.69-1.54a5.64,5.64,0,0,0-.69-1.39L267.29,56.27a136.58,136.58,0,0,1,19.6,38.24Zm-1.91-2.6a5.31,5.31,0,0,0-1.39-.69L198.68,6.62A136.84,136.84,0,0,1,237,26.08Z"/></g><path class="cls-4" d="M85.62,192.4s-9.92,5.39-15.88,2-9.36-4.82-13.89-3.69-9.64-7.09-9.93-10.21-13.61-14.17-21.83-5.67-5.67,13.33-8.79,11.63-11.06-4-14.47,3.4,4.26,13.61,11.06,10.78S19,194.39,19,194.39s.29,1.7,5.11.85,6.8-2.55,7.65-2-.28,3.12,3.12,5.39,9.08,1.14,15-.28,8.51-1.14,16.73,0S76.26,198.36,85.62,192.4Z"/><path class="cls-5" d="M284,223.52c0,2.78-43.78,5-97.78,5s-97.79-2.24-97.79-5,43.78-5,97.79-5S284,220.75,284,223.52Z"/><path class="cls-6" d="M214.47,99.87A6.17,6.17,0,0,1,217.12,98a5.39,5.39,0,0,0-.68.67c-3.14,3.82-4.16,8.92,1.55,10.85a18.27,18.27,0,0,0,8,.82l-.22,2a17.54,17.54,0,0,1-9.9-1.33C210.67,108.65,211.58,103.65,214.47,99.87Z"/><path class="cls-7" d="M226.45,97.61s-6.16-.88-8.78,1.11c0,0,5-.89,8.45.11Z"/><path class="cls-8" d="M227.45,97.31c-1.22,10.86.06,12.62.06,12.62a6.18,6.18,0,0,1-.17.61c-.55,1.56-1.55,1.78-1.55,1.78s-.65-8.49,1.66-15Z"/><polygon class="cls-9" points="70.82 143.51 130.89 143.51 130.96 106.25 70.89 106.1 70.82 143.51"/><rect class="cls-9" x="94.43" y="66.92" width="13.01" height="66.21" transform="translate(0.67 200.72) rotate(-89.86)"/><path class="cls-10" d="M124.76,137.52c4-2.81,1.81-28.12,1.81-28.12l-55.69-2.94.61-.35,59.47.14-.07,37.26H70.82S120.81,140.32,124.76,137.52Z"/><path class="cls-10" d="M67.84,93.44l44.7.11c-1.16,0-38.16-.06-40.32,1.66s-.45,7.73-.45,7.73S134,104.85,134,106.61l-66.21-.16Z"/><path class="cls-11" d="M131.32,95.26s-33.23-.53-35,0,32.24-.27,33.11,1.62a29.43,29.43,0,0,1,1.43,6.19Z"/><path class="cls-11" d="M74.11,107.15s-1.76,26.6-1.15,28,1-25.46,3.43-26.09,7.46-1.3,7.46-1.3Z"/><polygon class="cls-4" points="118.55 172.57 113.22 172.49 82.14 145.47 87.47 145.54 118.55 172.57"/><rect class="cls-12" x="67.82" y="143.53" width="65.04" height="2.63"/><path class="cls-13" d="M224,197.33a26.55,26.55,0,1,0,26.54-26.54A26.55,26.55,0,0,0,224,197.33Z"/><path class="cls-14" d="M233.48,197.33a17.11,17.11,0,1,0,17.1-17.1A17.11,17.11,0,0,0,233.48,197.33Z"/><path class="cls-15" d="M236.33,197.33a14.25,14.25,0,1,0,14.25-14.25A14.25,14.25,0,0,0,236.33,197.33Z"/><path class="cls-16" d="M243.6,197.33a7,7,0,1,0,7-7A7,7,0,0,0,243.6,197.33Z"/><path class="cls-4" d="M250.61,194.94a2.22,2.22,0,0,1-.57,2.81l0,0a2.21,2.21,0,0,1-2.85-.25L230.64,180a1.68,1.68,0,0,1,.23-2.55l5.06-3.79a1.69,1.69,0,0,1,2.51.51Z"/><path class="cls-17" d="M235.93,173.62l-5.06,3.79a1.68,1.68,0,0,0-.23,2.55l2.33,2.48s1.94-5.65,6.51-2.17,8.34,12.65,8.43,14.28-2.55,1.06-2.55,1.06l1.8,1.91a2.21,2.21,0,0,0,2.85.25l0,0a2.22,2.22,0,0,0,.57-2.81l-12.17-20.81A1.69,1.69,0,0,0,235.93,173.62Z"/><path class="cls-18" d="M216.86,202h15.63s9.94-21.16,43.73-21.16c0,0-3.78-22.1-32.24-15.44S216.86,202,216.86,202Z"/><path class="cls-6" d="M223.46,196.16l9,4.75H216.86S215.53,171,244,164.31c6.41-1.5,12.76-.17,16.9.67C260.1,165,231,161.14,223.46,196.16Z"/><path class="cls-19" d="M273.55,178.09s-21,.16-36.46,13.31c0,0,9.71-13.78,31.28-15.52,0,0-.89-7.61-6.67-10.46C261.7,165.42,269.26,167,273.55,178.09Z"/><rect class="cls-20" x="90.52" y="190.83" width="11.35" height="6.82"/><path class="cls-13" d="M105.54,197.33a26.54,26.54,0,1,0,26.54-26.54A26.55,26.55,0,0,0,105.54,197.33Z"/><path class="cls-14" d="M115,197.33a17.1,17.1,0,1,0,17.1-17.1A17.1,17.1,0,0,0,115,197.33Z"/><path class="cls-15" d="M117.83,197.33a14.25,14.25,0,1,0,14.25-14.25A14.25,14.25,0,0,0,117.83,197.33Z"/><path class="cls-16" d="M125.1,197.33a7,7,0,1,0,7-7A7,7,0,0,0,125.1,197.33Z"/><path class="cls-21" d="M216.89,101.76a12.69,12.69,0,0,0-6.66,2.44,22.86,22.86,0,0,0-3.68,3.67,10.28,10.28,0,0,0-.33,4.56c.45,2.22,4.88,10.89,4.88,10.89l4.68-4.67-.89-6.22a4.79,4.79,0,0,1,2.45-4.89Z"/><path class="cls-6" d="M206.55,107.87a22.86,22.86,0,0,1,3.68-3.67,12.69,12.69,0,0,1,6.66-2.44l.09,1.1c-1.14.37-2.57.85-3.87,1.19-3.94,1.06-4.78,3.67-4.78,3.67a17.46,17.46,0,0,0-.33,5.67c.3,1.49,5.15,5.34,5.84,8.07l-2.74,1.86s-4.43-8.67-4.88-10.89A10.28,10.28,0,0,1,206.55,107.87Z"/><path class="cls-22" d="M190,200.76l-3.75,5s-1.15,1.78-4.26,1.78h-20.9a20,20,0,0,1-7.55-1.55c-3.12-1.56-4-2-7.12-2H134.69s-3,.59-5.85-3.12a56.67,56.67,0,0,1-4.23-6.45h24.46S164,201.65,190,200.76Z"/><path class="cls-23" d="M227.57,97s.89,0,.89,3-.56,9-1.12,10.56-1.55,1.78-1.55,1.78S225.12,103.54,227.57,97Z"/><path class="cls-18" d="M227.57,97c-.78,0-10.21-.89-13.1,2.89s-3.8,8.78,1.42,11.12a17.54,17.54,0,0,0,9.9,1.33Z"/><polygon class="cls-15" points="133.14 201.36 151.14 201.36 149.43 200.23 132.12 200.23 133.14 201.36"/><polygon class="cls-15" points="131.07 199.05 147.66 199.05 146.2 198.09 130.2 198.09 131.07 199.05"/><path class="cls-20" d="M116.45,145.92s20.23,1,30.35-1.27,20.93-3.56,23,.5,4.47,10.92,3.06,12.19-4.94,1.78-7.29,1.78H113s-1.46.25-2.64-3.81S107,144.65,116.45,145.92Z"/><path class="cls-24" d="M110.33,155.31c-.72-2.49-1.79-5.94-.34-7.94h0c.13,9.58,6.46,8.7,15.56,7.68s30.73-2,38.57-2.37,6.83-5.19,6.83-5.2c1.72,4,3.12,8.81,2,9.86-1.41,1.27-4.94,1.78-7.29,1.78H113S111.51,159.37,110.33,155.31Z"/><path class="cls-13" d="M208.28,109.12a3.39,3.39,0,1,1-3.39-3.39A3.39,3.39,0,0,1,208.28,109.12Z"/><path class="cls-18" d="M217,112.73s-24-3.56-18.75,35.05c4,29.07,10.43,38,3.76,40s-30.87,0-30.87,0a6.35,6.35,0,0,1-4.89-7.55c.89-6.45,6.41-15.12,7.08-23.35H114.06s-19,13.12-19.24,44H108.6a6.51,6.51,0,0,0,5-2c2.4-2.34,3.18-3.18,3.18-3.18h27.17s2.22-.54,5.28,1.73,5.88,6.18,9.66,6.18h42.28a17.86,17.86,0,0,0,13.25-6.29c5.64-6.6,10.38-17.55,14.16-23.33s10.69-8.47,17.15-9.5c0,0-4.14-11.89-11.63-14.73S219.38,127.47,217,112.73Z"/><path class="cls-25" d="M158.36,192.86c-.63-1.4-3.18-7.73-1.17-13.3,2.28-6.3,2.28-11.94-9.43-11.94s-28.3,3-34.81,11.94c-5.62,7.73-6.63,12.49-6.8,13.64h0s.34-5.29,7-14.82,23.82-12.7,35.89-12.7,12.07,6,9.73,12.7,1.34,14.47,1.34,14.47Z"/><path class="cls-6" d="M114.06,156.89H173.3a9.76,9.76,0,0,1-.37,2h0s-39.25,3.81-46.66,2-15.71,4.15-19,9.79-5.07,18.08-3.29,22.52,2.9,6,6.82,4.15,3-4.14,9.49-3.85,22.82,0,22.82,0a11,11,0,0,1,8,2.67c3.86,3.26,12.45,5.33,25.5,5.63s26.94,1.76,33.79-3.26,15-19.27,15.24-19.61c-3.22,5.86-7,13.39-11.28,18.41a17.86,17.86,0,0,1-13.25,6.29H158.86c-3.78,0-6.6-3.9-9.66-6.18s-5.28-1.73-5.28-1.73H116.75s-.78.84-3.18,3.18a6.51,6.51,0,0,1-5,2H94.82C95.05,170,114.06,156.89,114.06,156.89Z"/><path class="cls-6" d="M201.78,129.62c.66,14,9.09,47.35,7.31,53.14s-4,6.44-12.22,7.55-24.26-.05-27.24-3.05h0a6.67,6.67,0,0,0,1.48.54s24.2,2,30.87,0,.2-10.94-3.76-40c-5.26-38.61,18.75-35,18.75-35l.14.85S201.11,115.62,201.78,129.62Z"/><path class="cls-19" d="M216.49,118.63s.85,27.9,11.55,34.44,11.13,4.78,15.6,11.07a68.6,68.6,0,0,0-7.09-9.66C233.13,150.88,221.43,149.4,216.49,118.63Z"/><path class="cls-13" d="M187.17,182.13s.32,4.22.63,5.65c0,0,12.44,1,15.4.1s2.55-2.86.3-4.08-8.36-2.36-8.36-2.36S189.11,182.33,187.17,182.13Z"/><path class="cls-20" d="M182.75,183.7s.32,4.22.62,5.65c0,0,12.45,1,15.41.1s2.55-2.86.3-4.08-8.36-2.37-8.36-2.37S184.68,183.9,182.75,183.7Z"/><path class="cls-26" d="M134.37,128.29s-4.11,17.18,9.24,19.74,27.83-3.27,28.12-.43,15.46,34.6,15.46,34.6,4.6,2.2,10.56-.65c0,0-12.53-39.91-13.95-43s-10.24-8.66-16.17-7.18S155.82,134.54,134.37,128.29Z"/><path class="cls-27" d="M133.89,128.29s-3.63,17.18,9.72,19.74,27.83-3.27,28.12-.43,10.53,36.1,10.53,36.1a16.67,16.67,0,0,0,11.89-.65s-8.93-41.41-10.35-44.54-10.24-8.66-16.17-7.18S156.19,130.42,133.89,128.29Z"/><path class="cls-26" d="M174.66,148.45c.56-.85.28-6-10.51-3.69S143,146,139.58,143.2s-5.68-11.79,6.25-8.95a32.16,32.16,0,0,0,21.8-2.92h0c-5.94,1.48-11.44-.91-33.74-3,0,0-3.63,17.18,9.72,19.74s27.83-3.27,28.12-.43c.23,2.31,9,30.82,10.11,34.66C180.28,176.36,174.13,149.24,174.66,148.45Z"/><g class="cls-28"><path class="cls-29" d="M188.14,184.51h0Z"/><path class="cls-29" d="M188.93,184.47a14.6,14.6,0,0,0,5.22-1.42s-8-36.51-9.78-42.8c0,.08,8.92,40.94,8.28,42A5.62,5.62,0,0,1,188.93,184.47Z"/></g><path class="cls-30" d="M199.16,101.39s6.44-.93,9.64,1.84,2.45,6.59,1.44,7.45-2.14.93-2.64.22.29-1,.07-2.65-1.93-3.29-3-2-3.49,2.18-5.72,2.14Z"/><path class="cls-31" d="M204.67,106.25c1.07-1.29,2.79.36,3,2s-.57,1.93-.07,2.65,1.64.64,2.64-.22c-1.28.6-1.6.66-1.66-.11s1.13-2.44-1.15-4.44c-1.35-1.19-3.06-1.19-5.07.13s-2.64-.06-2.43-2.43,1.68-2.58,1.73-2.59a19.58,19.58,0,0,0-2.5.15l-.21,7C201.18,108.43,203.6,107.54,204.67,106.25Z"/><path class="cls-27" d="M131.57,126.9s21.41,12.18,39.87,2.81c0,0,6.54-40.9-13.06-50.28,0,0-7.42-3.12-10.77-2.9S129.69,95.62,131.57,126.9Z"/><path class="cls-30" d="M147.59,78.3s6,4.54,10.79,2.55v-8.8H147.66Z"/><path class="cls-31" d="M147.66,72.05l0,3.45c3.86,1.41,10.76,1.74,10.76,1.74V72.05Z"/><path class="cls-26" d="M171.44,129.71a105,105,0,0,0,.7-23.07c-1.35-1.52-2.39-3.07-2.53-4.34-.42-3.84-8.32-15.71-8.32-15.71S158.75,82.7,154.7,84s-10.86,5.75-8.52,12.57,7.67,10.86,11.72,15.76,11.29,6.82,10.22,9-18.74-4.69-18.74-4.69,13.2,8.73,16,10-4,4-10.65,3-24.69,1.35-22.5-19.91a88.05,88.05,0,0,0-.63,17.24S153,139.08,171.44,129.71Z"/><path class="cls-27" d="M198.12,112.32c-24.37,3.23-27.18,3.49-29.41,3.87-3.84.66-11.29-8.66-15.91-13.94s-6.22-11.3-3.59-13.51c0,0,3.34-3.72,7.19-4s7.18,3.52,8.72,6.87,7.13,12.25,7.13,12.25l27.21-3.31S199.83,109.34,198.12,112.32Z"/><path class="cls-32" d="M195,111.68c-3.52,1.49-20.08,3-23.49,2.55s-4.9-1.28-5.75-4.69c0,0-4.26,1.49-7.46-3.19s-7.92-10.52-8.52-14.06,3-6.87,9.18-7.08a6,6,0,0,0-2.58-.43c-3.85.24-7.19,4-7.19,4-2.63,2.21-1,8.23,3.59,13.51s12.07,14.6,15.91,13.94c2.23-.38,5-.64,29.41-3.87,1.71-3,1.34-11.73,1.34-11.73S198.54,110.2,195,111.68Z"/><path class="cls-30" d="M176.5,55.55h0c-2.59-7-3.76-16.9-17.7-15.6-10.09.94-18.34,8.21-18.34,18.34a18.34,18.34,0,0,0,36.45,2.91c1.52.07,2.91,0,3.31-.28C181.2,60.12,177.12,55.74,176.5,55.55Z"/><path class="cls-33" d="M143.09,67.77s-.35-6.27,4.45-4.72c5.39,1.74,10-4.65,10-4.65L157,62.23s14.11-6.09,18-10.56-2.09-10.44-4.77-10.74-16.3-4-24.16,4.77S138.53,60,143.09,67.77Z"/><path class="cls-10" d="M160,56.5s9.85-6.72,15.1-13.48c0,0,16.1-2.39,16.1-1S178.55,56.26,160,56.5Z"/><path class="cls-34" d="M191.15,42c-1.61,2.28-6.26,6.09-16.15,9.64s-7.09-.55-7.09-.55l-.23-.62c-4.06,3.49-7.73,6-7.73,6C178.55,56.26,191.15,43.42,191.15,42Z"/><path class="cls-27" d="M140.79,64.09s25.27-6,34.26-21.07c0,0-3.75-14.71-24.34-8.55S140.79,64.09,140.79,64.09Z"/><path class="cls-35" d="M142.2,51.52c-.86-11.87,6.42-16.3,6.54-16.37-17.92,7-8,28.94-8,28.94s25.27-6,34.26-21.07C164.05,56.59,143.06,63.48,142.2,51.52Z"/><circle cx="168.04" cy="59.82" r="1.59"/><path class="cls-36" d="M167.92,71.3s3,.8,3.64.14"/></g></g></g></svg>