<svg xmlns="http://www.w3.org/2000/svg" viewBox="0 0 262.68 271.83"><defs><style>.cls-1{opacity:0.15;}.cls-2{fill:#fccd8e;}.cls-3{fill:#f9ad89;}.cls-4{fill:#f69169;}.cls-5{fill:#7aa073;}.cls-6{fill:#7fc574;}.cls-7{fill:#f47f62;}.cls-8{fill:#f26349;}.cls-9{fill:#ffcd05;}.cls-10{fill:#f9a81a;}.cls-11{fill:#fcee32;}.cls-12{fill:#fdfefe;}.cls-13{fill:#856126;}.cls-14{fill:#facf1f;}.cls-15{fill:#f6df3e;}.cls-16{fill:#f8e262;}.cls-17{fill:#e8a922;}.cls-18{fill:#e39826;}.cls-19{fill:#d17928;}.cls-20{fill:#c46a28;}.cls-21{fill:#bf6027;}.cls-22{fill:#e7a423;}.cls-23{fill:#d18929;}.cls-24{fill:#f28a21;}.cls-25{fill:#da7727;}.cls-26{fill:#d66a27;}.cls-27{fill:#fee57b;}.cls-28{fill:#fed93c;}.cls-29{fill:#c86f29;}.cls-30{fill:#fff3a9;}.cls-31{fill:#fee164;}.cls-32{fill:#fff2b4;}.cls-33{fill:#fdde55;}.cls-34{fill:#e4a424;}</style></defs><title>Asset 48</title><g id="Layer_2" data-name="Layer 2"><g id="Layer_1-2" data-name="Layer 1"><g class="cls-1"><path class="cls-2" d="M131.41,271.83l-.07-131.25h0v0h0v0h.08l0,0,.12,0h-.05l106.05,77.15a131.21,131.21,0,0,1-29,29l-77.2-106L172,265.41A131.47,131.47,0,0,1,131.41,271.83Zm-.07-131.25v4.87a5.1,5.1,0,0,0,1.51-.26Zm.23.15,2.73,3.73a4.44,4.44,0,0,0,1-1ZM90.84,265.45a131,131,0,0,1-36.68-18.68l74.31-102.24a5.5,5.5,0,0,0,1.33.66ZM25.17,217.82A131.06,131.06,0,0,1,6.44,181.18L126.65,142a5.16,5.16,0,0,0,.66,1.33Zm231.1-36.76L131.53,140.57h.08L136,142a4.64,4.64,0,0,0,.25-1.44h0v0l126.39-.41v.35A131.18,131.18,0,0,1,256.27,181.06ZM0,140.93v-.44a131.3,131.3,0,0,1,6.36-40.44l123.79,40h.55L25,63.37A131.63,131.63,0,0,1,54,34.36l77.15,105.73h.08L90.59,15.62a131.34,131.34,0,0,1,40.54-6.47l.2,126.39a5,5,0,0,0-1.51.25l1.4,4.3h.12v0h.12l-.12.32h0v0h-5v.07H0Zm126.64-2a5.18,5.18,0,0,0-.24,1.14l3.68,0Zm1.74-2.46a4.65,4.65,0,0,0-1,1l3.5,2.55H131Zm7.91,4h-4.86l0,0,1.2-.39,3.63,0Zm-4.76-.07.46-.34h.57ZM136,139a5,5,0,0,0-.66-1.33L237.43,63.05a131.17,131.17,0,0,1,18.76,36.62Zm-1.83-2.49a5,5,0,0,0-1.33-.66L171.71,15.49A131.22,131.22,0,0,1,208.4,34.13Z"/></g><path class="cls-3" d="M144.18,192.38c-19.7,0-51.8-23.34-55.81-23.34s-5.11,19.7-7.29,21.16S69.77,196,66.12,199s32.1,33.92,75.87,33.92,70-28.08,71.49-31.37-18.6-10.21-18.6-10.21-1.46-19-4-20.79S167.52,192.38,144.18,192.38Z"/><path class="cls-3" d="M85.45,121.06s-6.6,20.25-5.72,26.63,44.24,35.88,63.17,35,47.54-28.62,50.84-33,0-29,0-29Z"/><path class="cls-4" d="M79.73,147.69c.88,6.38,44.24,35.88,63.17,35,.64,0,1.29-.1,1.94-.19.33-8.65-1.06-28.72-1.06-28.72L101.87,121l-16.42.07S78.85,141.31,79.73,147.69Z"/><path class="cls-4" d="M135.2,86.72c-10.13,0-49.75,22.45-49.75,34.34s42.7,35.88,57.45,35.88,50.84-26.2,50.84-36.32S153.69,86.72,135.2,86.72Z"/><path class="cls-3" d="M216.77,128.16c-13.56,4-27.5,6.49-41.59,6.07-20.05-.58-40.53-7.69-54.48-21.91-7,5.46-12.12,11.08-12.12,15.35,0,11.88,42.7,35.87,57.45,35.87C180.34,163.54,214.77,138.87,216.77,128.16Z"/><ellipse class="cls-5" cx="138.28" cy="119.3" rx="24.43" ry="14.97"/><path class="cls-6" d="M128.81,75.28s-6.6,39.17-5.94,45.78,24.87,8.8,31.48.66-11.23-48.65-11.23-48.65Z"/><path class="cls-5" d="M128.81,75.28s-1.64,9.74-3.2,20.33A38.86,38.86,0,0,0,137.1,90,30.33,30.33,0,0,0,146,79.93c-1.65-4.14-2.84-6.86-2.84-6.86Z"/><circle class="cls-7" cx="136.74" cy="60.6" r="28.98" transform="translate(-2.8 114.44) rotate(-45)"/><path class="cls-8" d="M145,78.2a28.88,28.88,0,0,1-26.9-39.64,28.91,28.91,0,1,0,45.51,32.7A28.67,28.67,0,0,1,145,78.2Z"/><path class="cls-6" d="M151.19,144.7c0,3.64-3.68,6.59-8.22,6.59s-8.21-2.95-8.21-6.59,3.68-6.58,8.21-6.58S151.19,141.06,151.19,144.7Z"/><path class="cls-5" d="M145.32,148.7c-4.54,0-8.22-2.95-8.22-6.59a5.47,5.47,0,0,1,.59-2.42,6.13,6.13,0,0,0-2.93,5c0,3.64,3.68,6.59,8.21,6.59,3.47,0,6.42-1.73,7.63-4.17A9.41,9.41,0,0,1,145.32,148.7Z"/><path class="cls-6" d="M188.94,119.3c0,3.63-3.68,6.58-8.21,6.58s-8.22-2.95-8.22-6.58,3.68-6.59,8.22-6.59S188.94,115.66,188.94,119.3Z"/><path class="cls-5" d="M183.07,123.3c-4.53,0-8.21-3-8.21-6.59a5.44,5.44,0,0,1,.59-2.42,6.12,6.12,0,0,0-2.94,5c0,3.63,3.68,6.58,8.22,6.58,3.46,0,6.42-1.73,7.62-4.16A9.41,9.41,0,0,1,183.07,123.3Z"/><path class="cls-6" d="M107.76,121.83c0,3.63-3.68,6.58-8.22,6.58s-8.22-3-8.22-6.58,3.68-6.59,8.22-6.59S107.76,118.19,107.76,121.83Z"/><path class="cls-5" d="M101.89,125.83c-4.54,0-8.22-3-8.22-6.59a5.44,5.44,0,0,1,.59-2.42,6.14,6.14,0,0,0-2.94,5c0,3.63,3.68,6.58,8.22,6.58,3.47,0,6.42-1.73,7.63-4.16A9.43,9.43,0,0,1,101.89,125.83Z"/><path class="cls-9" d="M119.35,33.24s15.85-12.33,37.2-.44c0,0,4.4-15.63-1.76-22.46,0,0-7.49,3.31-9.69,5.95,0,0-4.18-12.77-9.9-16.29,0,0-6.83,5.5-7.93,17.17,0,0-6.16-3.52-10.78-3.3C116.49,13.87,113.41,28.17,119.35,33.24Z"/><path class="cls-10" d="M156.55,32.8s.43-1.53.83-3.83a22.34,22.34,0,0,0-4-1.94c-4.6-1.72-9.56-2.18-14.42-2.92a79.71,79.71,0,0,1-12.21-2.71c-4.06-1.29-8.31-3.47-10.41-7-.49,2.65-2.29,14.34,3,18.82C119.35,33.24,135.2,20.91,156.55,32.8Z"/><path class="cls-11" d="M138.24,6.6a9,9,0,0,0-2.31-2.88.5.5,0,0,0-.73.56,17.08,17.08,0,0,0,1.55,3.19,14.07,14.07,0,0,0,1.61,3.25.85.85,0,0,0,1.45-.6A8.23,8.23,0,0,0,138.24,6.6Z"/><path class="cls-12" d="M89.89,203.4a9.45,9.45,0,0,1-1.14-5,9.85,9.85,0,0,1,1.68-5,9.66,9.66,0,0,1,3.91-3.51,9.54,9.54,0,0,1,5-.93,11.54,11.54,0,0,1,8.25,4.88,8.76,8.76,0,0,1,1.45,3.81l-3.12.54a6.76,6.76,0,0,0-3.06-4.7,7.23,7.23,0,0,0-3.44-1.22,6.19,6.19,0,0,0-3.36.67,7.35,7.35,0,0,0-3.83,5.83,6.3,6.3,0,0,0,.72,3.35,7.2,7.2,0,0,0,2.49,2.67,6.71,6.71,0,0,0,5.55.92l.72,3.1a8.77,8.77,0,0,1-4.08.18,11.22,11.22,0,0,1-4.07-1.68A11,11,0,0,1,89.89,203.4Z"/><path class="cls-12" d="M121.5,205.31a6,6,0,0,1,.08,5l-2.83,8.12-3.06-1.07.59-1.68a4,4,0,0,1-2.18.79,7,7,0,0,1-2.83-.44,6.77,6.77,0,0,1-2.54-1.48,4.37,4.37,0,0,1-1.29-2.11,4.15,4.15,0,0,1,2.54-4.87,7.3,7.3,0,0,1,4.76.39l3.59,1.24.07-.2a3,3,0,0,0-.1-2.54,3.92,3.92,0,0,0-2.31-1.67,7.9,7.9,0,0,0-2.42-.44,6,6,0,0,0-2.26.35l-.45-2.8a8.16,8.16,0,0,1,3.06-.36,12.52,12.52,0,0,1,3.4.68A7.18,7.18,0,0,1,121.5,205.31Zm-6.37,8.78A3.21,3.21,0,0,0,117,213l.56-1.61-3.35-1.17q-2.81-1-3.44.87a1.74,1.74,0,0,0,.21,1.65,3.39,3.39,0,0,0,1.76,1.19A4.42,4.42,0,0,0,115.13,214.09Zm5.36-12.72-1.61-2.72-2.95,1.13-2.68-.93L118,196.5l3,1,2.24,4.77Z"/><path class="cls-12" d="M143,207l-1.21,14.62-3.26-.27.16-1.86a5.57,5.57,0,0,1-2.18,1.35,6.57,6.57,0,0,1-2.7.31,6.35,6.35,0,0,1-4.48-2,6.45,6.45,0,0,1-1.29-5l.69-8.35,3.43.28-.66,7.89a4.27,4.27,0,0,0,.65,3,3.3,3.3,0,0,0,2.45,1.19,3.83,3.83,0,0,0,3-.9,4.57,4.57,0,0,0,1.36-3.18l.61-7.4Z"/><path class="cls-12" d="M169.73,196.07l5.74,19.57-3.16.92-.54-1.81a5.38,5.38,0,0,1-1.57,2.09,7,7,0,0,1-2.5,1.28,7.72,7.72,0,0,1-3.92.17,6.75,6.75,0,0,1-3.29-1.79,8.6,8.6,0,0,1-2.22-7.56,6.77,6.77,0,0,1,1.8-3.27,7.67,7.67,0,0,1,3.39-2,6.85,6.85,0,0,1,2.7-.28,5.36,5.36,0,0,1,2.39.84L166.43,197ZM169.24,214a4,4,0,0,0,1-2,4.92,4.92,0,0,0-.13-2.48,5,5,0,0,0-1.23-2.16,4.06,4.06,0,0,0-2-1.1,4.37,4.37,0,0,0-2.29.09,4.47,4.47,0,0,0-2,1.16,4,4,0,0,0-1,2,4.92,4.92,0,0,0,.13,2.48,5,5,0,0,0,1.23,2.16,4.14,4.14,0,0,0,2,1.1,4.47,4.47,0,0,0,2.29-.09A4.4,4.4,0,0,0,169.24,214Zm-7.5-13.76,10.65-3.12.63,2.16-10.65,3.12Z"/><path class="cls-12" d="M182.68,192.67l-2.83.05-1.17,2.57-2.38,1.57,1.48-4.49,2.57-1.69,4.72.42Zm3.41,16.79a7,7,0,0,1-3.8-.71,8,8,0,0,1-4.26-6.48,7,7,0,0,1,.86-3.76,8.9,8.9,0,0,1,6.73-4.42,7,7,0,0,1,3.79.69,7.41,7.41,0,0,1,3,2.69,7.5,7.5,0,0,1,1.3,3.8,7,7,0,0,1-.86,3.77,8.92,8.92,0,0,1-6.73,4.42Zm4.19-6.63a5.08,5.08,0,0,0-3.65-5.56,4.52,4.52,0,0,0-5.23,3.43,4.58,4.58,0,0,0,.81,3.45,4.53,4.53,0,0,0,2.85,2.11,4.12,4.12,0,0,0,3.3-.66A4.22,4.22,0,0,0,190.28,202.83Zm-7.63-17,3.07-2-1.72,5-2.2,1.45Z"/><path class="cls-7" d="M216.86,178.73a7,7,0,1,1-7.05-7A7,7,0,0,1,216.86,178.73Z"/><path class="cls-7" d="M76,178.73a7,7,0,1,1-7-7A7,7,0,0,1,76,178.73Z"/><path class="cls-13" d="M171.61,72.1a5.39,5.39,0,0,0,1.1,1.18l.37,1.75.9.51.76-1,.34.12.11,0,.23.08.13,0,.2,0,.15,0,.19,0,.15,0,.19,0h.65l.15,0,.16,0h0l.08,0,.22,0,.11,0,.15,0h0l.07,0,.2-.09.07,0,0,0,.2-.12h0l.17-.11,0,0,.09-.06.15-.13.08-.07,0,0,.11-.12.06-.07a2.56,2.56,0,0,0,.2-.26,1.14,1.14,0,0,0,.15-.23l0,0h0a.31.31,0,0,1,.05-.1l0-.05c.05-.1.09-.2.13-.3l0,0,0-.09s0,0,0-.06,0-.06,0-.09l0-.05s0-.06,0-.09v-.06s0,0,0-.08V72.2a.22.22,0,0,0,0-.08v0h0a.86.86,0,0,0,0-.16h0c0-.05,0-.09,0-.14v0s0-.08,0-.11v0l0-.14h0l-.37-1.79h0a1.68,1.68,0,0,0-.07-.24.24.24,0,0,0,0-.08l-.06-.16,0-.08c0-.06-.05-.11-.07-.17l0-.06-.11-.23,0,0-.11-.19,0-.07-.1-.15,0-.07-.11-.16,0,0c-.05-.07-.09-.14-.14-.2l-.06-.08-.11-.17-.1-.14-.05-.07-.09-.13s0,0,0,0l.12-.14,0,0,.13-.1h0l.11-.06,0,0,.1,0h0l.17-.05h.59l.08,0h.06l.09,0,.06,0,.09,0h0l.14.07.13.07,0,0,.38,1.79h0l1,.59,1.59-1.89h0l-.08-.38-.3-1.41h0l-.79-.66.15-.19h0L181.9,63l-.89-.51-.9,1.17-.34-.15-.12,0-.23-.08-.13,0-.21-.06-.14,0-.19-.05-.15,0-.19,0-.15,0h-.64l-.17,0h-.07l-.1,0-.1,0-.2.06-.07,0h0a1,1,0,0,0-.22.09l-.06,0-.1,0-.1.06,0,0-.19.13,0,0-.06.05-.15.13-.07.06s0,0-.05.05l-.09.1a.46.46,0,0,0-.07.07l-.18.23-.1.14,0,.05a.35.35,0,0,1-.05.08h0l-.09.15,0,0a.61.61,0,0,0-.05.12l0,0,0,.1,0,0s0,.07,0,.11v0a.83.83,0,0,0,0,.15h0v0l0,.13v.06s0,.06,0,.09v.06a.28.28,0,0,0,0,.09h0v0a.45.45,0,0,0,0,.11v.22s0,.07,0,.11v.05l0,.15.06.28.32,1.51a7.83,7.83,0,0,0,1.34,2.5l0,0h0a.41.41,0,0,1-.07.11.39.39,0,0,1-.08.1l0,0s0,0-.05.05l-.11.09,0,0-.13.07,0,0-.1,0,0,0-.18,0h0l-.13,0h-.48l-.09,0-.06,0-.08,0h-.06l-.09,0-.05,0-.13-.06h0l-.18-.1-.06,0-.11-.07-.06,0-.09-.06,0,0,.05-.06v0l0-.06h0l0-.07h0L173.88,69l-1-.59-1.67,2h0Zm8.87-6.69.62-.8.19.93.08.38h0c.26.16.51.34.76.53l.05,0-.85,1-.15-.09L180.89,66h0a1.3,1.3,0,0,0-.48-.67l.07,0Zm-5.21,2.09v-.06a.13.13,0,0,0,0-.06l0-.13v0a.83.83,0,0,0,0-.15l0,0a.3.3,0,0,1,0-.1l0-.06a.42.42,0,0,1,0-.1l0,0,.06-.12,0,0a1.09,1.09,0,0,1,.08-.15l.06-.09,0,0,.09-.14a2.11,2.11,0,0,1,.19-.23l.06-.07.14-.15.07-.06.16-.13.06,0,.22-.15,0,0,.19-.1.06,0,.25-.1.07,0,.19,0,.11,0,.16,0,.17,0h.44l-.07,0h0l-.11.07h0l-.12.1,0,0h0a.76.76,0,0,0-.11.14l-.06.09h0s0,0,0,0l0,.06a.06.06,0,0,0,0,0,.14.14,0,0,0,0,.06.06.06,0,0,0,0,0s0,0,0,.06v0s0,0,0,.06h0v.15a.51.51,0,0,0,0,.13h0l.37,1.79h0a1.21,1.21,0,0,0,.05.18l0,0,.05.12,0,.07.06.12,0,.07,0,0,.06.1,0,0,.12.18,0,.05.1.15.05.07.09.14.13.18.05.07a2.43,2.43,0,0,0,.14.2l0,0c0,.06.07.11.1.16l.05.07.09.15,0,.07c0,.07.07.13.1.19l0,0a.56.56,0,0,1,.05.08.13.13,0,0,0,0,.06v.06s0,.06,0,.08,0,0,0,.06l0,.09a.14.14,0,0,1,0,.06l0,.09,0,.05a1.94,1.94,0,0,1-.13.3.08.08,0,0,0,0,0l-.06.1,0,0-.15.23c-.07.09-.13.18-.2.26l-.07.07-.15.16-.08.07-.15.13-.08.06-.22.15h0l-.24.14-.08,0-.19.09-.08,0-.19.06-.1,0-.23,0H177l-.17,0-.15,0h-.18l.13-.08h0l0,0,.1-.09h0l0,0,0,0,.08-.1.07-.11h0l.06-.11s0,0,0,0l0-.08a.06.06,0,0,1,0,0s0,0,0-.07a.11.11,0,0,0,0,0s0-.05,0-.07h0V72a.77.77,0,0,0,0-.15h0L177,71.5l-.29-1.41a10.72,10.72,0,0,0-1.31-2.29Zm-2,2.7.35,1.67h0a.09.09,0,0,0,0,0l0,0v0l0,0,0,0,0,0,0,0,0,0,0,0,0,0,0,0s0,0,0,0l0,0,.17.16,0,0,.07.06,0,0,.08,0,.05,0,.08,0,.06,0,.09.06.06,0h0a1.75,1.75,0,0,1-.32-.12l-.65.85-.28-1.33a8.43,8.43,0,0,1-1.22-.88Z"/><path class="cls-14" d="M188.51,73.55l.05-.09c.07-.14.13-.27.19-.41l0,0c.06-.14.12-.27.17-.4l0-.06a3.52,3.52,0,0,0,.15-.42l0-.09c.05-.14.09-.28.13-.42v0l.1-.4v-.07c0-.14.06-.28.08-.42l0-.09c0-.14,0-.28,0-.43v0l0-.4v-.12c0-.12,0-.25,0-.37v-.09c0-.14,0-.28,0-.43v0l0-.4v-.08c0-.14,0-.27-.06-.41V67.7c0-.14,0-.28-.08-.42L189,65.49c0,.14.05.28.08.42V66c0,.14,0,.27,0,.41s0,0,0,.08l0,.4v0c0,.14,0,.29,0,.43v.09c0,.14,0,.27,0,.41v.07a2.73,2.73,0,0,1,0,.41v0l-.06.43v.09c0,.14,0,.28-.08.42l0,.07c0,.13-.06.27-.1.4v0c0,.14-.08.28-.13.42l0,.09-.15.42,0,.06c-.05.13-.1.26-.16.39l0,.06c-.07.13-.13.27-.2.41l0,.08c-.07.14-.14.28-.22.41l0,.06a3.79,3.79,0,0,1-.2.34l-.08.13-.27.41-.33.43-.11.14-.23.28-.14.16s0,0-.05,0,.13-.19.19-.28l.07-.11a1,1,0,0,0,.08-.14,1.4,1.4,0,0,0,.1-.16l0,0c.07-.12.13-.24.19-.36l0-.07.17-.36,0,0c0-.11.1-.23.14-.34l0-.06c0-.12.09-.24.13-.36l0-.08c0-.12.07-.24.11-.37v0c0-.12.06-.23.08-.35l0-.06c0-.12,0-.25.07-.37v-.07c0-.13,0-.25.05-.38v0l0-.35v-.2c0-.12,0-.23,0-.35V69c0-.11,0-.21,0-.31s0-.12,0-.17l0-.32s0-.1,0-.15-.05-.31-.08-.46h0l-.38-1.79c0-.16-.07-.32-.11-.47s0-.1,0-.16-.06-.2-.1-.31l-.06-.18-.11-.27c0-.07,0-.13-.08-.19L186.9,64l0-.09a.8.8,0,0,1-.08-.16.41.41,0,0,1-.05-.09l-.21-.36,0-.06a2.9,2.9,0,0,0-.19-.29.86.86,0,0,0-.07-.1l-.21-.29,0-.05-.27-.33-.08-.09-.23-.24-.08-.09-.31-.3,0,0-.3-.26-.1-.08a3.15,3.15,0,0,0-.29-.22l-.07-.06-.38-.26-.09-.06-.31-.19-.12-.06-.41-.23-.44-.21-.15-.06-.3-.13-.18-.07-.28-.1-.19-.06-.27-.09-.19,0-.28-.07-.19-.05-.28-.06-.2,0-.29,0-.18,0-.32,0-.16,0-.44,0h-1.48l-.2,0-.29,0-.2,0-.28,0-.2,0h-.11l-.15,0-.24,0-.25.06-.24,0-.24.07-.24.06-.24.08-.24.07-.08,0-.2.07-.15.06-.36.14-.07,0-.43.19-.12.06-.24.11-.06,0-.14.08-.27.15-.15.08-.27.17-.12.08-.36.24,0,0h0l-.37.28-.12.1-.25.2-.14.12-.21.2-.14.14-.12.11-.09.09-.13.13-.19.22-.12.14-.21.24-.09.12c-.1.13-.2.25-.29.38a3.28,3.28,0,0,0-.2.31.61.61,0,0,0-.07.1l-.12.19v0l0,0c-.05.08-.09.16-.13.24l-.06.09a2.12,2.12,0,0,1-.11.21.36.36,0,0,1,0,.09l-.14.29v0c0,.09-.07.18-.11.28l0,.09-.08.21,0,.09-.09.27v0l-.09.3s0,.06,0,.09a1.42,1.42,0,0,0,0,.22l0,.09c0,.08,0,.16,0,.24s0,.05,0,.07,0,.2,0,.3a.17.17,0,0,0,0,.07l0,.23s0,.07,0,.1,0,.15,0,.22v.17c0,.13,0,.26,0,.4v.15c0,.13,0,.26,0,.39s0,.06,0,.09,0,.25,0,.37,0,.08,0,.12,0,.3.08.45h0l.31,1.5.06.29h0a8.44,8.44,0,0,0,4,5.45h0l-.5-.24a10.77,10.77,0,0,1-2.81-2,9.31,9.31,0,0,1-.73-.82,8.77,8.77,0,0,1-.61-.89,9,9,0,0,1-1.17-2.92h0l.37,1.79a9.83,9.83,0,0,0,5.33,6.68l.5.24.17.07.34.15.21.07.31.12.22.07.31.1.23.06.31.08.23.06.31.06.23,0,.33,0,.21,0,.36,0,.19,0,.5,0h0l.55,0h.77l.33,0,.23,0a1.84,1.84,0,0,0,.33,0l.23,0,.32,0,.23,0,.13,0,.17,0,.27-.06.29-.06.27-.07.28-.07.27-.08.28-.08.27-.09.1,0,.22-.08.17-.07.41-.16.09,0,.49-.22.14-.07.27-.13.07,0,.16-.09a3.07,3.07,0,0,0,.31-.17l.17-.1.31-.19.14-.09.4-.28,0,0h0l.43-.33.13-.1.29-.24.16-.14.25-.22.16-.16.13-.12.1-.11.15-.15.23-.25c0-.05.09-.1.13-.16l.24-.28.11-.14c.11-.14.22-.28.32-.43l.28-.41s.05-.08.07-.13l.1-.15.11-.19,0-.06C188.37,73.82,188.44,73.68,188.51,73.55ZM167.19,71v0a.28.28,0,0,1,0-.09c0-.15,0-.3,0-.45v-.09c0-.14,0-.27,0-.4v-.09a.19.19,0,0,0,0-.08,1.64,1.64,0,0,1,0-.22.34.34,0,0,1,0-.1,2,2,0,0,1,0-.23.17.17,0,0,0,0-.07c0-.1,0-.2.05-.3s0,0,0-.07,0-.16.05-.23a.44.44,0,0,0,0-.1l.06-.22a.29.29,0,0,1,0-.09c0-.1.05-.2.08-.3l0,0a2,2,0,0,1,.08-.26,1,1,0,0,1,0-.1,1.8,1.8,0,0,1,.08-.21l0-.09.12-.28v0c0-.1.09-.19.14-.29l0-.09.11-.21.05-.09.13-.23,0-.06a2.39,2.39,0,0,1,.13-.21l.06-.1.21-.31.28-.38.1-.12.2-.24.12-.14.2-.22.13-.13.2-.2.14-.14.22-.19.14-.12a2.52,2.52,0,0,1,.25-.21l.11-.1.38-.28,0,0,.35-.24.13-.08.27-.17.14-.08.27-.15.15-.08.3-.15.12-.06.42-.19.08,0,.36-.15.15,0,.28-.11.23-.07.25-.08L175,61l.25-.07.24-.05.25-.06.24-.05.26,0,.2,0,.28,0,.2,0,.28,0,.2,0h1.48l.45,0,.16,0,.31,0,.19,0,.29,0,.2,0,.27.06.2.05.27.07.2.06.27.08.19.06.28.1.18.07.3.13.14.06.44.21.42.23.11.06.32.2.09,0,.37.26.08.06.29.22.1.08.29.26,0,0,.32.31.08.08.23.25.07.08c.09.11.19.22.27.33a.1.1,0,0,1,0,0,3.15,3.15,0,0,1,.22.29.61.61,0,0,0,.07.1l.19.29a.21.21,0,0,0,0,.06c.07.12.14.24.2.36a.31.31,0,0,1,.05.1c0,.08.09.16.13.24l.12.26a1.54,1.54,0,0,0,.08.19c0,.09.07.18.1.28a.87.87,0,0,1,.07.17.14.14,0,0,0,0,.06h0c0,.06,0,.12,0,.18s0,.2,0,.3a1,1,0,0,1,0,.17c0,.12,0,.23,0,.35v.2c0,.12,0,.24,0,.35v0c0,.13,0,.25-.05.37v.08c0,.12,0,.25-.07.37v.06l-.09.35v0c0,.12-.07.25-.11.37l0,.08-.13.36,0,.06c0,.11-.09.23-.14.34l0,0c-.05.12-.11.24-.17.36l0,.07c-.06.12-.12.24-.19.36l0,.05-.18.3-.07.11a2.71,2.71,0,0,1-.24.35c-.09.13-.18.26-.28.38l-.1.12a2.43,2.43,0,0,1-.2.25l-.12.14-.2.21-.13.14-.2.2-.14.13a2.09,2.09,0,0,1-.22.2l-.13.12-.26.21-.11.09-.38.29,0,0-.35.24-.13.08-.27.16-.14.09-.27.15-.14.08-.3.15-.12.06-.43.19-.08,0-.35.14-.16.06-.28.1-.23.08-.24.07-.24.07-.25.06-.23.06-.25,0-.24,0-.26,0-.21,0-.27,0-.21,0-.28,0h-.2l-.29,0h-.67l-.48,0h-.05l-.43,0-.16,0L175,77l-.19,0-.29,0-.19,0-.28-.06-.2,0-.27-.07-.2-.06-.27-.08-.19-.07-.27-.1-.18-.07-.3-.12-.15-.07a4.39,4.39,0,0,1-.44-.21A8.67,8.67,0,0,1,167.19,71Z"/><path class="cls-15" d="M188.69,70.91l-.15.36,0,0-.19.42,0,.08c-.07.15-.15.29-.22.42l0,.06-.21.34-.08.13c-.1.15-.19.29-.28.41s-.21.29-.33.45l-.07.08,0,.05-.24.29-.12.14-.07.07-.23-.19.18-.27.1-.16a.35.35,0,0,0,.05-.08,1,1,0,0,0,.08-.14l.05-.07L187,73l0-.07c.06-.12.12-.23.17-.35l0,0a3.45,3.45,0,0,0,.14-.34l0-.05c.05-.12.09-.24.13-.36l0-.07c0-.13.08-.25.11-.37v0l.09-.34v-.06c0-.12.05-.24.07-.36v-.08c0-.12,0-.24,0-.36v0l0-.35v-.6c0-.13-.11-.26-.17-.39h0v.07c0,.13-.05.25-.07.38l0,.06c0,.12-.05.24-.08.36v0l-.12.38,0,.07c0,.13-.09.25-.13.37l0,.06a3.65,3.65,0,0,1-.14.35l0,.05c-.06.12-.11.24-.17.37l0,.07c-.06.12-.13.24-.2.36l0,0-.18.31-.07.11-.24.36-.29.39-.1.12c-.07.08-.13.17-.21.25l-.09.11,0,0-.2.22-.13.13-.2.21-.15.13a2.09,2.09,0,0,1-.22.2l0,0-.1.09-.26.21-.12.09-.38.29,0,0-.36.24-.13.08-.27.17-.15.09-.27.15-.14.08L182,76l-.12.06-.43.2-.08,0-.36.15-.15.05-.29.1-.23.08-.25.08-.24.06-.25.07-.24.06-.25.05-.24,0-.27,0-.2,0-.29,0-.2,0-.29,0h-.2l-.3,0h-.67l-.49,0h-.05l-.44,0-.09,0h-.07l-.32,0-.13,0h-.06l-.29,0-.17,0h0L174,77l-.2,0-.28-.07-.2-.06-.27-.08h0l-.16-.06-.28-.1,0,0-.13,0-.3-.12-.06,0-.09,0-.45-.21a9,9,0,0,1-4-3.82,8.35,8.35,0,0,0,3.82,5l-.15.26h0l-.51-.25a11.26,11.26,0,0,1-2.42-1.66c.3.62.6,1.24.92,1.85a10.31,10.31,0,0,0,2,1.33l.5.24.1,0,.07,0,.34.15.13,0,.07,0,.31.12.19.06h0l.3.09.23.07.3.08.23,0,.31.07h0l.19,0,.33.05h.07l.14,0,.36,0h.18l.5,0h0l.54,0h.76l.33,0H178a1.73,1.73,0,0,0,.32,0l.23,0,.31,0,.23,0h.13l.09,0h.08l.27-.06.28-.06.27-.06.28-.08.27-.07.28-.09.26-.08.1,0,.15-.06.07,0,.17-.07.4-.16.09,0,.49-.22.19-.09.21-.11.07,0,.12-.06,0,0,.31-.17.16-.1.31-.19,0,0,.1-.07.4-.27,0,0,.42-.31.07-.06.06,0,.28-.23.11-.1.05,0,.25-.22.13-.14.08-.07.07-.07.06-.06,0,0,.15-.16.22-.24,0,0,.12-.14.23-.27,0-.06.07-.08c.12-.15.22-.29.32-.43l.27-.4.12-.19a.41.41,0,0,1,.05-.09c0-.05.07-.1.1-.16l0-.08c.08-.13.15-.26.22-.4l0-.09a3.52,3.52,0,0,0,.19-.4l0,0,.16-.39,0-.07.15-.41,0-.08.06-.2Z"/><path class="cls-16" d="M187.61,73l-.16.23c-.1.15-.21.29-.33.45l-.07.08,0,.05-.24.29-.12.14-.07.07-.23-.19.18-.27.1-.16a.35.35,0,0,0,.05-.08,1,1,0,0,0,.08-.14l.05-.07L187,73l0-.07c.06-.12.12-.23.17-.35l0,0,.09-.23c-.14-.31-.28-.62-.43-.93-.06.11-.12.23-.19.34l0,0-.18.31-.07.11-.24.36-.29.39-.1.12c-.07.08-.13.17-.21.25l-.09.11,0,0-.2.22-.13.13-.2.21-.15.13a2.09,2.09,0,0,1-.22.2l0,0-.1.09-.26.21-.12.09-.38.29,0,0-.36.24-.13.08-.27.17-.15.09-.27.15-.14.08L182,76l-.12.06-.43.2-.08,0-.36.15-.15.05-.29.1-.23.08-.25.08-.24.06-.25.07-.24.06-.25.05-.24,0-.27,0-.2,0-.29,0-.2,0-.29,0h-.2l-.3,0h-.67l-.49,0h-.05l-.44,0-.09,0h-.07l-.32,0-.13,0h-.06l-.29,0-.17,0h0L174,77l-.2,0-.28-.07-.2-.06-.27-.08h0l-.16-.06-.28-.1,0,0-.13,0-.3-.12-.06,0-.09,0-.45-.21c-.23-.12-.45-.24-.67-.38q1.14,2,2.46,3.89l.17,0,.3.08.23,0,.31.07h0l.19,0,.33.05h.07l.14,0,.36,0h.18l.5,0h0l.54,0h.76l.33,0H178a1.73,1.73,0,0,0,.32,0l.23,0,.31,0,.23,0h.13l.09,0h.08l.27-.06.28-.06.27-.06.28-.08.27-.07.28-.09.26-.08.1,0,.15-.06.07,0,.17-.07.4-.16.09,0,.49-.22.19-.09.21-.11.07,0,.12-.06,0,0,.31-.17.16-.1.31-.19,0,0,.1-.07.4-.27,0,0,.42-.31.07-.06.06,0,.28-.23.11-.1.05,0,.25-.22.13-.14.08-.07.07-.07.06-.06,0,0,.15-.16.22-.24,0,0,.12-.14.23-.27,0-.06.07-.08c.12-.15.22-.29.32-.43l.27-.4.12-.19a.41.41,0,0,1,.05-.09.56.56,0,0,0,0-.08C187.92,73.68,187.77,73.31,187.61,73Z"/><path class="cls-17" d="M181,62.45l.89.51-.9,1.16a18.36,18.36,0,0,1,1.92,1.48l-1.59,1.88-1-.58.5-.7a1.44,1.44,0,0,0,.07-.16c-.12-.38-.41-.69-1-1a1.44,1.44,0,0,0-1.9.26c-1.1,1.55,3.29,3.57,1.24,6.47-1.09,1.54-3,1.74-4.81,1l-.76,1-.91-.52.74-1a6.83,6.83,0,0,1-2.21-2l1.67-2,1,.59s-.31.44-.39.58a2.35,2.35,0,0,0-.28.55,3,3,0,0,0,1.42,1.18,1.45,1.45,0,0,0,1.93-.26c1.22-1.72-3.24-3.61-1.09-6.65,1-1.46,2.87-1.58,4.64-.73Z"/><path class="cls-18" d="M179.3,63.46a4.5,4.5,0,0,0-1.32-.22,2.81,2.81,0,0,0-2.39,1.2c-1.16,1.65-.28,2.94.5,4.09.6.89,1.18,1.74.59,2.56a1.23,1.23,0,0,1-.82.53c.34.45.68.89,1,1.33l0,0a3.07,3.07,0,0,0,2.14-1.31c1.13-1.59.22-2.9-.59-4-.6-.87-1.17-1.68-.65-2.42a1.34,1.34,0,0,1,1.13-.55,2.05,2.05,0,0,1,1,.25A2,2,0,0,1,181,66V66l0,.09a.5.5,0,0,1-.08.15l-.4.57.76.44.68-.8A26.52,26.52,0,0,1,179.3,63.46Z"/><path class="cls-19" d="M182.89,60A8.26,8.26,0,0,1,186,72.44a11.69,11.69,0,0,1-14.45,3.5,8.26,8.26,0,0,1-3.16-12.47A11.71,11.71,0,0,1,182.89,60Zm-8.52,12.78c1.78.74,3.72.54,4.81-1,2-2.9-2.34-4.92-1.24-6.47a1.44,1.44,0,0,1,1.9-.26c.64.33.93.64,1,1a1.44,1.44,0,0,1-.07.16l-.5.7,1,.58,1.59-1.88A18.36,18.36,0,0,0,181,64.12l.9-1.16-.89-.51-.9,1.17c-1.77-.85-3.61-.73-4.64.73-2.15,3,2.31,4.93,1.09,6.65a1.45,1.45,0,0,1-1.93.26,3,3,0,0,1-1.42-1.18,2.35,2.35,0,0,1,.28-.55c.08-.14.37-.56.39-.58l-1-.59-1.67,2a6.83,6.83,0,0,0,2.21,2l-.74,1,.91.52.76-1"/><path class="cls-20" d="M175.47,64.35c1-1.43,2.8-1.57,4.53-.78q-2-2.26-3.86-4.65a11.6,11.6,0,0,0-7,3.7,49.38,49.38,0,0,0,4,5.85l.79.48s-.1.13-.19.27c.64.77,1.3,1.54,2,2.28a1.16,1.16,0,0,0,.89-.5C177.78,69.28,173.32,67.39,175.47,64.35Z"/><path class="cls-20" d="M182.41,66.2l-1.08,1.28-1-.58.5-.7a1.44,1.44,0,0,0,.07-.16c-.12-.38-.41-.69-1-1a1.44,1.44,0,0,0-1.9.26c-1.1,1.55,3.29,3.57,1.24,6.47a3.24,3.24,0,0,1-2,1.32q1.72,1.74,3.58,3.32a11,11,0,0,0,5.3-4,9,9,0,0,0,1-1.67C185.42,69.29,183.9,67.77,182.41,66.2Z"/><path class="cls-21" d="M173.46,74.05l.76-1c1.78.73,3.72.53,4.81-1a3.65,3.65,0,0,0,.34-.6c-.06.1-.12.2-.19.3-1.09,1.54-3,1.74-4.81,1l-.76,1-.85-.48-.21.27Z"/><path class="cls-21" d="M168.28,63.77a11.7,11.7,0,0,1,14.45-3.5,8.21,8.21,0,0,1,4,11.07A8.22,8.22,0,0,0,182.89,60a11.71,11.71,0,0,0-14.46,3.5,10.62,10.62,0,0,0-.82,1.4A11.55,11.55,0,0,1,168.28,63.77Z"/><path class="cls-21" d="M173.3,69.88l0,0c.08-.14.37-.56.39-.58l0,0a3,3,0,0,0-.2.31A1.23,1.23,0,0,0,173.3,69.88Z"/><path class="cls-21" d="M180.37,66.92l-.2.28,1,.59,1.59-1.89-.06-.05-1.38,1.63Z"/><path class="cls-21" d="M180.73,66.32l.09-.12a1.44,1.44,0,0,0,.07-.16c-.12-.38-.41-.69-1-1a1.44,1.44,0,0,0-1.9.26.71.71,0,0,0-.14.29,1.44,1.44,0,0,1,1.89-.25A1.81,1.81,0,0,1,180.73,66.32Z"/><path class="cls-21" d="M173.24,72.53l.2-.26a7,7,0,0,1-2.16-1.89l-.2.23A6.59,6.59,0,0,0,173.24,72.53Z"/><path class="cls-21" d="M181.69,63.22l-.69.9.05,0,.7-.9Z"/><path class="cls-21" d="M176.57,71c1.09-1.58-2.63-3.33-1.47-6C173.6,67.65,177.08,69.41,176.57,71Z"/><path class="cls-22" d="M183.71,58.81a9.47,9.47,0,0,1,3.62,14.29,13.43,13.43,0,0,1-16.56,4,9.47,9.47,0,0,1-3.62-14.29A13.42,13.42,0,0,1,183.71,58.81ZM171.59,75.94A11.69,11.69,0,0,0,186,72.44,8.26,8.26,0,0,0,182.89,60a11.71,11.71,0,0,0-14.46,3.5,8.26,8.26,0,0,0,3.16,12.47"/><path class="cls-23" d="M180.88,77.59A12.63,12.63,0,0,0,187.2,73a10.35,10.35,0,0,0,1.52-3.14c-.34-.33-.67-.66-1-1a9,9,0,0,1-1.55,3.66A11.39,11.39,0,0,1,180,76.8C180.26,77.07,180.57,77.33,180.88,77.59Z"/><path class="cls-23" d="M167.59,64.58a10.58,10.58,0,0,1,.72-1.2,11.73,11.73,0,0,1,9-4.72c-.27-.32-.54-.64-.8-1a13,13,0,0,0-9.24,5.22,8.6,8.6,0,0,0-.49.74Z"/><path class="cls-24" d="M48,196.23v-.36c0-.06,0-.12,0-.18s0-.15,0-.22,0-.08,0-.12a8.21,8.21,0,0,0-1.42-3.61l-.24-.35-.06-.08-.26-.33,0,0-.26-.3-.06-.07c-.09-.11-.19-.21-.29-.31v0l-.05-.05L45,190l-.08-.08-.27-.25h0l-.29-.26-.09-.08L44,189.1,44,189l-.31-.24,0,0a2.83,2.83,0,0,0-.28-.2l-.09-.07-.27-.18-.07-.05-.33-.22-.09,0-.27-.17-.1-.06-.31-.17,0,0-.36-.18-.1,0L41,187.2l-.1,0-.37-.17h0l-.34-.14-.11-.05-.3-.11-.08,0-.38-.13-.09,0-.31-.1-.11,0-.34-.1-.06,0-.33-.09h0l-.19,0-.24-.06-.19,0-.24-.05-.2,0-.23,0-.2,0-.24,0-.19,0-.24,0-.2,0h-.23l-.2,0H33.49l-.24,0-.18,0-.24,0-.18,0-.25,0-.15,0h0l-.28.05-.13,0c-.14,0-.28.06-.41.09l-.3.08-.09,0-.22.07-.08,0-.28.09-.05,0-.23.09-.08,0-.22.09-.06,0-.25.12-.06,0-.2.1-.07,0-.21.11,0,0-.23.14-.06,0-.17.12-.06,0-.21.15h0l-.2.16-.05,0-.15.13-.05.05-.18.17,0,0-.15.15-.05.05-.13.15,0,0h0l-.14.18,0,0-.11.15,0,.06-.09.13,0,.06-.1.16,0,0-.11.19,0,.06-.08.15,0,.06-.06.15,0,.06-.09.21h0l-.54,1.45-.45,1.19h0a5.87,5.87,0,0,0-.36,2.14,7.35,7.35,0,0,1-.2-5.36l-1,2.64a8,8,0,0,0,1.26,7.32c.09.15.2.29.3.43l0,0c.1.14.2.27.31.4l0,0c.1.13.21.25.32.38l0,0,.33.36,0,0,0,0,.31.31,0,0,.3.29,0,0,.33.29.07.06.34.28.05,0,.33.26,0,0,.36.26.08.06.37.25,0,0,.36.23,0,0,.39.23.08.05.39.22,0,0,.38.2.06,0,.41.2.09,0,.41.19.05,0,.4.17.06,0,.43.16.09,0,.43.15h0l.42.14.07,0,.43.13.09,0,.44.11h0l.43.1.07,0,.44.09.09,0,.45.08h0l.43.06h.08l.44.06h.09l.45,0h0l.43,0H39.8l.43,0h.09l.44-.05h0l.43-.07h.08l.41-.08.08,0,.43-.1a11.4,11.4,0,0,0,1.87-.63l.47-.23a8.76,8.76,0,0,0,1.66-1.12,7,7,0,0,0,.67-.66l.3-.35a7.52,7.52,0,0,0,.5-.75,1.18,1.18,0,0,0,.11-.19,4.92,4.92,0,0,0,.37-.81l1-2.64a7.26,7.26,0,0,1-3.67,3.9h0a5.45,5.45,0,0,0,.38-.46l.22-.33a3.79,3.79,0,0,0,.2-.34l.09-.17a5,5,0,0,0,.23-.53L47,199.6l.55-1.47c0-.07,0-.15.08-.22s0-.09,0-.14l.09-.31a.07.07,0,0,1,0-.05c0-.07,0-.15,0-.22l0-.16s0-.08,0-.13l0-.25v-.1a2.83,2.83,0,0,0,0-.29Zm-15.12-3.76h0l.43-1.17.59,1,.14,0-.69,1.84h0v0s0,0,0,0h0l-.08,0,0,0-.2-.15h0l-.2-.16,0,0-.18-.17,0,0-.07-.08-.05,0a.27.27,0,0,0-.07-.08l0-.06-.07-.09,0,0-.11-.15a1.18,1.18,0,0,1-.11-.19l.12-.05,0,0,.31-.12h0ZM39.2,199l.73-2a1,1,0,0,0,0-.17l0,0,.2.14v0l.19.16h0l.18.17,0,0,.07.07,0,.06.07.07,0,.05.07.09,0,0a.71.71,0,0,1,.1.14,1.68,1.68,0,0,1,.2.34.2.2,0,0,1,0,.08,4.81,4.81,0,0,1-.79.34h0L40,199.9l-.58-.94Zm3.19,3.27-.46.1-.15,0-.32.06-.18,0-.31,0-.17,0-.34,0h-.15l-.48,0h-.68l1-.21h0l.65-1.75a2,2,0,0,0,.59-.81l1-2.64h0l0-.07v-.07l0-.11a2,2,0,0,0,0-.34c0-.1,0-.2,0-.3s0,0,0-.07a.09.09,0,0,0,0-.05h0a2.53,2.53,0,0,0-.12-.36l-.09-.18a2.49,2.49,0,0,0-.2-.34l-.1-.14,0,0-.07-.09,0,0-.07-.08,0,0-.07-.07v0h0l-.18-.18h0l-.19-.16h0l-.2-.15,0,0-.19-.12,0,0-.2-.11,0,0-.22-.11h0l-.12-.06h0l-.07,0-.08,0-.15-.06-.08,0-.19-.06,0,0-.23-.07-.07,0-.17,0-.09,0-.15,0-.09,0-.16,0-.08,0-.19,0h0l-.24,0h0l.65-1.74h0l-1.15-2.07a23.54,23.54,0,0,0-2.63.23l-.76-1.24-1,.21-.73,1.94a.27.27,0,0,0-.08.07h0c-.07.06-.13.13-.19.19v0l-.07.08,0,0-.05.08,0,0-.06.12h0a.42.42,0,0,1,0,.1v0h0L31,193.21l-.27.72h0a1.83,1.83,0,0,0,.33,1.68,1,1,0,0,0,.11.15l0,.05.08.1,0,.05.07.08,0,.06.07.07,0,0h0l.18.18,0,0,.2.17h0l.2.15,0,0,.2.13,0,0,.2.12,0,0,.21.11h0l.22.09h0l.22.09h0l.22.08h0l.22.07h0l.23.06h0l.23.06h0l.23,0h0L34,199.54h0l1.17,2.16h2.39l.17,0,.14,0,.17,0,.16,0h.07l.2,0h0l.63,1h-.44l-.32,0h-.18l-.35,0h-.14l-.5-.08H37.1l-.42-.07-.17,0-.33-.07-.18,0-.32-.08-.18-.05-.35-.1-.13,0-.48-.16-.09,0-.39-.14-.16-.06-.32-.13-.17-.07-.3-.14-.17-.07L32.6,201l-.11-.06-.45-.23-.1-.06-.34-.19-.15-.09a2.61,2.61,0,0,0-.28-.17l-.15-.1-.28-.19-.14-.1-.31-.22-.09-.07a4,4,0,0,1-.39-.3l-.1-.08-.28-.23-.13-.12-.24-.21-.13-.13-.23-.22-.11-.12-.2-.22-.15-.16c-.07-.07-.13-.15-.2-.23l-.13-.15c-.07-.08-.13-.17-.2-.26l-.1-.13c-.1-.14-.2-.27-.29-.41a8.89,8.89,0,0,1-1.06-2.08,8.64,8.64,0,0,1-.24-.83,6.35,6.35,0,0,1-.15-1.21,5.26,5.26,0,0,1,0-.89h0l0-.06.11-.15,0,0,.14-.18,0,0,.13-.15.05-.06.14-.15,0,0,.18-.17.05,0,.15-.13,0-.05.2-.16h0a1.66,1.66,0,0,1,.21-.16l.06,0,.17-.11.06,0,.23-.15h0l.21-.12.07,0,.2-.1.06,0,.25-.12.06,0a.85.85,0,0,1,.22-.09l.08,0,.23-.09h.05l.28-.1.08,0,.22-.07.09,0,.3-.08.4-.09.14,0,.27,0,.17,0,.25,0,.18,0,.24,0,.18,0h.43l.24,0h1.29l.2,0,.23,0,.2,0,.24,0,.19,0,.24,0,.2,0,.23,0,.2,0,.24.05.19,0,.24.06.19,0,.38.1h.06l.34.1.11,0,.31.1.08,0,.39.14.08,0,.3.12.11,0,.34.14,0,0,.37.17.1,0,.28.14.1.05.36.19,0,0,.31.18.1.06.27.16.08.05.34.21.07,0,.27.18.09.07.28.2,0,0,.31.24.08.06.23.2.09.07.29.26,0,0,.27.25.08.08.21.21.06.07.29.31.06.07.25.3,0,0,.26.34.06.08.24.35a8.65,8.65,0,0,1,1.29,2.87v0c.05.21.08.42.11.63a1.1,1.1,0,0,1,0,.18.45.45,0,0,1,0,.11,2.83,2.83,0,0,1,0,.29v.39c0,.08,0,.17,0,.25a.61.61,0,0,0,0,.14s0,.07,0,.11A7.65,7.65,0,0,1,42.39,202.28Z"/><polygon class="cls-25" points="25.23 192.77 25.23 192.77 25.23 192.77 25.23 192.77"/><path class="cls-25" d="M45.61,202.55l-.14.07h0a5.45,5.45,0,0,0,.38-.46l.22-.33a3.79,3.79,0,0,0,.2-.34l.09-.17a5,5,0,0,0,.23-.53L47,199.6l.55-1.47c0-.07,0-.15.08-.22s0-.09,0-.14l.09-.31a.07.07,0,0,1,0-.05c0-.07,0-.15,0-.22l0-.16s0-.08,0-.13l0-.25v-.1a2.83,2.83,0,0,0,0-.29v-.39c0-.06,0-.12,0-.18s0-.15,0-.22,0-.08,0-.12a8.21,8.21,0,0,0-1.42-3.61v0l-4.07-.47.2.15,0,0,.31.24.08.06.23.2.09.07.29.26,0,0,.27.25.08.08.21.21.06.07.29.31.06.07.25.3,0,0,.26.34.06.08.24.35a8.65,8.65,0,0,1,1.29,2.87v0c.05.21.08.42.11.63a1.1,1.1,0,0,1,0,.18.45.45,0,0,1,0,.11,2.83,2.83,0,0,1,0,.29v.39c0,.08,0,.17,0,.25a.61.61,0,0,0,0,.14s0,.07,0,.11a7.65,7.65,0,0,1-4.54,2.88l-.46.1-.15,0-.32.06-.18,0-.31,0-.17,0-.34,0h-.15l-.48,0h-.68l1-.21h0l.65-1.75a2,2,0,0,0,.59-.81l1-2.64h0l0-.07v-.07l0-.11a2,2,0,0,0,0-.34c0-.1,0-.2,0-.3s0,0,0-.07a.09.09,0,0,0,0-.05h0a2.53,2.53,0,0,0-.12-.36l-.09-.18a2.49,2.49,0,0,0-.2-.34l-.1-.14,0,0-.07-.09,0,0-.07-.08,0,0-.07-.07v0h0l-.18-.18h0l-.19-.16h0l-.2-.15,0,0-.19-.12,0,0-.2-.11,0,0-.22-.11h0l-.12-.06h0l-.07,0-.08,0-.15-.06-.08,0-.19-.06,0,0-.23-.07-.07,0-.17,0-.09,0-.15,0-.09,0-.16,0-.08,0-.19,0h0l-.24,0h0l.65-1.74-.38-.68-5.75-.67-.16.42a.27.27,0,0,0-.08.07h0c-.07.06-.13.13-.19.19v0l-.07.08,0,0-.05.08,0,0-.06.12h0a.42.42,0,0,1,0,.1v0h0L31,193.21l-.27.72h0a1.83,1.83,0,0,0,.33,1.68,1,1,0,0,0,.11.15l0,.05.08.1,0,.05.07.08,0,.06.07.07,0,0h0l.18.18,0,0,.2.17h0l.2.15,0,0,.2.13,0,0,.2.12,0,0,.21.11h0l.22.09h0l.22.09h0l.22.08h0l.22.07h0l.23.06h0l.23.06h0l.23,0h0L34,199.54h0l1.17,2.16h2.39l.17,0,.14,0,.17,0,.16,0h.07l.2,0h0l.63,1h-.44l-.32,0h-.18l-.35,0h-.14l-.5-.08H37.1l-.42-.07-.17,0-.33-.07-.18,0-.32-.08-.18-.05-.35-.1-.13,0-.48-.16-.09,0-.39-.14-.16-.06-.32-.13-.17-.07-.3-.14-.17-.07L32.6,201l-.11-.06-.45-.23-.1-.06-.34-.19-.15-.09a2.61,2.61,0,0,0-.28-.17l-.15-.1-.28-.19-.14-.1-.31-.22-.09-.07a4,4,0,0,1-.39-.3l-.1-.08-.28-.23-.13-.12-.24-.21-.13-.13-.23-.22-.11-.12-.2-.22-.15-.16c-.07-.07-.13-.15-.2-.23l-.13-.15c-.07-.08-.13-.17-.2-.26l-.1-.13c-.1-.14-.2-.27-.29-.41a8.89,8.89,0,0,1-1.06-2.08,8.64,8.64,0,0,1-.24-.83,6.35,6.35,0,0,1-.15-1.21,5.26,5.26,0,0,1,0-.89h0l0-.06.11-.15,0,0,.14-.18,0,0,.13-.15.05-.06.14-.15,0,0,.18-.17.05,0,.15-.13,0-.05.2-.16h0a1.66,1.66,0,0,1,.21-.16l.06,0,.17-.11.06,0,.23-.15h0l-1.47-.17h0l0,.06-.08.15,0,.06-.06.15,0,.06-.09.21h0l-.54,1.45-.45,1.19h0a6.77,6.77,0,0,0-.22.77c0,.13-.05.26-.07.39a6.37,6.37,0,0,0-.07,1l-.06-.18c-.19,1.28-.32,2.58-.43,3.87a9.69,9.69,0,0,0,.56.91c.09.15.2.29.3.43l0,0c.1.14.2.27.31.4l0,0c.1.13.21.25.32.38l0,0,.33.36,0,0,0,0,.31.31,0,0,.3.29,0,0,.33.29.07.06.34.28.05,0,.33.26,0,0,.36.26.08.06.37.25,0,0,.36.23,0,0,.39.23.08.05.39.22,0,0,.38.2.06,0,.41.2.09,0,.41.19.05,0,.4.17.06,0,.43.16.09,0,.43.15h0l.42.14.07,0,.43.13.09,0,.44.11h0l.43.1.07,0,.44.09.09,0,.45.08h0l.43.06h.08l.44.06h.09l.45,0h0l.43,0H39.8l.43,0h.09l.44-.05h0l.43-.07h.08l.41-.08.08,0,.43-.1.36-.09c.92-.94,1.79-1.92,2.63-2.93ZM40,196.88l0,0,.2.14v0l.19.16h0l.18.17,0,0,.07.07,0,.06.07.07,0,.05.07.09,0,0a.71.71,0,0,1,.1.14,1.68,1.68,0,0,1,.2.34.2.2,0,0,1,0,.08,4.81,4.81,0,0,1-.79.34h0L40,199.9l-.58-.94-.26,0,.73-2A1,1,0,0,0,40,196.88Zm-7.63-3.56,0-.06-.07-.09,0,0-.11-.15a1.18,1.18,0,0,1-.11-.19l.12-.05,0,0,.31-.12h0l.35-.11h0l.43-1.17.59,1,.14,0-.69,1.84h0v0s0,0,0,0h0l-.08,0,0,0-.2-.15h0l-.2-.16,0,0-.18-.17,0,0-.07-.08-.05,0A.27.27,0,0,0,32.34,193.32Z"/><path class="cls-26" d="M46.25,191.39l-.06-.08-.26-.33,0,0-.26-.3-.06-.07c-.09-.11-.19-.21-.29-.31v0l-.05-.05L45,190l-.08-.08-.27-.25h0l-.29-.26-.09-.08L44,189.1,44,189l-.31-.24,0,0a2.83,2.83,0,0,0-.28-.2l-.09-.07-.27-.18-.07-.05-.33-.22-.09,0-.27-.17-.1-.06-.31-.17,0,0-.36-.18-.1,0L41,187.2l-.1,0-.37-.17h0l-.34-.14-.11-.05-.3-.11-.08,0-.38-.13-.09,0-.31-.1-.11,0-.34-.1-.06,0-.33-.09h0l-.19,0-.24-.06-.19,0-.24-.05-.2,0-.23,0-.2,0-.24,0-.19,0-.24,0-.2,0h-.23l-.2,0h-.38q-.6,1.32-1.17,2.64h.56l.2,0,.23,0,.2,0,.24,0,.19,0,.24,0,.2,0,.23,0,.2,0,.24.05.19,0,.24.06.19,0,.38.1h.06l.34.1.11,0,.31.1.08,0,.39.14.08,0,.3.12.11,0,.34.14,0,0,.37.17.1,0,.28.14.1.05.36.19,0,0,.31.18.1.06.27.16.08.05.34.21.07,0,.27.18.09.07.28.2,0,0,.31.24.08.06.23.2.09.07.29.26,0,0,.27.25.08.08.21.21.06.07.29.31.06.07.25.3,0,0,.26.34.06.08.24.35a8.65,8.65,0,0,1,1.29,2.87v0c.05.21.08.42.11.63a1.1,1.1,0,0,1,0,.18.45.45,0,0,1,0,.11,2.83,2.83,0,0,1,0,.29v.39c0,.08,0,.17,0,.25a.61.61,0,0,0,0,.14s0,.07,0,.11a7.65,7.65,0,0,1-4.54,2.88l-.46.1-.15,0-.32.06-.18,0-.31,0-.17,0-.34,0h-.15l-.48,0h-.68l1-.21h0l.65-1.75a2,2,0,0,0,.59-.81l1-2.64h0l0-.07v-.07l0-.11a2,2,0,0,0,0-.34c0-.1,0-.2,0-.3s0,0,0-.07a.09.09,0,0,0,0-.05h0a2.53,2.53,0,0,0-.12-.36l-.09-.18a2.49,2.49,0,0,0-.2-.34l-.1-.14,0,0-.07-.09,0,0-.07-.08,0,0-.07-.07v0h0l-.18-.18h0l-.19-.16h0l-.2-.15,0,0-.19-.12,0,0-.2-.11,0,0-.22-.11h0l-.12-.06h0l-.07,0-.08,0-.15-.06-.08,0-.19-.06,0,0-.23-.07-.07,0-.17,0-.09,0-.15,0-.09,0-.16,0-.08,0-.19,0h0l-.24,0h0l.65-1.74-1.15-2.07a23.54,23.54,0,0,0-2.63.23l-.76-1.24-.5.1q-1.44,3.35-2.69,6.78a2.57,2.57,0,0,0,.2.35,1,1,0,0,0,.11.15l0,.05.08.1,0,.05.07.08,0,.06.07.07,0,0h0l.18.18,0,0,.2.17h0l.2.15,0,0,.2.13,0,0,.2.12,0,0,.21.11h0l.22.09h0l.22.09h0l.22.08h0l.22.07h0l.23.06h0l.23.06h0l.23,0h0L34,199.54h0l1.17,2.16h2.39l.17,0,.14,0,.17,0,.16,0h.07l.2,0h0l.63,1h-.44l-.32,0h-.18l-.35,0h-.14l-.5-.08H37.1l-.42-.07-.17,0-.33-.07-.18,0-.32-.08-.18-.05-.35-.1-.13,0-.48-.16-.09,0-.39-.14-.16-.06-.32-.13-.17-.07-.3-.14-.17-.07L32.6,201l-.11-.06-.45-.23-.1-.06-.34-.19-.15-.09a2.61,2.61,0,0,0-.28-.17l-.15-.1-.28-.19-.14-.1-.31-.22-.09-.07a4,4,0,0,1-.39-.3l-.1-.08-.13-.11c-.43,1.33-.85,2.66-1.25,4l.25.18.08.06.37.25,0,0,.36.23,0,0,.39.23.08.05.39.22,0,0,.38.2.06,0,.41.2.09,0,.41.19.05,0,.4.17.06,0,.43.16.09,0,.43.15h0l.42.14.07,0,.43.13.09,0,.44.11h0l.43.1.07,0,.44.09.09,0,.45.08h0l.43.06h.08l.44.06h.09l.45,0h0l.43,0H39.8l.43,0h.09l.44-.05h0l.43-.07h.08l.41-.08.08,0,.43-.1a11.4,11.4,0,0,0,1.87-.63l.47-.23a8.76,8.76,0,0,0,1.66-1.12,7,7,0,0,0,.67-.66l.3-.35a7.52,7.52,0,0,0,.5-.75,1.18,1.18,0,0,0,.11-.19,4.92,4.92,0,0,0,.37-.81l1-2.64a7.26,7.26,0,0,1-3.67,3.9h0a5.45,5.45,0,0,0,.38-.46l.22-.33a3.79,3.79,0,0,0,.2-.34l.09-.17a5,5,0,0,0,.23-.53L47,199.6l.55-1.47c0-.07,0-.15.08-.22s0-.09,0-.14l.09-.31a.07.07,0,0,1,0-.05c0-.07,0-.15,0-.22l0-.16s0-.08,0-.13l0-.25v-.1a2.83,2.83,0,0,0,0-.29v-.39c0-.06,0-.12,0-.18s0-.15,0-.22,0-.08,0-.12a8.21,8.21,0,0,0-1.42-3.61ZM40,196.88l0,0,.2.14v0l.19.16h0l.18.17,0,0,.07.07,0,.06.07.07,0,.05.07.09,0,0a.71.71,0,0,1,.1.14,1.68,1.68,0,0,1,.2.34.2.2,0,0,1,0,.08,4.81,4.81,0,0,1-.79.34h0L40,199.9l-.58-.94-.26,0,.73-2A1,1,0,0,0,40,196.88Zm-7.63-3.56,0-.06-.07-.09,0,0-.11-.15a1.18,1.18,0,0,1-.11-.19l.12-.05,0,0,.31-.12h0l.35-.11h0l.43-1.17.59,1,.14,0-.69,1.84h0v0s0,0,0,0h0l-.08,0,0,0-.2-.15h0l-.2-.16,0,0-.18-.17,0,0-.07-.08-.05,0A.27.27,0,0,0,32.34,193.32Z"/><path class="cls-27" d="M31.42,186a15.05,15.05,0,0,1,15.07,5.75c3,4.5,1.2,9.22-4.1,10.54a15.07,15.07,0,0,1-15.07-5.76C24.29,192,26.13,187.31,31.42,186Zm9.06,12.73c1.76-.59,2.6-1.84,1.54-3.41-2-3-6.54-1.64-7.6-3.22-.39-.57-.05-1.06.75-1.26a2.84,2.84,0,0,1,1.67,0L37,191l.48.71,1.17-.23-1.15-2.07a23.54,23.54,0,0,0-2.63.23l-.76-1.24-1,.21.76,1.24c-1.87.51-2.74,1.65-1.74,3.14,2.09,3.09,6.54,1.66,7.72,3.41.44.65,0,1.1-.78,1.28a4.27,4.27,0,0,1-2,.1,3.87,3.87,0,0,1-.44-.49c-.11-.13-.39-.56-.41-.58L35,196.9l1.17,2.15a9.56,9.56,0,0,0,3.3-.09l.63,1,1-.21-.66-1.05"/><path class="cls-28" d="M47.2,193a37.36,37.36,0,0,0-6.88.89,4.16,4.16,0,0,1,1.7,1.44c1.06,1.57.22,2.82-1.54,3.41l.66,1.05-1,.21-.63-1a9.56,9.56,0,0,1-3.3.09L35,196.9l1.15-.21s.3.45.41.58a3.87,3.87,0,0,0,.44.49,4.27,4.27,0,0,0,2-.1c.73-.18,1.22-.63.78-1.28-.78-1.16-3-.92-5-1.53a21.59,21.59,0,0,1-5.08.07,13.18,13.18,0,0,1-3.58-1,9,9,0,0,0,1.21,2.56,15.07,15.07,0,0,0,15.07,5.76C47.2,201.08,49.16,197.08,47.2,193Z"/><path class="cls-29" d="M34.32,191.93c.07-.31.4-.55.9-.68a2.76,2.76,0,0,1,1.67,0l.13.13.48.72,1.17-.23-.05-.42-1.17.23L37,191l-.13-.14a2.84,2.84,0,0,0-1.67,0C34.45,191,34.11,191.43,34.32,191.93Z"/><path class="cls-29" d="M33.64,189.88l.18,0-.76-1.24,0,.41Z"/><path class="cls-29" d="M40.71,199.08c1.29-.49,2-1.35,1.78-2.44,0,.93-.78,1.67-2,2.08Z"/><path class="cls-29" d="M31.42,186c-4,1-6,3.87-5.48,7.15-.28-3.1,1.74-5.79,5.53-6.74a15.07,15.07,0,0,1,15.07,5.76,8.25,8.25,0,0,1,1.39,3.39,8.19,8.19,0,0,0-1.44-3.81A15.05,15.05,0,0,0,31.42,186Z"/><path class="cls-29" d="M35,197.31l1.17,2.16a10.18,10.18,0,0,0,3.3-.09l.63,1,1-.22-.24-.37-.86.17-.63-1a9.56,9.56,0,0,1-3.3.09l-1-1.76Z"/><path class="cls-29" d="M31.71,192.18a2.21,2.21,0,0,0,.42,1.21c2.09,3.09,6.54,1.65,7.72,3.41a1.62,1.62,0,0,1,.1.18.76.76,0,0,0-.15-.6c-1.18-1.75-5.63-.32-7.72-3.41A2.92,2.92,0,0,1,31.71,192.18Z"/><path class="cls-30" d="M33.06,188.59l1-.21.76,1.24a23.54,23.54,0,0,1,2.63-.23l1.15,2.07-1.17.23L37,191l-.13-.14a2.84,2.84,0,0,0-1.67,0c-.8.2-1.14.69-.75,1.26,1.06,1.58,5.61.26,7.6,3.22,1.06,1.57.22,2.82-1.54,3.41l.66,1.05-1,.21-.63-1a9.56,9.56,0,0,1-3.3.09L35,196.9l1.15-.21s.3.45.41.58a3.87,3.87,0,0,0,.44.49,4.27,4.27,0,0,0,2-.1c.73-.18,1.22-.63.78-1.28-1.18-1.75-5.63-.32-7.72-3.41-1-1.49-.13-2.63,1.74-3.14Z"/><path class="cls-31" d="M39.39,193.64c-1.72.34-3.45.69-5.19.88a11.15,11.15,0,0,0,2.73.64c1.31.19,2.43.36,3,1.15a.77.77,0,0,1-.1,1.11,1.94,1.94,0,0,1-.75.35,4.47,4.47,0,0,1-2.09.1h0l0,0a4.62,4.62,0,0,1-.46-.52c-.09-.11-.27-.37-.36-.51l-.93.16,1.08,2a9.75,9.75,0,0,0,3.2-.1l.08,0,.63,1,.8-.16-.64-1,.14,0a3.68,3.68,0,0,0,1.26-.68,1.74,1.74,0,0,0,.22-2.55,4.4,4.4,0,0,0-2.53-1.74Z"/><path class="cls-32" d="M30.62,184.81c6.07-1.52,13.8,1.43,17.27,6.59s1.36,10.55-4.7,12.06S29.4,202,25.93,196.87,24.56,186.32,30.62,184.81Zm11.77,17.47c5.3-1.32,7.13-6,4.1-10.54A15.05,15.05,0,0,0,31.42,186c-5.29,1.32-7.13,6-4.1,10.53a15.07,15.07,0,0,0,15.07,5.76"/><path class="cls-32" d="M47.08,201.42a9.49,9.49,0,0,1-3.92,1.93c-6,1.5-13.7-1.44-17.14-6.54-2.43-3.61-2.15-7.52.72-10a9.44,9.44,0,0,1,3.91-1.92c6-1.5,13.7,1.43,17.14,6.54C50.22,195.07,49.94,199,47.08,201.42ZM27.89,187.6c-2.59,2.21-2.85,5.74-.66,9a15.19,15.19,0,0,0,15.19,5.8,8.57,8.57,0,0,0,3.51-1.73c2.59-2.21,2.85-5.74.66-9-3.05-4.53-9.87-7.13-15.2-5.8A8.34,8.34,0,0,0,27.89,187.6Z"/><path class="cls-33" d="M48.08,191.91c-.45,0-.9,0-1.35,0,2,3.19,1.73,6.61-.8,8.77a8.57,8.57,0,0,1-3.51,1.73,15.19,15.19,0,0,1-15.19-5.8,8.26,8.26,0,0,1-1.44-3.73,11.68,11.68,0,0,1-1.41-.72A9.07,9.07,0,0,0,26,196.81c3.44,5.1,11.13,8,17.14,6.54a9.49,9.49,0,0,0,3.92-1.93C49.82,199.08,50.19,195.39,48.08,191.91Z"/><path class="cls-24" d="M92,68.05a.49.49,0,0,0,0-.12.13.13,0,0,0,0-.06.22.22,0,0,0,0-.08v0a2.88,2.88,0,0,0-.59-1.19l-.09-.11,0,0-.09-.11h0L91,66.21l0,0-.11-.09h0v0L90.81,66l0,0-.1-.08h0l-.1-.08,0,0-.08-.06,0,0-.11-.08h0l-.1-.06,0,0-.09-.05,0,0-.12-.06,0,0-.09,0h0l-.11,0h0l-.12,0,0,0-.1,0h0l-.14-.05h0l-.12,0h0l-.1,0h0l-.14,0h0l-.11,0h0l-.11,0h0l-.12,0H86.61l-.08,0h-.06l-.09,0h0l-.1,0h0l-.14,0-.1,0h0l-.07,0h0l-.09.05h0l-.07,0h0l-.07,0h0l-.09,0h0l-.07,0h0l-.07,0h0l-.08,0,0,0-.05,0,0,0-.07.06h0l-.06.06h0s0,0-.05,0v0l-.06.06v0l0,0v0l0,0v0h0l0,.06v0l0,0v0l0,0v0l0,.06h0l0,.07v0l0,.06v0l0,0v0l0,.08h0l-.14.51-.12.42h0a1.82,1.82,0,0,0-.06.74,2.5,2.5,0,0,1-.22-1.83l-.27.93a2.76,2.76,0,0,0,.64,2.47l.11.14h0l.12.12v0l.12.12h0l.12.12h0l.12.09v0l.11.09h0l.12.09,0,0,.13.08,0,0,.12.08h0a.57.57,0,0,1,.13.08h0l.13.08h0l.13.07h0l.14.06,0,0,.14.06h0l.13.06h0l.14,0h0l.15.06h0l.15.05h0l.15,0h0l.15,0h0l.14,0h0l.15,0h0l.15,0h0l.15,0h0l.15,0h1.24l.15,0h0l.14,0h0l.15,0h0l.14,0h0l.14,0h0l.15,0a3.14,3.14,0,0,0,.62-.27l.15-.09a3.36,3.36,0,0,0,.54-.42l.21-.25.09-.13a1.17,1.17,0,0,0,.15-.27l0-.07a1.62,1.62,0,0,0,.11-.28l.26-.93a2.5,2.5,0,0,1-1.14,1.43h0l.12-.17L91.5,70l.06-.12,0-.06.06-.19.12-.41.14-.52a.24.24,0,0,0,0-.08s0,0,0,0a.52.52,0,0,1,0-.11h0a.22.22,0,0,1,0-.08v-.1a.28.28,0,0,0,0-.09v-.13Zm-5.27-.86h0l.12-.41.23.31h0l-.19.65h0l0,0h0l-.08,0h0a.18.18,0,0,0-.07,0h0l-.06-.06h0l0,0,0,0,0,0h0l0,0,0,0,0-.05,0-.06,0,0h0l.11-.05h0Zm2.36,2,.2-.69a.43.43,0,0,0,0,0h0l.07,0h0l.07,0h0l.07.06h0l0,0v0l0,0v0l0,0h0s0,0,0,0l.08.11v0a1.26,1.26,0,0,1-.26.14h0l-.11.42-.23-.31Zm1.19,1-.16,0h0l-.11,0-.06,0-.1,0h-.06l-.11,0h0l-.17,0h-.23l.33-.1h0l.18-.62a.68.68,0,0,0,.18-.29l.26-.93h0v0h0v-.15a.3.3,0,0,0,0-.1v0h0l0-.12L90,68l-.08-.11,0,0,0,0,0,0,0,0,0,0,0,0,0,0h0l-.06-.06h0l-.06,0h0l-.07-.05h0l-.07,0h0l-.08,0h0l-.07,0h0l0,0h-.06l0,0h-.65l.18-.62h0L88.21,66c-.28,0-.6.08-.89.15l-.29-.4-.35.1-.19.68,0,0h0l-.06.07h0l0,0h0l0,0h0l0,0h0v0h0l-.19.67-.07.26h0a.61.61,0,0,0,.16.56l0,0v0l0,0h0l0,0,0,0,0,0h0l.07.06h0l.07.05h0l.07,0h0l.07,0h0l.07,0h0l.08,0h0l.08,0h0l.07,0h0l.07,0h0l.07,0h.1l.08,0h.1l-.18.64h0l.46.71h1.06l.07,0h0l.24.33h-.89l-.12,0H88l-.06,0-.13,0h0l-.17,0h0l-.14,0h-.06l-.11,0-.06,0-.11,0,0,0-.12-.05,0,0L86.68,70l0,0-.12-.06,0,0-.1,0-.06,0-.1-.06,0,0a.41.41,0,0,1-.11-.07l0,0-.14-.09,0,0-.11-.08,0,0-.09-.07,0,0a.27.27,0,0,1-.08-.07l0,0-.07-.06-.06,0L85.22,69l0,0-.07-.09s0,0,0,0L85,68.73a2.92,2.92,0,0,1-.42-.68c0-.09-.08-.19-.11-.28a3,3,0,0,1-.09-.41c0-.1,0-.2,0-.3h0l0,0,0,0h0a.43.43,0,0,1,0-.07h0a.21.21,0,0,0,0-.06l0,0s0,0,.05,0v0l0-.06,0,0,0,0v0l.07-.06h0l.07-.06,0,0,0,0,0,0,.08-.05h0l.06,0h0l.06,0h0l.09,0h0l.07,0h0l.08,0h0l.1,0h0l.08,0h0l.1,0,.13,0h0l.09,0,.06,0,.08,0h.06l.08,0h1.55l.08,0H88l.13,0h0l.12,0h0l.11,0h0l.13,0h0l.11,0h0l.12,0h0l.13,0h0l.1,0,0,0,.13,0h0l.12.05h0l.1,0,0,0,.12.06,0,0,.09,0,0,0,.11.06h0l.12.08,0,0,.08.06,0,0,.11.08h0l.09.08,0,0,.08.06,0,0,.1.09,0,0,.09.09h0l.1.11,0,0,.1.11a3.08,3.08,0,0,1,.52,1h0l.06.21s0,0,0,.06v0s0,.06,0,.1a.13.13,0,0,0,0,.06v.24A2.58,2.58,0,0,1,90.26,70.27Z"/><polygon class="cls-25" points="84.13 67.51 84.13 67.51 84.13 67.51 84.13 67.51"/><path class="cls-25" d="M91.36,70.27l0,0h0l.12-.17L91.5,70l.06-.12,0-.06.06-.19.12-.41.14-.52a.24.24,0,0,0,0-.08s0,0,0,0a.52.52,0,0,1,0-.11h0a.22.22,0,0,1,0-.08v-.1a.28.28,0,0,0,0-.09v-.13h0a.49.49,0,0,0,0-.12.13.13,0,0,0,0-.06.22.22,0,0,0,0-.08v0a2.88,2.88,0,0,0-.59-1.19h0l-1.41,0,.08,0h0l.12.08,0,0,.08.06,0,0,.11.08h0l.09.08,0,0,.08.06,0,0,.1.09,0,0,.09.09h0l.1.11,0,0,.1.11a3.08,3.08,0,0,1,.52,1h0l.06.21s0,0,0,.06v0s0,.06,0,.1a.13.13,0,0,0,0,.06v.24a2.58,2.58,0,0,1-1.46,1.11l-.16,0h0l-.11,0-.06,0-.1,0h-.06l-.11,0h0l-.17,0h-.23l.33-.1h0l.18-.62a.68.68,0,0,0,.18-.29l.26-.93h0v0h0v-.15a.3.3,0,0,0,0-.1v0h0l0-.12L90,68l-.08-.11,0,0,0,0,0,0,0,0,0,0,0,0,0,0h0l-.06-.06h0l-.06,0h0l-.07-.05h0l-.07,0h0l-.08,0h0l-.07,0h0l0,0h-.06l0,0h-.65l.18-.62-.15-.22-2-.06,0,.14,0,0h0l-.06.07h0l0,0h0l0,0h0l0,0h0v0h0l-.19.67-.07.26h0a.61.61,0,0,0,.16.56l0,0v0l0,0h0l0,0,0,0,0,0h0l.07.06h0l.07.05h0l.07,0h0l.07,0h0l.07,0h0l.08,0h0l.08,0h0l.07,0h0l.07,0h0l.07,0h.1l.08,0h.1l-.18.64h0l.46.71h1.06l.07,0h0l.24.33h-.89l-.12,0H88l-.06,0-.13,0h0l-.17,0h0l-.14,0h-.06l-.11,0-.06,0-.11,0,0,0-.12-.05,0,0L86.68,70l0,0-.12-.06,0,0-.1,0-.06,0-.1-.06,0,0a.41.41,0,0,1-.11-.07l0,0-.14-.09,0,0-.11-.08,0,0-.09-.07,0,0a.27.27,0,0,1-.08-.07l0,0-.07-.06-.06,0L85.22,69l0,0-.07-.09s0,0,0,0L85,68.73a2.92,2.92,0,0,1-.42-.68c0-.09-.08-.19-.11-.28a3,3,0,0,1-.09-.41c0-.1,0-.2,0-.3h0l0,0,0,0h0a.43.43,0,0,1,0-.07h0a.21.21,0,0,0,0-.06l0,0s0,0,.05,0v0l0-.06,0,0,0,0v0l.07-.06h0l.07-.06,0,0,0,0,0,0,.08-.05h0l-.51,0h0v0l0,.06v0l0,0v0l0,.08h0l-.14.51-.12.42h0a2.61,2.61,0,0,0-.06.27.57.57,0,0,1,0,.13,2,2,0,0,0,0,.34l0-.06c0,.44,0,.89,0,1.33l.22.3.11.14h0l.12.12v0l.12.12h0l.12.12h0l.12.09v0l.11.09h0l.12.09,0,0,.13.08,0,0,.12.08h0a.57.57,0,0,1,.13.08h0l.13.08h0l.13.07h0l.14.06,0,0,.14.06h0l.13.06h0l.14,0h0l.15.06h0l.15.05h0l.15,0h0l.15,0h0l.14,0h0l.15,0h0l.15,0h0l.15,0h0l.15,0h1.24l.15,0h0l.14,0h0l.15,0h0l.14,0h0l.14,0h0l.15,0,.12,0c.28-.34.56-.7.81-1.07ZM89.28,68.5h0l.07,0h0l.07,0h0l.07.06h0l0,0v0l0,0v0l0,0h0s0,0,0,0l.08.11v0a1.26,1.26,0,0,1-.26.14h0l-.11.42-.23-.31-.09,0,.2-.69A.43.43,0,0,0,89.28,68.5Zm-2.71-1h0l0,0,0,0,0-.05,0-.06,0,0h0l.11-.05h0l.11,0h0l.12-.41.23.31h0l-.19.65h0l0,0h0l-.08,0h0a.18.18,0,0,0-.07,0h0l-.06-.06h0l0,0,0,0Z"/><path class="cls-26" d="M91.27,66.45l0,0-.09-.11h0L91,66.21l0,0-.11-.09h0v0L90.81,66l0,0-.1-.08h0l-.1-.08,0,0-.08-.06,0,0-.11-.08h0l-.1-.06,0,0-.09-.05,0,0-.12-.06,0,0-.09,0h0l-.11,0h0l-.12,0,0,0-.1,0h0l-.14-.05h0l-.12,0h0l-.1,0h0l-.14,0h0l-.11,0h0l-.11,0h0l-.12,0H87.21l-.33.93h1l.08,0H88l.13,0h0l.12,0h0l.11,0h0l.13,0h0l.11,0h0l.12,0h0l.13,0h0l.1,0,0,0,.13,0h0l.12.05h0l.1,0,0,0,.12.06,0,0,.09,0,0,0,.11.06h0l.12.08,0,0,.08.06,0,0,.11.08h0l.09.08,0,0,.08.06,0,0,.1.09,0,0,.09.09h0l.1.11,0,0,.1.11a3.08,3.08,0,0,1,.52,1h0l.06.21s0,0,0,.06v0s0,.06,0,.1a.13.13,0,0,0,0,.06v.24a2.58,2.58,0,0,1-1.46,1.11l-.16,0h0l-.11,0-.06,0-.1,0h-.06l-.11,0h0l-.17,0h-.23l.33-.1h0l.18-.62a.68.68,0,0,0,.18-.29l.26-.93h0v0h0v-.15a.3.3,0,0,0,0-.1v0h0l0-.12L90,68l-.08-.11,0,0,0,0,0,0,0,0,0,0,0,0,0,0h0l-.06-.06h0l-.06,0h0l-.07-.05h0l-.07,0h0l-.08,0h0l-.07,0h0l0,0h-.06l0,0h-.65l.18-.62L88.21,66c-.28,0-.6.08-.89.15l-.29-.4-.17,0c-.27.79-.51,1.58-.73,2.39a.76.76,0,0,0,.08.11l0,0v0l0,0h0l0,0,0,0,0,0h0l.07.06h0l.07.05h0l.07,0h0l.07,0h0l.07,0h0l.08,0h0l.08,0h0l.07,0h0l.07,0h0l.07,0h.1l.08,0h.1l-.18.64h0l.46.71h1.06l.07,0h0l.24.33h-.89l-.12,0H88l-.06,0-.13,0h0l-.17,0h0l-.14,0h-.06l-.11,0-.06,0-.11,0,0,0-.12-.05,0,0L86.68,70l0,0-.12-.06,0,0-.1,0-.06,0-.1-.06,0,0a.41.41,0,0,1-.11-.07l0,0-.14-.09,0,0,0,0c-.11.47-.22.93-.32,1.4l.09.06h0l.13.08h0l.13.07h0l.14.06,0,0,.14.06h0l.13.06h0l.14,0h0l.15.06h0l.15.05h0l.15,0h0l.15,0h0l.14,0h0l.15,0h0l.15,0h0l.15,0h0l.15,0h1.24l.15,0h0l.14,0h0l.15,0h0l.14,0h0l.14,0h0l.15,0a3.14,3.14,0,0,0,.62-.27l.15-.09a3.36,3.36,0,0,0,.54-.42l.21-.25.09-.13a1.17,1.17,0,0,0,.15-.27l0-.07a1.62,1.62,0,0,0,.11-.28l.26-.93a2.5,2.5,0,0,1-1.14,1.43h0l.12-.17L91.5,70l.06-.12,0-.06.06-.19.12-.41.14-.52a.24.24,0,0,0,0-.08s0,0,0,0a.52.52,0,0,1,0-.11h0a.22.22,0,0,1,0-.08v-.1a.28.28,0,0,0,0-.09v-.13h0a.49.49,0,0,0,0-.12.13.13,0,0,0,0-.06.22.22,0,0,0,0-.08v0a2.88,2.88,0,0,0-.59-1.19Zm-2,2h0l.07,0h0l.07,0h0l.07.06h0l0,0v0l0,0v0l0,0h0s0,0,0,0l.08.11v0a1.26,1.26,0,0,1-.26.14h0l-.11.42-.23-.31-.09,0,.2-.69A.43.43,0,0,0,89.28,68.5Zm-2.71-1h0l0,0,0,0,0-.05,0-.06,0,0h0l.11-.05h0l.11,0h0l.12-.41.23.31h0l-.19.65h0l0,0h0l-.08,0h0a.18.18,0,0,0-.07,0h0l-.06-.06h0l0,0,0,0Z"/><path class="cls-27" d="M86.05,65a5.17,5.17,0,0,1,5.31,1.54,2.21,2.21,0,0,1-1.1,3.71A5.17,5.17,0,0,1,85,68.73,2.21,2.21,0,0,1,86.05,65Zm3.45,4.09c.59-.25.84-.7.43-1.21-.76-1-2.28-.37-2.68-.88-.15-.19,0-.36.22-.45a1,1,0,0,1,.57,0l0,0,.18.23.4-.12L88.21,66c-.28,0-.6.08-.89.15l-.29-.4-.35.1.3.4c-.62.23-.89.64-.51,1.12.8,1,2.28.38,2.74,1,.16.21,0,.38-.24.46a1.48,1.48,0,0,1-.69.09,1.14,1.14,0,0,1-.16-.16L88,68.54l-.38.1.46.71a3.55,3.55,0,0,0,1.12-.13l.25.33.35-.1-.26-.34"/><path class="cls-28" d="M91.64,67a12.58,12.58,0,0,0-2.33.5,1.48,1.48,0,0,1,.62.44c.41.51.16,1-.43,1.21l.26.34-.35.1-.25-.33a3.55,3.55,0,0,1-1.12.13l-.46-.71.38-.1.16.18a1.14,1.14,0,0,0,.16.16,1.48,1.48,0,0,0,.69-.09c.25-.08.4-.25.24-.46-.31-.38-1.06-.23-1.76-.38a7.34,7.34,0,0,1-1.74.17,4.84,4.84,0,0,1-1.25-.23,3.33,3.33,0,0,0,.49.84,5.17,5.17,0,0,0,5.31,1.54A2.18,2.18,0,0,0,91.64,67Z"/><path class="cls-29" d="M87.21,67a.38.38,0,0,1,.29-.25,1,1,0,0,1,.57,0l0,0,.19.23.39-.11,0-.15-.4.12-.18-.23,0,0a1,1,0,0,0-.57,0C87.23,66.65,87.12,66.8,87.21,67Z"/><path class="cls-29" d="M86.92,66.28l.06,0-.3-.4,0,.14Z"/><path class="cls-29" d="M89.59,69.23c.43-.21.66-.52.54-.89,0,.32-.22.6-.63.77Z"/><path class="cls-29" d="M86.05,65a2.19,2.19,0,0,0-1.67,2.59,2.2,2.2,0,0,1,1.7-2.45,5.17,5.17,0,0,1,5.31,1.54A3,3,0,0,1,92,67.82a2.75,2.75,0,0,0-.6-1.26A5.17,5.17,0,0,0,86.05,65Z"/><path class="cls-29" d="M87.6,68.78l.47.71a3.56,3.56,0,0,0,1.12-.13l.24.33.35-.1-.09-.12-.28.08-.25-.33a3.55,3.55,0,0,1-1.12.13l-.38-.58Z"/><path class="cls-29" d="M86.33,67.12a.66.66,0,0,0,.17.4c.8,1,2.28.39,2.73,1a.21.21,0,0,1,0,.06.27.27,0,0,0-.06-.2c-.46-.57-1.94,0-2.74-1A.67.67,0,0,1,86.33,67.12Z"/><path class="cls-30" d="M86.68,65.86l.35-.1.29.4c.29-.07.61-.11.89-.15l.46.67-.4.12-.18-.23,0,0a1,1,0,0,0-.57,0c-.27.09-.37.26-.22.45.4.51,1.92-.07,2.68.88.41.51.16,1-.43,1.21l.26.34-.35.1-.25-.33a3.55,3.55,0,0,1-1.12.13l-.46-.71.38-.1.16.18a1.14,1.14,0,0,0,.16.16,1.48,1.48,0,0,0,.69-.09c.25-.08.4-.25.24-.46-.46-.57-1.94,0-2.74-1-.38-.48-.11-.89.51-1.12Z"/><path class="cls-31" d="M89,67.41c-.58.16-1.16.33-1.75.44a3.9,3.9,0,0,0,1,.14c.45,0,.84.06,1,.32a.27.27,0,0,1,0,.38.76.76,0,0,1-.24.14,1.53,1.53,0,0,1-.71.09h0a1.29,1.29,0,0,1-.17-.16L88,68.58l-.31.09.42.64a3.42,3.42,0,0,0,1.09-.13h0l.24.33.27-.08-.25-.34,0,0a1.26,1.26,0,0,0,.41-.26.59.59,0,0,0,0-.88A1.53,1.53,0,0,0,89,67.4Z"/><path class="cls-32" d="M85.75,64.64a5.91,5.91,0,0,1,6.08,1.76,2.53,2.53,0,0,1-1.27,4.25,5.91,5.91,0,0,1-6.08-1.76A2.53,2.53,0,0,1,85.75,64.64Zm4.51,5.63a2.21,2.21,0,0,0,1.1-3.71A5.17,5.17,0,0,0,86.05,65,2.21,2.21,0,0,0,85,68.73a5.17,5.17,0,0,0,5.31,1.54"/><path class="cls-32" d="M91.83,69.85a3.32,3.32,0,0,1-1.28.77,5.88,5.88,0,0,1-6-1.76,2.46,2.46,0,0,1,0-3.42,3.32,3.32,0,0,1,1.28-.77,5.88,5.88,0,0,1,6,1.76A2.46,2.46,0,0,1,91.83,69.85Zm-6.94-4.18a2.21,2.21,0,0,0,0,3.08,5.22,5.22,0,0,0,5.35,1.56,3,3,0,0,0,1.15-.69,2.23,2.23,0,0,0,0-3.09A5.22,5.22,0,0,0,86,65,2.92,2.92,0,0,0,84.89,65.67Z"/><path class="cls-33" d="M91.91,66.57l-.47,0a2.21,2.21,0,0,1,0,3,3,3,0,0,1-1.15.69,5.22,5.22,0,0,1-5.35-1.56,2.77,2.77,0,0,1-.6-1.23,4.34,4.34,0,0,1-.5-.2,3.07,3.07,0,0,0,.69,1.54,5.88,5.88,0,0,0,6,1.76,3.32,3.32,0,0,0,1.28-.77A2.43,2.43,0,0,0,91.91,66.57Z"/><path class="cls-24" d="M65,151.12l0-.26a.49.49,0,0,0,0-.12c0-.05,0-.11,0-.16v-.08a5.75,5.75,0,0,0-.66-2.64c0-.09-.09-.18-.14-.27l0-.06-.15-.26,0,0-.15-.23,0,0-.17-.25h0l0,0-.13-.17,0-.06-.16-.2h0l-.18-.21L63,146l-.14-.16,0,0-.2-.2,0,0-.17-.17-.06-.06-.17-.15,0,0-.21-.18,0,0-.18-.14-.06-.05-.21-.15,0,0-.23-.16-.07,0-.18-.12-.07,0-.24-.15h0l-.22-.13-.07,0-.2-.11-.06,0-.25-.13-.06,0-.2-.1-.08,0-.22-.1,0,0-.23-.09h0l-.13,0-.16-.07-.13,0-.16-.06-.14,0-.16,0-.13,0-.16,0-.14,0-.16,0-.14,0-.16,0-.14,0-.16,0-.14,0-.16,0-.14,0-.16,0-.14,0H54.64l-.29,0-.21,0h-.07l-.16,0h-.06l-.2,0h0l-.18,0h-.06l-.15.05h0l-.18.06h0l-.14.06-.06,0-.15.06h0l-.17.08,0,0-.13.06,0,0-.16.09h0l-.15.09,0,0-.12.08,0,0-.14.11,0,0-.11.09,0,0-.1.09,0,0h0l-.12.11,0,0L51,144l0,0-.07.09,0,0-.08.1,0,0-.09.13,0,0-.06.1,0,0-.06.1,0,0-.07.14h0l-.51,1-.42.79h0a4.07,4.07,0,0,0-.45,1.46,5.14,5.14,0,0,1,.35-3.76l-.93,1.76a5.59,5.59,0,0,0,.21,5.21l.17.33,0,0A3.07,3.07,0,0,0,49,152l0,0,.18.3,0,0,.2.28,0,0v0l.19.24,0,0,.18.22,0,0a2.2,2.2,0,0,0,.2.23l0,.05.21.23,0,0,.21.21,0,0,.23.21,0,.05.23.21,0,0,.23.19,0,0,.25.19.05,0,.25.19,0,0,.24.17,0,0,.27.17.05,0,.28.17,0,0,.26.15.05,0,.28.15,0,0,.29.15h0l.28.13,0,0,.3.13.05,0,.3.12h0l.29.11.05,0,.3.1.06,0,.3.1h0l.29.09h.06l.3.08h.06l.31.07h0l.3.06h.06l.3,0h.06l.32,0h0l.31,0h1.1l.29,0h.06l.31,0a8.18,8.18,0,0,0,1.36-.28l.35-.11a5.85,5.85,0,0,0,1.25-.63,4.32,4.32,0,0,0,.53-.4l.24-.22a6.14,6.14,0,0,0,.42-.47,1.47,1.47,0,0,0,.1-.13,4.72,4.72,0,0,0,.33-.53l.93-1.75a5.17,5.17,0,0,1-2.91,2.39h0c.11-.09.21-.19.31-.29l.18-.2.17-.22a1,1,0,0,1,.08-.11l.21-.36.41-.78.52-1,.07-.15,0-.09.09-.21v0a.58.58,0,0,0,.05-.14s0-.07,0-.11,0-.06,0-.09l.05-.17a.17.17,0,0,1,0-.07c0-.07,0-.13,0-.2Zm-10.2-4h0l.41-.78.32.72h.1l-.65,1.22h0v0l0,0h0l0,0h0a1.59,1.59,0,0,1-.13-.13h0l-.12-.13v0a1.34,1.34,0,0,1-.11-.14l0,0,0-.06,0,0,0-.07,0,0a.25.25,0,0,1,0-.07l0,0-.06-.11-.06-.14.09,0h0l.23,0h0Zm3.85,5.13.69-1.3a.35.35,0,0,0,0-.11h0l.12.12h0l.12.13h0a1.71,1.71,0,0,1,.11.14l0,0,0,.06,0,0,0,.06,0,0a.21.21,0,0,1,0,.06l0,0,.06.11a2.72,2.72,0,0,1,.11.25s0,0,0,.06a3.28,3.28,0,0,1-.58.17h0l-.42.78-.32-.71Zm1.93,2.57-.33,0H59.05a2,2,0,0,1-.34,0h0l-.31,0h-.14l.72-.05h0l.61-1.16a1.32,1.32,0,0,0,.49-.51l.93-1.76h0a.05.05,0,0,0,0,0v-.05l0-.07a1.05,1.05,0,0,0,.06-.24,1.47,1.47,0,0,0,0-.21v-.08h0a1.19,1.19,0,0,0-.05-.26.65.65,0,0,0,0-.13c0-.09-.07-.17-.11-.26l-.06-.1,0,0a.25.25,0,0,0,0-.07l0,0,0-.06,0,0,0-.05h0v0l-.11-.13h0l-.12-.13h0l-.12-.12,0,0-.12-.1,0,0-.13-.1,0,0-.14-.09h0l-.08,0h0l0,0,0,0-.1-.06-.06,0-.12-.07h0l-.16-.07,0,0-.11-.05-.06,0-.1,0-.07,0-.1,0-.06,0-.13,0h0l-.16,0h0l.61-1.15h0l-.62-1.55a16.16,16.16,0,0,0-1.85-.08l-.42-.93-.73.05-.68,1.29-.07,0h0a.79.79,0,0,0-.15.12h0l-.05.06h0l0,.06,0,0-.05.07h0l0,.07h0l-.68,1.28-.25.48h0a1.29,1.29,0,0,0,.07,1.2l.06.12,0,0a.3.3,0,0,0,0,.08l0,0a.21.21,0,0,1,0,.06l0,0,0,.06,0,0h0a.76.76,0,0,0,.11.14v0l.12.13h0l.13.12h0l.12.11,0,0,.13.1,0,0,.14.09h0l.14.09h0l.15.08h0l.15.07h0l.15.07h0l.16.07h0l.16.06h0l.16.06h0l-.65,1.21h0l.63,1.61h.08l0,0h.12l0,0H56l.07,0h.37l.09,0h1.32l.35.76-.18,0-.12,0-.22,0-.13,0-.24,0-.1,0-.34-.09,0,0-.28-.09-.12,0-.22-.08-.12,0-.22-.09-.12-.05-.23-.1-.09,0-.32-.15-.06,0-.26-.14-.11-.06-.2-.11-.12-.07-.2-.12-.1-.07-.23-.14-.07-.05-.29-.2-.07-.05-.21-.17-.1-.07-.18-.15-.1-.08-.18-.15-.09-.09-.19-.18-.06-.05-.25-.25-.05-.06-.18-.19-.08-.1-.15-.17-.08-.1-.13-.17-.08-.1-.12-.17-.08-.12-.12-.18a.83.83,0,0,0-.08-.12,1.28,1.28,0,0,1-.11-.2l-.06-.1-.17-.31A6.55,6.55,0,0,1,50,147.9c0-.2-.07-.4-.09-.59a6.17,6.17,0,0,1,0-.86,4.23,4.23,0,0,1,.11-.62h0l0,0,.09-.09,0,0,.12-.11,0,0,.1-.09,0,0,.12-.09,0,0,.14-.1,0,0,.12-.08,0,0,.15-.09h0l.16-.09,0,0,.13-.07,0,0,.17-.08h0l.15-.06.06,0,.14,0,0,0,.19-.06h0l.15,0,.06,0,.18,0h0l.2,0H53l.16,0h.07l.21,0,.29,0H55l.17,0h.13l.16,0,.14,0,.16,0,.14,0,.16,0,.14,0,.16,0,.14,0,.16,0,.14,0,.16,0,.13,0,.16,0,.14.05.16,0,.13.05.16.06.13,0,.26.1,0,0,.22.1.08,0,.2.09.06,0,.25.13.06,0,.2.11.07,0,.22.13,0,0,.24.15.07,0,.18.12.07,0,.23.17h0l.21.16.06.05.18.14,0,0,.21.18,0,0,.17.15.06,0,.17.17,0,0,.2.19,0,.06.14.15.06.06.18.21h0l.16.2,0,.06.13.17,0,.06.17.24,0,.06.15.23,0,0,.15.25,0,.07a2.15,2.15,0,0,1,.14.26,6.25,6.25,0,0,1,.64,2.12v0a3.39,3.39,0,0,1,0,.45v.13a.25.25,0,0,1,0,.08,1.41,1.41,0,0,1,0,.2s0,.09,0,.13,0,.1,0,.14l0,.17a.36.36,0,0,0,0,.1.19.19,0,0,0,0,.07A5.33,5.33,0,0,1,60.53,154.83Z"/><polygon class="cls-25" points="49.43 146.65 49.43 146.65 49.43 146.65 49.43 146.65"/><path class="cls-25" d="M62.75,155.31l-.1,0h0c.11-.09.21-.19.31-.29l.18-.2.17-.22a1,1,0,0,1,.08-.11l.21-.36.41-.78.52-1,.07-.15,0-.09.09-.21v0a.58.58,0,0,0,.05-.14s0-.07,0-.11,0-.06,0-.09l.05-.17a.17.17,0,0,1,0-.07c0-.07,0-.13,0-.2v0l0-.26a.49.49,0,0,0,0-.12c0-.05,0-.11,0-.16v-.08a5.75,5.75,0,0,0-.66-2.64v0l-2.79-.69.12.12,0,0,.2.19,0,.06.14.15.06.06.18.21h0l.16.2,0,.06.13.17,0,.06.17.24,0,.06.15.23,0,0,.15.25,0,.07a2.15,2.15,0,0,1,.14.26,6.25,6.25,0,0,1,.64,2.12v0a3.39,3.39,0,0,1,0,.45v.13a.25.25,0,0,1,0,.08,1.41,1.41,0,0,1,0,.2s0,.09,0,.13,0,.1,0,.14l0,.17a.36.36,0,0,0,0,.1.19.19,0,0,0,0,.07,5.33,5.33,0,0,1-3.42,1.6l-.33,0H59.05a2,2,0,0,1-.34,0h0l-.31,0h-.14l.72-.05h0l.61-1.16a1.32,1.32,0,0,0,.49-.51l.93-1.76h0a.05.05,0,0,0,0,0v-.05l0-.07a1.05,1.05,0,0,0,.06-.24,1.47,1.47,0,0,0,0-.21v-.08h0a1.19,1.19,0,0,0-.05-.26.65.65,0,0,0,0-.13c0-.09-.07-.17-.11-.26l-.06-.1,0,0a.25.25,0,0,0,0-.07l0,0,0-.06,0,0,0-.05h0v0l-.11-.13h0l-.12-.13h0l-.12-.12,0,0-.12-.1,0,0-.13-.1,0,0-.14-.09h0l-.08,0h0l0,0,0,0-.1-.06-.06,0-.12-.07h0l-.16-.07,0,0-.11-.05-.06,0-.1,0-.07,0-.1,0-.06,0-.13,0h0l-.16,0h0l.61-1.15-.21-.51-4-1-.14.28-.07,0h0a.79.79,0,0,0-.15.12h0l-.05.06h0l0,.06,0,0-.05.07h0l0,.07h0l-.68,1.28-.25.48h0a1.29,1.29,0,0,0,.07,1.2l.06.12,0,0a.3.3,0,0,0,0,.08l0,0a.21.21,0,0,1,0,.06l0,0,0,.06,0,0h0a.76.76,0,0,0,.11.14v0l.12.13h0l.13.12h0l.12.11,0,0,.13.1,0,0,.14.09h0l.14.09h0l.15.08h0l.15.07h0l.15.07h0l.16.07h0l.16.06h0l.16.06h0l-.65,1.21h0l.63,1.61h.08l0,0h.12l0,0H56l.07,0h.37l.09,0h1.32l.35.76-.18,0-.12,0-.22,0-.13,0-.24,0-.1,0-.34-.09,0,0-.28-.09-.12,0-.22-.08-.12,0-.22-.09-.12-.05-.23-.1-.09,0-.32-.15-.06,0-.26-.14-.11-.06-.2-.11-.12-.07-.2-.12-.1-.07-.23-.14-.07-.05-.29-.2-.07-.05-.21-.17-.1-.07-.18-.15-.1-.08-.18-.15-.09-.09-.19-.18-.06-.05-.25-.25-.05-.06-.18-.19-.08-.1-.15-.17-.08-.1-.13-.17-.08-.1-.12-.17-.08-.12-.12-.18a.83.83,0,0,0-.08-.12,1.28,1.28,0,0,1-.11-.2l-.06-.1-.17-.31A6.55,6.55,0,0,1,50,147.9c0-.2-.07-.4-.09-.59a6.17,6.17,0,0,1,0-.86,4.23,4.23,0,0,1,.11-.62h0l0,0,.09-.09,0,0,.12-.11,0,0,.1-.09,0,0,.12-.09,0,0,.14-.1,0,0,.12-.08,0,0,.15-.09h0l.16-.09,0,0,.13-.07,0,0,.17-.08h0l-1-.25h0l0,0-.06.1,0,0-.06.1,0,0-.07.14h0l-.51,1-.42.79h0a3.43,3.43,0,0,0-.23.52,2.58,2.58,0,0,0-.08.26,5.12,5.12,0,0,0-.14.68l0-.13c-.25.87-.45,1.77-.64,2.66a5.66,5.66,0,0,0,.3.68l.17.33,0,0A3.07,3.07,0,0,0,49,152l0,0,.18.3,0,0,.2.28,0,0v0l.19.24,0,0,.18.22,0,0a2.2,2.2,0,0,0,.2.23l0,.05.21.23,0,0,.21.21,0,0,.23.21,0,.05.23.21,0,0,.23.19,0,0,.25.19.05,0,.25.19,0,0,.24.17,0,0,.27.17.05,0,.28.17,0,0,.26.15.05,0,.28.15,0,0,.29.15h0l.28.13,0,0,.3.13.05,0,.3.12h0l.29.11.05,0,.3.1.06,0,.3.1h0l.29.09h.06l.3.08h.06l.31.07h0l.3.06h.06l.3,0h.06l.32,0h0l.31,0h1.1l.29,0h.06l.31,0,.25,0c.73-.57,1.43-1.18,2.1-1.81Zm-3.43-4.46h0l.12.12h0l.12.13h0a1.71,1.71,0,0,1,.11.14l0,0,0,.06,0,0,0,.06,0,0a.21.21,0,0,1,0,.06l0,0,.06.11a2.72,2.72,0,0,1,.11.25s0,0,0,.06a3.28,3.28,0,0,1-.58.17h0l-.42.78-.32-.71H58.6l.69-1.3A.35.35,0,0,0,59.32,150.85Zm-5-3.18,0,0a.25.25,0,0,1,0-.07l0,0-.06-.11-.06-.14.09,0h0l.23,0h0l.26,0h0l.41-.78.32.72h.1l-.65,1.22h0v0l0,0h0l0,0h0a1.59,1.59,0,0,1-.13-.13h0l-.12-.13v0a1.34,1.34,0,0,1-.11-.14l0,0,0-.06,0,0Z"/><path class="cls-26" d="M64.2,147.59l0-.06-.15-.26,0,0-.15-.23,0,0-.17-.25h0l0,0-.13-.17,0-.06-.16-.2h0l-.18-.21L63,146l-.14-.16,0,0-.2-.2,0,0-.17-.17-.06-.06-.17-.15,0,0-.21-.18,0,0-.18-.14-.06-.05-.21-.15,0,0-.23-.16-.07,0-.18-.12-.07,0-.24-.15h0l-.22-.13-.07,0-.2-.11-.06,0-.25-.13-.06,0-.2-.1-.08,0-.22-.1,0,0-.23-.09h0l-.13,0-.16-.07-.13,0-.16-.06-.14,0-.16,0-.13,0-.16,0-.14,0-.16,0-.14,0-.16,0-.14,0-.16,0h-.1c-.35.57-.71,1.15-1,1.73h.08l.14,0,.16,0,.14,0,.16,0,.14,0,.16,0,.14,0,.16,0,.13,0,.16,0,.14.05.16,0,.13.05.16.06.13,0,.26.1,0,0,.22.1.08,0,.2.09.06,0,.25.13.06,0,.2.11.07,0,.22.13,0,0,.24.15.07,0,.18.12.07,0,.23.17h0l.21.16.06.05.18.14,0,0,.21.18,0,0,.17.15.06,0,.17.17,0,0,.2.19,0,.06.14.15.06.06.18.21h0l.16.2,0,.06.13.17,0,.06.17.24,0,.06.15.23,0,0,.15.25,0,.07a2.15,2.15,0,0,1,.14.26,6.25,6.25,0,0,1,.64,2.12v0a3.39,3.39,0,0,1,0,.45v.13a.25.25,0,0,1,0,.08,1.41,1.41,0,0,1,0,.2s0,.09,0,.13,0,.1,0,.14l0,.17a.36.36,0,0,0,0,.1.19.19,0,0,0,0,.07,5.33,5.33,0,0,1-3.42,1.6l-.33,0H59.05a2,2,0,0,1-.34,0h0l-.31,0h-.14l.72-.05h0l.61-1.16a1.32,1.32,0,0,0,.49-.51l.93-1.76h0a.05.05,0,0,0,0,0v-.05l0-.07a1.05,1.05,0,0,0,.06-.24,1.47,1.47,0,0,0,0-.21v-.08h0a1.19,1.19,0,0,0-.05-.26.65.65,0,0,0,0-.13c0-.09-.07-.17-.11-.26l-.06-.1,0,0a.25.25,0,0,0,0-.07l0,0,0-.06,0,0,0-.05h0v0l-.11-.13h0l-.12-.13h0l-.12-.12,0,0-.12-.1,0,0-.13-.1,0,0-.14-.09h0l-.08,0h0l0,0,0,0-.1-.06-.06,0-.12-.07h0l-.16-.07,0,0-.11-.05-.06,0-.1,0-.07,0-.1,0-.06,0-.13,0h0l-.16,0h0l.61-1.15-.62-1.55a16.16,16.16,0,0,0-1.85-.08l-.42-.93-.36,0c-.87,1.46-1.7,3-2.49,4.47,0,.09.07.18.11.27l.06.12,0,0a.3.3,0,0,0,0,.08l0,0a.21.21,0,0,1,0,.06l0,0,0,.06,0,0h0a.76.76,0,0,0,.11.14v0l.12.13h0l.13.12h0l.12.11,0,0,.13.1,0,0,.14.09h0l.14.09h0l.15.08h0l.15.07h0l.15.07h0l.16.07h0l.16.06h0l.16.06h0l-.65,1.21h0l.63,1.61h.08l0,0h.12l0,0H56l.07,0h.37l.09,0h1.32l.35.76-.18,0-.12,0-.22,0-.13,0-.24,0-.1,0-.34-.09,0,0-.28-.09-.12,0-.22-.08-.12,0-.22-.09-.12-.05-.23-.1-.09,0-.32-.15-.06,0-.26-.14-.11-.06-.2-.11-.12-.07-.2-.12-.1-.07-.23-.14-.07-.05-.29-.2-.07-.05-.21-.17-.1-.07-.18-.15-.1-.08-.18-.15-.09-.09-.19-.18-.06-.05-.25-.25-.05-.06-.08-.09c-.43.88-.84,1.77-1.24,2.67l.16.14,0,.05.23.21,0,0,.23.19,0,0,.25.19.05,0,.25.19,0,0,.24.17,0,0,.27.17.05,0,.28.17,0,0,.26.15.05,0,.28.15,0,0,.29.15h0l.28.13,0,0,.3.13.05,0,.3.12h0l.29.11.05,0,.3.1.06,0,.3.1h0l.29.09h.06l.3.08h.06l.31.07h0l.3.06h.06l.3,0h.06l.32,0h0l.31,0h1.1l.29,0h.06l.31,0a8.18,8.18,0,0,0,1.36-.28l.35-.11a5.85,5.85,0,0,0,1.25-.63,4.32,4.32,0,0,0,.53-.4l.24-.22a6.14,6.14,0,0,0,.42-.47,1.47,1.47,0,0,0,.1-.13,4.72,4.72,0,0,0,.33-.53l.93-1.75a5.17,5.17,0,0,1-2.91,2.39h0c.11-.09.21-.19.31-.29l.18-.2.17-.22a1,1,0,0,1,.08-.11l.21-.36.41-.78.52-1,.07-.15,0-.09.09-.21v0a.58.58,0,0,0,.05-.14s0-.07,0-.11,0-.06,0-.09l.05-.17a.17.17,0,0,1,0-.07c0-.07,0-.13,0-.2v0l0-.26a.49.49,0,0,0,0-.12c0-.05,0-.11,0-.16v-.08a5.75,5.75,0,0,0-.66-2.64C64.3,147.77,64.25,147.68,64.2,147.59Zm-4.88,3.26h0l.12.12h0l.12.13h0a1.71,1.71,0,0,1,.11.14l0,0,0,.06,0,0,0,.06,0,0a.21.21,0,0,1,0,.06l0,0,.06.11a2.72,2.72,0,0,1,.11.25s0,0,0,.06a3.28,3.28,0,0,1-.58.17h0l-.42.78-.32-.71H58.6l.69-1.3A.35.35,0,0,0,59.32,150.85Zm-5-3.18,0,0a.25.25,0,0,1,0-.07l0,0-.06-.11-.06-.14.09,0h0l.23,0h0l.26,0h0l.41-.78.32.72h.1l-.65,1.22h0v0l0,0h0l0,0h0a1.59,1.59,0,0,1-.13-.13h0l-.12-.13v0a1.34,1.34,0,0,1-.11-.14l0,0,0-.06,0,0Z"/><path class="cls-27" d="M54.35,142.48a10.61,10.61,0,0,1,10,5.38c1.7,3.41,0,6.53-3.81,7a10.61,10.61,0,0,1-10-5.38C48.84,146.05,50.55,142.92,54.35,142.48Zm5.17,9.7c1.28-.26,2-1.05,1.38-2.24-1.12-2.24-4.41-1.73-5-2.93-.22-.43.07-.74.64-.81a2,2,0,0,1,1.16.15l.08.11L58,147l.84-.06-.62-1.55a16.16,16.16,0,0,0-1.85-.08l-.42-.93-.73.05.42.93c-1.35.19-2.06.91-1.5,2,1.18,2.34,4.41,1.75,5.07,3.07.25.5-.13.76-.66.83a3,3,0,0,1-1.42-.12,2.1,2.1,0,0,1-.26-.38c-.06-.1-.23-.43-.23-.44l-.83,0,.63,1.61a7,7,0,0,0,2.3.23l.35.77.75-.05-.36-.79"/><path class="cls-28" d="M64.72,148.78a26.52,26.52,0,0,0-4.88,0,3,3,0,0,1,1.06,1.16c.59,1.19-.1,2-1.38,2.24l.36.79-.75.05-.35-.77a7,7,0,0,1-2.3-.23l-.63-1.61.83,0s.17.34.23.44a2.1,2.1,0,0,0,.26.38,3,3,0,0,0,1.42.12c.53-.07.91-.33.66-.83-.44-.88-2-.91-3.36-1.52a14.6,14.6,0,0,1-3.55-.41,9.21,9.21,0,0,1-2.41-1,6.3,6.3,0,0,0,.61,1.89,10.61,10.61,0,0,0,10,5.38C64,154.43,65.71,151.82,64.72,148.78Z"/><path class="cls-29" d="M55.84,146.88c.08-.2.32-.34.69-.39a2,2,0,0,1,1.16.16l.07.11.28.54.84-.05V147L58,147l-.27-.55-.08-.11a2,2,0,0,0-1.16-.15C56,146.26,55.73,146.52,55.84,146.88Z"/><path class="cls-29" d="M55.55,145.39l.13,0-.42-.93v.3Z"/><path class="cls-29" d="M59.64,152.45c1-.23,1.54-.76,1.46-1.54-.08.65-.69,1.09-1.58,1.27Z"/><path class="cls-29" d="M54.35,142.48c-2.84.33-4.52,2.16-4.47,4.49.1-2.19,1.74-3.88,4.47-4.19a10.6,10.6,0,0,1,10,5.37,5.9,5.9,0,0,1,.66,2.49,5.82,5.82,0,0,0-.66-2.78A10.61,10.61,0,0,0,54.35,142.48Z"/><path class="cls-29" d="M55.85,150.7l.62,1.61a6.92,6.92,0,0,0,2.31.24l.35.77.75-.06-.13-.28-.62,0-.35-.77a7,7,0,0,1-2.3-.23L56,150.7Z"/><path class="cls-29" d="M54,146.82a1.49,1.49,0,0,0,.18.88c1.17,2.35,4.41,1.75,5.07,3.08a.39.39,0,0,1,0,.14.51.51,0,0,0,0-.44c-.66-1.32-3.89-.73-5.07-3.07A1.8,1.8,0,0,1,54,146.82Z"/><path class="cls-30" d="M55.26,144.44l.73-.05.42.93a16.16,16.16,0,0,1,1.85.08l.62,1.55L58,147l-.27-.55-.08-.11a2,2,0,0,0-1.16-.15c-.57.07-.86.38-.64.81.6,1.2,3.89.69,5,2.93.59,1.19-.1,2-1.38,2.24l.36.79-.75.05-.35-.77a7,7,0,0,1-2.3-.23l-.63-1.61.83,0s.17.34.23.44a2.1,2.1,0,0,0,.26.38,3,3,0,0,0,1.42.12c.53-.07.91-.33.66-.83-.66-1.32-3.89-.73-5.07-3.07-.56-1.13.15-1.85,1.5-2Z"/><path class="cls-31" d="M59.21,148.54c-1.22.08-2.46.16-3.69.14a8,8,0,0,0,1.85.69c.89.26,1.66.47,2,1.08a.53.53,0,0,1-.17.76,1.37,1.37,0,0,1-.56.18,3.23,3.23,0,0,1-1.46-.12h0v0a2.37,2.37,0,0,1-.28-.4c0-.08-.15-.28-.2-.39l-.66,0,.57,1.46a6.92,6.92,0,0,0,2.24.22h.06l.34.77.58-.05-.36-.77.1,0a2.86,2.86,0,0,0,1-.36,1.23,1.23,0,0,0,.38-1.76,3.1,3.1,0,0,0-1.6-1.44Z"/><path class="cls-32" d="M53.91,141.59a12.12,12.12,0,0,1,11.43,6.15c2,3.91,0,7.48-4.36,8a12.13,12.13,0,0,1-11.44-6.16C47.59,145.67,49.54,142.09,53.91,141.59Zm6.62,13.24c3.81-.44,5.51-3.56,3.81-7a10.61,10.61,0,0,0-10-5.38c-3.8.44-5.51,3.57-3.81,7a10.61,10.61,0,0,0,10,5.38"/><path class="cls-32" d="M63.87,154.66a6.75,6.75,0,0,1-2.9,1,12.08,12.08,0,0,1-11.36-6.12c-1.36-2.73-.82-5.43,1.4-6.88a6.74,6.74,0,0,1,2.9-1,12.07,12.07,0,0,1,11.36,6.11C66.64,150.51,66.09,153.21,63.87,154.66ZM51.74,143.29c-2,1.3-2.5,3.74-1.27,6.2a10.71,10.71,0,0,0,10.07,5.42,6,6,0,0,0,2.6-.89c2-1.3,2.5-3.74,1.27-6.2a10.7,10.7,0,0,0-10.07-5.42A6.08,6.08,0,0,0,51.74,143.29Z"/><path class="cls-33" d="M65.43,148.12c-.31-.06-.63-.1-.94-.14,1.13,2.41.61,4.76-1.35,6a6,6,0,0,1-2.6.89,10.71,10.71,0,0,1-10.07-5.42,5.76,5.76,0,0,1-.66-2.73,8.31,8.31,0,0,1-.92-.63,6.35,6.35,0,0,0,.72,3.4A12.08,12.08,0,0,0,61,155.65a6.75,6.75,0,0,0,2.9-1C66,153.27,66.59,150.73,65.43,148.12Z"/><path class="cls-13" d="M54.33,105.91h0l0,0h0l.11.07h0l.07,0,1.33.63-.15.66h0l2.12,1,.64,0,.24-1,.28-.08.07,0,.23-.09,0,0,.26-.14.06,0a1.37,1.37,0,0,0,.2-.13l0,0,0,0,.12-.1.06,0,0,0,0,0,.08-.07,0-.05,0,0s0,0,0,0l.1-.12h0v0l.07-.09a.86.86,0,0,0,.07-.1h0a.41.41,0,0,0,.07-.11.36.36,0,0,0,.07-.1h0a.41.41,0,0,0,.07-.11l.06-.11h0l.06-.12a.61.61,0,0,0,0-.12h0l.06-.14,0-.09v0l0,0,.06-.19v0s0,0,0-.08,0-.1,0-.15v-.07c0-.11,0-.21.05-.31v0a.76.76,0,0,1,0-.15v-.06a1.48,1.48,0,0,0,0-.21v0a.81.81,0,0,0,0-.16v-.07a.19.19,0,0,1,0-.08v0a1.43,1.43,0,0,0,0-.22h0l-.06-.17h0l-.06-.15h0l-.06-.12h0l0,0a.43.43,0,0,0,0-.07h0a.18.18,0,0,0-.05-.07l0,0h0l-.1-.11h0l-.13-.13h0l0,0-.19-.15h0l-.35-.24-.34-.23,0,0-.14-.12,0,0a.46.46,0,0,0-.07-.07s0,0,0-.05l0,0-.06-.08v0a.25.25,0,0,1,0-.07v0a.36.36,0,0,1,0-.09v0s0,0,0-.07,0,0,0-.07a.07.07,0,0,0,0,0v-.17s0-.09,0-.14l.06-.21h0c0-.07.05-.13.08-.19h0l.1-.17h0l1.46.68.71,0,.53-2.06L61,97.69l.18-.82-2.12-1-.63,0-.28,1.25c-.11,0-.21,0-.32.06l-.07,0-.29.1,0,0-.25.13-.06,0-.26.17h0l-.06,0-.1.08,0,0-.08.08,0,0h0a1.14,1.14,0,0,0-.11.11l0,0,0,0,0,0-.07.1,0,0v0l-.05.06-.06.09,0,0v0l0,0-.06.1,0,0,0,0v0l-.06.11,0,.06V99l-.05.12s0,0,0,.06l0,0v.05l-.06.18h0a.43.43,0,0,0,0,0,.85.85,0,0,0,0,.17l0,.06c0,.11,0,.21,0,.31v0a.13.13,0,0,0,0,.06s0,.08,0,.12,0,.06,0,.1v.37h0v.05s0,.09,0,.13h0a1.85,1.85,0,0,0,0,.23h0a.25.25,0,0,0,0,.07l0,.09v0l0,.07,0,.07h0a.2.2,0,0,0,0,.08l0,0h0a.33.33,0,0,0,.06.1l0,0h0a.18.18,0,0,0,0,.07l0,.06h0l.1.11h0l0,0,.11.11,0,0h0l.21.16h0a1.94,1.94,0,0,0,.29.21l.25.19.07,0,.1.08.07.06a.08.08,0,0,0,0,0l.09.1,0,0,.09.13h0l.08.16h0l0,.16a.06.06,0,0,1,0,0,.28.28,0,0,1,0,.09v.15c0,.06,0,.12,0,.19a2,2,0,0,1-.07.23h0l-.09.2h0l-.08.11-1.75-.83h-.69l-.57,2.15h0Zm2.24.68,0,0,.28-1,.75.36h0l-.26.13-.05,0-.23.09-.07,0-.28.08Zm2.94-8.24.05,0,.29-.11h.07l-.14.56-.58-.27,0,0C59.34,98.43,59.42,98.38,59.51,98.35Zm-.46,5.37h0l-.2-.14-.3-.21,0,0-.21-.17,0,0-.11-.1,0,0a.52.52,0,0,1-.1-.11h0l0,0-.06-.08,0,0-.06-.1s0,0,0,0a.47.47,0,0,1-.05-.1l0-.07a.3.3,0,0,0,0-.08l0-.1a.24.24,0,0,0,0-.08c0-.07,0-.15-.05-.23s0-.09,0-.14,0,0,0-.05v-.38s0-.06,0-.1a.49.49,0,0,1,0-.12s0-.06,0-.09,0-.21,0-.32l.06-.23a.11.11,0,0,1,0,0h0l.29.19c.12.08.24.16.35.25h0l.2.16,0,0,.13.13h0l.1.12,0,.06,0,.06.06.08,0,0,.06.13h0l.06.15.06.18h0a1.7,1.7,0,0,1,0,.22s0,.07,0,.11a.17.17,0,0,0,0,.07v.42s0,0,0,.06a1.11,1.11,0,0,1,0,.17,1.57,1.57,0,0,1,0,.3,1.89,1.89,0,0,1-.05.23s0,.05,0,.08a.19.19,0,0,0,0,.08h0l0,0Z"/><path class="cls-14" d="M65.71,95.32a1.74,1.74,0,0,0-.11-.18L65.52,95l0-.05-.24-.32h0a3.27,3.27,0,0,0-.24-.27l0,0-.09-.09-.12-.12-.13-.1-.09-.08,0,0-.29-.2h0l0,0a2,2,0,0,0-.25-.14l-.13-.07-2.13-1a2.82,2.82,0,0,1,.38.21l0,0c.12.08.24.16.35.25l.09.07.25.22.09.09c.1.1.2.21.29.32h0l.27.37a1,1,0,0,1,.08.14l.17.27.09.19a2.1,2.1,0,0,1,.13.26l.09.21-.07,0-.05,0a2.2,2.2,0,0,0-.25-.17h0l0,0-.22-.13-.12-.05h0l-2.12-1h0a3.8,3.8,0,0,0-.47-.18A4,4,0,0,0,59,93.28a3.21,3.21,0,0,0-.43.07l-.14,0-.3.08-.16.05-.28.1-.16.06-.3.14-.13.06c-.15.07-.29.15-.43.23h0l-.41.26-.13.09-.2.14a.12.12,0,0,0,0,.05c-.18.13-.36.27-.53.42h0s0,0,0,0l-.38.35,0,0-.09.09-.23.24a.6.6,0,0,1-.08.08.27.27,0,0,1-.07.08l-.18.22a.94.94,0,0,1-.1.1l-.06.08-.15.2-.1.12-.06.08-.14.19-.09.12a.61.61,0,0,1-.07.1l-.12.18a.83.83,0,0,1-.08.12l-.08.12a1.74,1.74,0,0,1-.11.18l-.06.1-.09.16-.1.17,0,.07-.12.21-.09.17,0,0-.13.27-.07.15v0c-.06.12-.11.24-.17.37a.3.3,0,0,1,0,.08h0l-.18.44,0,0h0l-.18.53h0l0,.1c0,.15-.09.3-.14.46a.43.43,0,0,0,0,.05l0,.11c0,.17-.09.34-.13.52l0,.11a1.77,1.77,0,0,1,0,.2c0,.15-.05.31-.08.46s0,.1,0,.15l0,.22s0,0,0,.06l-.06.59v.07c0,.18,0,.35,0,.52a.43.43,0,0,0,0,.16c0,.16,0,.31,0,.46a.31.31,0,0,0,0,.1c0,.18,0,.35.05.53a.06.06,0,0,0,0,0,.69.69,0,0,0,0,.13,2.17,2.17,0,0,0,0,.25c0,.06,0,.12,0,.18s0,.15,0,.23a.29.29,0,0,1,0,.09.14.14,0,0,1,0,.06c.05.17.1.33.16.49h0c0,.13.1.26.16.39s0,0,0,0a.59.59,0,0,0,0,.08l.12.22,0,.07.05.07.1.17,0,.07,0,.06.11.15.06.07,0,0,0,.06.05,0,.07.09.1.09a.3.3,0,0,0,.08.08l0,.05.17.14,0,0h0a2.27,2.27,0,0,0,.25.18h0l.08,0,.16.09.12.06h0l2.13,1a3.44,3.44,0,0,0,.84.27l-.14,0-.14,0-.29.06-.13,0a2.9,2.9,0,0,1-.41.06,4.34,4.34,0,0,1-2.41-.36l2.13,1a4.43,4.43,0,0,0,2.41.36l.41-.07.13,0,.28-.07.15,0,.28-.09.13,0,.4-.15h0l.4-.19.13-.06.28-.16.14-.08.27-.17.13-.08c.12-.09.25-.17.37-.27h0a4,4,0,0,0,.34-.27.39.39,0,0,0,.1-.08l.24-.2h0l0,0,.46-.42a.12.12,0,0,1,.05,0l0,0,.4-.42,0,0a.46.46,0,0,1,.07-.07l.27-.32.06-.07.06-.07.23-.29.07-.09,0,0c.09-.11.17-.23.25-.34l.05-.07h0l.28-.42,0,0,.07-.11.19-.3,0,0,.08-.13.16-.27,0-.06.06-.12c0-.09.1-.18.14-.27a.47.47,0,0,0,0-.1.31.31,0,0,0,0-.1c0-.09.1-.19.14-.28l.06-.12,0-.07.15-.32s0-.09,0-.13l0,0,.21-.51h0c.07-.18.13-.36.2-.55a.14.14,0,0,1,0-.06l0-.1c.05-.17.11-.34.16-.51a.29.29,0,0,1,0-.09v0c.07-.24.13-.48.18-.73a.19.19,0,0,0,0-.07c0-.08,0-.15.05-.23s.08-.44.11-.66a.77.77,0,0,0,0-.15.78.78,0,0,0,0-.14,1.79,1.79,0,0,0,0-.23c0-.14,0-.28.05-.42s0-.21,0-.32,0-.27,0-.4,0-.21,0-.31,0-.26,0-.39,0-.2,0-.3,0-.25,0-.37,0-.11,0-.17l0-.14a1.55,1.55,0,0,0,0-.21c0-.12,0-.24-.07-.35a1.17,1.17,0,0,0,0-.2.3.3,0,0,0,0-.1.88.88,0,0,0,0-.15,2.4,2.4,0,0,0-.12-.38l0-.11-.06-.13a2,2,0,0,0-.11-.26.61.61,0,0,0,0-.12l-.07-.14a1.62,1.62,0,0,0-.1-.18A.31.31,0,0,0,65.71,95.32Zm-11,14.47,0,0-.16-.17-.1-.11-.1-.13a1.71,1.71,0,0,0-.11-.14l-.09-.14s-.07-.11-.11-.17l-.07-.13-.12-.22-.06-.13c-.06-.13-.11-.25-.16-.38v0c-.06-.16-.11-.33-.16-.5s0-.1,0-.14a2,2,0,0,1-.05-.24,1.16,1.16,0,0,1,0-.18,2.17,2.17,0,0,1,0-.25l0-.17L53.2,106v-.09c0-.15,0-.31,0-.47v-.16c0-.17,0-.34,0-.51v-.07l.06-.6a2.7,2.7,0,0,1,0-.28.77.77,0,0,1,0-.15c0-.15,0-.3.08-.46s.05-.21.07-.31.08-.34.13-.52,0-.11,0-.16.09-.31.14-.46a.76.76,0,0,1,0-.11c0-.18.12-.35.18-.52h0l0,0,.18-.45,0-.09c.06-.13.11-.26.18-.39a1,1,0,0,1,.07-.15l.15-.31.09-.16.15-.28.11-.18.15-.25.11-.18.16-.24.12-.18.16-.23.14-.18.15-.21.16-.2.16-.18.18-.21.15-.17.23-.24.14-.14.37-.35.05,0c.18-.16.36-.3.54-.44l.26-.18.13-.1.4-.26h0c.14-.09.28-.16.42-.24l.14-.06.3-.13.16-.07.28-.1.16-.05.3-.07.14,0,.43-.07a4.4,4.4,0,0,1,1,0l.06.07a3.45,3.45,0,0,1,.26.28h0a3.81,3.81,0,0,1,.24.32.75.75,0,0,1,.07.12l.15.24c0,.05,0,.1.08.16s.07.15.11.23l.09.22a1.8,1.8,0,0,1,.08.21c0,.11.07.22.11.33l.06.22s0,.11,0,.17l.06.31c0,.06,0,.12,0,.19l0,.27a3.11,3.11,0,0,1,0,.32c0,.09,0,.17,0,.26s0,.22,0,.34v.27c0,.11,0,.23,0,.35a2.62,2.62,0,0,1,0,.28c0,.12,0,.25,0,.37l0,.32a.51.51,0,0,0,0,.13c0,.19-.06.38-.1.57l-.06.27c0,.21-.1.43-.16.64l0,.11c0,.15-.09.3-.13.45s0,.09,0,.13-.11.33-.17.49h0l-.18.45-.07.15-.12.28a1.3,1.3,0,0,0-.08.17l-.12.25-.09.16c0,.08-.08.16-.13.24l-.09.16c0,.08-.09.16-.14.24a1.09,1.09,0,0,1-.08.15l-.17.27-.07.11c-.08.13-.17.25-.25.37a.21.21,0,0,0,0,.06l-.23.31-.09.11-.2.25-.1.12-.24.28-.08.09-.35.36a.46.46,0,0,1-.07.07c-.13.13-.26.26-.4.38l0,0c-.2.18-.4.34-.6.49h0l-.33.23-.11.07-.24.15L58,109l-.25.14-.1,0-.36.17h0l-.34.14-.12,0-.25.08-.12,0a1.14,1.14,0,0,1-.25.06l-.11,0-.36.05A4.4,4.4,0,0,1,54.73,109.79Z"/><path class="cls-15" d="M64.21,94.92l0,0-.48.34-.1-.08a2.49,2.49,0,0,0-.24-.17h0l-.2-.12-.11,0-.21-.1v0l.08.13.15.25.09.17a2.56,2.56,0,0,1,.11.24,2.44,2.44,0,0,1,.1.24l.09.22c0,.11.07.23.11.35v0a.84.84,0,0,1,0,.17s0,.1,0,.15v0l.06.31c0,.07,0,.13,0,.2l0,.28c0,.11,0,.22,0,.33s0,.18,0,.27,0,.23,0,.35v.28c0,.12,0,.24,0,.36s0,.19,0,.29l0,.38v.09l0,.24,0,.13c0,.2-.06.39-.1.59a2,2,0,0,0,0,.24v0c-.05.21-.1.43-.16.65l0,.11c0,.15-.09.31-.14.49l0,.11-.17.48v0h0c-.05.15-.11.29-.17.44l-.07.15c0,.1-.08.19-.13.29l-.08.17-.12.25-.09.17c0,.09-.09.17-.13.25l-.09.16-.14.25-.09.15-.18.27-.07.12-.26.38,0,0a3.71,3.71,0,0,1-.23.32l-.09.11-.21.26-.1.13a3.33,3.33,0,0,1-.25.28l-.08.09c-.11.13-.23.25-.35.38l-.08.07-.41.38,0,0a7.79,7.79,0,0,1-.63.51l-.34.24-.25.16-.11.07-.13.07-.26.15-.11,0a2.22,2.22,0,0,1-.38.18l-.36.15-.12,0-.26.08-.13,0-.27.06-.12,0-.38,0h-.09l.21.11a3.4,3.4,0,0,0,.78.24l0,.59-.16,0h0c.5.19,1,.36,1.52.53l.07,0,.28-.06.13,0,.28-.09.12,0,.39-.15.39-.19.12-.06.27-.15.13-.08.13-.08.26-.17.38-.26.33-.26.12-.1.22-.19,0,0,.44-.42.08-.08a5,5,0,0,0,.39-.41l0,0,.06-.07.27-.31.06-.07,0-.07.23-.28.1-.13.25-.34,0-.07c.09-.14.19-.27.29-.43l.07-.11.19-.3,0,0,.07-.13.15-.27,0,0,.08-.15.15-.26,0-.09,0-.1.14-.28,0-.12,0-.07c0-.1.09-.21.14-.31l0-.13,0,0c.07-.17.14-.33.2-.49v0l.18-.52,0-.06,0-.09c0-.17.11-.34.15-.51l0,0,0-.07L66,102v-.08a1.74,1.74,0,0,0,0-.22c0-.22.08-.43.11-.65l0-.28a.45.45,0,0,0,0-.11v-.11c0-.14,0-.28,0-.41s0-.21,0-.31,0-.27,0-.4v-.3c0-.13,0-.25,0-.37s0-.2,0-.29,0-.24,0-.36V98a.25.25,0,0,0,0-.08l0-.34c0-.11,0-.23-.07-.34L66.06,97s0,0,0-.07l0-.07c0-.13-.07-.25-.11-.37l0-.11a.73.73,0,0,0,0-.12l-.1-.24,0-.12-.07-.13-.09-.17C65.08,95.34,64.65,95.13,64.21,94.92Z"/><path class="cls-16" d="M64.69,105.68l0-.09,0-.1.14-.28,0-.12,0-.07c0-.1.09-.21.14-.31l0-.13,0,0c.07-.17.14-.33.2-.49v0l.18-.52,0-.06,0-.09c0-.17.11-.34.15-.51l0,0,0-.07L66,102v-.08a1.74,1.74,0,0,0,0-.22c0-.22.08-.43.11-.65l0-.28a.45.45,0,0,0,0-.11v-.11c0-.14,0-.28,0-.41s0-.21,0-.31,0-.27,0-.4v-.3c0-.13,0-.25,0-.37s0-.2,0-.29,0-.24,0-.36V98a.25.25,0,0,0,0-.08s0-.14,0-.24c-.83-.35-1.68-.68-2.53-1l0,.07v0l.06.31c0,.07,0,.13,0,.2l0,.28c0,.11,0,.22,0,.33s0,.18,0,.27,0,.23,0,.35v.28c0,.12,0,.24,0,.36s0,.19,0,.29l0,.38v.09l0,.24,0,.13c0,.2-.06.39-.1.59a2,2,0,0,0,0,.24v0c-.05.21-.1.43-.16.65l0,.11c0,.15-.09.31-.14.49l0,.11-.17.48v0h0c-.05.15-.11.29-.17.44l-.07.15c0,.1-.08.19-.13.29l-.08.17-.12.25-.09.17c0,.09-.09.17-.13.25l-.09.16-.14.25-.09.15-.18.27-.07.12-.26.38,0,0a3.71,3.71,0,0,1-.23.32l-.09.11-.21.26-.1.13a3.33,3.33,0,0,1-.25.28l-.08.09-.21.22c.89.28,1.79.53,2.7.76l0,0,0-.07.23-.28.1-.13.25-.34,0-.07c.09-.14.19-.27.29-.43l.07-.11.19-.3,0,0,.07-.13.15-.27,0,0,.08-.15Z"/><path class="cls-17" d="M58.39,95.89l.63,0-.29,1.25a8.08,8.08,0,0,1,1.43.2l-.54,2.06-.71,0,.15-.73a.88.88,0,0,1,0-.14c-.15-.22-.39-.31-.83-.26a1.23,1.23,0,0,0-1.05,1c-.32,1.61,2.65,1.11,2.05,4.11a3.49,3.49,0,0,1-2.59,2.86l-.24,1.06-.63,0,.23-1a2.66,2.66,0,0,1-1.69-.42l.57-2.15h.69s-.09.46-.11.59a3.42,3.42,0,0,0,0,.52c0,.05.34.3,1.07.22a1.25,1.25,0,0,0,1.08-1c.35-1.78-2.64-1.16-2-4.3a3.07,3.07,0,0,1,2.56-2.59Z"/><path class="cls-19" d="M59,93.28c3.35-.38,5.33,3,4.42,7.56s-4.36,8.57-7.7,9-5.32-3-4.42-7.56S55.63,93.66,59,93.28Zm-2.32,13a3.49,3.49,0,0,0,2.59-2.86c.6-3-2.37-2.5-2.05-4.11a1.23,1.23,0,0,1,1.05-1c.44,0,.68,0,.83.26a.88.88,0,0,0,0,.14l-.15.73.71,0,.54-2.06a8.08,8.08,0,0,0-1.43-.2L59,95.86l-.63,0-.28,1.25a3.07,3.07,0,0,0-2.56,2.59c-.62,3.14,2.37,2.52,2,4.3a1.25,1.25,0,0,1-1.08,1c-.73.08-1-.17-1.07-.22a3.42,3.42,0,0,1,0-.52c0-.13.1-.57.11-.59h-.69l-.57,2.15a2.66,2.66,0,0,0,1.69.42l-.23,1,.63,0,.24-1.06"/><path class="cls-20" d="M54.54,105.07l.35-1.32h.69s-.09.46-.11.59a3.42,3.42,0,0,0,0,.52c0,.05.34.3,1.07.22a1.25,1.25,0,0,0,1.08-1c.35-1.78-2.64-1.16-2-4.3a3.07,3.07,0,0,1,2.56-2.59l.14-.62c-.68-.71-1.34-1.44-2-2.17a12.77,12.77,0,0,0-5,7.88l0,.18C52.33,103.3,53.43,104.19,54.54,105.07Z"/><path class="cls-20" d="M63.25,101.44c-1.14-1-2.25-2.1-3.34-3.19l-.29,1.12-.71,0,.15-.73a.88.88,0,0,1,0-.14c-.15-.22-.39-.31-.83-.26a1.22,1.22,0,0,0-1.05,1c-.32,1.61,2.65,1.11,2.05,4.11a3.49,3.49,0,0,1-2.59,2.86l-.09.39c.76.59,1.53,1.17,2.3,1.75A12.87,12.87,0,0,0,63.25,101.44Z"/><path class="cls-20" d="M58.74,97v.07h.08Z"/><path class="cls-21" d="M60.57,97.41l-.42-.09-.53,2.05h-.27l0,.12.71,0Z"/><path class="cls-21" d="M58.66,98.36h.22a1,1,0,0,0-.64-.08,1.22,1.22,0,0,0-1.05,1c-.32,1.61,2.65,1.11,2.05,4.11a3.49,3.49,0,0,1-2.59,2.86l-.24,1.06h-.19l0,.12.64,0,.24-1a3.5,3.5,0,0,0,2.59-2.86c.6-3-2.38-2.51-2.06-4.11A1.25,1.25,0,0,1,58.66,98.36Z"/><path class="cls-21" d="M56,106.41l0-.09a3.5,3.5,0,0,1-.67,0A3.23,3.23,0,0,0,56,106.41Z"/><path class="cls-21" d="M51.69,102.32c.91-4.56,4.36-8.57,7.7-8.95a4.45,4.45,0,0,1,1.16,0A3.91,3.91,0,0,0,59,93.28c-3.34.38-6.79,4.38-7.7,9-.79,4,.63,7.1,3.26,7.54C52.17,109.09,50.94,106.11,51.69,102.32Z"/><path class="cls-21" d="M55.47,104.33a3.42,3.42,0,0,0,0,.52,1,1,0,0,0,.63.23.57.57,0,0,1-.21-.13,3.13,3.13,0,0,1,0-.52c0-.14.1-.57.1-.59h-.43C55.53,104,55.48,104.24,55.47,104.33Z"/><path class="cls-21" d="M58.73,97.11a3,3,0,0,1,.43,0L59.43,96,59,96Z"/><path class="cls-22" d="M59.21,92.08c3.84-.44,6.1,3.44,5.06,8.66s-5,9.82-8.82,10.25-6.1-3.44-5.06-8.66S55.38,92.51,59.21,92.08Zm-3.52,17.71c3.34-.38,6.79-4.39,7.7-9S62.32,92.9,59,93.28s-6.79,4.38-7.7,9,1.07,7.94,4.42,7.56"/><path class="cls-18" d="M58.23,98.27l-1.11-.8a3.24,3.24,0,0,0-1.57,2.26c-.6,3,2.19,2.55,2,4.14l1.09.93a3.74,3.74,0,0,0,.56-1.4c.6-3-2.37-2.5-2.05-4.11A1.23,1.23,0,0,1,58.23,98.27Z"/><path class="cls-34" d="M59,98.84l-.11.56.71,0,0-.08Z"/><path class="cls-34" d="M57.2,105.17a3.62,3.62,0,0,1-.32-.22,1,1,0,0,1-.39.12c-.73.08-1-.17-1.07-.22a3.42,3.42,0,0,1,0-.52c0-.08,0-.27.07-.41l-.2-.18h-.45l-.3,1.12,2,1.63.06-.24a3.15,3.15,0,0,0,1.29-.62Z"/><path class="cls-23" d="M63.85,99.86c0,.34-.09.69-.16,1a13,13,0,0,1-5.33,8.22,7.23,7.23,0,0,1-.82.44l.33.28.3-.17a14.18,14.18,0,0,0,5.8-9c0-.19.07-.37.1-.55S63.92,100,63.85,99.86Z"/><path class="cls-23" d="M51,102.17A13,13,0,0,1,56.3,94,6.67,6.67,0,0,1,58.57,93l-.33-.44a7.81,7.81,0,0,0-1.75.81,14.22,14.22,0,0,0-5.8,9c0,.26-.1.53-.13.79l.24.23A9,9,0,0,1,51,102.17Z"/><path class="cls-13" d="M225.54,164.26l0,0,.06.07h0l.15.14,0,0,.09.08,1.77,1.43-.47.94h0l2.82,2.29,1,.18.75-1.49h.45l.12,0,.37,0h.09l.44-.11.11,0,.35-.12.07,0,.06,0,.21-.1.11,0,0,0,.11-.06.13-.07.08-.06.08,0,.07,0,.2-.14h0l0,0,.15-.11.14-.12h0l.15-.14.13-.12h0l.14-.14.14-.15h0l.13-.17.13-.15v0h0l.14-.19.08-.12,0-.06,0,0c.06-.09.11-.18.16-.27v0l.06-.12.12-.21a1,1,0,0,1,0-.1l.19-.44v0a1.8,1.8,0,0,0,.08-.21l0-.09.09-.32s0,0,0-.08,0-.15,0-.23,0-.07,0-.1,0-.09,0-.13,0,0,0,0,0-.23,0-.34h0a2.64,2.64,0,0,0,0-.28h0a1.87,1.87,0,0,0,0-.25h0v0c0-.07,0-.14-.05-.2v0a.24.24,0,0,0,0-.08.56.56,0,0,1,0-.12v0l0-.12a.2.2,0,0,0,0-.08v0a2.12,2.12,0,0,0-.11-.21h0a1.43,1.43,0,0,0-.16-.24v0l0,0-.23-.3v0h0c-.14-.18-.29-.35-.44-.51s-.29-.31-.42-.47l0,0-.17-.22,0,0-.07-.12-.06-.11,0,0a1,1,0,0,1-.07-.15v0a.5.5,0,0,1,0-.13v0a.77.77,0,0,1,0-.15v-.14s0-.08,0-.12a.25.25,0,0,1,0-.08,1.29,1.29,0,0,1,.06-.25l.08-.2a1.87,1.87,0,0,1,.16-.28h0a2.35,2.35,0,0,1,.19-.25h0a1.51,1.51,0,0,1,.23-.21h0l0,0,1.93,1.57,1.08.22,1.56-2.9-1.76-1.43.59-1.16-2.83-2.3-.94-.18-.89,1.76a4.18,4.18,0,0,0-.5,0h-.11a3.91,3.91,0,0,0-.48.05h-.07l-.44.09-.09,0c-.15,0-.3.1-.46.16h0a.31.31,0,0,1-.1.05L232,153l-.06,0-.14.08-.08,0,0,0-.21.13,0,0,0,0-.08.05-.16.12,0,0,0,0-.09.07-.13.12,0,0,0,0-.06.06-.12.13-.06.06,0,0,0,0-.12.15-.07.08,0,0,0,0-.12.17a.56.56,0,0,0-.05.08l0,.05a.43.43,0,0,1,0,.07l-.15.25h0l0,.07c-.05.08-.09.16-.13.24l0,.09a4.32,4.32,0,0,0-.19.45l0,.05s0,.06,0,.08a1.34,1.34,0,0,0-.07.18c0,.05,0,.1,0,.15a1.54,1.54,0,0,0-.05.17s0,.09,0,.14,0,0,0,.06l0,.16v0h0a.17.17,0,0,0,0,.07l0,.2v0a2.17,2.17,0,0,0,0,.36v0a.34.34,0,0,1,0,.1c0,.05,0,.11,0,.16v0a.5.5,0,0,1,0,.12s0,.08,0,.12v0c0,.05,0,.09,0,.14a.19.19,0,0,0,0,.07h0l.05.17s0,0,0,.05h0l.06.12a.36.36,0,0,0,0,.09h0v0a1.28,1.28,0,0,0,.11.2v0l0,0a1.37,1.37,0,0,0,.13.2s0,0,0,0l0,0a3.81,3.81,0,0,0,.24.32l0,0v0c.12.15.25.29.37.43l.31.36.08.1.12.16a.76.76,0,0,1,.08.11l.05.07.11.19v0a.85.85,0,0,1,.09.24h0a1.31,1.31,0,0,1,.06.27h0v.25a.2.2,0,0,1,0,.07.59.59,0,0,1,0,.13.9.9,0,0,1-.06.22,1.9,1.9,0,0,1-.1.28,2.43,2.43,0,0,1-.18.32h0a1.71,1.71,0,0,1-.21.26h0l-.15.13-2.33-1.89-1-.24-1.65,3h0Zm3.11,1.85-.05,0,.79-1.45,1,.81h0a3.54,3.54,0,0,1-.44.11l-.09,0-.37.05h-.12l-.45,0Zm7.46-11.29h.07a4,4,0,0,1,.49,0h.11l-.43.79-.76-.62.09,0Zm-2.68,7.89h0l-.25-.28-.36-.42,0,0-.24-.33,0-.06-.13-.2,0,0a2.12,2.12,0,0,1-.11-.21v0a.42.42,0,0,1,0-.1l-.06-.12s0,0,0-.06l-.06-.17s0-.05,0-.08,0-.11,0-.16a.5.5,0,0,0,0-.12.78.78,0,0,0,0-.14.76.76,0,0,0,0-.15v-.13c0-.12,0-.24,0-.36l0-.21s0-.06,0-.09v0a1.89,1.89,0,0,1,.05-.23l0-.13c0-.06,0-.12,0-.18a1.21,1.21,0,0,1,.05-.14l.06-.18a.78.78,0,0,1,0-.14l.19-.45c.05-.11.11-.22.17-.33a.25.25,0,0,1,0-.07v0l.36.4.44.5,0,0a3.55,3.55,0,0,1,.23.31l0,0c.05.08.11.16.15.24v0a1,1,0,0,1,.11.21s0,.07.05.1a.61.61,0,0,0,0,.12s0,.09,0,.14l0,.08.06.21v0a1.87,1.87,0,0,1,0,.25,2.46,2.46,0,0,1,0,.28h0c0,.11,0,.23,0,.35a.88.88,0,0,1,0,.16s0,.07,0,.11,0,.15-.05.23,0,.05,0,.08l-.09.32,0,.09-.09.25-.19.43-.16.32-.06.11-.07.12h0l0,0Z"/><path class="cls-14" d="M246.54,152.57c0-.1-.07-.2-.11-.3s-.05-.16-.07-.24l0-.08a4.87,4.87,0,0,0-.24-.57h0v0c-.08-.17-.17-.34-.26-.5l-.06-.09-.1-.17a2.39,2.39,0,0,1-.13-.21l-.16-.21a1.34,1.34,0,0,0-.11-.14l-.06-.09a4.48,4.48,0,0,0-.36-.4h0s0,0-.05,0-.21-.21-.33-.31l-.17-.15-2.82-2.29c.17.14.34.29.5.45l0,.06c.15.15.29.32.43.49l.11.15.29.42.1.17c.11.19.22.38.32.59h0c.09.22.18.44.26.66s.06.16.08.23.1.31.14.47.06.22.08.32l.09.43.06.36-.09-.11,0-.07c-.1-.12-.2-.24-.31-.35v0l-.05,0-.28-.27-.15-.13h0l-2.83-2.29h0a4.62,4.62,0,0,0-.64-.45,6.09,6.09,0,0,0-2.39-.8c-.23,0-.45-.05-.68-.06h-.7l-.26,0-.46,0-.26,0a4.37,4.37,0,0,0-.5.09l-.23,0-.72.19h0c-.24.07-.47.15-.71.24l-.23.09-.35.13-.1,0c-.32.14-.63.29-1,.45h0l-.07,0q-.35.18-.69.39l-.1.05L230,149c-.15.08-.29.18-.44.27l-.15.1-.13.09-.36.25-.18.13-.12.09-.31.24-.19.15-.12.1-.27.23-.19.15-.14.13-.25.22-.15.14-.17.16-.24.23-.12.12-.2.21-.22.23-.08.08c-.09.09-.17.19-.25.28l-.2.21-.05.06-.29.35c0,.07-.11.13-.17.2l0,0-.38.49-.09.11h0l-.43.6a.43.43,0,0,0,0,.07h0c-.16.24-.32.47-.47.72v0l-.08.13c-.13.21-.26.42-.38.64l0,.07-.08.16c-.13.24-.26.48-.38.72a.8.8,0,0,0-.08.16c0,.09-.09.19-.14.28s-.2.45-.29.67l-.09.21c0,.11-.09.21-.13.32l0,.09q-.17.44-.3.87s0,.07,0,.11c-.08.25-.15.51-.21.76l-.06.24c-.06.24-.1.47-.15.71l0,.14c0,.28-.08.55-.11.81a.15.15,0,0,1,0,.07c0,.07,0,.13,0,.2l0,.39c0,.1,0,.19,0,.28v.61c0,.27,0,.54.06.8h0v0c0,.22.06.43.1.64a.17.17,0,0,1,0,.07s0,.1,0,.15l.09.37,0,.11a.56.56,0,0,0,0,.12l.09.29c0,.05,0,.09,0,.13s0,.07,0,.11.07.17.11.25l.06.14,0,.09s0,.07.05.1l.06.1s0,.11.08.16l.1.17a.86.86,0,0,1,.1.16l.06.08a2.69,2.69,0,0,0,.2.27l.07.09v0c.1.13.2.24.31.36l0,0,.11.09.2.2.16.13h0l2.82,2.29a5.57,5.57,0,0,0,1.17.72H226l-.64-.05a6.8,6.8,0,0,1-3.48-1.44l2.82,2.29a6.8,6.8,0,0,0,3.48,1.44c.21,0,.43,0,.64.05h.89l.46,0,.21,0,.66-.09h0l.68-.14.21,0,.48-.13.24-.07.48-.16.22-.07.65-.26h0l.62-.28a1.51,1.51,0,0,0,.18-.09c.14-.07.29-.13.43-.21h0l0,0,.85-.47.09-.06.06,0q.38-.22.75-.48l0,0,.13-.09c.18-.12.36-.24.53-.37l.11-.08.11-.09c.16-.11.31-.23.46-.35l.14-.11.06,0,.51-.42.09-.08h0l.58-.53,0,0,.15-.14.4-.39a.12.12,0,0,1,0-.05l.16-.17.34-.35.08-.08.14-.16c.11-.12.21-.24.32-.35l.11-.12a1.34,1.34,0,0,1,.11-.14l.31-.37.13-.15.08-.11.33-.42c0-.06.09-.12.14-.17a.25.25,0,0,1,0-.07l.5-.69h0c.18-.25.34-.5.5-.76l.06-.08.08-.13.43-.72.07-.12,0-.05c.19-.34.37-.68.55-1a.54.54,0,0,1,.05-.11l.16-.32c.15-.32.28-.64.41-.95l.09-.22.08-.2.12-.33c.07-.21.15-.42.21-.62s.1-.32.15-.48.12-.4.17-.6.08-.31.11-.47a5.41,5.41,0,0,0,.12-.58c0-.15.06-.3.08-.45s.06-.38.08-.57,0-.18,0-.27a1.48,1.48,0,0,0,0-.21l0-.34c0-.19,0-.37,0-.55v-.32a.75.75,0,0,0,0-.15c0-.09,0-.16,0-.24s0-.42,0-.62,0-.12,0-.18a1.46,1.46,0,0,0,0-.22c0-.14,0-.28-.07-.42l0-.2-.06-.23c0-.11-.05-.22-.07-.32A1.36,1.36,0,0,1,246.54,152.57Zm-21.83,17.66,0,0c-.07-.11-.13-.22-.19-.33l-.1-.19-.11-.24c0-.08-.07-.16-.11-.25s-.05-.16-.08-.23-.07-.2-.1-.3-.05-.15-.07-.23l-.09-.37a2.25,2.25,0,0,0-.05-.22c0-.21-.07-.42-.1-.63v0a7,7,0,0,1-.05-.81,1.69,1.69,0,0,1,0-.23v-.38a2.44,2.44,0,0,0,0-.27l0-.4,0-.26a8,8,0,0,1,.11-.82l0-.14c0-.23.09-.47.14-.71l.06-.24c.07-.25.14-.5.22-.76l0-.11q.14-.44.3-.87c.06-.14.11-.27.16-.41l.09-.21c.09-.22.19-.44.29-.66s.15-.3.22-.44.25-.49.38-.73l.13-.23c.12-.22.25-.43.38-.63l.09-.16.47-.72h0l.05-.07.43-.6.09-.12.41-.52.16-.2.35-.4c.06-.08.13-.15.19-.22l.33-.36.22-.23.33-.33.23-.22.33-.31.25-.22c.1-.1.21-.19.32-.28l.27-.23.32-.25.3-.24.3-.21.36-.26.29-.19.43-.27.26-.16.69-.39.09-.05c.32-.16.65-.31,1-.45l.45-.19.24-.09c.23-.09.46-.16.7-.24h0a7.16,7.16,0,0,1,.73-.19l.22-.05.5-.09.26,0,.46-.05.26,0h.7c.23,0,.46,0,.68.05a6.24,6.24,0,0,1,1.43.36l.08.12a4.11,4.11,0,0,1,.27.51v0a4.87,4.87,0,0,1,.24.57l.06.2c0,.14.09.27.13.41s.05.19.07.28.05.25.07.38a2.2,2.2,0,0,1,.06.37c0,.11,0,.23,0,.35s0,.35,0,.54,0,.22,0,.34V154c0,.16,0,.32,0,.48s0,.2,0,.3,0,.27,0,.41-.05.33-.07.5-.05.27-.07.4-.07.34-.11.51-.06.27-.1.41-.09.34-.15.52l-.12.41c-.06.18-.13.36-.19.55s-.11.3-.17.46a1.54,1.54,0,0,0-.08.19c-.11.27-.23.55-.36.83-.06.12-.12.25-.19.37-.15.31-.3.61-.47.91l-.09.14c-.12.22-.24.42-.37.63l-.12.19c-.14.22-.28.44-.43.66h0c-.14.21-.29.41-.43.61l-.16.21-.29.37-.18.22-.28.33-.18.22c-.1.1-.19.21-.28.31l-.2.21-.29.31-.19.19-.35.34-.15.14-.51.46-.09.07-.45.38-.17.14-.4.3-.2.15-.46.32-.15.11-.66.41a.57.57,0,0,1-.13.08c-.24.15-.49.29-.74.42l0,0c-.36.18-.72.35-1.08.5h0l-.58.23-.19.06-.42.14-.21.06-.41.11-.19.05c-.2,0-.39.09-.59.12h0l-.57.08-.18,0-.4,0h-.78l-.56,0A6.37,6.37,0,0,1,224.71,170.23Z"/><path class="cls-15" d="M244.43,151.42v.06l-.84.35-.12-.17q-.14-.16-.3-.33l0,0-.26-.25-.14-.11-.29-.24,0,0c0,.05.07.22.07.22s.09.29.13.43.05.2.07.3.06.26.08.4.05.25.07.38,0,.25,0,.37,0,.38,0,.57v.07a2.72,2.72,0,0,1,0,.28v.3c0,.16,0,.33,0,.5s0,.2,0,.31,0,.28-.05.43,0,.34-.07.51,0,.28-.07.42-.07.35-.11.52-.07.28-.11.42a5.44,5.44,0,0,1-.15.54c0,.14-.08.29-.13.43s-.12.37-.19.56l-.05.13c0,.11-.08.23-.13.34l-.08.2c-.11.28-.24.56-.37.85l-.16.33,0,.05q-.23.47-.48.93l-.09.15c-.12.21-.25.43-.4.67l-.1.16c-.14.22-.28.44-.43.65l0,0,0,0c-.14.2-.28.39-.43.58l-.15.21-.3.38-.19.23-.28.34-.19.22c-.1.1-.19.21-.29.32l-.2.21-.3.31-.19.2-.36.35-.15.14-.53.47-.08.08-.46.38-.18.14-.41.32-.2.15-.48.33-.15.11-.68.43-.13.08-.76.42-.06,0c-.37.19-.74.37-1.13.53-.2.09-.4.16-.6.24l-.43.15-.2.06-.22.06-.43.12-.19.05c-.21,0-.42.09-.64.12s-.4.06-.6.09h-.19l-.42,0h-.82l-.6-.05-.14,0,.28.23a5.62,5.62,0,0,0,1.08.65l-.17.9h-.31c.69.46,1.38.91,2.08,1.35h.77l.44,0,.2,0,.65-.08.65-.14.2,0,.46-.12.24-.07.21-.07.46-.15c.21-.08.42-.16.66-.27l.6-.26.21-.11.4-.19,0,0,.82-.46.16-.09.73-.47,0,0,.13-.08.51-.37.12-.08.1-.08.45-.35.2-.15.5-.42.1-.08c.19-.17.39-.34.6-.54l.14-.14c.13-.13.27-.25.39-.38l.06-.06.16-.16.33-.34,0,0,.17-.19.32-.34.1-.12.11-.13c.11-.12.21-.25.31-.37l.13-.15.07-.1.33-.42.13-.17,0-.06c.17-.21.32-.43.48-.66l0,0,0,0c.16-.23.32-.47.47-.71l.05-.08.08-.13.42-.7,0-.07.06-.1c.18-.33.36-.67.53-1l.05-.1.15-.32c.15-.32.28-.62.41-.93l.16-.41a1.15,1.15,0,0,0,.06-.17l.06-.15.21-.61c.05-.15.1-.31.14-.46s.11-.39.16-.58.08-.31.11-.46.09-.38.12-.56.06-.3.08-.45.06-.37.08-.55l0-.13s0-.08,0-.12,0-.43,0-.54,0-.35,0-.53v-.45a.41.41,0,0,1,0-.11.49.49,0,0,1,0-.12c0-.2,0-.4,0-.6,0,0,0-.17,0-.17s0-.21,0-.21a2.76,2.76,0,0,0-.06-.4s0-.16,0-.19-.05-.22-.05-.22,0-.19-.07-.28C245.58,152.38,245,151.89,244.43,151.42Z"/><path class="cls-16" d="M241.17,167.74l.1-.12.11-.13c.11-.12.21-.25.31-.37l.13-.15.07-.1.33-.42.13-.17,0-.06c.17-.21.32-.43.48-.66l0,0,0,0c.16-.23.32-.47.47-.71l.05-.08.08-.13.42-.7,0-.07.06-.1c.18-.33.36-.67.53-1l.05-.1.15-.32c.15-.32.28-.62.41-.93l.16-.41a1.15,1.15,0,0,0,.06-.17l.06-.15.21-.61c.05-.15.1-.31.14-.46s.11-.39.16-.58.08-.31.11-.46.09-.38.12-.56.06-.3.08-.45.06-.37.08-.55l0-.13s0-.08,0-.12,0-.22,0-.38c-1.13-.84-2.27-1.65-3.43-2.44v.17c0,.16,0,.33,0,.5s0,.2,0,.31,0,.28-.05.43,0,.34-.07.51,0,.28-.07.42-.07.35-.11.52-.07.28-.11.42a5.44,5.44,0,0,1-.15.54c0,.14-.08.29-.13.43s-.12.37-.19.56l-.05.13c0,.11-.08.23-.13.34l-.08.2c-.11.28-.24.56-.37.85l-.16.33,0,.05q-.23.47-.48.93l-.09.15c-.12.21-.25.43-.4.67l-.1.16c-.14.22-.28.44-.43.65l0,0,0,0c-.14.2-.28.39-.43.58l-.15.21-.3.38-.19.23-.28.34-.19.22c-.1.1-.19.21-.29.32l-.2.21-.3.31-.19.2-.36.35-.15.14-.53.47-.08.08-.46.38-.18.14-.41.32-.2.15-.48.33-.15.11-.4.25c1.24.74,2.49,1.45,3.77,2.12l.06,0,.1-.08.45-.35.2-.15.5-.42.1-.08c.19-.17.39-.34.6-.54l.14-.14c.13-.13.27-.25.39-.38l.06-.06.16-.16.33-.34,0,0,.17-.19Z"/><path class="cls-17" d="M235.34,150.73l.94.18-.88,1.76a12.32,12.32,0,0,1,2.06.84l-1.56,2.9-1.08-.23.49-1s0-.12.06-.22c-.14-.38-.45-.61-1.14-.7a1.92,1.92,0,0,0-2,1.16c-1.07,2.29,3.58,2.64,1.57,6.92a5.43,5.43,0,0,1-5,3.34l-.75,1.49-1-.18.72-1.46a4.21,4.21,0,0,1-2.38-1.26l1.65-3,1,.24s-.3.65-.38.84a4.73,4.73,0,0,0-.26.76c0,.09.39.58,1.52.73a1.92,1.92,0,0,0,2-1.17c1.19-2.54-3.53-2.71-1.43-7.19a4.77,4.77,0,0,1,4.79-2.95Z"/><path class="cls-19" d="M237.18,147c5.16.66,6.88,6.48,3.83,13s-9.71,11.24-14.87,10.58-6.87-6.48-3.83-13S232,146.35,237.18,147Zm-8.29,18.63a5.43,5.43,0,0,0,5-3.34c2-4.28-2.64-4.63-1.57-6.92a1.92,1.92,0,0,1,2-1.16c.69.09,1,.32,1.14.7,0,.1-.05.18-.06.22l-.49,1,1.08.23,1.56-2.9a12.32,12.32,0,0,0-2.06-.84l.88-1.76-.94-.18-.89,1.76a4.77,4.77,0,0,0-4.79,2.95c-2.1,4.48,2.62,4.65,1.43,7.19a1.92,1.92,0,0,1-2,1.17c-1.13-.15-1.48-.64-1.52-.73a4.73,4.73,0,0,1,.26-.76c.08-.19.37-.81.38-.84l-1-.24-1.65,3a4.21,4.21,0,0,0,2.38,1.26l-.72,1.46,1,.18.75-1.49"/><path class="cls-20" d="M226.16,163.07l1-1.84,1,.24s-.3.65-.38.84a4.73,4.73,0,0,0-.26.76c0,.09.39.58,1.52.73a1.92,1.92,0,0,0,2-1.17c1.19-2.54-3.53-2.71-1.43-7.19a4.77,4.77,0,0,1,4.79-2.95l.44-.87c-.75-1.32-1.48-2.66-2.2-4a19.71,19.71,0,0,0-10.38,10c0,.09-.07.18-.11.26C223.5,159.61,224.83,161.35,226.16,163.07Z"/><path class="cls-20" d="M240.58,160.85q-2-3-3.83-6l-.85,1.59-1.08-.23.49-1s0-.12.06-.22c-.14-.38-.45-.61-1.14-.7a1.92,1.92,0,0,0-2,1.16c-1.07,2.29,3.58,2.64,1.57,6.92a5.43,5.43,0,0,1-5,3.34l-.28.54q1.39,1.76,2.8,3.48A19.91,19.91,0,0,0,240.58,160.85Z"/><path class="cls-20" d="M235.44,152.59l0,.08.11,0Z"/><path class="cls-21" d="M238.05,153.81l-.6-.29-1.55,2.89-.41-.09-.08.16,1.08.22Z"/><path class="cls-21" d="M234.82,154.53l.34.07a1.55,1.55,0,0,0-.93-.37,1.92,1.92,0,0,0-2,1.16c-1.07,2.29,3.58,2.64,1.57,6.92a5.43,5.43,0,0,1-5,3.34l-.75,1.49-.29-.06-.08.17,1,.19.75-1.49a5.42,5.42,0,0,0,5-3.34c2-4.28-2.64-4.64-1.57-6.92A1.92,1.92,0,0,1,234.82,154.53Z"/><path class="cls-21" d="M227.85,165.62l.06-.12a5,5,0,0,1-1-.31A4.8,4.8,0,0,0,227.85,165.62Z"/><path class="cls-21" d="M222.9,157.9c3-6.51,9.71-11.25,14.87-10.58a6.66,6.66,0,0,1,1.73.46,6.11,6.11,0,0,0-2.32-.76c-5.16-.67-11.82,4.07-14.87,10.58-2.67,5.72-1.68,10.9,2.1,12.53C221.13,168.23,220.37,163.31,222.9,157.9Z"/><path class="cls-21" d="M227.83,162.31a4.73,4.73,0,0,0-.26.76,1.45,1.45,0,0,0,.86.58,1,1,0,0,1-.27-.28,4.73,4.73,0,0,1,.26-.76c.08-.19.37-.81.38-.85l-.66-.14C228.05,161.82,227.88,162.17,227.83,162.31Z"/><path class="cls-21" d="M235.4,152.67l.64.21.84-1.67-.68-.13Z"/><path class="cls-22" d="M238,145.3c5.91.77,7.88,7.43,4.39,14.88s-11.12,12.89-17,12.13-7.88-7.43-4.39-14.88S232.07,144.54,238,145.3Zm-11.84,25.29c5.16.66,11.82-4.07,14.87-10.58s1.33-12.33-3.83-13-11.82,4.07-14.87,10.58-1.33,12.33,3.83,13"/><path class="cls-18" d="M234.21,154.23l-1.36-1.6a4.94,4.94,0,0,0-3.19,2.81c-2,4.34,2.33,4.64,1.52,7l1.3,1.81a6,6,0,0,0,1.36-1.9c2-4.28-2.64-4.63-1.57-6.92A1.92,1.92,0,0,1,234.21,154.23Z"/><path class="cls-34" d="M235.19,155.39l-.37.79,1.08.23.06-.12Z"/><path class="cls-34" d="M230.12,164.21l-.4-.44a1.92,1.92,0,0,1-.63,0c-1.13-.15-1.48-.64-1.52-.73a4.73,4.73,0,0,1,.26-.76l.26-.59-.23-.33-.69-.16-.86,1.57c.8,1.07,1.6,2.13,2.41,3.19l.17-.34a4.9,4.9,0,0,0,2.16-.47C230.74,164.86,230.42,164.54,230.12,164.21Z"/><path class="cls-23" d="M242.06,158.7c-.18.5-.39,1-.63,1.51-2.26,4.83-6.59,8.9-11,10.35a11.18,11.18,0,0,1-1.4.37l.39.54c.17,0,.34-.1.51-.15,4.83-1.59,9.55-6,12-11.34.12-.26.24-.52.35-.78C242.21,159,242.14,158.86,242.06,158.7Z"/><path class="cls-23" d="M221.89,157.4c2.26-4.83,6.59-8.9,11-10.35a10.16,10.16,0,0,1,3.76-.55l-.34-.78a11.41,11.41,0,0,0-2.92.57c-4.83,1.59-9.55,6-12,11.34-.18.38-.34.76-.49,1.14l.27.43C221.37,158.61,221.61,158,221.89,157.4Z"/><path class="cls-24" d="M223.91,115s0-.06,0-.09v-.06s0,0,0-.08v0s0-.06,0-.08v0s0-.06,0-.08,0,0,0,0a.56.56,0,0,0,0-.12l-1.06-2.65a.56.56,0,0,1,0,.12s0,0,0,0,0,.06,0,.08a.11.11,0,0,1,0,0v.22a.07.07,0,0,1,0,.05s0,.06,0,.09a.43.43,0,0,1,0,.05l0,.12v0a.94.94,0,0,1-.06.15v0l0,.12,0,.06-.06.11,0,0-.08.13,0,0,0,0c0,.06-.09.12-.13.19l-.06.07-.05.06-.57-1.41h0a.34.34,0,0,0-.06-.12s0,0,0,0l-.06-.08,0,0-.08-.09,0,0-.12-.09,0,0-.1-.06,0,0-.13,0,0,0h-.06l-.18-.06-.09,0-.18,0h-.1l-.13,0-.14,0h-1.37l-.31,0h0l-.29,0h-.07l-.32,0-.11,0-.19,0h0l-.32.06h0l-.37.07h0l-.07,0-.32.07-.13,0-.29.07-.09,0h0l-.52.15-.1,0-.55.16h0l0,0-.4.13-.12,0-.38.14-.08,0-.44.17-.11,0-.35.14-.12,0-.07,0h0l-.28.12-.11.05-.45.2-.1,0-.35.16-.15.08-.28.14-.08,0-.07,0-.46.24,0,0-.48.26,0,0-.09.06-.23.13-.15.09-.22.14-.1.06-.05,0-.16.1-.17.11-.15.1-.1.07-.07,0-.12.09-.16.12-.12.09-.06,0a.39.39,0,0,0-.1.08l-.11.08-.16.14-.09.07h0l-.21.2-.2.18h0l0,0-.13.13a.23.23,0,0,1-.07.07l-.1.12,0,0,0,0-.11.14-.05.06-.11.16,0,0h0l0,0a.41.41,0,0,0-.07.11l0,.05-.05.09,0,.05a.47.47,0,0,0-.05.1v0h0l0,.12v0a.36.36,0,0,0,0,.1.06.06,0,0,0,0,0s0,.06,0,.08v0a.17.17,0,0,1,0,.07v0a.17.17,0,0,1,0,.07v0a.64.64,0,0,0,0,.07v0a.42.42,0,0,0,0,.1h0l.26.66.31.75h0l-.15,0-.23,0h0l-.21,0,0,0-.2-.06,0,0-.14-.07-.06,0-.12-.07,0,0-.14-.11,0,0-.1-.09,0,0-.07-.09a.05.05,0,0,0,0,0,.91.91,0,0,1-.07-.14l1.06,2.64a.61.61,0,0,0,.07.14l0,0,.06.09s0,0,0,0l.09.1,0,0,.14.1,0,0,.13.07,0,0,.14.06,0,0h0l.18.06h0l.22.06h0l.18,0H207l.15,0,.15,0h1.57l.36,0h0l.33,0h.09l.38-.06.12,0,.2,0h.06l.23,0,.2,0,.24,0,.15,0h0l.42-.09.06,0,.49-.12h.09l.55-.16.12,0,.62-.19h0l.11,0,.37-.12.17-.06.4-.14.13-.05.51-.19.12,0,.4-.16.17-.07.37-.15.15-.07.48-.21h0l.49-.23.15-.07.35-.17.08,0,.06,0c.2-.09.39-.19.57-.29l.08,0,.5-.28.07,0,0,0,.36-.21.06,0c.14-.08.28-.16.41-.25h0l.12-.09.21-.13.15-.11.2-.13,0,0,.13-.09.15-.11.16-.12.14-.11,0,0,.14-.11.12-.1.18-.15.09-.08h0l.25-.23.23-.21h0a.12.12,0,0,1,0,0l.15-.16.07-.08.12-.13,0,0,0,0c0-.06.09-.11.13-.16l.05-.07.13-.18,0,0h0l0,0a.57.57,0,0,0,.08-.13l0,0,.06-.11,0,0a.61.61,0,0,0,0-.12l0,0h0a1.21,1.21,0,0,0,.05-.14v0l0-.11S223.91,115.05,223.91,115Zm-16.47,4.3.13-.14s0,0,.05,0l.2-.19.24-.21.08-.07.17-.14.1-.08.16-.13.12-.09.16-.12L209,118l.16-.11.15-.11.17-.11,0,0,.43,1h.12l.23.56-.15,0-.2,0-.22,0h-.11l-.34.05-.36,0h0a2,2,0,0,1-.34,0h-1.25a.28.28,0,0,1,.09-.1ZM221,114l-.09.1a.46.46,0,0,1-.07.07,1.59,1.59,0,0,1-.13.13l-.05.06-.2.19-.22.2-.08.07L220,115l-.1.08-.15.12-.12.09-.15.11-.13.09-.15.11-.17.12h0l-.41-1h0l-.1,0-.2-.49.07,0,.22,0,.1,0,.32,0,.36,0h0l.34,0h1.06l.14,0Z"/><path class="cls-25" d="M221,118.1l.05,0,.27-.2.14-.1.06,0,.1-.07,0,0,.09-.07.17-.13.16-.14.12-.1.24-.21.12-.12c-.53-.87-1.06-1.74-1.57-2.62l0,0-.13.14-.06,0-.2.2-.22.2-.11.09-.14.11-.11.09-.14.11-.15.12-.12.09-.14.1-.14.1-.17.12-.16.1-.44-1.08h-.1l-.3-.74.24,0,.22,0,.1,0,.32,0,.38,0h0l.34,0h.11l.22,0h.7c-.45-.79-.89-1.58-1.3-2.39h-.8l-.32,0h0l-.29,0H218l-.32,0-.15,0-.15,0h0l-.32.06h0l-.36.07-.09,0-.32.07-.13,0-.29.07-.08,0h0c-.18,0-.35.09-.52.15l-.1,0-.56.17,0,0-.39.13-.13,0-.37.13-.08,0-.44.17-.11,0-.35.14-.19.08-.21.08-.18.08-.45.2-.1,0-.34.16-.15.08a2.44,2.44,0,0,0-.28.14l-.08,0-.07,0-.46.24,0,0-.48.27-.06,0-.09,0-.22.13-.15.1-.22.13-.1.06-.05,0-.16.1-.16.11-.25.17-.19.13-.16.13-.18.13-.2.16-.17.14-.1.08-.21.19-.2.2-.05,0-.12.14-.07.06-.1.12,0,0,0,0-.11.13,0,.06a.91.91,0,0,0-.11.16l0,0,0,0-.07.11h0a50.45,50.45,0,0,0,2.56,5.09h0l.25,0h.15l.37,0h0l.34,0h.08l.38,0,.32,0h.06l.21,0h0l.2,0,.23,0,.15,0h.05l.41-.09.06,0,.48-.12.09,0,.55-.16.13,0,.6-.19h.05l.11,0,.37-.12.17-.06.4-.14.12,0,.52-.2.11,0,.4-.16.17-.07.36-.15.16-.07.47-.21h0l.49-.23.15-.07.35-.17.08,0,.06,0,.57-.29.07,0,.51-.28.06,0,.05,0,.35-.21.07,0,.4-.25.18-.12.18-.11.18-.13Zm-11,.47h.13l.32.81-.16,0-.16,0-.19,0-.22,0-.11,0-.34,0-.38,0h0l-.35,0h-1.22l-.32,0,.17-.2.1-.1.06-.07.13-.14.06-.06.2-.19.24-.21.08-.07.17-.14.1-.08.17-.13.12-.09a1.09,1.09,0,0,1,.17-.13l.12-.09.17-.11.15-.11.15-.1.21-.13Z"/><path class="cls-26" d="M218.84,119.41l.51-.28.06,0,.05,0,.35-.21.07,0,.4-.25.18-.12.18-.11.06,0-1.53-2.57-.08.06-.16.1-.44-1.08h-.1l-.3-.74h.07c-.45-.72-.9-1.44-1.36-2.15l-.09-.14-.12,0-.09,0-.32.07-.13,0-.29.07-.08,0h0c-.18,0-.35.09-.52.15l-.1,0-.56.17,0,0-.39.13-.13,0-.37.13-.08,0-.44.17-.11,0-.35.14-.19.08-.21.08-.18.08-.45.2-.1,0-.34.16-.15.08a2.44,2.44,0,0,0-.28.14l-.08,0-.07,0-.46.24,0,0-.48.27-.06,0-.09,0-.22.13-.15.1-.22.13-.1.06-.05,0-.16.1-.16.11-.25.17-.19.13-.16.13-.18.13-.15.12c.37.75.75,1.49,1.17,2.22l.06,0a1.09,1.09,0,0,1,.17-.13l.12-.09.17-.11.15-.11.15-.1.21-.13.44,1.11h.13l.32.81-.16,0-.16,0-.19,0-.22,0-.11,0-.25,0a26.4,26.4,0,0,0,2,2.68l.37-.08.06,0,.48-.12.09,0,.55-.16.13,0,.6-.19h.05l.11,0,.37-.12.17-.06.4-.14.12,0,.52-.2.11,0,.4-.16.17-.07.36-.15.16-.07.47-.21h0l.49-.23.15-.07.35-.17.08,0,.06,0,.57-.29Z"/><path class="cls-27" d="M206.76,116.31c2.39-2.21,7.39-4.4,11.17-4.89s4.9.92,2.51,3.13-7.39,4.39-11.17,4.88S204.37,118.52,206.76,116.31Zm11-1.56c.72-.76.62-1.26-.69-1.09-2.49.32-4.46,2.24-5.79,2.41-.48.07-.5-.14-.14-.47a3,3,0,0,1,.94-.63l.14,0,.6-.08.56-.48-1.61.13c-.45.32-1,.69-1.38,1l-1,.11-.48.42,1-.11c-.82.79-.78,1.29.47,1.13,2.6-.33,4.46-2.24,5.93-2.43.55-.07.48.18.15.49a5,5,0,0,1-1.11.78l-.47.1-.5.07-.56.47,1.66-.13a11.76,11.76,0,0,0,1.82-1.27l.83-.09.49-.43-.85.1"/><path class="cls-28" d="M214.84,114.33a7.61,7.61,0,0,1,2.2-.67c1.31-.17,1.41.33.69,1.09l.85-.1-.49.43-.83.09a11.76,11.76,0,0,1-1.82,1.27l-1.66.13.56-.47.5-.07.47-.1a5,5,0,0,0,1.11-.78c.33-.31.4-.56-.15-.49-1.32.17-2.94,1.71-5.13,2.27a26.11,26.11,0,0,1-4.8,2.37,6.42,6.42,0,0,0,2.93.13c3.78-.49,8.78-2.67,11.17-4.88s1.34-3.52-2.14-3.17C217.18,112.41,216,113.4,214.84,114.33Z"/><path class="cls-32" d="M205.76,116.43c2.74-2.53,8.47-5,12.8-5.59s5.62,1,2.88,3.58-8.47,5-12.8,5.59S203,119,205.76,116.43Zm14.68-1.88c2.39-2.21,1.27-3.61-2.51-3.13s-8.78,2.68-11.17,4.89-1.27,3.61,2.51,3.12,8.78-2.67,11.17-4.88"/><path class="cls-33" d="M218.89,111.2c1.35-.06,2.3.18,2.71.69a1.15,1.15,0,0,1,.14,1.16,4.47,4.47,0,0,1-1.21,1.6c-2.4,2.22-7.44,4.43-11.24,4.91-1.77.23-3,0-3.6-.49l-.94.33c.58.55,2,.72,3.88.48,4.29-.55,10-3,12.72-5.56a4.78,4.78,0,0,0,1.3-1.71,1,1,0,0,0-.11-1c-.44-.56-1.63-.79-3.3-.65Z"/><path class="cls-30" d="M208.88,116.07l.48-.42,1-.11c.41-.34.93-.71,1.38-1l1.61-.13-.56.48-.6.08-.14,0a3,3,0,0,0-.94.63c-.36.33-.34.54.14.47,1.33-.17,3.3-2.09,5.79-2.41,1.31-.17,1.41.33.69,1.09l.85-.1-.49.43-.83.09a11.76,11.76,0,0,1-1.82,1.27l-1.66.13.56-.47.5-.07.47-.1a5,5,0,0,0,1.11-.78c.33-.31.4-.56-.15-.49-1.47.19-3.33,2.1-5.93,2.43-1.25.16-1.29-.34-.47-1.13Z"/><path class="cls-31" d="M213.4,115.25c-.39.41-.79.82-1.21,1.19a19.14,19.14,0,0,0,1.87-1,6.54,6.54,0,0,1,2.19-1c.26,0,.42,0,.51.1a.26.26,0,0,1,0,.25.93.93,0,0,1-.28.36,5.17,5.17,0,0,1-1.14.81h0a3.86,3.86,0,0,1-.49.1l-.45.07-.21.17,1.21-.09a12,12,0,0,0,1.77-1.24l0,0L218,115l.14-.12-.79.09.25-.27a1.74,1.74,0,0,0,.39-.54c0-.15,0-.2,0-.22s-.24-.19-1-.1A10.11,10.11,0,0,0,213.4,115.25Z"/><path class="cls-21" d="M217.39,115.22a12.91,12.91,0,0,1-1.82,1.27l-1.15.08-.3.26,1.65-.13a11,11,0,0,0,1.82-1.27l.83-.08.49-.43-.52,0-.18.16Z"/><path class="cls-21" d="M208.88,116.07l.33.26.54,0A2.05,2.05,0,0,1,210,116Z"/><path class="cls-21" d="M207.09,116.57c2.39-2.21,7.39-4.4,11.17-4.88,1.69-.22,2.85-.06,3.4.38-.42-.6-1.66-.85-3.61-.6-3.77.48-8.78,2.67-11.17,4.88-1.32,1.22-1.56,2.2-.88,2.74C205.6,118.52,205.93,117.64,207.09,116.57Z"/><path class="cls-21" d="M210.67,117.35c2.6-.33,4.46-2.24,5.93-2.43h.17c.08-.16,0-.25-.37-.21-1.48.19-3.34,2.1-5.94,2.44a1.93,1.93,0,0,1-.8,0C209.69,117.34,210,117.44,210.67,117.35Z"/><path class="cls-21" d="M218.29,114c.05.2-.11.49-.43.83l.43,0C218.57,114.37,218.59,114.09,218.29,114Z"/><path class="cls-21" d="M212.31,115l-.14,0a3.6,3.6,0,0,0-.94.63c-.31.29-.33.49,0,.49a.92.92,0,0,1,.22-.27,3.37,3.37,0,0,1,.94-.63l.14,0,.6-.08.56-.48-.33-.26-.44.52Z"/></g></g></svg>