<svg xmlns="http://www.w3.org/2000/svg" viewBox="0 0 105.17 64.3"><defs><style>.cls-1{fill:#2d2d2c;}.cls-2{fill:#fccd8e;}</style></defs><title>Asset 49</title><g id="Layer_2" data-name="Layer 2"><g id="Layer_1-2" data-name="Layer 1"><path class="cls-1" d="M79.4,51.17C82.07,48.71,84,46.93,86,45.12c3.11-2.91,6-5.84,2.45-10.38a6.45,6.45,0,0,1-.73-2.91,1.65,1.65,0,0,1,1.27-2,1.74,1.74,0,0,1,2.33,1.37c1.18,6.54,5.14,9.56,11.68,9.54,1.21,0,2.32.53,2.19,2s-1.35,1.66-2.53,1.62c-1.39,0-3.08.3-4.12-.36-4.21-2.67-6.26-.31-9.05,2.66-19.62,20.92-51,23.52-72.53,6.25a8.65,8.65,0,0,1-2-1.75c-2.65-4.09-6.28-5.64-11.06-4.58A4.05,4.05,0,0,1,2,46.41c-1.14-.32-2.24-.86-2-2.33.24-1.25,1.28-1.41,2.37-1.34.51,0,1,0,1.52.09,5.35.54,9.05-1.78,11.19-6.62.58-1.31,1-3,2.79-2.26,1.92.8,1.22,2.5.48,3.9-.64,1.22-1.11,2.76-2.13,3.52-3.37,2.53-1.77,4.28.45,6.4C24.76,55.46,34.5,59.12,45.39,60.3A6.29,6.29,0,0,0,51.06,58c3.32-3.55,5.69-7.75,8.28-11.81,1.84-2.89,3.65-5.81,6.75-7.59,6.39-3.65,13-.13,13.3,7.13C79.46,47.22,79.4,48.7,79.4,51.17ZM68.79,56.69c6.12-2,7.5-4.1,7-10.54-.15-1.92-.33-4-2.47-4.72a6,6,0,0,0-6.1.89,16.69,16.69,0,0,0-2.85,3C61,50.18,58.26,55.43,54.28,60.1c4.88.41,8.22-1.17,10.21-5.33,1.09-2.27,2.38-4.44,3.55-6.68.58-1.1,1.31-2,2.66-1.37s1.17,1.87.66,2.93c-1,2.16-2.18,4.26-3.28,6.39-.16.35-.84.69-.11,1.07C68.13,57.19,68.51,56.84,68.79,56.69Z"/><path class="cls-1" d="M20.2,11.19c-1.52.36-2.26,1.84-3.43,2.78-1,.81-2,1.85-3.23.51s-.3-2.34.67-3.2c1.9-1.66,3.61-3.2,1.28-5.89a1.83,1.83,0,0,1,.56-2.93c1.26-.6,2,.17,2.75,1.23C25,12.58,34,11.82,38.75,2,39.37.72,39.93-.43,41.46.16s1.38,1.91.74,3.19a8,8,0,0,1-.76,1.73c-2.37,2.76-2.81,5.33.32,7.9.89.74,1.47,1.94.18,2.93s-2.18.09-3.23-.79c-1.4-1.16-1.41-4-4.79-2.95s-4.66,2.7-4.09,6.09a8.42,8.42,0,0,1-.15,2.64,1.5,1.5,0,0,1-1.31,1.2A1.45,1.45,0,0,1,26.59,21a19.65,19.65,0,0,1-.4-3.75C26.11,14.39,23.12,11.25,20.2,11.19Z"/><path class="cls-1" d="M73.17,16.54c-.21-1,1.32-3.09-1.44-3.88-2.34-.67-4.51-3.12-6.87.15-.75,1-2.13,2.85-3.67.92-1.37-1.69.27-2.81,1.42-3.71,1.72-1.35,2.55-2.63.82-4.59a7.34,7.34,0,0,1-1-2.43C62,1.85,61.89.64,63.29.14s2.07.33,2.55,1.58c1.11,2.9,2.71,5.4,5.65,6.84,5.34,2.62,10.65,1.09,14.09-4.19C86.34,3.2,87,1.56,88.7,2.48c2,1.09.86,2.83,0,3.86-1.9,2.28-2.4,4.17.14,6.33a1.68,1.68,0,0,1-.25,2.66c-1,.79-1.86.24-2.67-.49-1.29-1.15-1.79-3-4.53-2.38-3.47.83-5,2.27-4.42,5.81a5.75,5.75,0,0,1-.1,1.89c-.19,1.08-.73,2-2,1.95s-1.75-.85-1.75-2C73.18,19.05,73.17,18,73.17,16.54Z"/><path class="cls-2" d="M68.08,56c1.1-2.13,2.26-4.23,3.28-6.39.51-1.06.72-2.3-.66-2.93S68.62,47,68,48.09c-1.17,2.24-2.46,4.41-3.55,6.68-2,4.16-5.33,5.74-10.21,5.33,4-4.67,6.7-9.92,10.06-14.75a16.69,16.69,0,0,1,2.85-3,6,6,0,0,1,6.1-.89c2.14.73,2.32,2.8,2.47,4.72.53,6.44-.85,8.52-7,10.54Z"/></g></g></svg>