<svg width="41" height="14" viewBox="0 0 41 14" fill="none" xmlns="http://www.w3.org/2000/svg">
<path d="M0.100106 7.2C0.100106 7.5 0.200105 7.7 0.400105 7.9C2.60011 9.8 4.7001 11.6 6.9001 13.5C8.0001 14.4 9.50011 12.9 8.50011 11.9C7.10011 10.7 5.70011 9.5 4.20011 8.2C15.8001 8.1 27.4001 8 39.0001 7.9C40.4001 7.9 40.4001 5.7 39.0001 5.7C27.4001 5.8 15.7001 5.9 4.10011 5.9C5.50011 4.7 6.9001 3.5 8.30011 2.3C9.40011 1.4 7.80011 -0.2 6.70011 0.7C4.60011 2.5 2.50011 4.3 0.500106 6C0.00010553 6.5 0.000105899 6.8 0.100106 7.2Z" fill="#8AD4E4"/>
</svg>
