<svg width="102" height="102" viewBox="0 0 102 102" fill="none" xmlns="http://www.w3.org/2000/svg">
<g filter="url(#filter0_d)">
<path d="M92.2027 61.09C97.6136 38.4961 83.684 15.7937 61.0901 10.3828C38.4961 4.97183 15.7937 18.9014 10.3828 41.4953C4.97187 64.0893 18.9014 86.7917 41.4954 92.2026C64.0893 97.6136 86.7917 83.684 92.2027 61.09Z" fill="#FFE1DE"/>
<path d="M51.3796 9.78462C74.5163 9.78462 93.3149 28.4518 93.4464 51.5885C93.4464 51.457 93.4464 51.457 93.4464 51.3256C93.4464 28.0574 74.6478 9.25879 51.3796 9.25879C28.1114 9.25879 9.1814 28.0574 9.1814 51.3256C9.1814 51.457 9.1814 51.457 9.1814 51.5885C9.31286 28.4518 28.1114 9.78462 51.3796 9.78462Z" fill="white"/>
<path d="M86.5133 59.4539C91.0196 40.0033 78.9048 20.5825 59.4542 16.0762C40.0036 11.5699 20.5827 23.6847 16.0764 43.1353C11.5702 62.5859 23.6849 82.0068 43.1355 86.5131C62.5861 91.0193 82.007 78.9046 86.5133 59.4539Z" fill="#DDD6D9"/>
<path d="M83.8498 57.767H76.7511C72.5444 57.767 68.995 54.3491 68.995 50.0109C68.995 45.8043 72.4129 42.2549 76.7511 42.2549H83.8498C88.0565 42.2549 91.6059 45.6728 91.6059 50.0109C91.4744 54.3491 88.0565 57.767 83.8498 57.767Z" fill="#FFFFFC"/>
<path d="M51.3796 82.744C68.7316 82.744 82.7982 68.6774 82.7982 51.3254C82.7982 33.9733 68.7316 19.9067 51.3796 19.9067C34.0275 19.9067 19.9609 33.9733 19.9609 51.3254C19.9609 68.6774 34.0275 82.744 51.3796 82.744Z" fill="#FFF5FC"/>
<path d="M51.3796 20.3011C68.6006 20.3011 82.6667 34.2357 82.7982 51.4568V51.3254C82.7982 33.9728 68.7321 19.9067 51.3796 19.9067C34.027 20.0382 19.9609 33.9728 19.9609 51.3254V51.4568C20.0924 34.3672 34.027 20.3011 51.3796 20.3011Z" fill="#FFFFFC"/>
<path d="M51.3796 77.6174C65.9001 77.6174 77.6714 65.8462 77.6714 51.3257C77.6714 36.8051 65.9001 25.0339 51.3796 25.0339C36.8591 25.0339 25.0879 36.8051 25.0879 51.3257C25.0879 65.8462 36.8591 77.6174 51.3796 77.6174Z" fill="#320405"/>
<path d="M51.3797 74.1993C64.0125 74.1993 74.2535 63.9583 74.2535 51.3255C74.2535 38.6926 64.0125 28.4517 51.3797 28.4517C38.7468 28.4517 28.5059 38.6926 28.5059 51.3255C28.5059 63.9583 38.7468 74.1993 51.3797 74.1993Z" fill="#521F15"/>
<path d="M51.3797 28.7146C63.9997 28.7146 74.122 38.8369 74.2535 51.4569V51.3255C74.2535 38.7054 63.9997 28.4517 51.3797 28.4517C38.7596 28.4517 28.5059 38.7054 28.5059 51.3255V51.4569C28.5059 38.9683 38.7596 28.7146 51.3797 28.7146Z" fill="#833415"/>
<path d="M51.3796 66.049C59.5111 66.049 66.103 59.4572 66.103 51.3257C66.103 43.1942 59.5111 36.6023 51.3796 36.6023C43.2481 36.6023 36.6562 43.1942 36.6562 51.3257C36.6562 59.4572 43.2481 66.049 51.3796 66.049Z" fill="#612015"/>
<path d="M51.3796 36.8652C59.5301 36.8652 66.103 43.4381 66.103 51.4571V51.3257C66.103 43.1752 59.5301 36.6023 51.3796 36.6023C43.2292 36.6023 36.6562 43.1752 36.6562 51.3257V51.4571C36.6563 43.4381 43.2292 36.8652 51.3796 36.8652Z" fill="#8F3216"/>
<path d="M51.3795 58.2928C55.2275 58.2928 58.3469 55.1734 58.3469 51.3255C58.3469 47.4775 55.2275 44.3582 51.3795 44.3582C47.5316 44.3582 44.4122 47.4775 44.4122 51.3255C44.4122 55.1734 47.5316 58.2928 51.3795 58.2928Z" fill="#803215"/>
<path d="M51.3795 44.6211C55.1918 44.6211 58.2154 47.6446 58.3469 51.4569V51.3255C58.3469 47.5132 55.1918 44.3582 51.3795 44.3582C47.5672 44.3582 44.4122 47.5132 44.4122 51.3255V51.4569C44.4122 47.7761 47.5672 44.6211 51.3795 44.6211Z" fill="#A65115"/>
</g>
<defs>
<filter id="filter0_d" x="5.1814" y="9.21631" width="92.265" height="92.1527" filterUnits="userSpaceOnUse" color-interpolation-filters="sRGB">
<feFlood flood-opacity="0" result="BackgroundImageFix"/>
<feColorMatrix in="SourceAlpha" type="matrix" values="0 0 0 0 0 0 0 0 0 0 0 0 0 0 0 0 0 0 127 0"/>
<feOffset dy="4"/>
<feGaussianBlur stdDeviation="2"/>
<feColorMatrix type="matrix" values="0 0 0 0 0 0 0 0 0 0 0 0 0 0 0 0 0 0 0.25 0"/>
<feBlend mode="normal" in2="BackgroundImageFix" result="effect1_dropShadow"/>
<feBlend mode="normal" in="SourceGraphic" in2="effect1_dropShadow" result="shape"/>
</filter>
</defs>
</svg>
