<svg width="128" height="111" viewBox="0 0 128 111" fill="none" xmlns="http://www.w3.org/2000/svg">
<g filter="url(#filter0_d)">
<path opacity="0.26" d="M60.3771 95.5223C82.6378 91.7354 97.6137 70.6197 93.8268 48.359C90.0399 26.0984 68.9242 11.1225 46.6636 14.9094C24.403 18.6962 9.42705 39.8119 13.2139 62.0726C17.0008 84.3332 38.1165 99.3091 60.3771 95.5223Z" fill="#E75205"/>
<path d="M53.5241 90.4464C76.1054 90.4464 94.4112 72.1407 94.4112 49.5594C94.4112 26.9781 76.1054 8.67236 53.5241 8.67236C30.9428 8.67236 12.6371 26.9781 12.6371 49.5594C12.6371 72.1407 30.9428 90.4464 53.5241 90.4464Z" fill="#FFE1DE"/>
<path d="M53.5241 9.0587C76.0603 9.0587 94.2824 27.2808 94.4112 49.7526C94.4112 49.6882 94.4112 49.6238 94.4112 49.5594C94.4112 26.9589 76.1247 8.67236 53.5241 8.67236C30.9236 8.67236 12.6371 26.9589 12.6371 49.5594C12.6371 49.6238 12.6371 49.6882 12.6371 49.7526C12.7015 27.2808 30.988 9.0587 53.5241 9.0587Z" fill="white"/>
<path d="M53.5243 85.2955C72.8696 85.2955 88.552 69.4401 88.552 49.8815C88.552 30.3229 72.8696 14.4675 53.5243 14.4675C34.1791 14.4675 18.4967 30.3229 18.4967 49.8815C18.4967 69.4401 34.1791 85.2955 53.5243 85.2955Z" fill="white"/>
<path d="M78.3041 74.3042C91.9831 60.6252 91.9831 38.4471 78.3041 24.7681C64.6251 11.0891 42.4471 11.0891 28.768 24.7681C15.089 38.4471 15.089 60.6252 28.768 74.3042C42.4471 87.9832 64.6251 87.9832 78.3041 74.3042Z" fill="#F17A00"/>
<path d="M53.5242 82.9777C71.9804 82.9777 86.9421 68.016 86.9421 49.5598C86.9421 31.1036 71.9804 16.1418 53.5242 16.1418C35.068 16.1418 20.1063 31.1036 20.1063 49.5598C20.1063 68.016 35.068 82.9777 53.5242 82.9777Z" fill="#F1AF00"/>
<path d="M53.5243 78.406C69.4556 78.406 82.3705 65.491 82.3705 49.5597C82.3705 33.6283 69.4556 20.7134 53.5243 20.7134C37.5929 20.7134 24.678 33.6283 24.678 49.5597C24.678 65.491 37.5929 78.406 53.5243 78.406Z" fill="#F19E00"/>
<path d="M67.5137 63.5137C75.2333 55.7941 75.2333 43.2782 67.5137 35.5586C59.7941 27.839 47.2782 27.839 39.5586 35.5586C31.839 43.2782 31.839 55.7941 39.5586 63.5137C47.2782 71.2333 59.7941 71.2333 67.5137 63.5137Z" fill="#F18000"/>
<path d="M59.1259 36.4241C62.3619 36.4241 64.9853 33.8008 64.9853 30.5647C64.9853 27.3287 62.3619 24.7053 59.1259 24.7053C55.8898 24.7053 53.2665 27.3287 53.2665 30.5647C53.2665 33.8008 55.8898 36.4241 59.1259 36.4241Z" fill="#D33906"/>
<path d="M59.1259 24.7053C62.3453 24.7053 64.9853 27.3453 64.9853 30.5647C65.0497 27.3453 62.4097 24.7053 59.1259 24.7053C55.9064 24.7053 53.2665 27.3453 53.2665 30.5647C53.2665 27.3453 55.9064 24.7053 59.1259 24.7053Z" fill="#FF7406"/>
<path d="M59.126 36.1663C62.2198 36.1663 64.7279 33.6583 64.7279 30.5645C64.7279 27.4707 62.2198 24.9626 59.126 24.9626C56.0322 24.9626 53.5242 27.4707 53.5242 30.5645C53.5242 33.6583 56.0322 36.1663 59.126 36.1663Z" fill="#FF6706"/>
<path d="M59.126 25.0273C62.2167 25.0273 64.7279 27.5385 64.7279 30.5648C64.7279 27.4741 62.2167 24.9629 59.126 25.0273C56.0354 24.9629 53.5242 27.4741 53.5242 30.5648C53.5886 27.5385 56.0997 25.0273 59.126 25.0273Z" fill="#FF9706"/>
<path d="M59.1261 34.2994C61.1886 34.2994 62.8606 32.6274 62.8606 30.5649C62.8606 28.5023 61.1886 26.8303 59.1261 26.8303C57.0635 26.8303 55.3915 28.5023 55.3915 30.5649C55.3915 32.6274 57.0635 34.2994 59.1261 34.2994Z" fill="#FF9F06"/>
<path d="M59.1261 26.8949C61.1865 26.8949 62.7962 28.569 62.8606 30.565C62.8606 28.5046 61.1865 26.8949 59.1261 26.8949C57.0656 26.8305 55.3915 28.5046 55.3915 30.565C55.4559 28.569 57.13 26.8949 59.1261 26.8949Z" fill="#FFEA06"/>
<path d="M71.2311 32.9472C70.5228 31.6594 69.1707 30.9511 67.7541 31.0155C68.5912 29.9209 68.7843 28.3755 68.076 27.0878C67.1102 25.2849 64.921 24.641 63.1181 25.6068C61.3152 26.5726 60.6713 28.7619 61.6371 30.5648C61.7015 30.6936 61.7659 30.8223 61.8947 30.9511L50.5622 37.0037C49.1457 37.7763 48.6306 39.5148 49.4032 40.9314C50.1759 42.348 51.9144 42.8631 53.331 42.0904L64.6634 36.0378C64.7278 36.1666 64.7922 36.2954 64.8566 36.4242C65.8224 38.2271 68.0116 38.871 69.8145 37.9051C71.4886 36.9393 72.1325 34.7501 71.2311 32.9472Z" fill="#FFF2DD"/>
<path d="M67.8829 31.0797C67.8829 31.1441 67.8185 31.1441 67.8185 31.2085C69.1707 31.0797 70.5228 31.788 71.2311 33.0758V33.0114C70.5228 31.7236 69.235 31.0153 67.8829 31.0797Z" fill="white"/>
<path d="M64.6635 36.1023C64.6635 36.2311 64.7278 36.2955 64.7922 36.3599C64.7922 36.3599 64.7922 36.4242 64.8566 36.4242C64.7922 36.3599 64.7278 36.2311 64.6635 36.1023Z" fill="white"/>
<path d="M61.7016 30.5647C60.8002 28.8262 61.4441 26.637 63.247 25.6711C64.9855 24.7697 67.1747 25.3492 68.1405 27.0877C68.1405 27.0877 68.1405 27.0877 68.1405 27.0233C67.1747 25.2204 64.9855 24.5765 63.1826 25.5424C61.3797 26.5082 60.6714 28.7618 61.7016 30.5647C61.6373 30.5647 61.7016 30.5647 61.7016 30.5647Z" fill="white"/>
<path d="M50.6266 37.0681L61.9591 31.0155C61.9591 30.9511 61.8947 30.9511 61.8947 30.8867L50.5622 36.9393C49.1457 37.712 48.6306 39.4505 49.4032 40.867C49.4032 40.867 49.4032 40.9314 49.4676 40.9314C48.6949 39.5148 49.2744 37.7763 50.6266 37.0681Z" fill="white"/>
<path d="M54.1681 41.5753C54.0393 41.3178 53.7818 41.0602 53.5242 40.9314C53.8462 40.2232 53.9105 39.3861 53.4598 38.6134C53.0091 37.8408 52.2364 37.3257 51.3994 37.2613C51.4638 36.8749 51.4638 36.4886 51.2706 36.1023C50.8199 35.2652 49.7896 34.9433 48.9526 35.394C48.8238 35.4584 48.7594 35.5228 48.695 35.5872C44.3166 31.595 37.6845 30.5648 32.1471 33.5267C25.0643 37.3257 22.4243 46.0826 26.1589 53.1654C29.9578 60.2482 38.7147 62.8881 45.7975 59.1535C51.4638 56.1273 54.2969 49.8815 53.2667 43.8933C53.331 43.8933 53.3954 43.829 53.4598 43.829C54.2969 43.4426 54.6188 42.4124 54.1681 41.5753Z" fill="#BD3B05"/>
<path d="M53.4597 41.1246C53.7173 41.2533 54.0392 41.5753 54.168 41.8328C54.2968 42.026 54.3612 42.2836 54.3612 42.4767C54.3612 42.1548 54.3612 41.8328 54.168 41.5109C53.9748 41.189 53.7817 41.0602 53.5241 40.9314C53.5241 40.9958 53.5241 41.0602 53.4597 41.1246Z" fill="#F15205"/>
<path d="M51.4637 37.5831C52.3008 37.6474 53.1379 38.0982 53.5242 38.9352C53.7174 39.2572 53.7818 39.6435 53.7818 39.9655C53.7818 39.5147 53.7174 39.064 53.5242 38.6777C53.0735 37.905 52.3008 37.3899 51.4637 37.3899C51.4637 37.3899 51.4637 37.5187 51.4637 37.5831Z" fill="#F15205"/>
<path d="M53.2665 44.2151C53.3953 44.9234 53.4596 45.6316 53.4596 46.4043C53.4596 45.6316 53.3953 44.9234 53.2665 44.2151Z" fill="#F15205"/>
<path d="M32.1471 33.8487C37.6846 30.8868 44.3167 31.917 48.6951 35.9092C48.7595 35.8448 48.8883 35.7804 48.9527 35.716C49.7897 35.2653 50.82 35.5872 51.2707 36.4243C51.3995 36.6174 51.4638 36.875 51.4638 37.0682C51.4638 36.7462 51.4638 36.4243 51.2707 36.1667C50.82 35.3297 49.7897 35.0077 48.9527 35.4584C48.8239 35.5228 48.7595 35.5872 48.6951 35.6516C44.3167 31.6595 37.6846 30.6293 32.1471 33.5912C27.2536 36.2311 24.4204 41.2535 24.4848 46.469C24.5492 41.3822 27.318 36.4243 32.1471 33.8487Z" fill="#F15205"/>
<path d="M35.7529 44.2155C35.7529 46.7267 33.7568 48.7227 31.2456 48.7227C28.7345 48.7227 26.7384 46.7267 26.7384 44.2155C26.7384 41.7043 28.7345 39.7083 31.2456 39.7083C33.6924 39.7083 35.7529 41.7043 35.7529 44.2155Z" fill="#AD3105"/>
<path d="M37.4911 37.3254C37.4911 38.5488 36.4609 39.579 35.2375 39.579C34.0141 39.579 32.9839 38.5488 32.9839 37.3254C32.9839 36.102 34.0141 35.0718 35.2375 35.0718C36.4609 35.0718 37.4911 36.102 37.4911 37.3254Z" fill="#AD3105"/>
<path d="M39.2942 41.8327C39.2942 42.541 38.7147 43.1205 38.0064 43.1205C37.2981 43.1205 36.7186 42.541 36.7186 41.8327C36.7186 41.1244 37.2981 40.5449 38.0064 40.5449C38.7147 40.5449 39.2942 41.1244 39.2942 41.8327Z" fill="#AD3105"/>
<path d="M47.6004 37.7763C47.6004 38.227 47.214 38.6133 46.7633 38.6133C46.3126 38.6133 45.9263 38.227 45.9263 37.7763C45.9263 37.3255 46.3126 36.9392 46.7633 36.9392C47.214 36.9392 47.6004 37.3255 47.6004 37.7763Z" fill="#AD3105"/>
<path d="M50.2403 48.6581C50.2403 49.1088 49.854 49.4952 49.4032 49.4952C48.9525 49.4952 48.5662 49.1088 48.5662 48.6581C48.5662 48.2074 48.9525 47.821 49.4032 47.821C49.854 47.821 50.2403 48.2074 50.2403 48.6581Z" fill="#AD3105"/>
<path d="M49.0169 37.7762C49.0169 38.0337 48.8237 38.2269 48.5662 38.2269C48.3086 38.2269 48.1155 38.0337 48.1155 37.7762C48.1155 37.5186 48.3086 37.3254 48.5662 37.3254C48.8237 37.3898 49.0169 37.583 49.0169 37.7762Z" fill="#AD3105"/>
<path d="M48.5018 39.5791C48.5018 39.8367 48.3086 40.0299 48.0511 40.0299C47.7935 40.0299 47.6003 39.8367 47.6003 39.5791C47.6003 39.3216 47.7935 39.1284 48.0511 39.1284C48.373 39.1284 48.5018 39.3216 48.5018 39.5791Z" fill="#AD3105"/>
<path d="M50.6267 68.4255C50.6267 69.7777 49.5321 70.8723 48.1799 70.8723C46.8278 70.8723 45.7332 69.7777 45.7332 68.4255C45.7332 67.0734 46.8278 65.9788 48.1799 65.9788C49.5321 65.9788 50.6267 67.0734 50.6267 68.4255Z" fill="#009D6B"/>
<path d="M48.1799 66.0431C49.5321 66.0431 50.6267 67.1378 50.6267 68.4899C50.6267 68.4899 50.6267 68.4899 50.6267 68.4255C50.6267 67.0734 49.5321 65.9788 48.1799 65.9788C46.8278 65.9788 45.7332 67.0734 45.7332 68.4255C45.7332 68.4255 45.7332 68.4255 45.7332 68.4899C45.7975 67.1378 46.8278 66.0431 48.1799 66.0431Z" fill="#00BFAD"/>
<path d="M52.172 65.9145C53.1321 65.9145 53.9105 65.1362 53.9105 64.176C53.9105 63.2159 53.1321 62.4375 52.172 62.4375C51.2118 62.4375 50.4335 63.2159 50.4335 64.176C50.4335 65.1362 51.2118 65.9145 52.172 65.9145Z" fill="#009D6B"/>
<path d="M52.172 62.5018C53.1378 62.5018 53.9105 63.2745 53.9105 64.2403C53.9749 63.2101 53.2022 62.4374 52.172 62.5018C51.2061 62.4374 50.4335 63.2745 50.4335 64.2403C50.4335 63.2745 51.2061 62.5018 52.172 62.5018Z" fill="#00BFAD"/>
<path d="M61.9591 50.3967C62.9192 50.3967 63.6976 49.6183 63.6976 48.6582C63.6976 47.698 62.9192 46.9197 61.9591 46.9197C60.9989 46.9197 60.2206 47.698 60.2206 48.6582C60.2206 49.6183 60.9989 50.3967 61.9591 50.3967Z" fill="#009D6B"/>
<path d="M61.9591 46.984C62.9249 46.984 63.6976 47.7566 63.6976 48.7225C63.6976 47.6923 62.9249 46.9196 61.9591 46.984C60.9933 46.9196 60.2206 47.7566 60.2206 48.7225C60.2206 47.7566 60.9933 46.984 61.9591 46.984Z" fill="#00BFAD"/>
<path d="M79.1512 58.1884C80.1114 58.1884 80.8897 57.4101 80.8897 56.4499C80.8897 55.4898 80.1114 54.7114 79.1512 54.7114C78.1911 54.7114 77.4127 55.4898 77.4127 56.4499C77.4127 57.4101 78.1911 58.1884 79.1512 58.1884Z" fill="#009D6B"/>
<path d="M79.1512 54.7108C80.117 54.7108 80.8897 55.4834 80.8897 56.4493C80.9541 55.4834 80.117 54.6464 79.1512 54.7108C78.1854 54.6464 77.4127 55.4834 77.4127 56.4493C77.4127 55.4834 78.1854 54.7108 79.1512 54.7108Z" fill="#00BFAD"/>
<path d="M80.954 38.2277C81.9141 38.2277 82.6925 37.4494 82.6925 36.4892C82.6925 35.5291 81.9141 34.7507 80.954 34.7507C79.9938 34.7507 79.2155 35.5291 79.2155 36.4892C79.2155 37.4494 79.9938 38.2277 80.954 38.2277Z" fill="#009D6B"/>
<path d="M80.954 34.7503C81.9198 34.7503 82.6925 35.523 82.6925 36.4888C82.6925 35.523 81.9198 34.6859 80.954 34.7503C79.9881 34.6859 79.2155 35.523 79.2155 36.4888C79.2155 35.523 79.9881 34.7503 80.954 34.7503Z" fill="#00BFAD"/>
<path d="M66.5955 70.0998C66.5955 71.0657 65.8229 71.8383 64.857 71.8383C63.8912 71.8383 63.1185 71.0657 63.1185 70.0998C63.1185 69.134 63.8912 68.3613 64.857 68.3613C65.8229 68.3613 66.5955 69.134 66.5955 70.0998Z" fill="#009D6B"/>
<path d="M64.8566 68.3612C65.8225 68.3612 66.5951 69.1338 66.5951 70.0997C66.5951 69.1338 65.8225 68.2968 64.8566 68.3612C63.8908 68.2968 63.1181 69.1338 63.1181 70.0997C63.0537 69.1338 63.8908 68.3612 64.8566 68.3612Z" fill="#00BFAD"/>
<path d="M52.1072 18.7168C49.9179 19.4251 46.6341 21.2924 45.6039 23.546C44.7024 25.4133 45.4751 27.6669 47.3424 28.5683C49.2097 29.4698 51.4633 28.6971 52.3647 26.8298C53.4594 24.5762 52.8798 20.8416 52.1072 18.7168Z" fill="#00C588"/>
<path d="M51.9143 19.0388C49.7894 19.6827 46.6344 21.55 45.6041 23.6748C44.7027 25.4777 45.4754 27.6669 47.2782 28.5684C49.0811 29.4698 51.2704 28.6972 52.1718 26.8943C53.202 24.7051 52.6869 21.0993 51.9143 19.0388Z" fill="#008C5D"/>
<path d="M35.7529 23.6108C35.6885 25.2206 36.2036 27.7317 37.427 28.9551C38.4572 29.9854 40.1314 29.9854 41.0972 28.9551C42.1274 27.9249 42.1274 26.2508 41.0972 25.285C39.8738 24.0616 37.2982 23.6108 35.7529 23.6108Z" fill="#00C588"/>
<path d="M35.9459 23.804C35.8815 25.3493 36.3966 27.7961 37.5556 29.0195C38.5215 29.9853 40.1312 29.9853 41.1614 29.0195C42.1272 28.0536 42.1272 26.4439 41.1614 25.4137C39.938 24.2547 37.4269 23.804 35.9459 23.804Z" fill="#008C5D"/>
<path d="M28.155 66.2363C28.0906 67.846 28.6057 70.3572 29.8291 71.5806C30.8593 72.6108 32.5334 72.6108 33.4993 71.5806C34.5295 70.5504 34.5295 68.8763 33.4993 67.9104C32.2759 66.687 29.7647 66.1719 28.155 66.2363Z" fill="#00C588"/>
<path d="M28.3481 66.4294C28.2837 67.9748 28.7989 70.4216 29.9579 71.645C30.9237 72.6108 32.5334 72.6108 33.5636 71.645C34.5295 70.6791 34.5295 69.0694 33.5636 68.0392C32.3403 66.8802 29.8935 66.4294 28.3481 66.4294Z" fill="#008C5D"/>
<path d="M55.3913 79.8875C57.0011 79.9518 59.5122 79.4367 60.7356 78.2133C61.7659 77.1831 61.7659 75.509 60.7356 74.5432C59.7054 73.513 58.0313 73.513 57.0654 74.5432C55.8421 75.7666 55.3269 78.3421 55.3913 79.8875Z" fill="#00C588"/>
<path d="M55.5846 79.6933C57.1299 79.7577 59.5767 79.2426 60.8001 78.0836C61.7659 77.1177 61.7659 75.508 60.8001 74.4778C59.8342 73.512 58.2245 73.512 57.1943 74.4778C56.0353 75.7012 55.5202 78.2124 55.5846 79.6933Z" fill="#008C5D"/>
<path d="M77.8632 43.1208L78.5071 42.4769C79.0866 41.8974 80.0525 41.8974 80.6963 42.4769L81.3402 43.1208C81.9197 43.7003 81.9197 44.6661 81.3402 45.31L80.6963 45.9539C80.1168 46.5334 79.151 46.5334 78.5071 45.9539L77.8632 45.31C77.2837 44.6661 77.2837 43.7003 77.8632 43.1208Z" fill="#FF2019"/>
<path d="M70.8447 24.1261L71.4886 23.4822C71.8106 23.1602 72.3901 23.1602 72.7764 23.4822L73.4203 24.1261C73.7422 24.448 73.7422 25.0275 73.4203 25.4139L72.7764 26.0577C72.4545 26.3797 71.875 26.3797 71.4886 26.0577L70.8447 25.4139C70.5228 25.0919 70.5228 24.5124 70.8447 24.1261Z" fill="#FF2019"/>
<path d="M72.519 67.7821L73.1629 67.1382C73.4848 66.8162 74.0643 66.8162 74.4507 67.1382L75.0946 67.7821C75.4165 68.104 75.4165 68.6835 75.0946 69.0699L74.4507 69.7138C74.1287 70.0357 73.5492 70.0357 73.1629 69.7138L72.519 69.0699C72.1327 68.6835 72.1327 68.1684 72.519 67.7821Z" fill="#FF2019"/>
<path d="M68.2692 41.0602L68.9131 40.4163C69.2351 40.0943 69.8146 40.0943 70.2009 40.4163L70.8448 41.0602C71.1667 41.3821 71.1667 41.9616 70.8448 42.3479L70.2009 42.9918C69.879 43.3138 69.2995 43.3138 68.9131 42.9918L68.2692 42.3479C67.8829 41.9616 67.8829 41.3821 68.2692 41.0602Z" fill="#FF2019"/>
<path d="M40.582 73.19L41.2259 72.5461C41.5479 72.2242 42.1274 72.2242 42.5137 72.5461L43.1576 73.19C43.4795 73.512 43.4795 74.0915 43.1576 74.4778L42.5137 75.1217C42.1918 75.4437 41.6123 75.4437 41.2259 75.1217L40.582 74.4778C40.2601 74.0915 40.2601 73.512 40.582 73.19Z" fill="#FF2019"/>
<path d="M42.2562 27.796L42.9001 27.1521C43.222 26.8302 43.8015 26.8302 44.1879 27.1521L44.8317 27.796C45.1537 28.1179 45.1537 28.6974 44.8317 29.0838L44.1879 29.7277C43.8659 30.0496 43.2864 30.0496 42.9001 29.7277L42.2562 29.0838C41.8698 28.6974 41.8698 28.1823 42.2562 27.796Z" fill="#FF2019"/>
<path d="M42.4493 20.0694L43.0932 19.4255C43.4152 19.1036 43.9947 19.1036 44.381 19.4255L45.0249 20.0694C45.3469 20.3914 45.3469 20.9709 45.0249 21.3572L44.381 22.0011C44.0591 22.323 43.4796 22.323 43.0932 22.0011L42.4493 21.3572C42.1274 20.9709 42.1274 20.3914 42.4493 20.0694Z" fill="#FF2019"/>
<path d="M28.7344 29.148L29.3783 28.5042C29.7002 28.1822 30.2797 28.1822 30.666 28.5042L31.3099 29.148C31.6319 29.47 31.6319 30.0495 31.3099 30.4358L30.666 31.0797C30.3441 31.4017 29.7646 31.4017 29.3783 31.0797L28.7344 30.4358C28.4124 30.0495 28.4124 29.47 28.7344 29.148Z" fill="#FF2019"/>
<path d="M56.7437 57.0934L57.3876 56.4495C57.9671 55.87 58.9329 55.87 59.5768 56.4495L60.2207 57.0934C60.8002 57.6729 60.8002 58.6387 60.2207 59.2826L59.5768 59.9265C58.9973 60.506 58.0315 60.506 57.3876 59.9265L56.7437 59.2826C56.1642 58.7031 56.1642 57.7373 56.7437 57.0934Z" fill="#FF2019"/>
</g>
<g filter="url(#filter1_d)">
<path opacity="0.26" d="M106.714 100.018C114.227 100.018 120.317 93.928 120.317 86.4153C120.317 78.9025 114.227 72.8123 106.714 72.8123C99.2011 72.8123 93.1108 78.9025 93.1108 86.4153C93.1108 93.928 99.2011 100.018 106.714 100.018Z" fill="#E75205"/>
<path d="M120.23 86.9229C122 79.4602 117.386 71.9754 109.923 70.2052C102.46 68.435 94.9754 73.0497 93.2052 80.5125C91.435 87.9752 96.0497 95.4599 103.512 97.2301C110.975 99.0003 118.46 94.3856 120.23 86.9229Z" fill="white"/>
<path d="M106.714 95.2311C113.075 95.2311 118.231 90.0746 118.231 83.7136C118.231 77.3526 113.075 72.196 106.714 72.196C100.353 72.196 95.1962 77.3526 95.1962 83.7136C95.1962 90.0746 100.353 95.2311 106.714 95.2311Z" fill="#FFB4B3"/>
<path d="M106.714 93.9989C112.394 93.9989 116.999 89.3941 116.999 83.7137C116.999 78.0333 112.394 73.4285 106.714 73.4285C101.033 73.4285 96.4286 78.0333 96.4286 83.7137C96.4286 89.3941 101.033 93.9989 106.714 93.9989Z" fill="#EFB6B7"/>
<path d="M106.714 92.0082C111.295 92.0082 115.008 88.2947 115.008 83.7137C115.008 79.1328 111.295 75.4192 106.714 75.4192C102.133 75.4192 98.4193 79.1328 98.4193 83.7137C98.4193 88.2947 102.133 92.0082 106.714 92.0082Z" fill="#E6AEA7"/>
<path d="M111.563 84.8563C112.191 82.1806 110.532 79.5019 107.856 78.8733C105.18 78.2447 102.502 79.9042 101.873 82.58C101.244 85.2557 102.904 87.9344 105.58 88.563C108.255 89.1916 110.934 87.532 111.563 84.8563Z" fill="#FF6449"/>
<path d="M107.993 82.0072C108.7 82.0072 109.273 81.4343 109.273 80.7275C109.273 80.0207 108.7 79.4478 107.993 79.4478C107.287 79.4478 106.714 80.0207 106.714 80.7275C106.714 81.4343 107.287 82.0072 107.993 82.0072Z" fill="#EFB6B7"/>
<path opacity="0.2" d="M106.382 92.4822H102.306C101.026 92.4822 99.9359 91.4394 99.9359 90.1123V86.0361C99.9359 84.7564 100.979 83.6663 102.306 83.6663H106.382C107.662 83.6663 108.752 84.709 108.752 86.0361V90.1123C108.752 91.392 107.662 92.4822 106.382 92.4822Z" fill="white"/>
<path opacity="0.2" d="M106.145 91.7237H102.59C101.595 91.7237 100.742 90.918 100.742 89.8752V86.3204C100.742 85.3251 101.547 84.4719 102.59 84.4719H106.145C107.14 84.4719 107.993 85.2777 107.993 86.3204V89.8752C107.993 90.8706 107.14 91.7237 106.145 91.7237Z" fill="white"/>
<path opacity="0.2" d="M112.117 89.6382L109.842 87.3632C109.178 86.6996 109.178 85.5621 109.842 84.8511L112.117 82.576C112.781 81.9125 113.918 81.9125 114.629 82.576L116.904 84.8511C117.568 85.5147 117.568 86.6522 116.904 87.3632L114.629 89.6382C113.918 90.3492 112.781 90.3492 112.117 89.6382Z" fill="white"/>
<path opacity="0.2" d="M112.496 89.1646L110.316 86.9843C109.842 86.5103 109.842 85.7046 110.316 85.2306L112.496 83.0503C112.97 82.5763 113.776 82.5763 114.25 83.0503L116.43 85.2306C116.904 85.7046 116.904 86.5103 116.43 86.9843L114.25 89.1646C113.776 89.6859 112.97 89.6859 112.496 89.1646Z" fill="white"/>
<path opacity="0.2" d="M103.633 81.3912L101.358 79.1161C100.694 78.4525 100.694 77.315 101.358 76.604L103.633 74.329C104.297 73.6654 105.434 73.6654 106.145 74.329L108.42 76.604C109.084 77.2676 109.084 78.4051 108.42 79.1161L106.145 81.3912C105.434 82.1021 104.297 82.1021 103.633 81.3912Z" fill="white"/>
<path opacity="0.2" d="M103.965 80.9172L101.784 78.737C101.31 78.263 101.31 77.4572 101.784 76.9833L103.965 74.803C104.439 74.329 105.244 74.329 105.718 74.803L107.899 76.9833C108.373 77.4572 108.373 78.263 107.899 78.737L105.718 80.9172C105.244 81.4386 104.486 81.4386 103.965 80.9172Z" fill="white"/>
<path d="M107.994 81.723C107.851 81.723 107.709 81.6756 107.567 81.6282C107.046 81.3912 106.809 80.7751 107.046 80.2063L112.354 68.5939C112.544 68.2148 112.923 67.9778 113.302 67.9778H122.023C122.592 67.9778 123.066 68.4518 123.066 69.0205C123.066 69.5893 122.592 70.0633 122.023 70.0633H113.966L108.941 81.0594C108.799 81.486 108.42 81.723 107.994 81.723Z" fill="#E9DA83"/>
<path d="M113.586 69.3997L107.994 81.723C108.373 81.723 108.799 81.486 108.941 81.1068L113.966 70.1106H121.976C122.45 70.1106 122.829 69.8262 122.971 69.3997H113.586Z" fill="#FFBC14"/>
<path d="M107.14 80.3008L112.449 68.6885C112.638 68.3093 113.018 68.0723 113.397 68.0723H122.118C122.307 68.0723 122.544 68.1197 122.687 68.2619C122.497 68.1197 122.26 68.0249 122.023 68.0249H113.302C112.875 68.0249 112.496 68.2619 112.354 68.6411L107.045 80.206C106.809 80.68 106.998 81.2488 107.425 81.5331C107.045 81.2014 106.951 80.7274 107.14 80.3008Z" fill="#FFFFAD"/>
</g>
<defs>
<filter id="filter0_d" x="0" y="0" width="107.072" height="110.379" filterUnits="userSpaceOnUse" color-interpolation-filters="sRGB">
<feFlood flood-opacity="0" result="BackgroundImageFix"/>
<feColorMatrix in="SourceAlpha" type="matrix" values="0 0 0 0 0 0 0 0 0 0 0 0 0 0 0 0 0 0 127 0"/>
<feOffset dy="4"/>
<feGaussianBlur stdDeviation="2"/>
<feColorMatrix type="matrix" values="0 0 0 0 0 0 0 0 0 0 0 0 0 0 0 0 0 0 0.25 0"/>
<feBlend mode="normal" in2="BackgroundImageFix" result="effect1_dropShadow"/>
<feBlend mode="normal" in="SourceGraphic" in2="effect1_dropShadow" result="shape"/>
</filter>
<filter id="filter1_d" x="86" y="67" width="41.4353" height="41.4353" filterUnits="userSpaceOnUse" color-interpolation-filters="sRGB">
<feFlood flood-opacity="0" result="BackgroundImageFix"/>
<feColorMatrix in="SourceAlpha" type="matrix" values="0 0 0 0 0 0 0 0 0 0 0 0 0 0 0 0 0 0 127 0"/>
<feOffset dy="4"/>
<feGaussianBlur stdDeviation="2"/>
<feColorMatrix type="matrix" values="0 0 0 0 0 0 0 0 0 0 0 0 0 0 0 0 0 0 0.25 0"/>
<feBlend mode="normal" in2="BackgroundImageFix" result="effect1_dropShadow"/>
<feBlend mode="normal" in="SourceGraphic" in2="effect1_dropShadow" result="shape"/>
</filter>
</defs>
</svg>
