<svg width="25" height="34" viewBox="0 0 25 34" fill="none" xmlns="http://www.w3.org/2000/svg">
<path d="M12.1998 0.299927C19.3998 0.299927 24.9998 6.69992 23.9998 13.6999C22.7998 21.5999 18.2998 27.6999 12.8998 33.2999C12.3998 33.7999 11.9998 33.9999 11.3998 33.3999C5.99977 27.7999 1.49976 21.6999 0.199762 13.7999C-0.900238 6.59993 4.79976 0.299927 12.1998 0.299927ZM16.6998 12.2999C16.6998 9.69993 14.6998 7.69992 12.0998 7.69992C9.49976 7.69992 7.49976 9.69993 7.49976 12.2999C7.49976 14.7999 9.49976 16.8999 11.9998 16.8999C14.4998 16.8999 16.6998 14.8999 16.6998 12.2999Z" fill="#FCCD8E"/>
</svg>
