<svg width="46" height="46" viewBox="0 0 46 46" fill="none" xmlns="http://www.w3.org/2000/svg">
<path d="M22.9999 45.6001C35.371 45.6001 45.3999 35.5712 45.3999 23.2C45.3999 10.8289 35.371 0.800049 22.9999 0.800049C10.6287 0.800049 0.599854 10.8289 0.599854 23.2C0.599854 35.5712 10.6287 45.6001 22.9999 45.6001Z" fill="#64C18E"/>
<path d="M31.5999 10.8L31.3999 10.6001C30.5999 10.0001 29.5999 9.70005 28.5999 10C27.9999 10.1 27.3999 10.4 26.9999 10.9C27.1999 10.3 27.1999 9.70005 27.0999 9.10005C26.8999 8.10005 26.1999 7.30004 25.2999 6.90004L25.0999 6.80005L24.8999 7.00005C24.2999 7.80005 24.0999 8.80005 24.2999 9.80005C24.4999 10.7 25.0999 11.4 25.7999 11.9C25.8999 11.9 25.8999 12 25.9999 12L25.3999 13C24.3999 14.6 25.2999 15.8 25.3999 15.8L25.8999 15.4C25.8999 15.4 25.1999 14.5 25.9999 13.3L26.5999 12.3C26.6999 12.3 26.6999 12.4 26.7999 12.4C27.5999 12.9 28.4999 13 29.2999 12.8C30.2999 12.6 31.0999 12.0001 31.5999 11.1001V10.8ZM24.7999 9.60005C24.5999 8.90005 24.6999 8.20005 25.0999 7.60005C25.6999 8.00005 26.0999 8.60005 26.2999 9.30005C26.3999 9.90005 26.3999 10.5001 26.0999 11.1001L25.5999 9.20004C25.5999 9.10004 25.4999 9.10005 25.3999 9.10005C25.2999 9.10005 25.2999 9.20005 25.2999 9.30005L25.7999 11.3C25.2999 10.8 24.9999 10.2001 24.7999 9.60005ZM28.9999 12.2C28.2999 12.3 27.6999 12.2 27.0999 11.9L28.1999 11.8C28.2999 11.8 28.3999 11.7001 28.2999 11.6001C28.2999 11.5001 28.1999 11.4 28.0999 11.5L27.0999 11.6001C27.4999 11.2001 27.9999 10.8 28.5999 10.7C29.2999 10.5 29.9999 10.7001 30.5999 11.1001C30.2999 11.6001 29.6999 12 28.9999 12.2Z" fill="white"/>
<path d="M16.8998 7.40005C15.4998 6.20005 13.5998 5.80005 11.8998 6.40005L11.5998 6.50005V6.80006C11.3998 8.60006 12.0998 10.3001 13.4998 11.5001C14.8998 12.7001 16.7998 13.1001 18.4998 12.5001L18.7998 12.4V12.1001C18.9998 10.4001 18.2998 8.60005 16.8998 7.40005ZM16.2998 8.20005C17.2998 9.00005 17.8998 10.3001 17.8998 11.5001L12.7998 7.20005C13.9998 7.00005 15.2998 7.30005 16.2998 8.20005ZM12.5998 7.70005L15.8998 10.4L14.2998 10.8001C14.2998 10.8001 14.2998 10.8001 14.1998 10.8001C13.1998 10.0001 12.5998 8.90005 12.5998 7.70005ZM14.6998 11.2001L16.1998 10.9L17.2998 11.8001C16.4998 11.9001 15.5998 11.7001 14.6998 11.2001Z" fill="white"/>
<path d="M28.2999 16.5C26.8999 16.5 25.5999 16.8 24.3999 17.4C22.7999 15.7 20.4999 14.6 17.9999 14.5C13.2999 14.5 9.49986 18.1 9.19986 22.7H7.09985V23.2C7.09985 28.9 9.99986 34.1 14.8999 37V40.1L30.9999 40.2V37.1C35.8999 34.3 38.9999 29.1 38.9999 23.4V22.9H36.6999C35.5999 19.1 32.1999 16.5 28.2999 16.5ZM28.2999 17.6C31.5999 17.6 34.4999 19.8 35.4999 22.9H33.4999C32.5999 20.8 30.4999 19.5 28.1999 19.5C27.3999 19.5 26.5999 19.7 25.8999 20C25.6999 19.4 25.2999 18.9 24.9999 18.4C26.0999 17.8 27.1999 17.6 28.2999 17.6ZM26.5999 22.8C26.5999 22.2 26.4999 21.5 26.2999 20.9C26.8999 20.6 27.4999 20.5 28.1999 20.5C29.8999 20.5 31.3999 21.4 32.1999 22.8H26.5999ZM17.8999 15.6C21.8999 15.6 25.1999 18.8 25.4999 22.8H23.4999C23.1999 19.9 20.7999 17.6 17.7999 17.6C14.7999 17.6 12.3999 19.8 12.0999 22.7H10.0999C10.5999 18.7 13.8999 15.6 17.8999 15.6ZM20.5999 22.8C20.3999 21.5 19.1999 20.6 17.8999 20.6C16.5999 20.6 15.3999 21.5 15.1999 22.8H13.2999C13.5999 20.5 15.5999 18.7 17.8999 18.8C20.2999 18.8 22.1999 20.6 22.4999 22.9L20.5999 22.8ZM19.4999 22.8H16.3999C16.5999 22.2 17.1999 21.7 17.9999 21.7C18.5999 21.6 19.1999 22.1 19.4999 22.8ZM15.8999 39V37L29.7999 37.1V39H15.8999ZM30.5999 36.1L15.0999 36C12.1999 34.2 9.99986 31.5 8.89986 28.3L36.7999 28.5C35.6999 31.6 33.4999 34.3 30.5999 36.1ZM37.1999 27.4L8.59985 27.2C8.29985 26.1 8.09985 25 8.09985 23.8L37.7999 24C37.6999 25.2 37.4999 26.3 37.1999 27.4Z" fill="white"/>
</svg>
