<svg width="18" height="19" viewBox="0 0 18 19" fill="none" xmlns="http://www.w3.org/2000/svg">
<path d="M17.6163 16.3273C15.5754 14.2864 15.6789 14.39 13.638 12.349C13.7454 12.2416 13.7454 12.2416 13.8529 12.1342C16.3234 8.69689 15.4641 3.86316 12.0268 1.39258C10.3081 0.211001 8.37463 -0.21867 6.33372 0.103579C4.29281 0.425829 2.57414 1.49999 1.39256 3.21866C0.210979 4.93732 -0.218667 6.87081 0.103582 8.91172C0.425831 10.9526 1.49999 12.6713 3.21865 13.8529C4.50765 14.8196 6.1189 15.2493 7.62273 15.2493C8.05239 15.2493 8.48204 15.2493 8.9117 15.1419C9.98587 14.927 10.9526 14.6048 11.812 13.9603C13.8529 16.0012 13.8567 16.0051 15.8976 18.046C16.9718 19.2275 18.7979 17.5089 17.6163 16.3273ZM8.58947 13.9603C6.87081 14.2825 5.15215 13.8529 3.86315 12.8861C2.46674 11.9194 1.49997 10.4155 1.28514 8.69689C0.962887 6.97823 1.39255 5.25956 2.3593 3.97057C3.32605 2.57415 4.8299 1.60741 6.54856 1.39258C6.87081 1.28516 7.30048 1.28516 7.62273 1.28516C8.91172 1.28516 10.2007 1.71483 11.3823 2.46674C14.2825 4.50765 14.927 8.48205 12.8861 11.3823C12.8861 11.4897 12.7787 11.4897 12.6713 11.5971C11.8119 11.3823 10.9526 12.2416 11.06 13.101C10.3081 13.4232 9.4488 13.8529 8.58947 13.9603Z" fill="#D7D7D7"/>
</svg>
