<svg width="84" height="84" viewBox="0 0 84 84" fill="none" xmlns="http://www.w3.org/2000/svg">
<path d="M41.6 83.7C64.575 83.7 83.2 65.0751 83.2 42.1C83.2 19.125 64.575 0.5 41.6 0.5C18.6249 0.5 0 19.125 0 42.1C0 65.0751 18.6249 83.7 41.6 83.7Z" fill="#EAEAEA"/>
<path d="M41.5999 77.4999C61.1508 77.4999 77 61.6508 77 42.0999C77 22.5491 61.1508 6.69995 41.5999 6.69995C22.0491 6.69995 6.19995 22.5491 6.19995 42.0999C6.19995 61.6508 22.0491 77.4999 41.5999 77.4999Z" fill="#64C18E"/>
<path d="M19.6 46.4C19.8 46.3 19.7 46.1 19.8 45.9C20.2 44.4 21.5 43.2 23 43C24.2 42.8 25.2 43.4 25.9 44.4C27.7 46.9 29.5 49.3 31.3 51.8C32.1 52.9 32.9 54 33.7 55.1C34.6 52.8 35.8 50.6 37 48.5C41.3 41.3 46.1 34.6 51.3 28.1C53.4 25.5 55.6 22.9 58.2 20.7C58.9 20.1 59.7 19.5 60.7 19.1C62.6 18.3 65 19.4 65.4 21.4C65.6 22.3 65.3 23.1 64.6 23.6C61.8 25.7 59.4 28.3 57.2 31C49.9 40 43.9 49.8 38.9 60.2C38.6 60.9 38.3 61.5 38 62.2C37.5 63.4 36.8 64.3 35.4 64.5C35.4 64.5 35.4 64.5 35.4 64.6C35 64.6 34.7 64.6 34.3 64.6C34.2 64.5 34.1 64.5 33.9 64.5C32.4 64.1 31.1 63.3 30.2 62.1C26.9 57.8 23.6 53.4 20.3 49C20 48.6 19.8 48.1 19.6 47.5C19.6 47.4 19.6 47.2 19.5 47.1C19.6 46.8 19.6 46.6 19.6 46.4Z" fill="#EAEAEA"/>
</svg>
