<svg width="27" height="32" viewBox="0 0 27 32" fill="none" xmlns="http://www.w3.org/2000/svg">
<path d="M13.3519 14.6868C15.2796 14.6868 16.8218 14.0121 18.1712 12.6627C19.5206 11.3133 20.1953 9.6747 20.1953 7.84338C20.1953 5.91567 19.5206 4.3735 18.1712 3.0241C16.8218 1.6747 15.1832 1 13.3519 1C11.4242 1 9.88202 1.6747 8.53262 3.0241C7.18322 4.3735 6.50854 6.01205 6.50854 7.84338C6.50854 9.77109 7.18322 11.3133 8.53262 12.6627C9.88202 14.0121 11.5206 14.6868 13.3519 14.6868Z" stroke="white" stroke-width="1.8348" stroke-miterlimit="10"/>
<path d="M25.4 24.0362C25.4 23.4578 25.3037 22.8795 25.2073 22.2048C25.1109 21.5301 24.9181 20.9518 24.7253 20.3735C24.5326 19.7952 24.2434 19.2169 23.9542 18.6386C23.6651 18.0602 23.2796 17.5783 22.7976 17.1928C22.3157 16.8072 21.8338 16.4217 21.1591 16.2289C20.5808 15.9398 19.8097 15.8434 19.135 15.8434C18.8458 15.8434 18.5567 15.9398 17.9784 16.3253C17.6892 16.5181 17.2073 16.8072 16.8217 17.0964C16.4362 17.2892 15.9542 17.5783 15.2795 17.7711C14.7012 17.9639 14.0265 18.0603 13.4482 18.0603C12.8699 18.0603 12.1952 17.9639 11.6169 17.7711C11.0386 17.5783 10.4603 17.3856 10.0747 17.0964C9.68918 16.8072 9.20727 16.6145 8.91812 16.3253C8.3398 15.9398 8.05063 15.8434 7.76148 15.8434C6.99039 15.8434 6.31569 15.9398 5.73737 16.2289C5.15906 16.5181 4.58077 16.8072 4.09884 17.1928C3.7133 17.5783 3.32774 18.0602 2.9422 18.6386C2.65304 19.2169 2.3639 19.7952 2.17113 20.3735C1.97836 20.9518 1.88197 21.5301 1.6892 22.2048C1.59281 22.8795 1.49642 23.4578 1.49642 24.0362C1.49642 24.6145 1.40002 25.1928 1.40002 25.6747C1.40002 27.1205 1.88195 28.3735 2.84581 29.241C3.80966 30.1084 4.96631 30.5904 6.50848 30.5904H20.1952C21.641 30.5904 22.894 30.1084 23.8579 29.241C24.8217 28.3735 25.3037 27.1205 25.3037 25.6747C25.4 25.1928 25.4 24.6145 25.4 24.0362Z" stroke="white" stroke-width="1.8348" stroke-miterlimit="10"/>
</svg>
