<svg width="98" height="97" viewBox="0 0 98 97" fill="none" xmlns="http://www.w3.org/2000/svg">
<path d="M49 96C75.1783 96 96.4 74.7782 96.4 48.5999C96.4 22.4217 75.1783 1.19995 49 1.19995C22.8217 1.19995 1.59998 22.4217 1.59998 48.5999C1.59998 74.7782 22.8217 96 49 96Z" stroke="#64C18E" stroke-width="1.6457" stroke-miterlimit="10"/>
<path d="M48.6 42.7999C53 42.7999 56.8 41.1999 59.9 38.0999C63 34.9999 64.6 31.1999 64.6 26.7999C64.6 22.3999 63 18.5999 59.9 15.4999C56.8 12.3999 53 10.7999 48.6 10.7999C44.2 10.7999 40.4 12.3999 37.3 15.4999C34.2 18.5999 32.6 22.3999 32.6 26.7999C32.6 31.1999 34.2 34.9999 37.3 38.0999C40.4 41.1999 44.2 42.7999 48.6 42.7999Z" fill="#64C18E"/>
<path d="M76.5 64.4999C76.4 63.1999 76.2 61.7999 76 60.2999C75.7 58.7999 75.4 57.3999 75 56.0999C74.6 54.7999 74 53.3999 73.3 52.1999C72.6 50.8999 71.7 49.6999 70.7 48.7999C69.7 47.7999 68.4 46.9999 67 46.3999C65.5 45.7999 63.9 45.4999 62.2 45.4999C61.5 45.4999 60.9 45.7999 59.6 46.5999C58.8 47.0999 57.9 47.6999 56.9 48.2999C56 48.8999 54.9 49.3999 53.4 49.7999C52 50.2999 50.5 50.4999 49.1 50.4999C47.7 50.4999 46.2 50.2999 44.8 49.7999C43.3 49.2999 42.2 48.7999 41.3 48.2999C40.3 47.6999 39.4 47.0999 38.6 46.5999C37.3 45.7999 36.7 45.4999 36 45.4999C34.3 45.4999 32.7 45.7999 31.2 46.3999C29.7 46.9999 28.5 47.7999 27.4 48.7999C26.4 49.6999 25.5 50.8999 24.8 52.1999C24.1 53.4999 23.5 54.7999 23.1 56.0999C22.7 57.3999 22.3 58.7999 22.1 60.2999C21.8 61.7999 21.7 63.1999 21.6 64.4999C21.5 65.7999 21.5 67.0999 21.5 68.3999C21.5 71.8999 22.6 74.6999 24.8 76.6999C26.9 78.6999 29.8 79.7999 33.2 79.7999H65C68.4 79.7999 71.3 78.7999 73.4 76.6999C75.6 74.5999 76.7 71.7999 76.7 68.3999C76.6 67.0999 76.6 65.7999 76.5 64.4999Z" fill="#64C18E"/>
</svg>
